<svg width="500" height="500" viewBox="0 0 500 500" fill="none" xmlns="http://www.w3.org/2000/svg">
<path d="M11.3165 429.873L11.5562 429.713H11.1167L11.3165 429.873Z" fill="#DCDCDC"/>
<path d="M344.233 111.828H243.113V184.143H344.233V111.828Z" fill="#B4C6E0"/>
<path d="M339 117.023H237.88V189.337H339V117.023Z" fill="white"/>
<path d="M339 190.136H237.88C237.44 190.136 237.08 189.777 237.08 189.337V117.023C237.08 116.583 237.44 116.223 237.88 116.223H339C339.44 116.223 339.8 116.583 339.8 117.023V189.337C339.8 189.777 339.44 190.136 339 190.136ZM238.678 188.538H338.202V117.822H238.678V188.538Z" fill="black"/>
<path d="M276.313 177.751C276.873 185.902 278.712 201.164 286.702 202.482C303.442 205.279 319.263 197.209 322.9 189.058L309.715 188.898C309.715 188.898 309.395 175.434 309.275 171.039C309.235 169.321 307.677 167.963 305.84 168.003C304.002 168.043 302.643 169.042 302.563 171.199L301.605 188.898V170.32C301.803 168.083 300.445 166.085 298.488 165.885C296.57 165.686 294.533 167.284 294.573 169.561L293.773 188.898L293.413 170.44C293.413 167.603 292.135 166.005 290.178 165.885C288.22 165.766 286.262 167.124 286.382 170.001L286.103 188.818C285.103 184.703 284.665 183.585 283.067 175.434C282.387 171.958 280.828 170.84 278.632 171.319C276.473 171.838 276.035 173.636 276.313 177.672V177.751Z" fill="#82C6AE"/>
<path d="M298.168 167.523C298.208 167.523 298.288 167.523 298.328 167.523C298.967 167.603 299.367 168.043 299.527 168.282C299.887 168.802 300.047 169.481 299.967 170.2C299.967 170.24 299.967 170.32 299.967 170.36V188.938C300.007 189.817 300.685 190.496 301.565 190.536C301.565 190.536 301.565 190.536 301.605 190.536C302.443 190.536 303.162 189.857 303.202 189.018L304.162 171.279C304.202 170.32 304.522 169.641 305.88 169.641H305.92C306.878 169.641 307.637 170.28 307.677 171.119C307.797 175.474 308.117 188.858 308.117 188.978C308.117 189.857 308.835 190.536 309.715 190.536L320.103 190.656C315.907 196.209 305.6 201.483 293.573 201.483C281.548 201.483 289.138 201.283 286.942 200.924C282.067 200.125 278.832 191.855 277.872 177.631C277.593 173.236 278.272 173.077 278.952 172.917C279.15 172.877 279.35 172.837 279.55 172.837C279.87 172.837 280.908 172.837 281.508 175.754C282.747 181.986 283.307 184.144 283.945 186.661C284.145 187.42 284.345 188.259 284.585 189.218C284.745 189.937 285.423 190.456 286.143 190.456C286.862 190.456 286.262 190.456 286.302 190.456C287.102 190.376 287.7 189.697 287.74 188.898L288.02 170.08C288.02 170.08 288.02 170.04 288.02 170C288.02 169.161 288.18 168.522 288.62 168.083C288.98 167.723 289.458 167.523 289.978 167.523C290.497 167.523 290.058 167.523 290.138 167.523C291.657 167.643 291.855 169.401 291.855 170.48C291.855 170.48 291.855 170.48 291.855 170.52L292.215 188.978C292.215 189.857 292.935 190.536 293.813 190.536C294.653 190.536 295.372 189.857 295.412 189.018L296.21 169.681C296.21 169.681 296.21 169.641 296.21 169.601C296.21 168.882 296.53 168.402 296.81 168.122C297.21 167.723 297.728 167.483 298.208 167.483L298.168 167.523ZM298.168 165.925C296.33 165.925 294.533 167.483 294.573 169.641L293.773 188.978L293.413 170.52C293.413 167.683 292.135 166.085 290.178 165.965C290.098 165.965 290.018 165.965 289.938 165.965C288.1 165.965 286.302 167.323 286.382 170.08L286.103 188.898C285.103 184.783 284.665 183.664 283.067 175.514C282.467 172.557 281.268 171.279 279.55 171.279C277.832 171.279 278.952 171.279 278.592 171.399C276.433 171.918 275.995 173.716 276.275 177.751C276.833 185.902 278.672 201.164 286.662 202.482C288.98 202.882 291.297 203.041 293.533 203.041C307.557 203.041 319.743 196.09 322.86 189.018L309.675 188.858C309.675 188.858 309.355 175.394 309.235 170.999C309.195 169.321 307.717 167.963 305.88 167.963H305.8C303.922 168.003 302.603 169.001 302.523 171.159L301.565 188.858V170.28C301.763 168.043 300.405 166.045 298.448 165.845C298.328 165.845 298.208 165.845 298.128 165.845L298.168 165.925Z" fill="black"/>
<path d="M216.745 236.881C216.745 236.881 246.43 209.792 289.459 201.962C336.204 193.492 366.489 217.944 389.98 240.037L432.01 220.899L398.01 297.809C398.01 297.809 366.129 274.716 352.265 264.529C338.84 254.701 320.182 242.394 294.692 254.501C262.29 269.882 213.829 297.809 213.829 297.809L216.785 236.881H216.745Z" fill="#2760AD"/>
<path d="M308.037 201.842C324.219 201.842 339.36 205.958 354.302 214.387C367.727 221.979 379.314 232.207 388.862 241.196C389.182 241.476 389.54 241.636 389.94 241.636C390.34 241.636 390.38 241.596 390.62 241.476L428.815 224.056L397.292 295.332C390.66 290.497 365.09 271.959 353.144 263.211C342.995 255.779 330.89 247.827 315.509 247.827C308.437 247.827 301.165 249.586 293.894 253.022C266.047 266.246 225.854 288.979 215.427 294.932L218.184 237.601C220.02 236.002 226.972 230.169 237.68 223.697C249.227 216.704 267.645 207.516 289.619 203.52C295.812 202.402 301.964 201.842 307.917 201.842H308.037ZM308.037 200.244C302.164 200.244 295.972 200.804 289.459 201.962C246.43 209.752 216.745 236.881 216.745 236.881L213.789 297.809C213.789 297.809 262.29 269.882 294.652 254.501C302.204 250.904 309.155 249.466 315.549 249.466C330.73 249.466 342.795 257.617 352.225 264.529C366.089 274.716 397.97 297.809 397.97 297.809L431.97 220.901L389.94 240.037C369.724 221.019 344.434 200.244 307.997 200.244H308.037Z" fill="black"/>
<path d="M246.35 236.841C246.35 236.841 245.99 284.466 216.984 315.907C184.782 350.827 145.588 356.061 113.347 356.021L95.7673 398.731L68 319.344C68 319.344 107.034 314.349 124.134 312.352C189.137 304.681 182.745 237.921 182.745 237.921L246.35 236.841Z" fill="#2760AD"/>
<path d="M244.712 238.479C244.552 242.234 243.832 252.104 240.995 264.249C238.879 273.357 235.962 281.867 232.367 289.659C227.892 299.327 222.339 307.797 215.825 314.869C208.315 323.019 200.004 329.931 191.055 335.524C183.024 340.519 174.275 344.554 165.005 347.511C150.183 352.266 133.962 354.462 113.906 354.462H113.347C112.707 354.462 112.108 354.862 111.868 355.461L95.8872 394.296L70.1575 320.742C78.3078 319.704 109.631 315.747 124.334 313.991C158.733 309.956 173.235 289.379 179.349 272.879C184.782 258.176 184.702 244.312 184.502 239.557L244.752 238.559L244.712 238.479ZM246.35 236.841L182.745 237.921C182.745 237.921 189.137 304.681 124.134 312.352C107.034 314.349 68 319.344 68 319.344L95.7673 398.731L113.347 356.021C113.546 356.021 113.706 356.021 113.906 356.021C146.068 356.021 184.982 350.627 216.984 315.907C245.99 284.466 246.35 236.841 246.35 236.841Z" fill="black"/>
<path d="M246.868 123.135L246.27 239.519H147.626L186.7 124.494L246.868 123.135Z" fill="#82C6AE"/>
<path d="M245.27 124.773L244.672 237.961H149.863L187.858 126.092L245.27 124.813V124.773ZM246.868 123.135L186.7 124.494L147.626 239.559H246.27L246.868 123.175V123.135Z" fill="black"/>
<path d="M273.717 183.704C272.799 181.946 270.8 181.307 268.084 182.586L251.024 190.656L268.444 181.147C270.442 179.989 271.28 177.631 270.282 175.913C269.282 174.195 266.845 173.716 264.849 174.875L247.269 183.265L263.609 174.315C265.407 173.117 265.967 171.638 265.247 169.881C264.529 168.123 262.61 167.244 260.972 167.883C256.737 169.601 243.394 174.355 232.485 179.229C208.674 189.777 162.089 217.984 162.089 217.984L193.252 167.763L235.842 114.026C235.842 114.026 183.744 105.556 170.679 135.641C154.019 173.956 140.115 197.448 135.68 206.757C120.338 238.919 132.724 262.651 169.2 248.907C197.927 238.121 244.992 207.516 248.987 206.078C261.572 201.483 269.442 197.048 269.442 197.048C272.039 196.289 273.397 194.891 272.679 192.494C271.999 190.137 269.842 190.137 265.887 191.215L253.542 196.689L271.48 189.018C274.117 187.779 274.677 185.502 273.757 183.744L273.717 183.704Z" fill="#82C6AE"/>
<path d="M167.442 210.112C167.284 210.112 167.164 210.112 167.004 209.992C166.644 209.754 166.524 209.274 166.764 208.874L192.574 167.284C192.814 166.924 193.292 166.804 193.692 167.044C194.092 167.284 194.172 167.763 193.932 168.162L168.122 209.754C167.962 209.992 167.722 210.112 167.442 210.112Z" fill="black"/>
<path d="M322.82 179.748C322.38 179.748 322.02 179.389 322.02 178.949V127.41C322.02 126.971 322.38 126.611 322.82 126.611C323.258 126.611 323.618 126.971 323.618 127.41V178.949C323.618 179.389 323.258 179.748 322.82 179.748Z" fill="black"/>
<path d="M329.292 165.565C328.852 165.565 328.494 165.205 328.494 164.766V138.996C328.494 138.557 328.852 138.197 329.292 138.197C329.732 138.197 330.09 138.557 330.09 138.996V164.766C330.09 165.205 329.732 165.565 329.292 165.565Z" fill="black"/>
<path d="M309.915 159.852C309.475 159.852 309.115 159.492 309.115 159.053V127.41C309.115 126.971 309.475 126.611 309.915 126.611C310.354 126.611 310.714 126.971 310.714 127.41V159.053C310.714 159.492 310.354 159.852 309.915 159.852Z" fill="black"/>
<path d="M303.482 159.852C303.044 159.852 302.684 159.492 302.684 159.053V127.41C302.684 126.971 303.044 126.611 303.482 126.611C303.922 126.611 304.282 126.971 304.282 127.41V159.053C304.282 159.492 303.922 159.852 303.482 159.852Z" fill="black"/>
<path d="M297.01 159.852C296.57 159.852 296.21 159.492 296.21 159.053V127.41C296.21 126.971 296.57 126.611 297.01 126.611C297.448 126.611 297.808 126.971 297.808 127.41V159.053C297.808 159.492 297.448 159.852 297.01 159.852Z" fill="black"/>
<path d="M316.387 179.748C315.947 179.748 315.588 179.389 315.588 178.949V127.41C315.588 126.971 315.947 126.611 316.387 126.611C316.827 126.611 317.185 126.971 317.185 127.41V178.949C317.185 179.389 316.827 179.748 316.387 179.748Z" fill="black"/>
<path d="M150.343 253.661C143.311 253.661 137.677 251.544 133.842 247.349C126.251 239.079 126.65 223.776 134.961 206.397C136.279 203.64 138.357 199.565 141.034 194.371C147.626 181.506 157.574 162.009 169.96 135.281C173.835 126.891 180.747 120.738 190.455 117.022C197.647 114.265 206.237 112.827 216.705 112.587C228.41 112.308 237.8 112.547 237.92 112.547C238.358 112.547 238.718 112.907 238.718 113.346C238.718 113.786 238.358 114.146 237.92 114.146C237.84 114.146 228.49 113.946 216.785 114.185C192.813 114.705 177.99 121.856 171.438 135.96C159.052 162.728 149.064 182.225 142.472 195.13C139.835 200.284 137.757 204.359 136.439 207.116C128.448 223.856 127.929 238.519 135.081 246.309C141.513 253.341 153.539 253.981 168.96 248.187C189.657 240.397 220.26 222.139 236.72 212.311C243.513 208.235 247.588 205.797 248.787 205.358C261.212 200.843 269.282 197.168 269.362 197.128C272.158 195.689 272.918 194.691 272.478 193.132C272.038 191.694 270.68 191.614 266.405 192.773L253.9 197.447C253.502 197.607 253.022 197.407 252.862 197.008C252.702 196.608 252.862 196.129 253.302 195.969L271.24 188.298C272.318 187.779 273.038 187.06 273.318 186.221C273.557 185.541 273.477 184.782 273.118 184.143C272.318 182.625 270.64 182.345 268.523 183.384L251.183 190.775C250.785 190.935 250.345 190.775 250.145 190.376C249.945 189.976 250.145 189.537 250.505 189.337L268.163 180.507C269.762 179.549 270.482 177.711 269.682 176.392C268.923 175.034 266.965 174.714 265.327 175.633C265.327 175.633 265.327 175.633 265.287 175.633L247.708 184.023C247.308 184.223 246.868 184.023 246.668 183.664C246.47 183.264 246.628 182.825 246.988 182.585L263.29 173.635C265.167 172.357 264.967 171.118 264.608 170.199C264.048 168.841 262.61 168.162 261.372 168.641C260.173 169.121 258.295 169.84 255.938 170.719C249.905 172.996 240.757 176.472 232.885 179.948C209.353 190.376 168.282 209.872 167.882 210.072C167.482 210.272 167.003 210.072 166.803 209.712C166.603 209.314 166.803 208.834 167.163 208.634C167.562 208.435 208.673 188.937 232.207 178.51C240.117 174.994 249.267 171.558 255.338 169.241C257.697 168.362 259.573 167.642 260.732 167.163C262.77 166.324 265.167 167.443 266.047 169.6C266.525 170.759 266.725 172.277 265.527 173.755C267.685 173.036 270.002 173.755 271.04 175.553C272.078 177.391 271.52 179.748 269.762 181.266C272.118 180.827 273.717 181.986 274.477 183.424C275.035 184.463 275.115 185.661 274.757 186.78C274.437 187.659 273.717 188.937 271.8 189.816L270.322 190.456C271.998 190.416 273.358 190.935 273.917 192.773C274.915 196.129 271.84 197.727 269.962 198.646C269.842 198.686 261.732 202.402 249.227 206.956C248.187 207.316 243.433 210.152 237.44 213.747C220.94 223.617 190.255 241.956 169.44 249.786C162.328 252.462 155.896 253.781 150.303 253.781L150.343 253.661Z" fill="black"/>
<path d="M274.188 125.462C274.357 121.87 272.315 118.854 269.627 118.728C266.937 118.601 264.62 121.411 264.45 125.003C264.282 128.596 266.323 131.611 269.012 131.738C271.702 131.865 274.018 129.055 274.188 125.462Z" fill="white"/>
<path d="M269.682 120.458C271.36 120.458 272.799 122.496 272.839 125.013C272.919 127.69 271.4 130.087 269.562 130.247C269.522 130.247 269.442 130.247 269.402 130.247C267.725 130.247 266.287 128.209 266.247 125.692C266.167 123.015 267.685 120.618 269.522 120.458C269.562 120.458 269.642 120.458 269.682 120.458ZM269.682 118.86C269.602 118.86 269.482 118.86 269.402 118.86C266.685 119.06 264.569 122.136 264.649 125.732C264.729 129.168 266.845 131.845 269.402 131.845C271.96 131.845 269.602 131.845 269.682 131.845C272.399 131.645 274.517 128.569 274.437 124.973C274.357 121.537 272.239 118.86 269.682 118.86Z" fill="black"/>
<path d="M269.762 128.009C269.602 128.009 269.442 127.969 269.282 127.849C268.924 127.61 268.844 127.09 269.084 126.731C270.322 124.973 269.242 123.734 269.084 123.614C268.764 123.295 268.804 122.775 269.084 122.496C269.402 122.176 269.882 122.176 270.202 122.496C270.96 123.255 272 125.332 270.362 127.69C270.202 127.889 269.962 128.009 269.722 128.009H269.762Z" fill="black"/>
<path d="M251.583 138.557L223.935 138.237C216.863 138.237 211.112 132.844 211.112 125.772C211.112 118.7 216.823 112.987 223.895 112.987H251.583V138.557Z" fill="white"/>
<path d="M249.985 114.585V136.959L223.935 136.639C217.623 136.639 212.708 131.885 212.708 125.772C212.708 119.659 217.743 114.585 223.895 114.585H249.985ZM251.583 112.987H223.895C216.823 112.987 211.112 118.7 211.112 125.772C211.112 132.844 216.903 138.237 223.935 138.237L251.583 138.557V112.987Z" fill="black"/>
<path d="M247.188 144.23C258.838 144.23 268.283 134.786 268.283 123.135C268.283 111.485 258.838 102.04 247.188 102.04C235.538 102.04 226.093 111.485 226.093 123.135C226.093 134.786 235.538 144.23 247.188 144.23Z" fill="white"/>
<path d="M247.149 103.598C254.1 103.598 260.574 107.354 264.049 113.347C269.442 122.656 266.207 134.602 256.897 139.995C253.94 141.713 250.585 142.632 247.149 142.632C240.197 142.632 233.725 138.877 230.248 132.884C224.855 123.575 228.092 111.629 237.4 106.235C240.357 104.517 243.714 103.638 247.149 103.598ZM247.149 102C243.554 102 239.957 102.919 236.602 104.837C226.493 110.67 223.057 123.575 228.89 133.683C232.805 140.435 239.877 144.23 247.188 144.23C254.5 144.23 254.38 143.311 257.737 141.394C267.844 135.561 271.28 122.656 265.447 112.548C261.532 105.796 254.46 102 247.149 102Z" fill="black"/>
<path d="M248.427 136.16C247.987 136.16 247.628 135.801 247.628 135.361C247.628 134.922 247.987 134.562 248.427 134.562H252.502L251.783 130.367C251.783 130.127 251.783 129.888 251.943 129.728C252.103 129.568 252.302 129.448 252.542 129.448L258.375 129.368C256.777 127.371 254.22 123.255 253.9 116.743C253.9 116.304 254.22 115.944 254.66 115.904C255.098 115.904 255.458 116.224 255.498 116.663C255.938 125.293 260.652 129.488 260.692 129.528C260.932 129.728 261.052 130.087 260.932 130.407C260.812 130.727 260.533 130.926 260.213 130.926L253.542 131.046L254.26 135.201C254.3 135.441 254.26 135.681 254.1 135.841C253.94 136.04 253.74 136.12 253.502 136.12H248.507L248.427 136.16Z" fill="black"/>
<path d="M236.642 104.837C234.323 106.155 229.53 110.111 228.132 115.025L239.757 106.635C247.109 110.271 255.339 111.709 263.49 110.87L264.328 110.79C257.537 102.04 245.31 99.8429 236.642 104.837Z" fill="black"/>
<path d="M432.01 220.899L389.98 240.037L374.639 280.869C386.704 289.659 397.97 297.809 397.97 297.809L431.97 220.899H432.01Z" fill="black"/>
<path d="M99.9221 315.309C83.9409 317.306 68.0396 319.304 68.0396 319.304L95.8069 398.691L113.386 355.981L99.9221 315.309Z" fill="black"/>
<path d="M114.785 315.069L126.931 354.022L122.096 354.262L109.791 315.667L114.785 315.029V315.069ZM115.904 313.311L107.673 314.349L120.938 355.941L129.048 355.541L115.904 313.351V313.311Z" fill="black"/>
<path d="M378.634 231.927L382.349 235.204L367.807 273.877L363.732 270.961L378.594 231.927H378.634ZM377.955 229.211L361.854 271.521L368.605 276.354L384.267 234.684L377.955 229.171V229.211Z" fill="black"/>
<path d="M240.835 211.631L228.89 179.828L223.857 182.066L235.882 214.587L240.835 211.631Z" fill="black"/>
<path d="M110.689 318.344L110.052 319.811L117.49 323.044L118.127 321.579L110.689 318.344Z" fill="black"/>
<path d="M113.126 326.241L112.489 327.706L119.927 330.939L120.564 329.474L113.126 326.241Z" fill="black"/>
<path d="M225.235 132.124C227.924 131.998 229.965 128.982 229.797 125.39C229.627 121.797 227.31 118.987 224.62 119.114C221.932 119.241 219.89 122.256 220.059 125.849C220.229 129.442 222.545 132.251 225.235 132.124Z" fill="white"/>
<path d="M224.895 120.458C224.935 120.458 225.015 120.458 225.055 120.458C226.892 120.578 228.37 122.975 228.33 125.692C228.29 128.209 226.852 130.247 225.175 130.247C223.497 130.247 225.055 130.247 225.015 130.247C223.177 130.127 221.698 127.73 221.738 125.013C221.778 122.496 223.217 120.458 224.895 120.458ZM224.895 118.86C222.338 118.86 220.22 121.537 220.14 124.973C220.06 128.569 222.178 131.605 224.895 131.845C224.975 131.845 225.095 131.845 225.175 131.845C227.732 131.845 229.848 129.168 229.928 125.732C230.008 122.136 227.892 119.1 225.175 118.86C225.095 118.86 224.975 118.86 224.895 118.86Z" fill="black"/>
<path d="M214.267 167.323C215.04 167.323 215.665 166.697 215.665 165.925C215.665 165.153 215.04 164.527 214.267 164.527C213.495 164.527 212.869 165.153 212.869 165.925C212.869 166.697 213.495 167.323 214.267 167.323Z" fill="white"/>
<path d="M224.855 128.009C224.615 128.009 224.375 127.889 224.215 127.69C222.537 125.372 223.577 123.295 224.375 122.496C224.695 122.176 225.175 122.176 225.494 122.496C225.814 122.815 225.814 123.295 225.494 123.614C225.374 123.734 224.255 124.973 225.494 126.731C225.734 127.09 225.654 127.57 225.295 127.849C225.135 127.969 224.975 128.009 224.815 128.009H224.855Z" fill="black"/>
<path d="M214.267 173.636C214.107 173.636 213.987 173.636 213.868 173.516L200.883 165.685C200.643 165.525 200.483 165.285 200.483 165.006V157.535C200.483 157.095 200.843 156.735 201.282 156.735H227.212C227.652 156.735 228.012 157.095 228.012 157.535V165.006C228.012 165.285 227.852 165.565 227.612 165.685L214.627 173.516C214.507 173.596 214.347 173.636 214.227 173.636H214.267ZM202.082 164.566L214.267 171.918L226.453 164.566V158.374H202.122V164.566H202.082Z" fill="black"/>
<path d="M366.818 262.397L365.41 263.152L369.243 270.301L370.652 269.546L366.818 262.397Z" fill="black"/>
<path d="M369.777 254.684L368.367 255.439L372.2 262.587L373.608 261.832L369.777 254.684Z" fill="black"/>
<path d="M169 205.518L159.212 219.621L197.527 194.571L169 205.518Z" fill="black"/>
<path d="M245.59 217.464V239.519L254.18 213.229L245.59 217.464Z" fill="black"/>
<path d="M246.629 120.938C247.292 120.938 247.829 119.739 247.829 118.261C247.829 116.783 247.292 115.584 246.629 115.584C245.967 115.584 245.43 116.783 245.43 118.261C245.43 119.739 245.967 120.938 246.629 120.938Z" fill="black"/>
<path d="M260.414 120.938C261.075 120.938 261.612 119.739 261.612 118.261C261.612 116.783 261.075 115.584 260.414 115.584C259.75 115.584 259.215 116.783 259.215 118.261C259.215 119.739 259.75 120.938 260.414 120.938Z" fill="black"/>
<path d="M74.7121 338.361L74.1128 336.882L80.745 334.166L78.7075 317.986L80.2656 317.786L82.503 335.166L74.7121 338.361Z" fill="#DCDCDC"/>
<path d="M107.673 358.977C108.843 358.977 109.791 358.029 109.791 356.859C109.791 355.691 108.843 354.742 107.673 354.742C106.504 354.742 105.556 355.691 105.556 356.859C105.556 358.029 106.504 358.977 107.673 358.977Z" fill="#DCDCDC"/>
<path d="M390.778 292.696L389.5 291.737L398.17 276.514L406.56 278.752L405.922 280.231L398.97 278.392L390.778 292.696Z" fill="#DCDCDC"/>
<path d="M395.053 244.992C396.223 244.992 397.172 244.044 397.172 242.874C397.172 241.706 396.223 240.757 395.053 240.757C393.885 240.757 392.937 241.706 392.937 242.874C392.937 244.044 393.885 244.992 395.053 244.992Z" fill="#DCDCDC"/>
</svg>
