<svg width="350" height="350" viewBox="0 0 350 350" fill="none" xmlns="http://www.w3.org/2000/svg">
<path d="M164.596 81.292C164.596 81.292 175.043 80.6638 183.01 80.8953C191.706 81.1267 195.442 81.3251 208.733 103.873C226.289 133.663 238.522 155.384 242.192 163.121C249.829 179.156 254.491 187.586 246.126 193.306L232.009 193.636L164.596 81.3251V81.292Z" fill="#82C6AE"/>
<path d="M247.647 192.711C247.481 192.711 247.283 192.645 247.151 192.513C246.919 192.248 246.919 191.819 247.184 191.587C252.805 186.429 249.73 180.115 244.109 168.674C243.283 166.989 242.457 165.27 241.563 163.419C237.86 155.681 209.361 106.155 206.319 101.162C196.533 84.9949 193.492 81.7879 180.398 81.4904C170.745 81.2589 163.008 81.4573 162.909 81.4573C162.545 81.4573 162.247 81.1928 162.247 80.796C162.247 80.3993 162.512 80.1348 162.909 80.1348C162.975 80.1348 170.745 79.9364 180.465 80.1679C194.119 80.4655 197.525 84.0361 207.476 100.468C210.518 105.493 239.084 155.086 242.787 162.856C243.679 164.708 244.506 166.426 245.332 168.113C251.053 179.751 254.491 186.76 248.109 192.578C247.977 192.711 247.812 192.744 247.647 192.744V192.711Z" fill="black"/>
<path d="M334.534 247.693L329.608 222.5L273.733 161.236L249.102 154.028L201.261 159.913L188.796 294.343H324.252L334.534 247.693Z" fill="#FCCC7E"/>
<path d="M334.6 247.725L334.302 246.337L307.092 228.88L289.172 209.374L265.302 183.189L250.193 154.326L249.135 153.995L246.556 154.326L213.593 172.444L202.054 159.781L201.26 159.88L201.195 160.773L212.766 173.468L188.201 294.575H201.79L312.184 282.111L323.392 294.376H324.284L324.45 293.582L313.274 281.35L333.971 250.469L334.6 247.725ZM234.687 195.587L264.078 184.577L262.194 225.74L234.687 195.587ZM264.475 228.285L305.67 230.005L292.115 258.306L264.509 228.285H264.475ZM263.451 226.93L265.368 185.206L282.197 203.654H282.163L305.109 228.649L263.451 226.897V226.93ZM234.687 194.199L249.234 155.317L263.847 183.255L234.654 194.199H234.687ZM291.123 259.231L189.722 294.476L233.76 196.512L291.123 259.198V259.231ZM306.993 230.402L333.509 247.428L293.504 258.504L306.96 230.402H306.993ZM247.911 155.153L233.331 194.099L214.552 173.502L247.911 155.153ZM213.891 174.725L232.802 195.455L190.681 289.152L213.923 174.725H213.891ZM195.078 294.013L292.115 260.289L311.093 280.953L195.078 294.045V294.013ZM312.382 280.358L293.504 259.86L333.574 248.751L312.382 280.358Z" fill="white"/>
<path d="M79.2952 158.954H168.067C171.901 158.954 175.043 162.062 175.043 165.93V289.715C175.043 292.459 172.828 294.673 170.084 294.673H79.9895C76.518 294.673 73.7407 291.864 73.7407 288.424V164.508C73.7407 161.434 76.2205 158.954 79.2952 158.954Z" fill="#B0CAEE"/>
<path d="M157.388 278.175H90.0072C87.8913 278.175 86.2051 276.456 86.2051 274.373V180.014C86.2051 177.898 87.9244 176.212 90.0072 176.212H157.388C159.503 176.212 161.223 177.932 161.223 180.014V274.373C161.223 276.49 159.503 278.175 157.388 278.175ZM90.0072 177.501C88.6187 177.501 87.5276 178.626 87.5276 179.982V274.34C87.5276 275.729 88.6517 276.82 90.0072 276.82H157.388C158.776 276.82 159.9 275.696 159.9 274.34V179.982C159.9 178.592 158.776 177.501 157.388 177.501H90.0072Z" fill="white"/>
<path d="M122.11 241.907C131.477 241.907 139.071 234.313 139.071 224.946C139.071 215.579 131.477 207.985 122.11 207.985C112.743 207.985 105.149 215.579 105.149 224.946C105.149 234.313 112.743 241.907 122.11 241.907Z" fill="white"/>
<path d="M86.8331 209.274H84.1881C83.8245 209.274 83.5269 208.977 83.5269 208.613V198.926C83.5269 198.562 83.8245 198.265 84.1881 198.265H86.8331C87.1967 198.265 87.4943 198.562 87.4943 198.926V208.613C87.4943 208.977 87.1967 209.274 86.8331 209.274ZM84.8494 207.953H86.1718V199.588H84.8494V207.953Z" fill="white"/>
<path d="M122.11 232.617C126.347 232.617 129.781 229.182 129.781 224.946C129.781 220.71 126.347 217.275 122.11 217.275C117.874 217.275 114.44 220.71 114.44 224.946C114.44 229.182 117.874 232.617 122.11 232.617Z" fill="#DCDCDC"/>
<path d="M122.11 215.952C121.746 215.952 121.449 215.655 121.449 215.292V210.432C121.449 210.068 121.746 209.77 122.11 209.77C122.474 209.77 122.772 210.068 122.772 210.432V215.292C122.772 215.655 122.474 215.952 122.11 215.952Z" fill="#DCDCDC"/>
<path d="M122.11 240.485C121.746 240.485 121.449 240.187 121.449 239.823V234.964C121.449 234.6 121.746 234.303 122.11 234.303C122.474 234.303 122.772 234.6 122.772 234.964V239.823C122.772 240.187 122.474 240.485 122.11 240.485Z" fill="#DCDCDC"/>
<path d="M136.823 225.772H131.963C131.599 225.772 131.301 225.475 131.301 225.112C131.301 224.748 131.599 224.45 131.963 224.45H136.823C137.186 224.45 137.485 224.748 137.485 225.112C137.485 225.475 137.186 225.772 136.823 225.772Z" fill="#DCDCDC"/>
<path d="M112.291 225.772H107.431C107.067 225.772 106.77 225.475 106.77 225.112C106.77 224.748 107.067 224.45 107.431 224.45H112.291C112.655 224.45 112.952 224.748 112.952 225.112C112.952 225.475 112.655 225.772 112.291 225.772Z" fill="#DCDCDC"/>
<path d="M129.087 218.829C128.921 218.829 128.756 218.763 128.624 218.631C128.359 218.366 128.359 217.97 128.624 217.705L132.062 214.266C132.327 214.002 132.724 214.002 132.988 214.266C133.252 214.531 133.252 214.928 132.988 215.193L129.549 218.631C129.417 218.763 129.252 218.829 129.087 218.829Z" fill="#DCDCDC"/>
<path d="M111.729 236.154C111.564 236.154 111.399 236.088 111.266 235.955C111.002 235.691 111.002 235.294 111.266 235.03L114.705 231.591C114.969 231.327 115.366 231.327 115.63 231.591C115.895 231.855 115.895 232.253 115.63 232.517L112.192 235.955C112.06 236.088 111.894 236.154 111.729 236.154Z" fill="#DCDCDC"/>
<path d="M132.525 236.154C132.36 236.154 132.194 236.088 132.062 235.955L128.624 232.517C128.359 232.253 128.359 231.855 128.624 231.591C128.889 231.327 129.285 231.327 129.549 231.591L132.988 235.03C133.252 235.294 133.252 235.691 132.988 235.955C132.724 236.22 132.691 236.154 132.525 236.154Z" fill="#DCDCDC"/>
<path d="M115.168 218.829C115.002 218.829 114.837 218.763 114.705 218.631L111.266 215.193C111.002 214.928 111.002 214.531 111.266 214.266C111.531 214.002 111.927 214.002 112.192 214.266L115.63 217.705C115.895 217.97 115.895 218.366 115.63 218.631C115.366 218.896 115.333 218.829 115.168 218.829Z" fill="#DCDCDC"/>
<path d="M73.7406 294.64L38.5626 266.902L37.9675 186.56C37.8684 172.047 47.8862 159.451 62.0367 156.243L73.5752 153.664L73.7406 294.608V294.64Z" fill="#2760AD"/>
<path d="M72.2855 155.317L72.4178 291.896L39.8848 266.24L39.2896 186.528C39.2566 179.816 41.5048 173.204 45.7037 167.947C49.8696 162.69 55.7876 158.987 62.3339 157.5L72.2525 155.284L72.2855 155.317ZM73.6081 153.664L62.0694 156.243C47.9189 159.417 37.9011 172.047 38.0002 186.56L38.5954 266.902L73.7734 294.64L73.6081 153.698V153.664Z" fill="black"/>
<path d="M147.436 82.4817C147.436 82.4817 74.3027 128.868 65.0453 134.951C53.0438 142.852 56.383 166.161 75.03 166.327C90.7675 166.493 156.263 166.228 175.043 166.26V259.463L190.483 259.761L192.632 84.3002L147.436 82.4817Z" fill="#82C6AE"/>
<path d="M191.475 259.463H190.153L191.442 127.149C191.442 126.85 191.64 126.587 191.938 126.52C192.235 126.454 192.533 126.553 192.665 126.818L211.874 158.591L210.386 158.789L192.731 129.496L191.442 259.463H191.475Z" fill="black"/>
<path d="M157.586 142.29C157.222 142.29 156.925 141.993 156.925 141.63V90.2181L144.097 95.7063C143.865 95.8055 143.6 95.7725 143.402 95.6072C143.204 95.4418 143.138 95.1774 143.204 94.9459L145.948 84.1676C146.047 83.804 146.411 83.6057 146.742 83.7048C147.105 83.804 147.303 84.1676 147.204 84.4983L144.791 93.9871L157.321 88.6311C157.52 88.5319 157.751 88.5649 157.949 88.6972C158.149 88.8294 158.248 89.0279 158.248 89.2592V141.662C158.248 142.026 157.949 142.324 157.586 142.324V142.29Z" fill="white"/>
<path d="M179.936 72.8207C180.078 69.8476 178.387 67.3525 176.161 67.2475C173.936 67.1426 172.019 69.4677 171.878 72.4407C171.738 75.4137 173.429 77.9088 175.654 78.0137C177.88 78.1187 179.796 75.7937 179.936 72.8207Z" fill="white"/>
<path d="M176.233 68.7285C177.621 68.7285 178.811 70.4146 178.844 72.4975C178.91 74.7126 177.654 76.6964 176.134 76.8286C176.1 76.8286 176.035 76.8286 176.001 76.8286C174.612 76.8286 173.422 75.1426 173.39 73.0596C173.323 70.8444 174.58 68.8608 176.1 68.7285C176.134 68.7285 176.199 68.7285 176.233 68.7285ZM176.233 67.406C176.166 67.406 176.067 67.406 176.001 67.406C173.753 67.5714 172 70.117 172.067 73.0926C172.133 75.936 173.886 78.1512 176.001 78.1512C178.117 78.1512 176.166 78.1512 176.233 78.1512C178.481 77.9858 180.233 75.4401 180.167 72.4645C180.1 69.6212 178.348 67.406 176.233 67.406Z" fill="black"/>
<path d="M176.266 74.9436C176.134 74.9436 176.001 74.9106 175.869 74.8115C175.571 74.613 175.505 74.1832 175.703 73.8857C176.729 72.431 175.836 71.4061 175.703 71.3069C175.44 71.0423 175.472 70.6125 175.703 70.3812C175.968 70.1167 176.365 70.1167 176.63 70.3812C177.257 71.0093 178.117 72.7285 176.761 74.6792C176.63 74.8445 176.431 74.9436 176.233 74.9436H176.266Z" fill="black"/>
<path d="M139.403 78.3255C141.628 78.2205 143.318 75.7253 143.178 72.7523C143.037 69.7793 141.12 67.4542 138.894 67.5591C136.669 67.6641 134.979 70.1593 135.12 73.1323C135.26 76.1053 137.177 78.4303 139.403 78.3255Z" fill="white"/>
<path d="M139.138 68.728C139.17 68.728 139.237 68.728 139.269 68.728C140.791 68.8272 142.013 70.811 141.981 73.0591C141.947 75.1421 140.757 76.8282 139.369 76.8282C137.98 76.8282 139.269 76.8282 139.237 76.8282C137.715 76.729 136.492 74.7453 136.525 72.4971C136.558 70.4142 137.748 68.728 139.138 68.728ZM139.138 67.4056C137.021 67.4056 135.269 69.6207 135.202 72.464C135.137 75.4396 136.889 77.9524 139.138 78.1507C139.203 78.1507 139.302 78.1507 139.369 78.1507C141.485 78.1507 143.237 75.9355 143.303 73.0923C143.369 70.1167 141.617 67.6039 139.369 67.4056C139.302 67.4056 139.203 67.4056 139.138 67.4056Z" fill="black"/>
<path d="M139.104 74.9436C138.905 74.9436 138.707 74.8445 138.575 74.6792C137.187 72.7616 138.047 71.0424 138.707 70.3812C138.972 70.1167 139.369 70.1167 139.633 70.3812C139.898 70.6456 139.898 71.0423 139.633 71.3069C139.534 71.4061 138.608 72.431 139.633 73.8857C139.832 74.1832 139.765 74.58 139.468 74.8115C139.336 74.9106 139.203 74.9436 139.071 74.9436H139.104Z" fill="black"/>
<path d="M157.586 90.2185C167.226 90.2185 175.042 82.4028 175.042 72.7617C175.042 63.1206 167.226 55.305 157.586 55.305C147.945 55.305 140.129 63.1206 140.129 72.7617C140.129 82.4028 147.945 90.2185 157.586 90.2185Z" fill="white"/>
<path d="M157.586 56.6276C160.397 56.6276 163.174 57.3879 165.653 58.8096C169.39 60.9586 172.067 64.4301 173.158 68.5959C174.283 72.7617 173.688 77.1259 171.539 80.8289C168.662 85.8213 163.305 88.896 157.553 88.896C151.8 88.896 151.965 88.1356 149.486 86.747C145.749 84.5979 143.072 81.1264 141.981 76.9606C140.89 72.7949 141.451 68.4306 143.6 64.7277C146.477 59.7353 151.834 56.6606 157.586 56.6606V56.6276ZM157.586 55.305C151.536 55.305 145.684 58.4459 142.444 64.0334C137.617 72.3981 140.494 83.0771 148.825 87.9041C151.569 89.4912 154.578 90.2516 157.553 90.2516C163.603 90.2516 169.455 87.1107 172.696 81.5232C177.522 73.1585 174.647 62.4794 166.314 57.6525C163.57 56.0655 160.561 55.305 157.586 55.305Z" fill="black"/>
<path d="M159.305 78.7457L153.024 78.6465C152.726 78.6465 152.461 78.4152 152.396 78.1175C152.33 77.82 152.495 77.5224 152.759 77.3902C152.759 77.3902 155.503 75.8363 155.106 67.141C155.106 66.7773 155.371 66.4797 155.735 66.4467C156.099 66.4467 156.363 66.7112 156.397 67.0748C156.66 72.993 155.537 75.9354 154.578 77.3571L159.305 77.4233C159.669 77.4233 159.967 77.7208 159.967 78.0845C159.967 78.4482 159.669 78.7457 159.305 78.7457Z" fill="black"/>
<path d="M148.594 72.3318C146.742 72.3318 145.155 71.0094 144.824 69.191C144.758 68.8273 144.99 68.4966 145.353 68.4306C145.717 68.3645 146.048 68.5959 146.114 68.9596C146.346 70.1498 147.37 71.0094 148.594 71.0094C149.817 71.0094 150.842 70.1498 151.073 68.9596C151.14 68.5959 151.47 68.3645 151.834 68.4306C152.198 68.4966 152.429 68.8273 152.362 69.191C152.032 71.0094 150.445 72.3318 148.594 72.3318Z" fill="black"/>
<path d="M163.702 72.3318C161.851 72.3318 160.264 71.0094 159.934 69.191C159.867 68.8273 160.098 68.4966 160.462 68.4306C160.826 68.3645 161.156 68.5959 161.223 68.9596C161.454 70.1498 162.479 71.0094 163.702 71.0094C164.926 71.0094 165.95 70.1498 166.182 68.9596C166.248 68.5959 166.579 68.3645 166.943 68.4306C167.306 68.4966 167.538 68.8273 167.472 69.191C167.141 71.0094 165.554 72.3318 163.702 72.3318Z" fill="black"/>
<path d="M73.7078 266.869L73.741 294.641L15.3535 294.674L38.5629 266.902L73.7078 266.869Z" fill="black"/>
<path d="M72.3851 259.826V265.579H39.819V259.826H72.3851ZM73.7076 258.504H38.4966V266.902H73.7076V258.504Z" fill="black"/>
<path d="M107.861 294.673L107.53 259.496L187.871 258.9C202.385 258.8 214.982 268.819 218.189 282.969L220.767 294.508L107.861 294.673Z" fill="#2760AD"/>
<path d="M188.102 260.255C194.781 260.255 201.327 262.537 206.518 266.736C211.742 270.901 215.411 276.787 216.866 283.299L219.081 293.218L109.15 293.35L108.853 260.818L187.871 260.223H188.102V260.255ZM188.102 258.933C188.036 258.933 187.937 258.933 187.871 258.933L107.53 259.528L107.861 294.706L220.767 294.541L218.189 283.002C215.014 268.918 202.517 258.933 188.102 258.933Z" fill="black"/>
<path d="M175.043 166.26L175.241 180.378C175.241 180.609 175.274 180.842 175.373 181.073C175.869 182.693 177.654 183.586 179.374 183.056C180.729 182.659 181.49 181.37 181.589 180.081L181.523 161.268C181.523 167.649 181.721 177.303 181.754 177.667C181.919 179.32 183.704 180.279 185.457 179.749C187.077 179.254 187.64 177.501 187.672 175.783L187.771 157.962C187.739 164.508 187.804 174.46 187.871 174.791C188.201 176.576 189.987 177.337 191.739 176.807C193.359 176.311 194.152 175.121 194.119 173.501L194.88 160.574C194.88 160.574 197.458 161.301 199.046 159.913C201.426 157.83 196.103 152.804 194.549 150.854C192.996 148.903 191.144 146.556 187.507 144.671C180.994 141.299 165.818 141.596 163.835 141.63V166.327H175.076L175.043 166.26Z" fill="white"/>
<path d="M107.563 294.674H79.8242L80.0557 237.774L107.53 259.529L107.563 294.674Z" fill="black"/>
<path d="M114.639 260.785V293.351H108.886V260.785H114.639ZM115.961 259.463H107.563V294.674H115.961V259.463Z" fill="black"/>
<path d="M172.629 63.9339C171.142 61.4213 169.025 59.2061 166.314 57.6522C157.983 52.8582 147.37 55.6684 142.509 63.9339H146.775C152.461 63.9339 158.115 62.9752 163.471 61.0576L163.669 60.9915C163.669 60.9915 168.629 63.7687 172.629 63.9339Z" fill="black"/>
<path d="M178.35 183.883C176.696 183.883 175.175 182.857 174.712 181.271C174.647 181.006 174.58 180.708 174.58 180.445L174.382 166.294C174.382 165.93 174.679 165.633 175.043 165.633C175.406 165.633 175.704 165.93 175.704 166.294L175.902 180.411C175.902 180.577 175.936 180.742 176.002 180.907C176.399 182.163 177.787 182.857 179.176 182.461C180.366 182.098 180.861 180.973 180.895 180.113V162.79C180.829 162.294 180.829 161.764 180.829 161.301C180.829 160.938 181.126 160.641 181.49 160.641C181.853 160.641 182.152 160.938 182.152 161.301V162.756C182.152 169.004 182.35 177.27 182.383 177.634C182.415 178.13 182.713 178.559 183.143 178.857C183.705 179.254 184.499 179.353 185.226 179.122C186.747 178.659 186.946 176.643 186.978 175.783L187.045 161.037C187.045 159.946 187.045 158.888 187.045 157.996C187.045 157.632 187.342 157.334 187.705 157.334C188.069 157.334 188.036 157.4 188.168 157.533C188.301 157.664 188.367 157.83 188.367 157.996V161.202C188.367 167.286 188.4 174.229 188.466 174.725C188.565 175.253 188.862 175.716 189.326 176.014C189.921 176.378 190.681 176.444 191.475 176.212C192.764 175.815 193.393 174.923 193.393 173.535C193.393 173.535 193.393 173.535 193.393 173.502L194.384 156.705C194.384 151.118 192.401 148.01 187.144 145.266C183.275 143.249 174.25 142.291 161.719 142.522C161.488 142.522 161.322 142.522 161.223 142.522C161.223 142.522 161.19 142.522 161.156 142.522C158.347 142.522 89.0817 141.662 86.1061 141.63C85.7423 141.63 85.4448 141.332 85.4448 140.968C85.4448 140.604 85.7423 140.307 86.1061 140.307C86.8334 140.307 158.313 141.199 161.124 141.199C163.934 141.199 161.156 141.199 161.19 141.199H161.686C174.613 140.936 183.639 141.927 187.739 144.076C193.458 147.051 195.706 150.59 195.706 156.705C195.706 156.705 195.706 156.705 195.706 156.739L194.714 173.535C194.714 175.518 193.69 176.906 191.839 177.469C190.681 177.8 189.524 177.701 188.599 177.138C188.433 177.039 188.301 176.94 188.168 176.807C187.903 178.692 186.978 179.982 185.556 180.411C184.433 180.742 183.243 180.577 182.35 179.982C182.284 179.949 182.217 179.882 182.152 179.85V180.147C182.152 180.147 182.152 180.147 182.152 180.18C182.053 181.866 180.994 183.288 179.473 183.717C179.076 183.85 178.68 183.883 178.316 183.883H178.35Z" fill="black"/>
<path d="M196.5 161.963C195.673 161.963 194.913 161.632 194.318 161.037L195.277 160.111C195.607 160.475 196.103 160.673 196.632 160.607C197.326 160.542 197.988 160.145 198.45 159.516C199.376 158.227 198.252 156.475 197.756 155.813L191.838 148.605L192.863 147.779L198.814 155.02C200.301 156.97 200.566 158.888 199.575 160.309C198.913 161.268 197.855 161.863 196.764 161.963C196.665 161.963 196.6 161.963 196.5 161.963Z" fill="black"/>
<path d="M86.0396 140.473L122.209 133.364L122.044 141.266L86.0396 140.473Z" fill="black"/>
<path d="M168.827 141.167H160.562V166.988H168.827V141.167Z" fill="black"/>
<path d="M139.468 123.611C139.302 123.611 139.171 123.544 139.039 123.445L130.376 115.941C130.111 115.709 130.079 115.279 130.31 115.015C130.542 114.75 130.971 114.717 131.236 114.949L139.468 122.057L147.701 114.949C147.965 114.717 148.395 114.75 148.626 115.015C148.857 115.279 148.825 115.709 148.56 115.941L139.899 123.445C139.766 123.544 139.634 123.611 139.468 123.611Z" fill="white"/>
<path d="M139.468 118.42C140.454 118.42 141.253 117.621 141.253 116.635C141.253 115.649 140.454 114.849 139.468 114.849C138.482 114.849 137.683 115.649 137.683 116.635C137.683 117.621 138.482 118.42 139.468 118.42Z" fill="#DCDCDC"/>
<path d="M164.695 163.087C165.681 163.087 166.48 162.288 166.48 161.301C166.48 160.315 165.681 159.516 164.695 159.516C163.708 159.516 162.909 160.315 162.909 161.301C162.909 162.288 163.708 163.087 164.695 163.087Z" fill="#DCDCDC"/>
<path d="M43.8856 278.837H34.0993C33.7356 278.837 33.438 278.539 33.438 278.175C33.438 277.813 33.7356 277.515 34.0993 277.515H43.8856C44.2493 277.515 44.5469 277.813 44.5469 278.175C44.5469 278.539 44.2493 278.837 43.8856 278.837Z" fill="white"/>
<path d="M43.8856 283.268H34.0993C33.7356 283.268 33.438 282.97 33.438 282.606C33.438 282.242 33.7356 281.945 34.0993 281.945H43.8856C44.2493 281.945 44.5469 282.242 44.5469 282.606C44.5469 282.97 44.2493 283.268 43.8856 283.268Z" fill="white"/>
<path d="M96.2227 265.314C95.859 265.314 95.5615 265.016 95.5615 264.654V254.867C95.5615 254.504 95.859 254.206 96.2227 254.206C96.5864 254.206 96.8839 254.504 96.8839 254.867V264.654C96.8839 265.016 96.5864 265.314 96.2227 265.314Z" fill="white"/>
<path d="M91.7926 265.314C91.4288 265.314 91.1313 265.016 91.1313 264.654V254.867C91.1313 254.504 91.4288 254.206 91.7926 254.206C92.1563 254.206 92.4538 254.504 92.4538 254.867V264.654C92.4538 265.016 92.1563 265.314 91.7926 265.314Z" fill="white"/>
<path d="M101.348 167.054C90.0073 167.054 80.4523 167.054 75.493 166.988C66.9301 166.889 60.3838 162.294 57.9702 154.623C55.6559 147.251 58.0693 139.481 63.9213 135.315C74.3359 127.942 143.402 84.168 144.096 83.7382C144.394 83.5397 144.824 83.639 145.023 83.9365C145.221 84.2341 145.122 84.6639 144.824 84.8623C144.13 85.2921 75.0964 129.033 64.7149 136.405C59.2927 140.241 57.1106 147.415 59.2596 154.226C61.4747 161.302 67.5582 165.566 75.5262 165.665C93.7102 165.831 174.249 165.6 175.043 165.6C175.406 165.6 175.704 165.898 175.704 166.26C175.704 166.624 175.406 166.922 175.043 166.922C174.447 166.922 131.633 167.054 101.348 167.054Z" fill="black"/>
<path d="M304.017 182.197C302.165 166.393 292.644 158.854 274.922 161.367C273.303 161.598 267.649 162.458 267.649 162.458C264.74 162.822 263.714 165.269 264.277 166.657C265.07 168.674 267.385 168.873 269.6 169.038C272.84 169.237 278.262 169.832 278.262 169.832C279.121 169.832 279.552 170.427 278.791 170.856C275.187 172.873 268.609 176.51 265.897 178.031C264.41 178.857 263.913 180.841 264.806 182.495C265.699 184.148 267.186 184.842 269.137 183.949L285.238 176.609L268.84 185.239C266.757 186.065 265.632 188.214 266.327 190C267.055 191.817 269.402 192.843 271.418 191.751L288.909 183.486L272.741 192.347C270.228 193.636 269.402 195.52 270.195 197.305C270.988 199.092 273.105 200.182 275.584 198.76L292.379 190.297C289.206 193.074 288.413 193.966 281.965 199.191C279.221 201.405 278.923 203.323 280.378 205.043C281.833 206.729 283.618 206.299 287.09 204.15C294.065 199.885 305.273 192.677 304.017 182.23V182.197Z" fill="white"/>
<path d="M281.27 162.227C287.652 162.227 292.677 163.946 296.248 167.351C299.753 170.69 301.934 175.749 302.695 182.362C303.191 186.561 301.538 190.561 297.669 194.562C294.364 198 290.099 200.711 286.396 202.993C285.073 203.786 283.453 204.712 282.428 204.712C281.403 204.712 281.766 204.612 281.369 204.149C280.742 203.422 280.808 202.959 280.808 202.794C280.874 202.067 281.535 201.174 282.759 200.183C287.717 196.215 289.37 194.727 291.256 193.008C291.851 192.479 292.478 191.917 293.206 191.255C293.702 190.826 293.801 190.065 293.437 189.537C293.173 189.173 292.776 188.942 292.347 188.942C291.916 188.942 291.95 188.974 291.752 189.074L274.956 197.538C274.956 197.538 274.922 197.538 274.89 197.538C274.327 197.835 273.799 198 273.303 198C272.443 198 271.715 197.504 271.352 196.678C270.624 195.025 272.476 193.835 273.303 193.438C273.303 193.438 273.303 193.438 273.336 193.438L289.503 184.577C290.131 184.246 290.363 183.452 290.032 182.825C289.801 182.362 289.338 182.097 288.842 182.097C288.346 182.097 288.445 182.131 288.28 182.23L270.79 190.495C270.79 190.495 270.757 190.495 270.724 190.528C270.393 190.727 270.029 190.792 269.633 190.792C268.708 190.792 267.814 190.231 267.484 189.438C267.285 188.942 267.318 188.345 267.616 187.784C267.947 187.156 268.509 186.66 269.236 186.395C269.269 186.395 269.335 186.362 269.368 186.33L285.767 177.7C286.395 177.37 286.66 176.576 286.329 175.947C286.098 175.485 285.635 175.221 285.139 175.221C284.643 175.221 284.775 175.253 284.577 175.352L268.443 182.692C268.046 182.89 267.682 182.957 267.385 182.957C267.087 182.957 266.46 182.957 265.831 181.799C265.302 180.808 265.533 179.618 266.393 179.155C269.104 177.634 275.617 173.997 279.287 171.981C280.279 171.418 280.444 170.559 280.312 169.931C280.113 169.071 279.287 168.509 278.196 168.476C277.667 168.409 272.609 167.881 269.534 167.683C267.451 167.55 265.831 167.351 265.368 166.161C265.268 165.93 265.302 165.467 265.6 164.971C265.831 164.575 266.393 163.913 267.682 163.748C267.682 163.748 267.682 163.748 267.715 163.748C267.781 163.748 273.369 162.888 274.956 162.657C277.138 162.359 279.188 162.194 281.139 162.194L281.27 162.227ZM281.27 160.904C279.287 160.904 277.171 161.07 274.922 161.368C273.303 161.599 267.649 162.458 267.649 162.458C264.74 162.822 263.714 165.269 264.277 166.657C265.07 168.674 267.385 168.873 269.6 169.038C272.84 169.237 278.262 169.832 278.262 169.832C279.121 169.832 279.552 170.427 278.791 170.856C275.187 172.873 268.609 176.51 265.897 178.031C264.41 178.857 263.913 180.84 264.806 182.494C265.434 183.651 266.36 184.345 267.516 184.345C268.674 184.345 268.542 184.213 269.137 183.948L285.238 176.609L268.84 185.239C266.757 186.065 265.632 188.214 266.327 189.999C266.856 191.289 268.211 192.214 269.699 192.214C271.187 192.214 270.857 192.082 271.418 191.785L288.909 183.519L272.741 192.38C270.228 193.669 269.402 195.553 270.195 197.339C270.724 198.562 271.881 199.455 273.368 199.455C274.857 199.455 274.823 199.256 275.584 198.827L292.379 190.363C289.206 193.141 288.413 194.033 281.965 199.256C279.221 201.472 278.923 203.39 280.378 205.108C280.973 205.802 281.634 206.134 282.462 206.134C283.618 206.134 285.073 205.472 287.122 204.216C294.099 199.95 305.307 192.743 304.051 182.295C302.43 168.476 294.991 161.004 281.304 161.004L281.27 160.904Z" fill="black"/>
<path d="M191.541 116.635L191.442 127.149L211.51 158.293L191.541 116.635Z" fill="black"/>
<path d="M73.7078 289.252L73.741 294.641L15.3535 294.674L19.883 289.284L73.7078 289.252Z" fill="white"/>
<path d="M72.3854 290.575V293.319H18.1968L20.5111 290.575H72.4184H72.3854ZM73.7078 289.219H19.883L15.3535 294.64H73.741V289.219H73.7078Z" fill="black"/>
<path d="M85.4774 293.847H80.0883L80.0552 237.774L85.4774 242.106V293.847Z" fill="white"/>
<path d="M81.378 240.519L84.1553 242.733V292.525H81.4111V240.519H81.378ZM80.0225 237.774V293.88H85.4447V242.138L80.0225 237.808V237.774Z" fill="black"/>
</svg>
