<svg width="500" height="500" viewBox="0 0 500 500" fill="none" xmlns="http://www.w3.org/2000/svg">
<path d="M379.162 119.603L372.172 142.015L372.035 152.876C372.638 152.714 402.542 149.545 402.983 149.441L402.657 113.248C401.873 113.55 383.658 111.396 379.162 119.603Z" fill="white"/>
<path d="M397.928 114.644C399.11 114.644 400.125 114.669 400.942 114.694H401.228L401.532 148.157C399.373 148.402 394.677 148.913 390.102 149.409C380.277 150.488 375.657 150.98 373.495 151.232L373.607 142.241L380.493 120.171C382.578 116.553 388.602 114.644 397.928 114.644ZM397.928 113.205C392.005 113.205 382.28 113.924 379.162 119.603L372.172 142.015L372.035 152.876C372.638 152.714 402.542 149.545 402.983 149.441L402.657 113.248C402.498 113.278 402.337 113.289 402.175 113.281C401.42 113.281 399.88 113.205 397.928 113.205Z" fill="black"/>
<path d="M228.44 283.345C228.44 283.345 287.108 368.935 350.353 389.93L374.448 385.702L343.203 434.132C229.795 384.587 205.523 331.958 205.523 331.958L228.44 283.345Z" fill="#2760AD"/>
<path d="M343.17 434.852C343.072 434.852 342.973 434.832 342.883 434.79C316.99 423.473 293.615 411.055 273.422 397.867C257.26 387.312 243.09 376.25 231.305 364.987C211.195 345.765 204.898 332.393 204.837 332.26C204.793 332.165 204.77 332.062 204.77 331.957C204.77 331.852 204.793 331.748 204.837 331.653L227.788 283.02C227.842 282.907 227.925 282.808 228.03 282.737C228.133 282.663 228.255 282.62 228.382 282.61C228.508 282.602 228.635 282.625 228.75 282.68C228.863 282.735 228.962 282.818 229.033 282.923C229.18 283.135 243.938 304.567 266.218 328.277C286.717 350.087 317.943 378.34 350.395 389.175L374.29 384.978C374.427 384.957 374.567 384.973 374.695 385.03C374.822 385.087 374.93 385.178 375.007 385.295C375.083 385.412 375.123 385.547 375.123 385.687C375.123 385.825 375.083 385.962 375.008 386.078L343.79 434.52C343.723 434.623 343.632 434.708 343.523 434.767C343.415 434.825 343.293 434.853 343.17 434.852ZM206.29 331.952C207.325 334.005 214.08 346.548 232.388 364.03C250.758 381.558 284.81 407.782 342.897 433.23L372.918 386.697L350.463 390.653C350.343 390.675 350.22 390.667 350.105 390.628C335.608 385.813 320.155 377.192 304.173 365.008C291.41 355.273 278.28 343.247 265.147 329.272C251.988 315.26 239.765 300.4 228.555 284.787L206.29 331.952Z" fill="black"/>
<path d="M239.66 307.515C239.66 307.515 209.113 270.977 199.55 278.77C199.55 278.77 165.832 324.14 146.477 340.945C138.454 328.032 92.5979 255.715 92.5979 255.715L47.6445 292.397L71.8474 295.795C89.0844 325.193 113.798 388.913 145.485 385.677C187.258 381.44 239.66 307.515 239.66 307.515Z" fill="#2760AD"/>
<path d="M143.118 386.543C132.365 386.543 121.558 379.225 110.169 364.247C99.7003 350.49 90.458 332.598 82.3016 316.847C78.4176 309.327 74.7495 302.222 71.387 296.47L47.5256 293.118C47.3868 293.1 47.2563 293.042 47.1505 292.95C47.0445 292.858 46.9678 292.737 46.9295 292.602C46.8913 292.467 46.8933 292.325 46.9355 292.19C46.9775 292.057 47.0577 291.938 47.1662 291.85L92.1193 255.168C92.198 255.103 92.2892 255.057 92.3871 255.03C92.4851 255.003 92.5875 254.998 92.6878 255.015C92.788 255.03 92.8836 255.067 92.9685 255.123C93.0533 255.178 93.1256 255.252 93.1803 255.337C93.6335 256.057 137.558 325.32 146.613 339.848C165.789 322.86 198.612 278.792 198.947 278.353C198.98 278.303 199.022 278.26 199.068 278.223C203.355 274.732 211.627 278.583 223.653 289.703C229.485 295.178 235.008 300.975 240.195 307.065C240.297 307.187 240.355 307.34 240.362 307.498C240.367 307.657 240.32 307.813 240.228 307.943C230.575 321.152 220.053 333.707 208.735 345.52C198.065 356.593 187.795 365.598 178.21 372.287C166.177 380.685 155.194 385.442 145.524 386.428C144.724 386.507 143.921 386.545 143.118 386.543ZM49.3598 291.94L71.9335 295.108C72.0422 295.123 72.1456 295.165 72.236 295.227C72.3263 295.29 72.4013 295.372 72.455 295.467C75.875 301.303 79.6223 308.543 83.6035 316.21C91.731 331.93 100.941 349.742 111.334 363.4C123.252 379.055 134.401 386.122 145.412 384.978C166.782 382.798 191.085 361.772 207.722 344.517C218.862 332.88 229.233 320.53 238.768 307.543C230.137 297.308 207.448 273.527 200.09 279.267C198.518 281.373 165.789 325.137 146.966 341.482C146.887 341.55 146.795 341.6 146.695 341.628C146.595 341.657 146.49 341.663 146.387 341.647C146.284 341.632 146.186 341.593 146.099 341.537C146.012 341.48 145.938 341.405 145.883 341.317C138.371 329.225 97.1505 264.208 92.443 256.803L49.3598 291.94Z" fill="black"/>
<path d="M371.973 151.336L371.48 197.93L291.32 206.712C290.712 208.075 250.588 215.497 250.588 215.497L187.258 288.337L248.52 312.51C248.52 312.51 300.583 243.307 302.893 240.247C319.397 238.377 366.292 232.695 382.662 229.778C395.727 227.437 403.52 216.307 403.52 200.228C403.52 199.567 403.303 173.615 403.048 148.132C407.397 146.87 372.862 151.099 371.973 151.336Z" fill="#82C6AE"/>
<path d="M245.493 289.055C221.082 280.882 190.258 266.913 190.258 266.913L229.885 256.722L291.062 247.835C291.062 247.835 306.907 233.91 302.185 228.828C298.39 224.747 299.937 209.408 292.898 209.05C241.44 206.46 177.883 236.91 168.338 241.663C139.655 255.992 130.509 274.912 162.279 289.775C187.292 301.48 221.417 309.41 225.11 310.392C227.518 311.047 255.703 292.475 245.493 289.055Z" fill="#82C6AE"/>
<path d="M224.865 311.273C224.865 311.273 229.932 312.575 240.25 313.852C251.737 315.268 256.502 307.378 259.913 297.445C262.852 288.918 262.647 282.64 253.753 278.623C246.485 275.338 242.048 281.82 240.067 286.333L232.622 283.697L224.865 311.273Z" fill="white"/>
<path d="M249.927 279.168C251.048 279.192 252.152 279.453 253.163 279.935C257.015 281.675 259.148 283.823 259.878 286.697C260.518 289.213 260.097 292.497 258.555 296.978C256.735 302.265 254.958 305.728 252.735 308.202C250.113 311.143 246.873 312.578 242.832 312.578C242.027 312.575 241.223 312.523 240.425 312.423C233.41 311.553 228.817 310.668 226.658 310.205L233.588 285.567L239.583 287.688C239.738 287.745 239.902 287.772 240.067 287.772C240.345 287.772 240.618 287.69 240.852 287.537C241.085 287.385 241.27 287.167 241.382 286.912C242.652 284.035 245.453 279.168 249.92 279.168H249.927ZM249.927 277.73C244.892 277.73 241.68 282.678 240.073 286.333L232.628 283.697L224.872 311.273C224.872 311.273 229.938 312.575 240.257 313.852C241.113 313.958 241.975 314.013 242.838 314.017C252.483 314.017 256.775 306.583 259.922 297.445C262.858 288.918 262.653 282.64 253.763 278.622C252.563 278.055 251.255 277.75 249.927 277.73Z" fill="black"/>
<path d="M254.405 283.862C254.405 283.862 248.23 278.928 240.16 287.098L254.405 283.862Z" fill="white"/>
<path d="M240.16 287.803C240.017 287.803 239.878 287.762 239.76 287.683C239.642 287.605 239.55 287.492 239.495 287.362C239.44 287.23 239.427 287.085 239.453 286.947C239.48 286.807 239.548 286.678 239.648 286.577C248.075 278.062 254.785 283.247 254.853 283.302C255 283.422 255.093 283.593 255.113 283.782C255.133 283.97 255.078 284.158 254.962 284.305C254.843 284.453 254.672 284.55 254.485 284.572C254.297 284.595 254.108 284.542 253.958 284.427C253.713 284.237 248.15 280.028 240.652 287.588C240.522 287.722 240.345 287.798 240.16 287.803Z" fill="black"/>
<path d="M374.415 385.702L350.32 389.93C350.133 389.865 327.442 426.795 327.34 426.94C332.407 429.337 337.68 431.735 343.163 434.132L374.415 385.702Z" fill="black"/>
<path d="M343.43 435.035L342.872 434.79C337.51 432.448 332.185 430.025 327.048 427.598L326.268 427.238L326.775 426.518L329.293 422.458C332.303 417.572 337.342 409.393 341.69 402.367C344.102 398.478 346.005 395.428 347.322 393.315C348.04 392.145 348.652 391.2 349.072 390.548C349.767 389.47 349.968 389.147 350.375 389.2L375.908 384.712L343.43 435.035ZM328.383 426.63C333.108 428.863 337.982 431.078 342.887 433.23L372.92 386.697L350.745 390.588C349.137 392.958 335.683 414.798 330.505 423.207C329.368 425.052 328.743 426.07 328.393 426.63H328.383Z" fill="black"/>
<path d="M101.955 270.48L92.6048 255.737L47.6515 292.418L71.3868 296.165C71.3868 296.165 101.444 270.855 101.955 270.48Z" fill="black"/>
<path d="M71.581 296.932L45.9288 292.882L92.7702 254.653L93.2018 255.337C93.2018 255.337 96.6075 260.702 102.552 270.082L102.912 270.65L102.376 271.042C101.779 271.505 82.1397 288.027 71.8077 296.705L71.581 296.932ZM49.331 291.962L71.1567 295.407C74.9148 292.245 97.2727 273.43 101.006 270.33C96.4852 263.192 93.493 258.462 92.425 256.793L49.331 291.962Z" fill="black"/>
<path d="M353.155 396.127C354.408 396.127 355.423 395.11 355.423 393.858C355.423 392.605 354.408 391.588 353.155 391.588C351.902 391.588 350.885 392.605 350.885 393.858C350.885 395.11 351.902 396.127 353.155 396.127Z" fill="white"/>
<path d="M361.843 394.925C363.097 394.925 364.112 393.91 364.112 392.657C364.112 391.403 363.097 390.387 361.843 390.387C360.59 390.387 359.573 391.403 359.573 392.657C359.573 393.91 360.59 394.925 361.843 394.925Z" fill="white"/>
<path d="M334.63 431.187L333.325 430.578C334.897 427.202 337.28 424.93 340.24 424.015C343.2 423.102 346.412 423.617 349.59 425.497L348.872 426.735C346.058 425.07 343.228 424.605 340.69 425.39C338.15 426.173 336.025 428.187 334.63 431.187Z" fill="white"/>
<path d="M68.4957 292.667C69.7488 292.667 70.7648 291.65 70.7648 290.397C70.7648 289.143 69.7488 288.127 68.4957 288.127C67.2423 288.127 66.2263 289.143 66.2263 290.397C66.2263 291.65 67.2423 292.667 68.4957 292.667Z" fill="white"/>
<path d="M217.013 296.808C218.267 296.808 219.283 295.793 219.283 294.54C219.283 293.287 218.267 292.27 217.013 292.27C215.76 292.27 214.745 293.287 214.745 294.54C214.745 295.793 215.76 296.808 217.013 296.808Z" fill="black"/>
<path d="M59.7962 291.558C61.0494 291.558 62.0654 290.542 62.0654 289.288C62.0654 288.035 61.0494 287.02 59.7962 287.02C58.5429 287.02 57.5269 288.035 57.5269 289.288C57.5269 290.542 58.5429 291.558 59.7962 291.558Z" fill="white"/>
<path d="M92.544 267.097C88.588 267.097 84.5063 265.698 82.3305 263.14L83.4095 262.205C86.5238 265.855 94.4248 266.808 98.7835 264.062L99.5495 265.28C97.6218 266.517 95.1045 267.097 92.544 267.097Z" fill="white"/>
<path d="M187.542 264.315L186.973 265.638L229.703 283.987L230.272 282.665L187.542 264.315Z" fill="white"/>
<path d="M388.952 163.751C390.205 163.751 391.22 162.735 391.22 161.481C391.22 160.228 390.205 159.212 388.952 159.212C387.698 159.212 386.682 160.228 386.682 161.481C386.682 162.735 387.698 163.751 388.952 163.751Z" fill="black"/>
<path d="M395.68 155.296H394.242V175.975H395.68V155.296Z" fill="white"/>
<path d="M303.152 228.772L278.495 232.115C272.21 233.047 266.347 229.008 265.417 222.722C264.97 219.705 265.74 216.635 267.555 214.185C269.372 211.737 272.085 210.107 275.1 209.657L299.767 206.007L303.152 228.772Z" fill="white"/>
<path d="M298.567 207.637L301.512 227.542L278.28 230.695C277.755 230.772 277.225 230.81 276.693 230.81C271.695 230.81 267.548 227.322 266.837 222.513C266.643 221.205 266.708 219.872 267.03 218.588C267.352 217.307 267.923 216.1 268.712 215.038C269.5 213.975 270.49 213.08 271.623 212.4C272.758 211.72 274.015 211.272 275.323 211.077L298.567 207.637ZM299.778 206.003L275.102 209.657C273.605 209.877 272.167 210.39 270.87 211.165C269.572 211.942 268.44 212.965 267.538 214.18C266.637 215.393 265.982 216.772 265.613 218.238C265.245 219.705 265.17 221.23 265.392 222.725C266.233 228.408 271.102 232.252 276.672 232.252C277.275 232.252 277.875 232.208 278.47 232.12L303.127 228.775L299.757 206.007L299.778 206.003Z" fill="black"/>
<path d="M316.597 200.42C318.437 198.83 318.217 195.562 316.107 193.117C313.995 190.673 310.792 189.98 308.952 191.57C307.113 193.158 307.333 196.428 309.443 198.872C311.555 201.317 314.758 202.008 316.597 200.42Z" fill="white"/>
<path d="M311.38 192.128C312.483 192.128 313.728 192.718 314.713 193.708C316.422 195.427 316.933 197.915 315.822 199.142C315.61 199.365 315.352 199.54 315.067 199.655C314.782 199.77 314.475 199.823 314.167 199.81C313.063 199.81 311.815 199.22 310.833 198.232C309.122 196.513 308.615 194.023 309.722 192.793C309.937 192.573 310.195 192.4 310.48 192.285C310.765 192.17 311.072 192.117 311.38 192.128ZM311.38 190.69C310.87 190.677 310.365 190.772 309.895 190.967C309.425 191.163 309.002 191.458 308.653 191.83C307.022 193.628 307.54 196.962 309.812 199.245C310.947 200.457 312.51 201.177 314.167 201.248C314.677 201.263 315.182 201.168 315.652 200.972C316.122 200.775 316.543 200.478 316.89 200.105C318.525 198.307 318.005 194.977 315.732 192.693C314.6 191.482 313.037 190.762 311.38 190.69Z" fill="black"/>
<path d="M314.038 197.753C313.863 197.755 313.693 197.693 313.562 197.58C313.43 197.465 313.343 197.308 313.318 197.135C313.045 195.207 311.56 195.085 311.39 195.078C311.2 195.07 311.022 194.988 310.892 194.848C310.762 194.708 310.693 194.523 310.7 194.333C310.707 194.147 310.785 193.97 310.92 193.842C311.053 193.712 311.233 193.638 311.42 193.64C312.405 193.66 314.365 194.38 314.728 196.93C314.742 197.023 314.737 197.118 314.713 197.212C314.69 197.303 314.648 197.39 314.592 197.465C314.535 197.542 314.463 197.605 314.383 197.653C314.302 197.702 314.21 197.733 314.117 197.747L314.038 197.753Z" fill="black"/>
<path d="M298.93 229.498C309.42 229.498 317.925 220.993 317.925 210.502C317.925 200.012 309.42 191.507 298.93 191.507C288.438 191.507 279.935 200.012 279.935 210.502C279.935 220.993 288.438 229.498 298.93 229.498Z" fill="white"/>
<path d="M298.933 191.5V192.938C303.138 192.932 307.205 194.433 310.397 197.172C313.587 199.912 315.69 203.703 316.322 207.86C316.953 212.018 316.072 216.263 313.838 219.827C311.605 223.388 308.168 226.032 304.15 227.275C300.133 228.517 295.805 228.277 291.948 226.598C288.093 224.92 284.968 221.913 283.143 218.127C281.317 214.338 280.91 210.022 281.997 205.96C283.083 201.898 285.592 198.36 289.065 195.992C291.975 194.012 295.413 192.953 298.933 192.957V191.5ZM298.933 191.5C294.19 191.485 289.613 193.245 286.102 196.433C282.59 199.622 280.397 204.007 279.953 208.73C279.51 213.452 280.848 218.168 283.707 221.955C286.563 225.74 290.732 228.322 295.395 229.19C300.058 230.058 304.877 229.153 308.907 226.65C312.935 224.147 315.882 220.228 317.17 215.663C318.457 211.098 317.99 206.217 315.863 201.978C313.735 197.74 310.098 194.45 305.668 192.755C303.515 191.935 301.23 191.513 298.927 191.51L298.933 191.5Z" fill="black"/>
<path d="M304.59 211.095C304.445 211.095 304.305 211.052 304.185 210.97C304.067 210.887 303.975 210.772 303.922 210.637C303.87 210.502 303.858 210.355 303.892 210.213C303.923 210.073 303.998 209.945 304.105 209.848L307.74 206.5C305.68 206.5 302.533 205.917 299.425 203.075C299.355 203.012 299.297 202.935 299.257 202.848C299.215 202.763 299.192 202.67 299.187 202.575C299.182 202.48 299.195 202.383 299.227 202.295C299.258 202.205 299.308 202.122 299.372 202.052C299.435 201.98 299.513 201.922 299.598 201.882C299.685 201.84 299.778 201.817 299.873 201.812C299.968 201.807 300.063 201.82 300.153 201.852C300.243 201.883 300.327 201.933 300.397 201.997C304.925 206.14 309.467 204.873 309.66 204.823C309.82 204.772 309.992 204.777 310.148 204.838C310.303 204.898 310.433 205.013 310.515 205.16C310.595 205.307 310.623 205.477 310.592 205.64C310.56 205.805 310.473 205.953 310.343 206.06L305.075 210.905C304.943 211.027 304.77 211.095 304.59 211.095Z" fill="black"/>
<path d="M285.815 227.612C287.633 225.997 287.368 222.732 285.223 220.317C283.078 217.902 279.867 217.253 278.048 218.867C276.232 220.482 276.497 223.748 278.64 226.162C280.785 228.577 283.997 229.225 285.815 227.612Z" fill="white"/>
<path d="M280.532 219.388C281.872 219.388 283.408 220.252 284.433 221.585C285.307 222.722 285.723 224.06 285.548 225.182C285.512 225.475 285.417 225.758 285.268 226.013C285.118 226.268 284.92 226.488 284.682 226.663C284.283 226.925 283.815 227.057 283.34 227.045C281.995 227.045 280.463 226.182 279.438 224.848C278.563 223.712 278.147 222.373 278.323 221.252C278.358 220.958 278.453 220.675 278.603 220.42C278.752 220.165 278.952 219.945 279.19 219.77C279.587 219.508 280.055 219.375 280.532 219.388ZM280.532 217.95C279.763 217.937 279.01 218.158 278.373 218.587C276.367 219.967 276.33 223.157 278.298 225.715C279.65 227.473 281.603 228.473 283.333 228.473C284.1 228.487 284.853 228.265 285.49 227.837C287.5 226.455 287.537 223.265 285.57 220.708C284.213 218.95 282.265 217.95 280.535 217.95H280.532Z" fill="black"/>
<path d="M284.858 192.432C283.262 194.355 277.407 202.025 279.93 210.535L301.487 191.675C308.252 183.405 295.902 179.088 284.858 192.432Z" fill="black"/>
<path d="M282.822 225.327C282.757 225.327 282.69 225.317 282.628 225.297C280.15 224.603 279.693 222.563 279.802 221.585C279.812 221.492 279.838 221.4 279.883 221.317C279.93 221.233 279.99 221.158 280.063 221.098C280.138 221.038 280.222 220.993 280.313 220.967C280.405 220.94 280.5 220.93 280.593 220.94C280.688 220.95 280.78 220.978 280.863 221.023C280.947 221.068 281.022 221.13 281.082 221.203C281.142 221.277 281.187 221.362 281.213 221.452C281.24 221.543 281.25 221.638 281.24 221.733C281.24 221.905 281.157 223.387 283.038 223.913C283.207 223.958 283.353 224.063 283.448 224.21C283.545 224.355 283.585 224.532 283.562 224.705C283.538 224.878 283.452 225.037 283.32 225.15C283.188 225.265 283.018 225.327 282.843 225.327H282.822Z" fill="black"/>
<path d="M188.97 266.478C188.882 266.475 188.795 266.455 188.715 266.42L184.23 264.503C184.143 264.467 184.065 264.412 183.998 264.345C183.933 264.277 183.88 264.197 183.845 264.108C183.81 264.022 183.793 263.927 183.795 263.833C183.795 263.738 183.815 263.645 183.853 263.558C183.89 263.472 183.943 263.392 184.012 263.327C184.08 263.26 184.16 263.208 184.247 263.173C184.335 263.138 184.428 263.12 184.523 263.122C184.618 263.123 184.712 263.143 184.798 263.18L189.283 265.1C189.437 265.168 189.562 265.287 189.637 265.435C189.712 265.585 189.732 265.755 189.695 265.918C189.658 266.082 189.565 266.227 189.433 266.328C189.302 266.43 189.137 266.483 188.97 266.478Z" fill="white"/>
<path d="M192.492 267.643C192.318 267.642 192.15 267.577 192.022 267.46C191.892 267.345 191.808 267.187 191.787 267.015C191.765 266.842 191.805 266.668 191.902 266.523C191.998 266.38 192.143 266.275 192.312 266.23L215.327 260.238C215.42 260.21 215.517 260.202 215.613 260.213C215.71 260.223 215.803 260.253 215.887 260.302C215.972 260.348 216.045 260.413 216.103 260.49C216.163 260.567 216.205 260.653 216.23 260.747C216.255 260.842 216.26 260.938 216.245 261.035C216.23 261.13 216.197 261.222 216.147 261.305C216.095 261.387 216.028 261.458 215.95 261.513C215.872 261.57 215.782 261.61 215.687 261.63L192.672 267.622C192.612 267.637 192.552 267.643 192.492 267.643Z" fill="white"/>
<path d="M302.893 240.247L306.047 235.748C306.102 235.672 306.172 235.605 306.252 235.555C306.332 235.505 306.42 235.472 306.513 235.455C306.607 235.44 306.702 235.443 306.793 235.463C306.887 235.485 306.973 235.523 307.05 235.578C307.127 235.633 307.192 235.703 307.243 235.783C307.293 235.863 307.327 235.952 307.342 236.045C307.358 236.138 307.355 236.233 307.333 236.327C307.313 236.418 307.273 236.505 307.218 236.582L304.752 240.035L302.893 240.247Z" fill="white"/>
<path d="M370.802 206.223C370.61 206.223 370.427 206.147 370.292 206.012C370.157 205.877 370.082 205.693 370.082 205.503V198.08L371.473 197.93L371.52 205.503C371.52 205.598 371.502 205.692 371.465 205.778C371.43 205.865 371.377 205.945 371.31 206.012C371.243 206.078 371.163 206.132 371.077 206.168C370.988 206.203 370.895 206.223 370.802 206.223Z" fill="white"/>
<path d="M394.968 179.69C394.777 179.69 394.595 179.613 394.46 179.478C394.325 179.343 394.248 179.16 394.248 178.97V173.853C394.248 173.662 394.325 173.478 394.46 173.343C394.595 173.208 394.777 173.133 394.968 173.133C395.158 173.133 395.342 173.208 395.477 173.343C395.612 173.478 395.687 173.662 395.687 173.853V178.967C395.687 179.157 395.612 179.34 395.477 179.475C395.342 179.61 395.158 179.685 394.968 179.685V179.69Z" fill="white"/>
<path d="M105.961 278.29L76.3095 302.682L77.2233 303.792L106.875 279.402L105.961 278.29Z" fill="white"/>
<path d="M98.661 274.265L97.4303 275.01L101.778 282.193L103.008 281.45L98.661 274.265Z" fill="white"/>
<path d="M340.532 386.777L318.335 421.86L319.552 422.63L341.747 387.547L340.532 386.777Z" fill="white"/>
<path d="M323.315 415.2L322.648 416.473L330.545 420.605L331.212 419.33L323.315 415.2Z" fill="white"/>
<path d="M211.86 342.075L217.035 348.905L235.38 313.867L211.86 342.075Z" fill="black"/>
<path d="M395.407 124.001C395.217 124.001 395.033 123.925 394.898 123.791C394.763 123.656 394.687 123.473 394.687 123.282V115.075C394.687 114.885 394.763 114.702 394.898 114.567C395.033 114.432 395.217 114.356 395.407 114.356C395.598 114.356 395.78 114.432 395.915 114.567C396.05 114.702 396.127 114.885 396.127 115.075V123.278C396.127 123.373 396.108 123.467 396.072 123.555C396.037 123.642 395.983 123.722 395.917 123.789C395.85 123.856 395.77 123.91 395.683 123.946C395.595 123.983 395.502 124.001 395.407 124.001Z" fill="black"/>
<path d="M388.952 126.224C388.76 126.224 388.578 126.148 388.443 126.013C388.308 125.878 388.232 125.695 388.232 125.504V117.316C388.232 117.125 388.308 116.942 388.443 116.807C388.578 116.672 388.76 116.596 388.952 116.596C389.142 116.596 389.325 116.672 389.46 116.807C389.595 116.942 389.67 117.125 389.67 117.316V125.504C389.67 125.695 389.595 125.878 389.46 126.013C389.325 126.148 389.142 126.224 388.952 126.224Z" fill="black"/>
<path d="M382.497 129.007C382.305 129.007 382.122 128.931 381.987 128.796C381.852 128.662 381.777 128.479 381.777 128.288V120.085C381.777 119.894 381.852 119.711 381.987 119.576C382.122 119.441 382.305 119.365 382.497 119.365C382.687 119.365 382.87 119.441 383.005 119.576C383.14 119.711 383.215 119.894 383.215 120.085V128.288C383.215 128.479 383.14 128.662 383.005 128.796C382.87 128.931 382.687 129.007 382.497 129.007Z" fill="black"/>
<path d="M235.492 284.448L226.368 311.773L218.438 309.59L227.878 281.32L235.492 284.448Z" fill="black"/>
<path d="M403.048 156.342H371.973L372.067 148.128H403.048V156.342Z" fill="black"/>
<path d="M177.732 133.704L182.73 150.516L456.292 92.2101L177.732 133.704Z" fill="black"/>
<path d="M221.822 86.1182L178.598 133.704L456.292 92.2102L221.822 86.1182Z" fill="white"/>
<path d="M180.803 181.52L189.16 204.202L455.578 92.2101L180.803 181.52Z" fill="white"/>
<path d="M188.747 205.155L180.13 181.768L181.48 181.272L189.575 203.248L456.482 91.588L457.035 92.915L188.747 205.155Z" fill="black"/>
<path d="M178.21 134.855C178.072 134.855 177.933 134.815 177.817 134.739C177.7 134.662 177.608 134.554 177.552 134.426C177.495 134.298 177.477 134.157 177.5 134.019C177.522 133.881 177.583 133.753 177.678 133.65L221.517 85.3917L456.78 91.5305C456.877 91.5305 456.972 91.5497 457.06 91.5868C457.148 91.6242 457.228 91.6788 457.295 91.7475C457.363 91.8162 457.415 91.8977 457.45 91.987C457.485 92.0763 457.502 92.1718 457.5 92.2677C457.498 92.3622 457.477 92.4553 457.438 92.5417C457.4 92.628 457.345 92.706 457.277 92.7712C457.208 92.8362 457.128 92.8872 457.04 92.9212C456.952 92.9552 456.857 92.9713 456.763 92.969L222.153 86.8553L178.743 134.61C178.677 134.686 178.595 134.747 178.503 134.789C178.412 134.831 178.312 134.853 178.21 134.855Z" fill="black"/>
<path d="M173.118 138.864L111.676 205.708L456.758 92.2496L173.118 138.864Z" fill="white"/>
<path d="M438.688 96.6767L116.462 202.615L173.84 140.202L438.688 96.6767ZM456.758 92.2497L173.118 138.864L111.679 205.702L456.758 92.2425V92.2497Z" fill="black"/>
<path d="M381.447 134.376C380.587 131.787 379.863 129.931 377.62 123.969C376.498 120.984 374.455 119.348 371.775 120.405C369.535 121.29 368.712 123.433 370.042 127.195C370.402 128.238 370.905 129.86 371.15 130.924C372.305 135.959 372.035 140.314 372.142 145.05C372.142 145.05 376.502 142.101 378.975 140.843C383.292 138.656 383.01 139.102 381.447 134.376Z" fill="white"/>
<path d="M372.918 147.442C372.728 147.442 372.545 147.366 372.41 147.231C372.275 147.096 372.2 146.913 372.2 146.722C372.178 142.083 371.84 135.045 370.883 130.467C370.675 129.457 370.25 127.95 369.955 127.058C368.435 122.404 370.255 120.523 372.045 119.765C372.553 119.522 373.108 119.39 373.672 119.378C374.235 119.365 374.795 119.473 375.315 119.693C376.58 120.254 377.598 121.552 378.26 123.444C380.913 131.057 383.438 136.674 384.687 137.757C384.81 137.887 384.88 138.058 384.885 138.237C384.888 138.417 384.825 138.591 384.707 138.726C384.588 138.861 384.425 138.947 384.247 138.967C384.068 138.988 383.89 138.941 383.743 138.836C381.625 136.998 378.252 127.784 376.912 123.908C376.387 122.401 375.635 121.39 374.753 120.998C374.413 120.861 374.048 120.798 373.682 120.812C373.317 120.825 372.957 120.916 372.628 121.077C371.955 121.361 369.917 122.225 371.348 126.601C371.653 127.536 372.095 129.119 372.312 130.169C373.272 134.844 373.638 142 373.66 146.711C373.66 146.902 373.585 147.085 373.45 147.22C373.315 147.355 373.132 147.431 372.94 147.431L372.918 147.442Z" fill="black"/>
<path d="M142 345.915C141.901 345.915 141.804 345.895 141.713 345.855C141.623 345.815 141.542 345.758 141.474 345.685C141.345 345.547 141.275 345.362 141.282 345.172C141.288 344.982 141.369 344.802 141.507 344.672L148.448 338.198C148.517 338.133 148.598 338.083 148.687 338.05C148.775 338.017 148.87 338.002 148.964 338.005C149.059 338.008 149.152 338.03 149.238 338.07C149.324 338.108 149.401 338.165 149.466 338.233C149.53 338.303 149.58 338.385 149.613 338.473C149.646 338.562 149.662 338.657 149.658 338.75C149.655 338.845 149.633 338.938 149.594 339.023C149.555 339.11 149.499 339.187 149.43 339.252L142.489 345.725C142.356 345.848 142.181 345.917 142 345.915Z" fill="black"/>
<path d="M296.86 209.022C297.3 208.632 296.943 207.513 296.065 206.525C295.187 205.535 294.118 205.05 293.678 205.44C293.24 205.832 293.595 206.95 294.473 207.938C295.352 208.927 296.42 209.413 296.86 209.022Z" fill="black"/>
<path d="M306.138 200.78C306.578 200.39 306.222 199.272 305.343 198.282C304.465 197.293 303.397 196.808 302.958 197.198C302.518 197.588 302.873 198.707 303.752 199.697C304.63 200.685 305.698 201.17 306.138 200.78Z" fill="black"/>
<path d="M160.599 84.1473H160.574L105.235 82.1083C105.141 82.105 105.048 82.0831 104.962 82.044C104.876 82.0048 104.798 81.949 104.734 81.88C104.669 81.8108 104.619 81.7296 104.586 81.641C104.553 81.5525 104.538 81.4583 104.541 81.3638C104.548 81.1737 104.631 80.9941 104.77 80.8648C104.91 80.7353 105.095 80.6665 105.285 80.6733L160.625 82.7088C160.815 82.7121 160.997 82.7912 161.13 82.9285C161.262 83.0657 161.335 83.25 161.331 83.4406C161.328 83.6315 161.249 83.813 161.112 83.9456C160.974 84.0781 160.79 84.1506 160.599 84.1473Z" fill="#00C2FF"/>
<path d="M324.653 67.8815H324.625L286.343 66.4682C286.152 66.461 285.972 66.3783 285.842 66.2383C285.712 66.0985 285.643 65.9127 285.65 65.7218C285.658 65.5312 285.74 65.351 285.88 65.2212C286.02 65.0913 286.207 65.0225 286.397 65.0297L324.678 66.4393C324.773 66.441 324.867 66.4613 324.953 66.499C325.04 66.5367 325.118 66.591 325.183 66.659C325.25 66.7269 325.302 66.8072 325.335 66.895C325.37 66.9828 325.387 67.0768 325.385 67.1712C325.383 67.2657 325.363 67.3588 325.327 67.4455C325.288 67.5322 325.233 67.6105 325.167 67.6762C325.098 67.7417 325.018 67.7933 324.93 67.828C324.842 67.8625 324.748 67.8795 324.653 67.8778V67.8815Z" fill="#00C2FF"/>
<path d="M355.128 76.7498H355.103L328.038 75.7536C327.943 75.7503 327.85 75.7285 327.765 75.6893C327.678 75.6501 327.602 75.5943 327.537 75.5251C327.472 75.4561 327.422 75.375 327.388 75.2863C327.355 75.1978 327.34 75.1036 327.343 75.0093C327.347 74.9148 327.368 74.822 327.408 74.736C327.447 74.65 327.503 74.5725 327.572 74.508C327.642 74.4436 327.722 74.3933 327.81 74.3603C327.9 74.3271 327.993 74.3118 328.088 74.3151L355.153 75.3113C355.345 75.3146 355.525 75.3936 355.658 75.5308C355.792 75.6681 355.863 75.8525 355.86 76.0431C355.857 76.234 355.778 76.4155 355.64 76.548C355.503 76.6806 355.318 76.7531 355.128 76.7498Z" fill="#00C2FF"/>
<path d="M116.114 97.2557H116.089L43.2822 94.5765C43.1877 94.573 43.0948 94.5508 43.009 94.5115C42.923 94.472 42.8457 94.416 42.7815 94.3468C42.7172 94.2775 42.6672 94.1962 42.6343 94.1077C42.6015 94.019 42.5863 93.9248 42.5898 93.8303C42.5933 93.7358 42.6155 93.643 42.655 93.5572C42.6943 93.4712 42.7503 93.3938 42.8197 93.3297C42.8888 93.2653 42.9702 93.2153 43.0588 93.1825C43.1473 93.1495 43.2417 93.1345 43.3362 93.138L116.146 95.8172C116.337 95.821 116.518 95.9005 116.65 96.038C116.783 96.1757 116.855 96.3602 116.851 96.5508C116.847 96.7417 116.768 96.923 116.63 97.0552C116.493 97.1875 116.308 97.2595 116.117 97.2557H116.114Z" fill="#00C2FF"/>
<path d="M133.768 109.418H133.742L74.814 107.26C74.6233 107.253 74.4432 107.171 74.3133 107.031C74.1835 106.891 74.1147 106.705 74.1218 106.514C74.1288 106.323 74.2115 106.143 74.3515 106.014C74.4915 105.884 74.6772 105.815 74.868 105.822L133.793 107.98C133.984 107.983 134.165 108.062 134.298 108.199C134.43 108.337 134.503 108.521 134.5 108.712C134.496 108.902 134.417 109.084 134.28 109.216C134.143 109.349 133.958 109.422 133.768 109.418Z" fill="#00C2FF"/>
<path d="M392.449 55.8378C392.449 55.8378 397.309 46.859 394.978 38.9082C392.695 31.1292 387.814 28.4789 385.544 28.7439C382.797 29.0663 383.903 35.8675 386.369 40.0435C386.369 40.0435 383.474 38.156 382.816 40.8601C382.235 43.2381 384.201 45.8992 388.732 48.4958C388.732 48.4887 379.578 49.9856 392.449 55.8378Z" fill="white"/>
<path d="M392.449 56.5542C392.347 56.5542 392.245 56.5322 392.152 56.4896C386.945 54.1224 384.631 52.174 384.874 50.3619C385.018 49.2874 386.027 48.6319 386.965 48.2487C382.239 45.1579 381.686 42.4611 382.12 40.6811C382.403 39.5172 383.051 39.0373 383.553 38.8402C383.98 38.682 384.443 38.6387 384.892 38.7148C383.46 35.4915 382.675 31.3801 383.69 29.3422C383.847 28.9849 384.093 28.6751 384.409 28.4439C384.723 28.2125 385.091 28.0678 385.48 28.0241C388.319 27.6911 393.36 30.7819 395.683 38.7006C398.072 46.8485 393.301 55.802 393.097 56.1781C393.035 56.2946 392.94 56.3913 392.827 56.4577C392.712 56.5241 392.582 56.5575 392.449 56.5542ZM384.438 40.1116C384.316 40.1092 384.193 40.1298 384.078 40.1725C383.98 40.2119 383.682 40.3302 383.513 41.0213C383.013 43.0879 384.993 45.5196 389.093 47.8691C389.223 47.9428 389.325 48.0545 389.387 48.189C389.449 48.3235 389.469 48.4739 389.442 48.6197C389.414 48.7653 389.343 48.8992 389.237 49.0027C389.131 49.1064 388.996 49.1744 388.85 49.1978C387.832 49.3662 386.381 49.9319 386.299 50.5517C386.265 50.813 386.396 52.2026 392.119 54.8923C393.119 52.7864 396.177 45.5303 394.294 39.1017C392.144 31.8133 387.593 29.2096 385.63 29.4317C385.482 29.4517 385.341 29.5121 385.226 29.6063C385.109 29.7005 385.022 29.8246 384.971 29.9653C384.1 31.7168 385.082 36.412 386.987 39.6605C387.069 39.7993 387.1 39.9617 387.078 40.121C387.057 40.2805 386.98 40.4276 386.865 40.5389C386.748 40.6503 386.597 40.7192 386.438 40.7346C386.277 40.7499 386.117 40.711 385.982 40.6238C385.515 40.3316 384.985 40.1559 384.438 40.1116Z" fill="black"/>
<path d="M422.319 70.504C422.319 70.504 426.448 61.1672 434.173 58.1479C441.722 55.1968 446.816 57.4496 447.984 59.3943C449.416 61.7652 443.328 65.0494 438.54 65.6548C438.54 65.6548 441.803 66.79 440.066 68.964C438.54 70.8765 435.23 70.9516 430.396 68.964C430.403 68.9498 434.817 77.1119 422.319 70.504Z" fill="white"/>
<path d="M429.428 73.799C427.799 73.799 425.359 72.9216 421.983 71.1379C421.822 71.0531 421.7 70.9104 421.64 70.7388C421.581 70.5673 421.589 70.3797 421.664 70.214C421.835 69.82 426.005 60.5726 433.912 57.4819C441.595 54.477 447.124 56.5758 448.597 59.0255C448.796 59.3586 448.905 59.7378 448.913 60.1259C448.922 60.5142 448.829 60.8978 448.643 61.2389C447.646 63.2839 443.911 65.1784 440.491 66.0166C440.825 66.3254 441.073 66.717 441.208 67.1519C441.358 67.6639 441.376 68.4734 440.628 69.4118C439.485 70.8443 437.011 72.0513 431.673 70.2032C431.945 71.1774 432.033 72.3772 431.279 73.1473C431.032 73.3763 430.741 73.5524 430.421 73.6647C430.104 73.7767 429.764 73.8225 429.428 73.799ZM423.271 70.189C428.901 73.0541 430.076 72.3378 430.27 72.1409C430.709 71.6967 430.27 70.1996 429.779 69.2757C429.709 69.1454 429.682 68.9968 429.7 68.8503C429.719 68.7037 429.781 68.5663 429.881 68.457C429.98 68.3475 430.109 68.2714 430.253 68.2391C430.397 68.2068 430.549 68.2198 430.686 68.2764C435.051 70.0671 438.184 70.1638 439.513 68.5021C439.958 67.947 439.872 67.6389 439.839 67.5387C439.664 66.919 438.65 66.4356 438.306 66.3173C438.155 66.2635 438.025 66.1599 437.94 66.0234C437.854 65.8869 437.816 65.7252 437.834 65.5648C437.85 65.4045 437.921 65.2547 438.035 65.1398C438.148 65.0248 438.297 64.9513 438.456 64.9314C442.179 64.4622 446.504 62.3563 447.36 60.5978C447.438 60.4701 447.48 60.3232 447.48 60.1734C447.48 60.0235 447.438 59.8766 447.36 59.7489C446.34 58.0549 441.502 56.0349 434.421 58.7998C428.186 61.2568 424.321 68.1117 423.271 70.189Z" fill="black"/>
<path d="M409.627 79.2893C420.857 79.2893 429.961 70.1848 429.961 58.9538C429.961 47.7228 420.857 38.6183 409.627 38.6183C398.395 38.6183 389.29 47.7228 389.29 58.9538C389.29 70.1848 398.395 79.2893 409.627 79.2893Z" fill="white"/>
<path d="M409.661 40.0508C414.488 40.0563 419.129 41.9074 422.634 45.2245C426.138 48.5416 428.242 53.0737 428.514 57.8919C428.784 62.7101 427.202 67.4495 424.092 71.1388C420.981 74.8282 416.578 77.1881 411.782 77.735C411.061 77.8166 410.337 77.8573 409.612 77.8567C404.791 77.8443 400.157 75.9905 396.659 72.6745C393.159 69.3583 391.059 64.8308 390.788 60.0175C390.517 55.2044 392.095 50.4696 395.199 46.7813C398.303 43.0931 402.699 40.7302 407.488 40.1762C408.211 40.0931 408.935 40.0514 409.661 40.0508ZM409.661 38.6183C408.882 38.6181 408.103 38.6624 407.327 38.7508C402.072 39.3537 397.259 41.9813 393.911 46.0756C390.562 50.1699 388.942 55.4082 389.394 60.6781C389.845 65.948 392.332 70.8343 396.329 74.2992C400.325 77.7642 405.515 79.5349 410.796 79.2353C416.076 78.9356 421.032 76.5892 424.611 72.6944C428.189 68.7995 430.109 63.663 429.961 58.376C429.813 53.0888 427.611 48.0675 423.821 44.3783C420.03 40.6892 414.952 38.6228 409.661 38.6183Z" fill="black"/>
<path d="M407.548 58.2974C407.104 59.0162 406.59 59.5435 406.007 59.8795C405.425 60.2168 404.818 60.3741 404.186 60.3513C403.558 60.3278 402.953 60.1365 402.371 59.7775C401.785 59.4158 401.342 58.9583 401.041 58.4048C400.739 57.8513 400.609 57.2389 400.65 56.5678C400.691 55.8967 400.933 55.2029 401.375 54.4863C401.819 53.7675 402.332 53.2395 402.913 52.9022C403.495 52.5649 404.1 52.408 404.729 52.4316C405.358 52.453 405.966 52.6446 406.552 53.0062C407.133 53.3652 407.575 53.8214 407.876 54.3749C408.181 54.9276 408.313 55.5395 408.272 56.2106C408.233 56.8831 407.992 57.5787 407.548 58.2974ZM406.135 57.4251C406.423 56.9595 406.595 56.5238 406.653 56.1181C406.713 55.7136 406.669 55.3513 406.52 55.0311C406.371 54.7109 406.128 54.4468 405.791 54.2388C405.454 54.0308 405.109 53.9319 404.756 53.9422C404.403 53.9524 404.058 54.0743 403.721 54.3078C403.387 54.5428 403.075 54.893 402.788 55.3586C402.501 55.8242 402.327 56.2592 402.267 56.6636C402.209 57.0694 402.254 57.4324 402.403 57.7526C402.552 58.0728 402.795 58.3369 403.132 58.5449C403.469 58.7529 403.814 58.8517 404.167 58.8415C404.52 58.8313 404.864 58.7087 405.199 58.4738C405.535 58.2403 405.848 57.8907 406.135 57.4251ZM409.354 56.4474L410.063 55.2985L415.476 58.6407L414.767 59.7896L412.749 58.5437L409.389 63.9859L408.011 63.1354L411.371 57.6933L409.354 56.4474ZM412.298 65.7822L416.368 59.1911L418.968 60.7966C419.468 61.1053 419.835 61.4637 420.069 61.8719C420.304 62.278 420.41 62.7064 420.387 63.1572C420.367 63.6071 420.221 64.0509 419.951 64.4886C419.681 64.9263 419.348 65.2542 418.953 65.4724C418.557 65.6905 418.123 65.7823 417.649 65.7477C417.178 65.7145 416.689 65.5415 416.182 65.2289L414.525 64.2056L415.215 63.0888L416.647 63.9731C416.915 64.1386 417.164 64.229 417.395 64.244C417.629 64.2582 417.84 64.2092 418.028 64.097C418.219 63.984 418.382 63.8191 418.516 63.6024C418.651 63.3836 418.725 63.1655 418.738 62.9481C418.754 62.7299 418.702 62.5214 418.581 62.3227C418.462 62.1218 418.268 61.9379 417.997 61.771L417.058 61.1908L413.692 66.6426L412.298 65.7822Z" fill="black"/>
</svg>
