<svg width="500" height="500" viewBox="0 0 500 500" fill="none" xmlns="http://www.w3.org/2000/svg">
<path d="M270.52 459.168L270.48 221.572L224.51 220.98L225.656 444.86L208.542 459.168H270.52Z" fill="#162D53"/>
<path d="M226.132 222.56L268.938 223.113V457.587H212.928L226.685 446.085C227.04 445.768 227.238 445.333 227.238 444.86L226.132 222.56ZM224.55 220.94L225.656 444.86L208.542 459.128H270.52V221.573L224.55 220.98V220.94Z" fill="black"/>
<path d="M319.018 209.318L319.257 225.722L325.897 204.892L377.835 267.107L344.158 274.933C344.158 274.933 338.072 299.795 333.012 320.508C326.332 347.9 308.03 356.713 290.283 352.563C270.125 347.86 265.935 324.697 265.935 307.82V212.323L319.018 209.318Z" fill="#162D53"/>
<path d="M326.53 208.133L374.988 266.158L343.802 273.392C343.21 273.51 342.775 273.985 342.617 274.538C342.538 274.775 336.45 299.638 331.47 320.112C326.53 340.35 314.513 351.932 298.505 351.932C282.497 351.932 293.287 351.615 290.638 351.022C270.52 346.358 267.515 321.93 267.515 307.82V213.785L317.478 210.94L317.715 225.683C317.715 226.473 318.308 227.105 319.058 227.225C319.138 227.225 319.217 227.225 319.295 227.225C319.968 227.225 320.6 226.79 320.798 226.118L326.568 208.053L326.53 208.133ZM325.897 204.892L319.257 225.722L319.018 209.318L265.935 212.323V307.82C265.935 324.697 270.163 347.86 290.283 352.563C293.01 353.197 295.777 353.513 298.505 353.513C313.407 353.513 327.398 343.632 333.012 320.468C338.072 299.757 344.158 274.893 344.158 274.893L377.835 267.067L325.897 204.852V204.892Z" fill="black"/>
<path d="M225.656 430.708V437.863L201.703 459.168H270.52V445.887L225.656 430.708Z" fill="black"/>
<path d="M377.835 267.107L323.842 202.442L318.98 227.067L341.628 285.29L344.158 274.933L377.835 267.107Z" fill="black"/>
<path d="M211.822 209.28C219.885 208.845 235.025 207.263 236.448 199.398C239.492 182.875 231.743 167.105 223.72 163.349L223.363 176.353C223.363 176.353 210.043 176.433 205.695 176.512C203.997 176.512 202.652 178.013 202.652 179.872C202.652 181.73 203.6 183.073 205.735 183.192L223.245 184.417L204.865 184.18C202.652 183.903 200.675 185.247 200.438 187.145C200.202 189.042 201.783 191.097 204.035 191.097L223.167 192.165L204.905 192.243C202.098 192.165 200.478 193.43 200.32 195.367C200.162 197.263 201.505 199.24 204.312 199.2L222.93 199.753C218.858 200.663 217.712 201.097 209.648 202.56C206.21 203.192 205.063 204.695 205.538 206.908C206.012 209.082 207.79 209.517 211.822 209.318V209.28Z" fill="#F3F8FF"/>
<path d="M225.222 166.116C228.147 168.37 230.835 172.282 232.772 177.143C235.498 184.022 236.25 191.808 234.907 199.082C234.037 203.903 225.775 206.947 211.743 207.698C211.19 207.698 210.677 207.738 210.242 207.738C207.355 207.738 207.237 207.145 207.118 206.552C206.96 205.84 207.118 205.525 207.237 205.327C207.593 204.813 208.582 204.378 210.003 204.102C216.21 202.955 218.345 202.48 220.835 201.888C221.585 201.69 222.415 201.532 223.363 201.295C224.155 201.137 224.668 200.387 224.59 199.595C224.51 198.805 223.878 198.172 223.048 198.172L204.43 197.618C204.43 197.618 204.43 197.618 204.392 197.618H204.312C203.522 197.618 202.89 197.382 202.455 196.947C202.098 196.592 201.94 196.038 201.98 195.485C202.098 194.022 203.758 193.825 204.747 193.825C204.827 193.825 204.865 193.825 204.945 193.825C204.945 193.825 204.945 193.825 204.983 193.825L223.245 193.745C224.115 193.745 224.787 193.073 224.827 192.203C224.867 191.335 224.193 190.623 223.325 190.583L204.193 189.517C204.193 189.517 204.153 189.517 204.115 189.517C203.323 189.517 202.81 189.082 202.613 188.843C202.217 188.41 202.058 187.857 202.098 187.382C202.217 186.472 203.205 185.762 204.392 185.762C205.577 185.762 204.628 185.762 204.787 185.762C204.827 185.762 204.905 185.762 204.945 185.762L223.325 185.998C224.155 185.998 224.867 185.327 224.905 184.497C224.905 183.627 224.273 182.915 223.443 182.837L205.933 181.61C204.983 181.572 204.352 181.255 204.312 179.872C204.312 178.923 204.983 178.132 205.815 178.093C210.123 178.013 223.363 177.935 223.483 177.935C224.352 177.935 225.025 177.263 225.063 176.393L225.34 166.116H225.222ZM223.72 163.349L223.363 176.353C223.363 176.353 210.043 176.433 205.695 176.512C203.997 176.512 202.652 178.013 202.652 179.872C202.652 181.73 203.6 183.073 205.735 183.192L223.245 184.417L204.865 184.18C204.668 184.18 204.47 184.18 204.312 184.18C202.335 184.18 200.675 185.445 200.438 187.183C200.202 189.082 201.782 191.137 204.035 191.137L223.167 192.203L204.905 192.283C204.827 192.283 204.747 192.283 204.668 192.283C202.02 192.283 200.478 193.548 200.32 195.405C200.162 197.303 201.467 199.24 204.193 199.24C206.922 199.24 204.273 199.24 204.312 199.24L222.93 199.793C218.858 200.702 217.712 201.137 209.648 202.6C206.21 203.232 205.063 204.733 205.537 206.947C205.933 208.805 207.277 209.398 210.242 209.398C213.205 209.398 211.268 209.398 211.822 209.358C219.885 208.923 235.025 207.343 236.447 199.477C239.492 182.955 231.743 167.183 223.72 163.428V163.349Z" fill="black"/>
<path d="M262.417 88.841C262.417 88.841 146.959 89.3152 135.773 89.1967C118.579 89.0385 107.314 113.269 125.219 126.51C142.888 139.593 225.38 198.963 225.38 198.963L225.657 226.552H319.138L319.335 81.7657H269.097L262.417 88.8014V88.841Z" fill="#82C6AE"/>
<path d="M225.38 199.753C225.222 199.753 225.063 199.713 224.905 199.595C224.075 199.002 142.216 140.068 124.745 127.143C116.523 121.056 113.401 111.964 116.444 102.913C119.369 94.2167 127.037 88.4063 135.575 88.4063C144.113 88.4063 135.694 88.4063 135.773 88.4063C150.991 88.5643 253.563 88.2087 254.63 88.2087C255.065 88.2087 255.42 88.5643 255.42 88.9992C255.42 89.434 255.065 89.7897 254.63 89.7897C253.602 89.7897 150.991 90.1455 135.773 89.9873C135.733 89.9873 135.654 89.9873 135.615 89.9873C127.749 89.9873 120.713 95.363 117.986 103.427C115.179 111.846 118.065 120.225 125.733 125.917C143.204 138.843 225.063 197.777 225.855 198.37C226.21 198.607 226.29 199.122 226.052 199.477C225.893 199.675 225.657 199.793 225.42 199.793L225.38 199.753Z" fill="black"/>
<path d="M225.38 227.343C224.945 227.343 224.59 226.988 224.59 226.553V162.915C224.59 162.48 224.945 162.124 225.38 162.124C225.815 162.124 226.17 162.48 226.17 162.915V226.553C226.17 226.988 225.815 227.343 225.38 227.343Z" fill="black"/>
<path d="M225.38 163.745C225.222 163.745 225.063 163.705 224.905 163.587L152.848 110.028C152.493 109.751 152.414 109.277 152.69 108.921C152.967 108.566 153.441 108.486 153.797 108.763L225.855 162.322C226.21 162.599 226.29 163.073 226.013 163.429C225.855 163.626 225.617 163.745 225.38 163.745Z" fill="black"/>
<path d="M269.097 221.533L277.555 211.375L271.823 126.076H266.37L260.638 211.375L269.097 221.533Z" fill="#162D53"/>
<path d="M271.823 126.076H266.37L261.981 113.625H276.211L271.823 126.076Z" fill="#162D53"/>
<path d="M287.358 101.687H250.835L258.622 126.075L269.097 117.419L279.572 126.075L287.358 101.687Z" fill="#162D53"/>
<path d="M295.788 93.4275C295.957 89.8731 293.937 86.89 291.275 86.7646C288.615 86.6391 286.323 89.4188 286.155 92.9731C285.988 96.5275 288.008 99.5105 290.668 99.636C293.328 99.7615 295.622 96.9818 295.788 93.4275Z" fill="#82C6AE"/>
<path d="M291.39 88.4457C293.05 88.4457 294.473 90.4615 294.512 92.9517C294.592 95.6 293.09 97.9717 291.272 98.1297C291.232 98.1297 291.153 98.1297 291.113 98.1297C289.453 98.1297 288.03 96.1139 287.99 93.6237C287.912 90.9754 289.413 88.6039 291.232 88.4457C291.272 88.4457 291.35 88.4457 291.39 88.4457ZM291.39 86.8647C291.31 86.8647 291.192 86.8647 291.113 86.8647C288.425 87.0622 286.33 90.1059 286.41 93.6632C286.488 97.0625 288.583 99.7109 291.113 99.7109C293.643 99.7109 291.31 99.7109 291.39 99.7109C294.078 99.5132 296.173 96.4697 296.093 92.9122C296.015 89.5129 293.92 86.8647 291.39 86.8647Z" fill="black"/>
<path d="M291.43 95.8771C291.272 95.8771 291.113 95.8375 290.955 95.719C290.6 95.4818 290.52 94.968 290.757 94.6121C291.983 92.873 290.915 91.6476 290.757 91.5291C290.442 91.213 290.48 90.699 290.757 90.4223C291.073 90.1061 291.548 90.1061 291.863 90.4223C292.615 91.1733 293.643 93.2288 292.022 95.5608C291.865 95.7585 291.627 95.8771 291.39 95.8771H291.43Z" fill="black"/>
<path d="M247.424 99.9217C250.085 99.7962 252.105 96.8132 251.939 93.2587C251.77 89.7043 249.477 86.9247 246.817 87.0502C244.157 87.1757 242.137 90.1587 242.304 93.713C242.472 97.2673 244.764 100.047 247.424 99.9217Z" fill="#82C6AE"/>
<path d="M247.08 88.446C247.12 88.446 247.198 88.446 247.238 88.446C249.057 88.5645 250.52 90.9362 250.48 93.624C250.44 96.1142 249.017 98.13 247.357 98.13C245.697 98.13 247.238 98.13 247.198 98.13C245.38 98.0115 243.918 95.6399 243.958 92.952C243.997 90.4619 245.42 88.446 247.08 88.446ZM247.08 86.8649C244.55 86.8649 242.455 89.5132 242.377 92.9125C242.298 96.47 244.393 99.474 247.08 99.7112C247.16 99.7112 247.278 99.7112 247.357 99.7112C249.887 99.7112 251.982 97.0629 252.06 93.6635C252.14 90.1062 250.045 87.102 247.357 86.8649C247.278 86.8649 247.16 86.8649 247.08 86.8649Z" fill="black"/>
<path d="M247.001 95.8771C246.763 95.8771 246.526 95.7585 246.368 95.5608C244.708 93.2683 245.736 91.213 246.526 90.4223C246.843 90.1061 247.317 90.1061 247.633 90.4223C247.95 90.7386 247.95 91.213 247.633 91.5291C247.515 91.6476 246.408 92.873 247.633 94.6121C247.87 94.968 247.791 95.4423 247.436 95.719C247.278 95.8375 247.12 95.8771 246.961 95.8771H247.001Z" fill="black"/>
<path d="M269.097 114.139C280.623 114.139 289.967 104.795 289.967 93.2684C289.967 81.742 280.623 72.3982 269.097 72.3982C257.57 72.3982 248.227 81.742 248.227 93.2684C248.227 104.795 257.57 114.139 269.097 114.139Z" fill="white"/>
<path d="M269.097 73.9792C272.457 73.9792 275.777 74.8884 278.742 76.588C287.952 81.924 291.113 93.7427 285.817 102.952C282.378 108.921 275.975 112.597 269.097 112.597C262.218 112.597 262.417 111.688 259.452 110.028C250.243 104.692 247.08 92.873 252.377 83.6634C255.815 77.6947 262.218 74.0187 269.097 74.0187V73.9792ZM269.097 72.3982C261.863 72.3982 254.867 76.1532 250.993 82.8332C245.223 92.8335 248.662 105.601 258.622 111.372C261.903 113.269 265.5 114.178 269.057 114.178C276.29 114.178 283.287 110.423 287.16 103.743C292.932 93.7427 289.493 80.9755 279.532 75.2045C276.252 73.3072 272.655 72.3982 269.097 72.3982Z" fill="black"/>
<path d="M271.152 100.422L263.642 100.304C263.287 100.304 262.97 100.027 262.892 99.6713C262.812 99.3157 263.01 98.9598 263.325 98.8018C263.325 98.8018 266.607 96.944 266.132 86.5485C266.132 86.1137 266.448 85.758 266.883 85.7185C267.318 85.7185 267.673 86.0347 267.713 86.4695C268.03 93.5447 266.685 97.0627 265.54 98.7623L271.192 98.8413C271.627 98.8413 271.982 99.197 271.982 99.6318C271.982 100.067 271.627 100.422 271.192 100.422H271.152Z" fill="black"/>
<path d="M258.345 92.7545C256.132 92.7545 254.235 91.1733 253.84 88.9993C253.76 88.5647 254.037 88.1693 254.472 88.0903C254.907 88.0112 255.302 88.288 255.382 88.7227C255.658 90.1457 256.883 91.1733 258.345 91.1733C259.808 91.1733 261.033 90.1457 261.31 88.7227C261.388 88.288 261.785 88.0112 262.218 88.0903C262.653 88.1693 262.93 88.5647 262.852 88.9993C262.457 91.1733 260.558 92.7545 258.345 92.7545Z" fill="black"/>
<path d="M276.41 92.7545C274.195 92.7545 272.298 91.1733 271.903 88.9993C271.823 88.5647 272.1 88.1693 272.535 88.0903C272.97 88.0112 273.365 88.288 273.445 88.7227C273.722 90.1457 274.947 91.1733 276.41 91.1733C277.872 91.1733 279.097 90.1457 279.373 88.7227C279.453 88.288 279.848 88.0112 280.283 88.0903C280.718 88.1693 280.995 88.5647 280.915 88.9993C280.52 91.1733 278.623 92.7545 276.41 92.7545Z" fill="black"/>
<path d="M319.257 137.064C319.257 137.064 370.285 100.423 386.017 87.616C399.1 77.0228 395.86 51.528 372.38 51.3303C353.487 51.1723 305.422 51.3303 305.422 51.3303C294.71 50.4608 284.789 48.0102 275.777 44.6503L266.962 41.2905C262.1 39.077 258.939 44.0575 263.405 47.101C264.907 48.1287 275.342 52.8323 275.342 52.8323L244.709 52.9905C243.207 52.9905 241.982 54.2553 241.982 55.7573V55.9945C241.982 57.4965 243.285 58.5638 244.749 58.7218L266.409 60.7773L241.034 61.6073C239.53 61.6073 238.305 62.8722 238.305 64.3742V64.6113C238.305 66.1133 239.412 67.2597 241.072 67.3387L264.67 68.485L242.219 69.3547C240.599 69.4732 239.492 70.6195 239.492 72.1215V72.3587C239.492 73.8607 240.639 74.9673 242.259 75.086L264.472 76.1137L246.33 79.2363C244.709 79.4735 243.76 80.8568 243.997 82.359V82.596C244.235 84.0982 245.619 85.0863 247.12 84.9282L266.607 82.5565C268.465 82.3193 270.284 82.1613 272.14 82.0822L318.427 81.8055L319.297 137.064H319.257Z" fill="#82C6AE"/>
<path d="M308 51.3303C297.288 50.4608 284.789 48.0102 275.777 44.6503L266.962 41.2905C262.1 39.077 258.939 44.0575 263.405 47.101C264.907 48.1287 275.342 52.8323 275.342 52.8323L244.709 52.9905C243.207 52.9905 241.982 54.2553 241.982 55.7573V55.9945C241.982 57.4965 243.285 58.5638 244.749 58.7218L266.409 60.7773L241.034 61.6073C239.53 61.6073 238.305 62.8722 238.305 64.3742V64.6113C238.305 66.1133 239.412 67.2597 241.072 67.3387L264.67 68.485L242.219 69.3547C240.599 69.4732 239.492 70.6195 239.492 72.1215V72.3587C239.492 73.8607 240.639 74.9673 242.259 75.086L264.472 76.1137L246.33 79.2363C244.709 79.4735 243.76 80.8568 243.997 82.359V82.596C244.235 84.0982 245.619 85.0863 247.12 84.9282L266.607 82.5565C268.465 82.3193 270.284 82.1613 272.14 82.0822L308 81.8055V51.3303Z" fill="white"/>
<path d="M318.822 193.232C312.142 192.955 306.885 190.662 303.209 186.353C296.054 177.975 297.437 165.168 297.517 164.614C297.557 164.18 297.952 163.863 298.387 163.903C298.82 163.942 299.137 164.338 299.097 164.772C299.097 164.891 297.713 177.46 304.433 185.287C307.793 189.24 312.695 191.335 318.9 191.612C319.335 191.612 319.692 192.007 319.652 192.442C319.652 192.877 319.295 193.192 318.862 193.192L318.822 193.232Z" fill="white"/>
<path d="M319.257 137.855C319.018 137.855 318.782 137.736 318.623 137.538C318.387 137.183 318.465 136.708 318.822 136.432C319.335 136.076 370.008 99.6322 385.582 87.023C392.065 81.766 394.595 72.5167 391.827 64.5324C389.1 56.7455 382.025 52.2395 372.42 52.1209C353.763 51.9629 305.935 52.1209 305.462 52.1209C305.462 52.1209 305.422 52.1209 305.382 52.1209C295.343 51.2909 285.303 49.0379 275.54 45.4014L266.725 42.0415C266.725 42.0415 266.725 42.0415 266.685 42.0415C264.552 41.0534 262.93 41.7254 262.377 42.753C261.863 43.6622 261.982 45.1642 263.918 46.4685C265.105 47.259 272.852 50.8165 275.698 52.1209C276.053 52.279 276.212 52.6347 276.132 52.9905C276.053 53.3462 275.737 53.6229 275.382 53.6229L244.748 53.781C244.235 53.781 243.72 53.9787 243.365 54.3739C243.008 54.7692 242.812 55.2435 242.812 55.7574V55.9945C242.812 57.1409 243.838 57.8524 244.867 57.9314L266.527 59.9867C266.923 59.9867 267.238 60.382 267.238 60.8169C267.238 61.2515 266.883 61.5679 266.488 61.5679L241.112 62.3979C240.558 62.3979 240.083 62.5955 239.728 62.9907C239.373 63.3465 239.175 63.8604 239.175 64.3742V64.6114C239.175 65.7577 239.965 66.4692 241.19 66.5482L264.788 67.6945C265.223 67.6945 265.54 68.0502 265.54 68.485C265.54 68.9199 265.183 69.236 264.788 69.2755L242.337 70.1452C241.19 70.2242 240.36 71.0147 240.36 72.1215V72.3587C240.36 73.4654 241.152 74.2164 242.417 74.2954L264.63 75.3232C265.025 75.3232 265.342 75.6789 265.382 76.0742C265.382 76.4694 265.105 76.8252 264.71 76.9042L246.567 80.0269C245.42 80.1849 244.708 81.1335 244.867 82.2404V82.4775C245.065 83.5447 246.013 84.2562 247.16 84.1377L266.647 81.766C269.69 81.4102 272.812 81.2127 275.855 81.173L361.075 80.7779V82.3589L275.855 82.7542C272.852 82.7542 269.808 82.9519 266.803 83.3075L247.317 85.6792C245.342 85.8769 243.602 84.5724 243.325 82.6752V82.438C243.008 80.4617 244.313 78.7225 246.29 78.4457L257.278 76.5485L242.337 75.8765C240.282 75.7184 238.82 74.2954 238.82 72.3587V72.1215C238.82 70.1847 240.282 68.6827 242.298 68.564L246.883 68.3664L241.152 68.0897C239.097 67.9712 237.633 66.5087 237.633 64.5719V64.3347C237.633 63.386 237.988 62.5165 238.662 61.8445C239.333 61.1725 240.203 60.7772 241.152 60.7772L254.155 60.3425L244.827 59.4729C242.812 59.2752 241.348 57.8127 241.348 55.955V55.7179C241.348 54.7692 241.705 53.8995 242.377 53.2277C243.048 52.5557 243.918 52.1604 244.867 52.1604L271.863 52.0419C268.662 50.5794 264.117 48.4449 263.088 47.773C260.44 45.9942 260.163 43.5832 261.073 42.002C261.982 40.3814 264.353 39.2352 267.397 40.6185L276.212 43.9389C285.817 47.5359 295.698 49.7494 305.58 50.5794C307.082 50.5794 354.08 50.4212 372.538 50.5794C382.855 50.6584 390.443 55.5597 393.408 64.0185C396.413 72.6354 393.645 82.596 386.688 88.2879C371.115 100.937 320.363 137.38 319.888 137.736C319.73 137.855 319.572 137.894 319.415 137.894L319.257 137.855Z" fill="black"/>
<path d="M319.257 227.462C318.822 227.462 318.465 227.107 318.465 226.672L318.032 118.17C318.032 117.736 318.387 117.38 318.822 117.38C319.257 117.38 319.612 117.736 319.612 118.17L320.047 226.672C320.047 227.107 319.692 227.462 319.257 227.462Z" fill="black"/>
<path d="M224.51 226.592L319.138 226.553L224.59 231.533L224.51 226.592Z" fill="black"/>
<path d="M372.973 268.253L322.773 207.857L323.208 205.92L374.712 267.818L372.973 268.253Z" fill="white"/>
<path d="M270.52 456.362H204.747L206.605 454.78H270.52V456.362Z" fill="white"/>
<path d="M226.922 117.656L226.132 164.733L219.767 159.001L226.922 117.656Z" fill="black"/>
<path d="M311.785 50.4213H306.332V82.7543H311.785V50.4213Z" fill="black"/>
<path d="M314.527 62.8323C314.527 65.8526 312.079 68.3008 309.058 68.3008C306.038 68.3008 303.59 65.8526 303.59 62.8323C303.59 59.8121 306.038 57.3638 309.058 57.3638C312.079 57.3638 314.527 59.8121 314.527 62.8323Z" fill="white" stroke="black"/>
<path d="M232.812 439.207C232.692 439.207 232.613 439.207 232.495 439.127C232.218 439.008 232.02 438.732 232.02 438.417V429.562C232.02 429.127 232.377 428.772 232.812 428.772C233.247 428.772 233.602 429.127 233.602 429.562V436.558L238.818 431.538C239.135 431.222 239.65 431.262 239.927 431.538C240.242 431.855 240.203 432.368 239.927 432.645L233.365 438.97C233.207 439.127 233.008 439.207 232.812 439.207Z" fill="#82C6AE"/>
<path d="M333.96 272.207C333.723 272.207 333.525 272.127 333.367 271.93C333.09 271.613 333.13 271.1 333.487 270.823L338.862 266.357L331.668 265.565C331.233 265.527 330.917 265.13 330.957 264.697C330.995 264.262 331.392 263.945 331.827 263.985L340.878 264.973C341.193 264.973 341.47 265.21 341.55 265.527C341.628 265.842 341.55 266.158 341.312 266.357L334.513 272.008C334.355 272.127 334.198 272.207 334 272.207H333.96Z" fill="#82C6AE"/>
<path d="M225.34 227.383C224.905 227.383 224.55 227.027 224.55 226.592C224.55 226.157 224.905 225.802 225.34 225.802H319.138C319.571 225.802 319.928 226.118 319.928 226.552C319.928 226.987 319.571 227.343 319.138 227.343H225.34V227.383Z" fill="black"/>
<path d="M216.45 156.303L199.688 180.418L200.987 181.322L217.748 157.205L216.45 156.303Z" fill="black"/>
<path d="M211.127 152.157L194.365 176.272L195.664 177.175L212.425 153.059L211.127 152.157Z" fill="black"/>
<path d="M450.13 307.267L398.863 295.448L398.665 316.872L449.932 328.73L467.837 322.09L450.13 307.267Z" fill="#82C6AE"/>
<path d="M398.665 316.872L398.863 295.408L450.09 307.227L467.798 322.05L449.892 328.65L398.665 316.832V316.872ZM450.208 305.725L398.27 293.748C398.112 293.748 397.993 293.748 397.875 293.867C397.757 293.985 397.717 294.183 397.717 294.38L397.52 317.385C397.52 317.583 397.558 317.78 397.677 317.978C397.797 318.137 397.915 318.255 398.073 318.295L450.01 330.272C450.09 330.272 450.168 330.272 450.248 330.272L469.458 323.197C469.655 323.117 469.813 322.88 469.813 322.563C469.813 322.247 469.695 321.97 469.498 321.773L450.525 305.883C450.445 305.843 450.367 305.803 450.287 305.765L450.208 305.725Z" fill="black"/>
<path d="M125.061 215.012L70.4744 202.007L52.2129 208.687L70.4347 224.062L125.021 237.027L125.061 215.012Z" fill="white"/>
<path d="M70.4351 224.062L52.2133 208.687L70.5141 202.007L125.101 214.972L125.022 236.988L70.4351 224.023V224.062ZM126.207 213.747L70.277 200.465L49.4463 208.053L70.2375 225.565L126.168 238.845L126.247 213.747H126.207Z" fill="black"/>
<path d="M181.347 317.623L125.812 304.382L125.733 329.323L181.308 342.563L201.98 334.975L181.347 317.623Z" fill="#B4C6E0"/>
<path d="M84.2297 296.397C83.9925 296.515 83.7553 296.278 83.7948 295.843C83.8343 295.408 84.032 295.013 84.2692 294.895L117.156 280.823C117.393 280.705 117.63 280.942 117.59 281.377C117.551 281.812 117.353 282.207 117.116 282.325L84.2297 296.397ZM51.5805 301.338C51.3433 301.457 51.1062 301.218 51.1457 300.783C51.1852 300.35 51.3828 299.953 51.62 299.835L117.393 271.653C117.63 271.535 117.867 271.772 117.828 272.207C117.788 272.642 117.59 273.037 117.353 273.155L51.5805 301.338ZM51.8177 292.167C51.5805 292.287 51.3433 292.048 51.3828 291.613C51.4223 291.178 51.62 290.783 51.8572 290.665L117.63 262.483C117.867 262.363 118.104 262.602 118.065 263.037C118.025 263.47 117.828 263.867 117.59 263.985L51.8177 292.167ZM125.891 247.305L47.3907 280.942L17.6665 314.145L46.3235 322.327L124.824 288.688L125.891 247.305Z" fill="#82C6AE"/>
<path d="M117.669 262.482L51.8967 290.665C51.6595 290.783 51.4224 291.178 51.4224 291.613C51.4224 292.048 51.62 292.285 51.8572 292.167L117.63 263.985C117.867 263.865 118.104 263.47 118.104 263.035C118.104 262.6 117.907 262.363 117.669 262.482Z" fill="white"/>
<path d="M117.432 271.653L51.6599 299.835C51.4227 299.953 51.1855 300.35 51.1855 300.783C51.1855 301.218 51.3832 301.457 51.6204 301.337L117.393 273.155C117.63 273.037 117.867 272.642 117.867 272.207C117.867 271.772 117.67 271.535 117.432 271.653Z" fill="white"/>
<path d="M117.195 280.823L84.3088 294.895C84.0716 295.013 83.8345 295.408 83.8345 295.843C83.8345 296.278 84.0321 296.515 84.2693 296.397L117.156 282.325C117.393 282.207 117.63 281.812 117.63 281.377C117.63 280.942 117.432 280.703 117.195 280.823Z" fill="white"/>
<path d="M403.29 188.33L455.505 166.155C455.742 166.037 455.98 165.602 455.98 165.207C455.98 164.811 455.782 164.535 455.505 164.653L403.29 186.828C403.013 186.947 402.815 187.342 402.815 187.777C402.815 188.212 403.013 188.448 403.29 188.33L403.172 195.563C402.895 195.682 402.697 195.405 402.697 195.01C402.697 194.615 402.935 194.18 403.172 194.062L455.387 171.887C455.624 171.768 455.86 172.005 455.86 172.44C455.86 172.875 455.624 173.27 455.387 173.388L403.172 195.563L403.054 202.797C402.777 202.915 402.578 202.678 402.578 202.243C402.578 201.808 402.815 201.413 403.054 201.295L429.14 190.227C429.417 190.108 429.615 190.345 429.615 190.78C429.615 191.215 429.379 191.61 429.14 191.73L403.054 202.797L403.25 188.37L403.29 188.33ZM459.458 153.902L397.163 180.345L396.688 212.995L458.983 186.552L482.384 160.384L459.458 153.902Z" fill="#B4C6E0"/>
<path d="M455.545 164.693L403.33 186.868C403.053 186.987 402.855 187.382 402.855 187.817C402.855 188.252 403.053 188.488 403.33 188.37L455.545 166.195C455.782 166.077 456.018 165.642 456.018 165.247C456.018 164.851 455.822 164.575 455.545 164.693Z" fill="white"/>
<path d="M455.427 171.887L403.212 194.062C402.935 194.18 402.737 194.575 402.737 195.01C402.737 195.445 402.935 195.683 403.212 195.563L455.427 173.39C455.664 173.272 455.9 172.837 455.9 172.44C455.9 172.045 455.704 171.768 455.427 171.887Z" fill="white"/>
<path d="M429.22 190.188L403.132 201.255C402.855 201.375 402.658 201.77 402.658 202.205C402.658 202.64 402.855 202.877 403.132 202.758L429.22 191.69C429.497 191.572 429.695 191.177 429.695 190.742C429.695 190.307 429.497 190.07 429.22 190.188Z" fill="white"/>
<path d="M125.18 459.958C124.745 459.958 124.389 459.603 124.389 459.168V213.825C124.389 213.39 124.745 213.035 125.18 213.035C125.614 213.035 125.97 213.39 125.97 213.825V459.168C125.97 459.603 125.614 459.958 125.18 459.958Z" fill="black"/>
<path d="M150.793 459.958H99.5268C99.092 459.958 98.7363 459.603 98.7363 459.168C98.7363 458.733 99.092 458.377 99.5268 458.377H150.793C151.228 458.377 151.584 458.733 151.584 459.168C151.584 459.603 151.228 459.958 150.793 459.958Z" fill="black"/>
<path d="M397.48 459.958C397.045 459.958 396.688 459.602 396.688 459.168V180.978C396.688 180.543 397.045 180.187 397.48 180.187C397.915 180.187 398.27 180.543 398.27 180.978V459.128C398.27 459.563 397.915 459.918 397.48 459.918V459.958Z" fill="black"/>
<path d="M423.093 459.958H371.827C371.392 459.958 371.037 459.603 371.037 459.168C371.037 458.733 371.392 458.377 371.827 458.377H423.093C423.528 458.377 423.883 458.733 423.883 459.168C423.883 459.603 423.528 459.958 423.093 459.958Z" fill="black"/>
<path d="M319.139 226.553L300.402 315.29L311.194 226.988L319.139 226.553Z" fill="black"/>
<path d="M225.5 198.5L200.5 181L217 157L225.5 162.5V198.5Z" fill="#F3F8FF" stroke="black"/>
</svg>
