<svg width="500" height="500" viewBox="0 0 500 500" fill="none" xmlns="http://www.w3.org/2000/svg">
<path d="M248.725 465.627H224.256C224.051 465.627 223.856 465.545 223.711 465.402C223.566 465.257 223.486 465.06 223.486 464.857V302.172C223.486 301.967 223.566 301.772 223.711 301.627C223.856 301.483 224.051 301.402 224.256 301.402C224.461 301.402 224.656 301.483 224.801 301.627C224.946 301.772 225.026 301.967 225.026 302.172V464.102H248.725C248.93 464.102 249.126 464.183 249.27 464.327C249.415 464.472 249.496 464.667 249.496 464.872C249.496 465.077 249.415 465.272 249.27 465.417C249.126 465.562 248.93 465.642 248.725 465.642V465.627Z" fill="black"/>
<path d="M313.35 34.5043C314.987 34.5312 316.605 36.1415 316.694 37.9712L317.965 57.4863L319.417 38.965C319.544 37.2238 321.159 35.6753 322.792 35.7023H323.045C324.679 35.7292 326.205 37.3278 326.312 39.0845L326.224 57.3515L329.102 43.3295C329.152 42.9402 329.282 42.565 329.48 42.2267C329.68 41.8883 329.947 41.594 330.262 41.3612C330.579 41.1283 330.939 40.9618 331.322 40.8718C331.704 40.7818 332.1 40.77 332.487 40.8372L332.734 40.8718C333.51 40.9963 334.209 41.421 334.675 42.0543C335.142 42.6877 335.34 43.479 335.23 44.258L333.354 58.2297C332.835 62.0738 332.552 65.946 332.504 69.8247C332.369 81.4852 332.34 89.7828 331.679 103.011C331.679 103.011 302.487 95.9772 298.797 95.434C297.255 80.4528 296.935 70.9457 292.544 60.2252C290.81 55.9878 295.425 52.8405 298.322 57.1435C299.412 58.7652 301.57 64.0465 301.57 64.0465L300.364 41.6693C300.395 40.036 302.094 38.3912 303.73 38.418H303.982C305.619 38.445 307.175 39.5428 307.314 41.1377L309.59 59.2852L309.617 37.8595C309.644 36.2223 311.462 34.4695 313.084 34.5003L313.35 34.5043Z" fill="white"/>
<path d="M313.056 34.5003V36.0413H313.306C314.078 36.0413 315.086 36.9773 315.136 38.0328V38.0598L316.411 57.5748C316.438 57.966 316.611 58.3327 316.896 58.6002C317.183 58.8678 317.561 59.0163 317.953 59.0155C318.341 59.0167 318.716 58.8708 319.001 58.6073C319.288 58.3437 319.463 57.9818 319.493 57.5942L320.953 39.069C321.023 38.16 321.928 37.2355 322.768 37.2355H323.018C323.835 37.2355 324.69 38.1792 324.771 39.1268L324.683 57.336C324.68 57.7188 324.821 58.0885 325.076 58.3733C325.331 58.6582 325.685 58.8377 326.065 58.8768C326.12 58.8807 326.173 58.8807 326.226 58.8768C326.581 58.8763 326.925 58.7538 327.198 58.53C327.473 58.3062 327.661 57.9947 327.733 57.648L330.611 43.6262V43.5607C330.641 43.2175 330.801 42.8987 331.058 42.6688C331.315 42.4392 331.65 42.316 331.993 42.3242C332.076 42.3185 332.161 42.3185 332.245 42.3242L332.491 42.3627C332.871 42.4268 333.21 42.6387 333.435 42.9518C333.658 43.265 333.75 43.6542 333.688 44.0345L331.816 57.9908C331.29 61.8978 331.001 65.8328 330.95 69.7747C330.95 71.0998 330.92 72.3827 330.908 73.6268C330.803 82.9143 330.723 90.3568 330.218 101.035C324.281 99.6097 305.765 95.1873 300.198 94.1012C300.028 92.383 299.875 90.742 299.72 89.1433C298.611 77.4558 297.795 69.012 293.941 59.6165C293.556 58.7073 293.591 57.8368 294.003 57.2243C294.12 57.0378 294.28 56.883 294.47 56.774C294.66 56.665 294.875 56.6053 295.093 56.6003C295.73 56.6003 296.431 57.0972 297.02 57.9678C297.845 59.185 299.535 63.1605 300.121 64.5897C300.236 64.873 300.433 65.1155 300.688 65.2863C300.941 65.4572 301.24 65.5485 301.546 65.5488C301.66 65.5492 301.775 65.5362 301.885 65.5103C302.24 65.43 302.555 65.227 302.773 64.9373C302.993 64.6477 303.103 64.2898 303.083 63.9272L301.885 41.6153C301.968 41.1797 302.186 40.7812 302.508 40.4768C302.83 40.1723 303.241 39.9777 303.68 39.9203H303.931C304.755 39.9203 305.688 40.4405 305.756 41.2378C305.756 41.2378 305.756 41.2725 305.756 41.2918L308.048 59.4855C308.096 59.86 308.278 60.2042 308.563 60.4527C308.846 60.7012 309.211 60.8368 309.59 60.8338H309.686C310.078 60.8093 310.445 60.6362 310.713 60.3498C310.981 60.0635 311.131 59.6855 311.13 59.293L311.158 37.8788C311.18 37.1083 312.275 36.0452 313.056 36.0452V34.5003ZM313.056 34.5003C311.431 34.5003 309.643 36.2377 309.616 37.8595L309.59 59.2852L307.31 41.1338C307.17 39.539 305.615 38.4373 303.976 38.4142H303.726H303.685C302.063 38.4142 300.391 40.0437 300.36 41.6655L301.565 64.0427C301.565 64.0427 299.408 58.7613 298.318 57.1395C297.343 55.695 296.173 55.094 295.116 55.094C293.033 55.094 291.388 57.4285 292.54 60.2328C296.931 70.9535 297.27 80.4605 298.791 95.4417C302.483 95.9848 331.675 103.019 331.675 103.019C332.336 89.7905 332.363 81.493 332.498 69.8325C332.546 65.9538 332.831 62.0817 333.35 58.2375L335.226 44.2657C335.336 43.4867 335.136 42.6953 334.67 42.062C334.203 41.4287 333.506 41.004 332.73 40.8797L332.483 40.845C332.096 40.7815 331.701 40.7962 331.32 40.8877C330.94 40.9793 330.581 41.1462 330.265 41.3783C329.95 41.6105 329.685 41.9035 329.483 42.2398C329.283 42.5763 329.151 42.9493 329.096 43.3373L326.22 57.3592L326.308 39.0922C326.2 37.3357 324.675 35.737 323.041 35.71H322.786H322.745C321.123 35.71 319.54 37.2508 319.413 38.9728L317.96 57.494L316.69 37.9788C316.6 36.1568 314.983 34.5467 313.345 34.512H313.056V34.5003Z" fill="black"/>
<path d="M332.657 179.462L332.319 88.0302L298.177 87.9145L297.405 165.416C274.085 165.231 233.27 164.915 226.912 164.915H204.507C140.815 213.163 162.823 288.355 162.823 288.355L248.24 288.993V200.86L312.857 199.488C324.555 199.103 332.657 195.683 332.657 179.462Z" fill="#82C6AE"/>
<path d="M299.705 89.4593L330.785 89.5672L331.115 179.462C331.115 186.595 329.494 191.427 326.15 194.235C323.342 196.592 319.217 197.74 312.804 197.955L248.19 199.318C247.787 199.327 247.404 199.493 247.12 199.782C246.839 200.07 246.68 200.457 246.68 200.86V287.442L163.978 286.822C162.888 282.468 159.205 265.685 161.282 244.763C162.703 230.552 166.478 217.235 172.495 205.182C179.942 190.267 190.874 177.242 204.989 166.456H226.884C233.237 166.456 273.777 166.772 297.379 166.957C297.787 166.957 298.179 166.795 298.469 166.506C298.757 166.217 298.92 165.825 298.92 165.416L299.705 89.4593ZM298.165 87.9183L297.394 165.42C274.074 165.235 233.26 164.919 226.9 164.919H204.507C140.815 213.163 162.823 288.355 162.823 288.355L248.24 288.993V200.86L312.857 199.488C324.575 199.103 332.677 195.675 332.677 179.457L332.319 88.0302L298.177 87.9145L298.165 87.9183Z" fill="black"/>
<path d="M278.118 328.67H177.888C177.683 328.67 177.488 328.59 177.343 328.445C177.198 328.3 177.118 328.105 177.118 327.9C177.118 327.697 177.198 327.5 177.343 327.355C177.488 327.212 177.683 327.13 177.888 327.13H278.118C278.321 327.13 278.518 327.212 278.661 327.355C278.806 327.5 278.888 327.697 278.888 327.9C278.888 328.105 278.806 328.3 278.661 328.445C278.518 328.59 278.321 328.67 278.118 328.67Z" fill="black"/>
<path d="M279.35 319.472L278.195 455.6L313.95 457.14V431.528C313.95 431.528 313.905 326.533 313.703 304.283C313.623 295.107 268.821 293.443 268.821 293.443L279.35 319.472Z" fill="#82C6AE"/>
<path d="M278.118 432.642L278.14 463.643H334.536L314.047 442.072L313.935 432.642H278.118Z" fill="black"/>
<path d="M265.992 288.567L265.432 327.042C265.432 327.042 245.017 326.798 214.399 327.127C177.839 327.512 177.712 302.137 177.712 288.323L265.992 288.567Z" fill="#2760AD"/>
<path d="M263.314 288.323L262.417 326.933L178.729 404.64L201.07 432.507C201.07 432.507 282.625 354.045 299.135 339.13L263.314 288.323Z" fill="#82C6AE"/>
<path d="M268.81 293.438C268.81 293.438 313.611 295.103 313.691 304.278C313.858 322.658 313.92 378.468 313.935 403.95L278.518 404.562L279.35 319.472L268.81 293.438Z" fill="#2760AD"/>
<path d="M215.255 370.613L262.417 326.933L263.313 288.323C273.738 289.02 288.653 288.323 298.153 288.323C318.392 288.323 328.788 312.342 299.135 339.13C285.988 351.005 256.638 379.508 240.147 395.372L215.255 370.613Z" fill="#2760AD"/>
<path d="M313.935 427.787H278.118V429.328H313.935V427.787Z" fill="white"/>
<path d="M223.566 411.1L198.708 386.092L199.838 385.043L224.656 410.01L223.566 411.1Z" fill="white"/>
<path d="M270.751 318.352C270.683 318.277 270.601 318.215 270.51 318.172C270.418 318.128 270.318 318.105 270.218 318.1C270.116 318.095 270.015 318.11 269.92 318.145C269.825 318.18 269.736 318.233 269.661 318.302L260.135 326.992L262.273 327.042L270.701 319.437C270.853 319.3 270.941 319.108 270.951 318.905C270.961 318.702 270.89 318.502 270.751 318.352Z" fill="white"/>
<path d="M313.912 320.728C308.597 326.12 284.488 352.065 278.773 358.225V360.49C280.463 358.668 305.738 331.422 313.827 323.008C313.827 323.008 313.793 320.985 313.912 320.728Z" fill="white"/>
<path d="M313.912 320.728L313.939 320.7C313.939 320.7 313.92 320.708 313.912 320.728Z" fill="white"/>
<path d="M298.195 463.643L290.971 453.285H278.118V451.743H291.377C291.502 451.743 291.623 451.775 291.733 451.832C291.843 451.89 291.938 451.973 292.008 452.075L300.017 463.578L298.195 463.643Z" fill="white"/>
<path d="M319.444 450.892H308.63C308.427 450.892 308.23 450.812 308.087 450.667C307.942 450.522 307.86 450.327 307.86 450.122C307.86 449.918 307.942 449.722 308.087 449.577C308.23 449.433 308.427 449.352 308.63 449.352H319.444C319.649 449.352 319.844 449.433 319.989 449.577C320.134 449.722 320.214 449.918 320.214 450.122C320.214 450.327 320.134 450.522 319.989 450.667C319.844 450.812 319.649 450.892 319.444 450.892Z" fill="white"/>
<path d="M322.352 453.973H311.539C311.335 453.973 311.139 453.893 310.995 453.748C310.85 453.603 310.769 453.408 310.769 453.203C310.769 453 310.85 452.803 310.995 452.658C311.139 452.515 311.335 452.433 311.539 452.433H322.352C322.557 452.433 322.752 452.515 322.897 452.658C323.042 452.803 323.122 453 323.122 453.203C323.122 453.408 323.042 453.603 322.897 453.748C322.752 453.893 322.557 453.973 322.352 453.973Z" fill="white"/>
<path d="M194.822 389.362L172.304 410.668L211.037 451.663L212.647 421.955L219.422 415.398L194.822 389.362Z" fill="black"/>
<path d="M187.388 426.512L186.078 425.248L188.647 412.883L179.818 403.538L180.938 402.478L190.042 412.108C190.127 412.198 190.19 412.308 190.223 412.427C190.258 412.547 190.263 412.673 190.238 412.795L187.388 426.512Z" fill="white"/>
<path d="M210.473 431.355C210.368 431.353 210.265 431.332 210.17 431.29C210.073 431.248 209.987 431.188 209.915 431.112L202.5 423.25C202.368 423.098 202.302 422.903 202.312 422.705C202.322 422.507 202.408 422.318 202.553 422.183C202.698 422.047 202.89 421.972 203.088 421.973C203.288 421.975 203.478 422.055 203.62 422.193L211.048 430.052C211.152 430.162 211.222 430.3 211.248 430.448C211.275 430.597 211.257 430.75 211.197 430.89C211.137 431.028 211.038 431.147 210.912 431.228C210.785 431.312 210.637 431.355 210.485 431.355H210.473Z" fill="white"/>
<path d="M210.235 435.583C210.13 435.585 210.025 435.563 209.928 435.523C209.831 435.482 209.745 435.422 209.671 435.345L202.25 427.483C202.175 427.41 202.115 427.323 202.075 427.228C202.035 427.132 202.015 427.03 202.015 426.925C202.016 426.822 202.038 426.718 202.078 426.623C202.12 426.528 202.18 426.442 202.255 426.372C202.331 426.3 202.42 426.243 202.516 426.208C202.615 426.172 202.718 426.155 202.821 426.16C202.926 426.165 203.028 426.192 203.121 426.237C203.215 426.282 203.298 426.345 203.366 426.423L210.793 434.302C210.896 434.41 210.965 434.548 210.991 434.695C211.016 434.843 210.998 434.995 210.94 435.133C210.88 435.272 210.781 435.388 210.656 435.472C210.531 435.555 210.385 435.598 210.235 435.6V435.583Z" fill="white"/>
<path d="M111.842 230.98C119.654 203.878 124.265 181.413 122.141 180.8C120.017 180.188 111.962 201.662 104.15 228.762C96.3382 255.863 91.7272 278.328 93.8512 278.942C95.9752 279.553 104.03 258.08 111.842 230.98Z" fill="black"/>
<path d="M92.8095 283.323C92.7365 283.322 92.664 283.312 92.5936 283.292C92.4966 283.263 92.406 283.217 92.3271 283.153C92.2481 283.09 92.1826 283.012 92.134 282.923C92.0853 282.835 92.0546 282.737 92.0436 282.637C92.0326 282.537 92.0415 282.433 92.0698 282.337L94.9397 272.375C94.9647 272.275 95.0098 272.18 95.0721 272.098C95.1345 272.015 95.213 271.945 95.3026 271.893C95.3925 271.842 95.4918 271.808 95.5946 271.797C95.6975 271.783 95.8016 271.793 95.9013 271.822C96.0008 271.85 96.0935 271.898 96.1738 271.963C96.2541 272.03 96.3205 272.11 96.3688 272.202C96.4171 272.293 96.4465 272.393 96.455 272.497C96.4636 272.6 96.4513 272.705 96.419 272.803L93.5491 282.765C93.5031 282.925 93.406 283.067 93.2726 283.168C93.1391 283.268 92.9766 283.323 92.8095 283.323Z" fill="black"/>
<path d="M113.241 235.122C113.168 235.122 113.095 235.113 113.025 235.093C112.928 235.067 112.837 235.02 112.757 234.957C112.678 234.893 112.612 234.815 112.563 234.727C112.514 234.637 112.483 234.54 112.472 234.438C112.46 234.338 112.469 234.237 112.497 234.138L120.521 206.303C120.798 205.337 120.68 204.3 120.194 203.42C119.708 202.54 118.894 201.888 117.929 201.607C117.828 201.582 117.734 201.537 117.651 201.475C117.568 201.412 117.499 201.333 117.447 201.245C117.396 201.155 117.363 201.055 117.35 200.952C117.338 200.85 117.346 200.745 117.375 200.645C117.404 200.547 117.452 200.453 117.518 200.373C117.583 200.293 117.664 200.227 117.756 200.178C117.847 200.13 117.948 200.1 118.051 200.092C118.154 200.083 118.258 200.095 118.356 200.128C119.711 200.525 120.853 201.442 121.533 202.678C122.214 203.915 122.378 205.37 121.989 206.727L113.98 234.567C113.934 234.727 113.836 234.867 113.703 234.967C113.57 235.067 113.407 235.122 113.241 235.122Z" fill="black"/>
<path d="M111.836 230.973L104.145 228.755L102.773 233.512L110.465 235.728L111.836 230.973Z" fill="#DCDCDC"/>
<path d="M218.705 182.227C214.335 182.238 210.14 180.517 207.039 177.438C206.892 177.295 206.81 177.1 206.809 176.895C206.807 176.692 206.887 176.495 207.03 176.348C207.174 176.203 207.369 176.12 207.574 176.118C207.779 176.118 207.975 176.197 208.12 176.342C209.594 177.79 211.347 178.922 213.274 179.667C215.2 180.413 217.26 180.755 219.325 180.673C221.39 180.593 223.415 180.09 225.279 179.195C227.14 178.302 228.8 177.035 230.155 175.475L236.437 168.237C236.5 168.148 236.58 168.077 236.674 168.022C236.765 167.968 236.869 167.933 236.975 167.922C237.08 167.91 237.189 167.92 237.292 167.952C237.394 167.983 237.489 168.037 237.569 168.107C237.65 168.177 237.715 168.263 237.76 168.362C237.805 168.458 237.83 168.563 237.832 168.67C237.835 168.778 237.815 168.885 237.774 168.983C237.732 169.082 237.67 169.172 237.594 169.245L231.31 176.483C229.824 178.212 227.995 179.613 225.939 180.6C223.884 181.585 221.647 182.137 219.369 182.215C219.157 182.223 218.934 182.227 218.705 182.227Z" fill="white"/>
<path d="M219.642 258.955C219.437 258.955 219.242 258.873 219.097 258.728C218.954 258.585 218.872 258.388 218.872 258.183V181.457C218.872 181.252 218.954 181.057 219.097 180.912C219.242 180.767 219.437 180.687 219.642 180.687C219.847 180.687 220.042 180.767 220.187 180.912C220.332 181.057 220.412 181.252 220.412 181.457V258.183C220.412 258.388 220.332 258.585 220.187 258.728C220.042 258.873 219.847 258.955 219.642 258.955Z" fill="white"/>
<path d="M238.71 158.398L244.646 243.545L229.395 230.877L232.588 161.722L238.71 158.398Z" fill="black"/>
<path d="M199.865 158.398L193.929 231.665L209.765 243.545L205.987 161.722L199.865 158.398Z" fill="black"/>
<path d="M430.867 287.903H70.5596V300.943H430.867V287.903Z" fill="white"/>
<path d="M431.639 301.713H69.7891V287.148H431.639V301.713ZM71.3301 300.173H430.097V288.69H71.3301V300.173Z" fill="black"/>
<path d="M198.118 160.751C200.722 160.734 202.815 157.916 202.793 154.457C202.77 150.998 200.642 148.207 198.038 148.224C195.433 148.241 193.34 151.059 193.363 154.518C193.385 157.977 195.515 160.768 198.118 160.751Z" fill="white"/>
<path d="M198.07 149.761C199.665 149.761 201.055 151.618 201.237 153.999C201.437 156.591 200.118 158.972 198.362 159.203C198.273 159.208 198.185 159.208 198.097 159.203C196.502 159.203 195.112 157.346 194.93 154.965C194.73 152.377 196.047 149.992 197.803 149.761C197.892 149.755 197.982 149.755 198.07 149.761ZM198.07 148.22C197.913 148.219 197.758 148.229 197.603 148.251C195.015 148.59 193.127 151.656 193.393 155.1C193.643 158.332 195.705 160.747 198.097 160.747C198.252 160.748 198.408 160.739 198.563 160.72C201.152 160.378 203.038 157.311 202.773 153.871C202.523 150.636 200.462 148.22 198.07 148.22Z" fill="black"/>
<path d="M198.058 157.504C197.87 157.502 197.69 157.433 197.55 157.307C196.78 156.602 195.662 154.657 197.142 152.326C197.192 152.234 197.262 152.153 197.345 152.089C197.427 152.024 197.523 151.977 197.625 151.951C197.727 151.925 197.833 151.92 197.937 151.937C198.042 151.953 198.14 151.991 198.23 152.047C198.318 152.104 198.395 152.178 198.453 152.265C198.513 152.352 198.553 152.45 198.573 152.554C198.593 152.657 198.592 152.763 198.568 152.866C198.545 152.969 198.502 153.066 198.44 153.151C197.327 154.911 198.44 156.044 198.582 156.167C198.697 156.272 198.775 156.409 198.81 156.561C198.845 156.712 198.833 156.87 198.777 157.014C198.72 157.159 198.622 157.283 198.493 157.37C198.365 157.457 198.213 157.504 198.058 157.504Z" fill="black"/>
<path d="M245.902 154.491C245.912 151.031 243.81 148.221 241.205 148.212C238.602 148.204 236.482 151.002 236.472 154.461C236.46 157.92 238.562 160.731 241.167 160.74C243.77 160.748 245.89 157.95 245.902 154.491Z" fill="white"/>
<path d="M241.202 149.761C241.29 149.755 241.377 149.755 241.465 149.761C243.222 149.985 244.547 152.365 244.353 154.954C244.18 157.331 242.813 159.191 241.198 159.191C241.112 159.197 241.023 159.197 240.937 159.191C239.177 158.968 237.855 156.587 238.043 153.998C238.22 151.622 239.608 149.761 241.202 149.761ZM241.202 148.22C238.802 148.22 236.745 150.643 236.507 153.887C236.257 157.331 238.148 160.389 240.743 160.721C240.897 160.739 241.048 160.748 241.202 160.747C243.602 160.747 245.655 158.324 245.895 155.085C246.148 151.641 244.253 148.578 241.657 148.247C241.505 148.229 241.352 148.22 241.198 148.22H241.202Z" fill="black"/>
<path d="M241.23 157.504C241.073 157.504 240.923 157.458 240.795 157.37C240.667 157.283 240.567 157.159 240.51 157.015C240.453 156.87 240.442 156.712 240.477 156.561C240.512 156.41 240.592 156.272 240.705 156.167C240.843 156.04 241.957 154.908 240.837 153.151C240.735 152.979 240.705 152.774 240.752 152.58C240.798 152.386 240.918 152.218 241.087 152.111C241.255 152.003 241.458 151.965 241.653 152.005C241.848 152.045 242.022 152.159 242.135 152.323C243.622 154.634 242.52 156.599 241.75 157.307C241.607 157.435 241.422 157.505 241.23 157.504Z" fill="black"/>
<path d="M219.642 174.885C230.88 174.885 239.988 165.775 239.988 154.538C239.988 143.3 230.88 134.191 219.642 134.191C208.405 134.191 199.295 143.3 199.295 154.538C199.295 165.775 208.405 174.885 219.642 174.885Z" fill="white"/>
<path d="M219.662 135.727C223.877 135.731 227.97 137.152 231.282 139.761C234.593 142.369 236.933 146.015 237.925 150.113C238.917 154.211 238.503 158.523 236.75 162.358C234.997 166.192 232.007 169.327 228.26 171.258C224.512 173.19 220.223 173.805 216.083 173.008C211.943 172.21 208.192 170.045 205.43 166.858C202.668 163.673 201.057 159.652 200.855 155.44C200.652 151.229 201.87 147.072 204.313 143.636C206.058 141.192 208.362 139.2 211.03 137.824C213.7 136.449 216.658 135.73 219.662 135.727ZM219.662 134.187C214.807 134.181 210.108 135.912 206.418 139.066C202.727 142.22 200.285 146.59 199.533 151.387C198.782 156.183 199.77 161.09 202.318 165.223C204.868 169.355 208.81 172.44 213.435 173.92C218.058 175.4 223.058 175.178 227.533 173.295C232.008 171.412 235.663 167.99 237.837 163.649C240.01 159.308 240.56 154.333 239.388 149.621C238.215 144.91 235.397 140.773 231.442 137.958C228.002 135.508 223.883 134.19 219.662 134.187Z" fill="black"/>
<path d="M218.51 160.112C218.305 160.112 218.108 160.03 217.965 159.886C217.82 159.741 217.738 159.546 217.738 159.341C217.738 159.137 217.82 158.941 217.965 158.796C218.108 158.652 218.305 158.571 218.51 158.571L223.032 158.478C221.707 156.783 219.735 153.432 219.45 148.297C219.443 148.196 219.458 148.095 219.492 147.999C219.525 147.903 219.577 147.815 219.645 147.74C219.712 147.664 219.795 147.603 219.885 147.559C219.977 147.515 220.077 147.49 220.177 147.484C220.278 147.479 220.38 147.493 220.475 147.527C220.572 147.56 220.658 147.612 220.735 147.68C220.81 147.748 220.872 147.83 220.915 147.921C220.958 148.012 220.985 148.111 220.99 148.212C221.375 155.185 225.205 158.613 225.227 158.636C225.345 158.738 225.428 158.873 225.468 159.024C225.507 159.175 225.5 159.334 225.447 159.48C225.393 159.626 225.298 159.753 225.172 159.844C225.045 159.935 224.893 159.985 224.738 159.989L218.525 160.108L218.51 160.112Z" fill="black"/>
<path d="M213.009 153.97C213.639 153.968 214.145 152.818 214.14 151.401C214.135 149.984 213.622 148.837 212.992 148.839C212.362 148.841 211.855 149.992 211.86 151.409C211.865 152.826 212.379 153.973 213.009 153.97Z" fill="black"/>
<path d="M226.305 153.93C226.935 153.928 227.441 152.778 227.436 151.361C227.433 149.944 226.918 148.797 226.288 148.799C225.658 148.801 225.151 149.952 225.156 151.369C225.161 152.785 225.676 153.932 226.305 153.93Z" fill="black"/>
<path d="M219.642 169.477C218.999 169.477 218.37 169.287 217.834 168.93C217.299 168.573 216.882 168.065 216.635 167.472C216.389 166.877 216.324 166.223 216.449 165.592C216.575 164.961 216.884 164.381 217.339 163.926C217.794 163.471 218.374 163.161 219.005 163.036C219.635 162.911 220.29 162.976 220.884 163.222C221.479 163.469 221.987 163.886 222.344 164.421C222.7 164.957 222.89 165.586 222.89 166.229C222.887 167.09 222.545 167.915 221.935 168.523C221.327 169.132 220.502 169.475 219.642 169.477ZM219.642 164.519C219.304 164.518 218.972 164.618 218.69 164.805C218.409 164.993 218.189 165.259 218.059 165.572C217.929 165.884 217.895 166.228 217.96 166.56C218.025 166.892 218.189 167.197 218.427 167.437C218.667 167.677 218.972 167.84 219.304 167.907C219.635 167.973 219.979 167.938 220.292 167.81C220.605 167.68 220.872 167.462 221.06 167.18C221.249 166.898 221.349 166.568 221.349 166.229C221.349 165.776 221.169 165.342 220.849 165.021C220.529 164.7 220.095 164.52 219.642 164.519Z" fill="black"/>
<path d="M240.026 256.258L173.993 253.083L176.251 249.405L176.443 249.508L206.49 200.117C208.7 196.528 210.343 192.622 211.36 188.533C211.475 188.04 211.58 187.555 211.668 187.073C212 185.338 212.161 183.573 212.153 181.807C211.976 162.754 189.745 155.408 173.408 180.875C173.365 180.94 171.131 184.588 167.61 190.443C160.426 202.308 148.5 222.032 143.218 230.988L143.754 231.285C140.895 236.362 138.103 241.412 135.522 246.22C122.648 270.203 127.517 287.823 158.126 287.742L240.031 287.812C238.906 287.838 240.026 256.258 240.026 256.258Z" fill="#82C6AE"/>
<path d="M240.027 288.605L158.123 288.535H157.942C144.055 288.535 134.867 284.957 130.634 277.892C126.154 270.418 127.606 259.352 134.836 245.88C149.937 217.76 172.522 180.86 172.75 180.49C183.805 163.844 197.33 161.641 205.227 166.622C213.005 171.53 216.927 184.227 207.153 200.522L175.335 252.375L240.05 255.492C240.248 255.502 240.435 255.587 240.57 255.73C240.707 255.873 240.783 256.063 240.782 256.262V287.85C240.782 288.053 240.702 288.25 240.557 288.395C240.412 288.538 240.217 288.62 240.012 288.62L240.027 288.605ZM158.123 286.995L239.257 287.063V256.993L173.963 253.855C173.828 253.848 173.698 253.807 173.585 253.735C173.472 253.663 173.38 253.563 173.317 253.445C173.253 253.325 173.223 253.192 173.228 253.058C173.232 252.923 173.272 252.793 173.343 252.68L205.847 199.705C215.073 184.323 211.568 172.447 204.407 167.923C197.122 163.324 184.513 165.555 174.048 181.313C173.835 181.662 151.274 218.515 136.196 246.605C129.235 259.572 127.768 270.103 131.959 277.095C135.911 283.682 144.717 287.018 158.123 286.995Z" fill="black"/>
<path d="M170.65 258.955C170.512 258.953 170.375 258.917 170.257 258.845C170.139 258.773 170.04 258.672 169.975 258.55C169.909 258.428 169.877 258.292 169.884 258.153C169.889 258.015 169.932 257.88 170.007 257.763L177.242 246.7C177.297 246.617 177.369 246.543 177.452 246.485C177.535 246.428 177.63 246.388 177.729 246.368C177.827 246.347 177.93 246.347 178.029 246.365C178.129 246.383 178.224 246.422 178.309 246.477C178.394 246.533 178.465 246.603 178.524 246.688C178.58 246.772 178.62 246.865 178.64 246.965C178.662 247.063 178.664 247.165 178.644 247.265C178.625 247.365 178.587 247.46 178.532 247.545L171.297 258.608C171.227 258.715 171.13 258.803 171.019 258.863C170.905 258.923 170.779 258.955 170.65 258.955Z" fill="black"/>
<path d="M173.998 253.083L179.73 253.362L200.458 209.97L173.998 253.083Z" fill="black"/>
<path d="M263.968 288.828C263.968 288.828 247.45 288.655 238.898 288.608V255.418C290.945 257.768 300.117 286.96 301.627 288.685L273.587 288.608L263.968 288.828Z" fill="white"/>
<path d="M240.44 257.037C259.227 258.107 274.338 262.857 285.383 271.17C293.53 277.302 297.267 283.728 299.043 287.137L273.592 287.068H273.553L263.962 287.283C263.263 287.283 249.033 287.133 240.44 287.075V257.037ZM238.898 255.418V288.608C247.45 288.655 263.968 288.828 263.968 288.828L273.598 288.608L301.638 288.685C300.128 286.96 290.957 257.768 238.91 255.418H238.898Z" fill="black"/>
<path d="M238.821 147.746C238.821 147.746 229.723 128.724 211.305 136.883C203.921 140.154 201.941 147.746 201.941 147.746C201.941 147.746 212.993 145.616 220.381 140.693C227.438 145.389 238.821 147.746 238.821 147.746Z" fill="black"/>
<path d="M294.602 288.605C294.472 288.605 294.345 288.572 294.232 288.51C294.12 288.448 294.024 288.358 293.954 288.25C289.437 281.37 283.339 275.67 276.169 271.628C276.075 271.585 275.992 271.523 275.922 271.447C275.854 271.37 275.8 271.28 275.767 271.182C275.732 271.085 275.719 270.982 275.725 270.878C275.732 270.775 275.76 270.675 275.807 270.583C275.854 270.49 275.917 270.408 275.995 270.342C276.075 270.275 276.165 270.225 276.264 270.195C276.364 270.163 276.467 270.153 276.569 270.163C276.672 270.173 276.772 270.203 276.862 270.253C277.305 270.477 287.807 275.858 295.249 287.418C295.359 287.59 295.397 287.797 295.354 287.997C295.312 288.197 295.192 288.37 295.022 288.482C294.897 288.562 294.75 288.605 294.602 288.605Z" fill="black"/>
<path d="M285.707 288.467C285.597 288.465 285.487 288.442 285.387 288.397C285.287 288.35 285.197 288.283 285.125 288.2C281.26 283.737 276.648 279.98 271.495 277.098C271.32 277.002 271.188 276.842 271.128 276.652C271.068 276.46 271.085 276.253 271.175 276.075C271.267 275.895 271.422 275.758 271.612 275.693C271.8 275.628 272.008 275.638 272.19 275.723C272.49 275.873 279.59 279.498 286.288 287.187C286.387 287.298 286.45 287.435 286.472 287.583C286.493 287.73 286.472 287.88 286.41 288.015C286.35 288.15 286.25 288.263 286.125 288.343C286 288.423 285.855 288.467 285.707 288.467Z" fill="black"/>
<path d="M332.657 85.1795H297.799V99.1512H332.657V85.1795Z" fill="black"/>
<path d="M319.875 103.786C319.67 103.786 319.475 103.704 319.33 103.56C319.187 103.415 319.105 103.22 319.105 103.015V95.3608C319.105 95.1565 319.187 94.9605 319.33 94.816C319.475 94.6715 319.67 94.5903 319.875 94.5903C320.08 94.5903 320.275 94.6715 320.42 94.816C320.565 94.9605 320.645 95.1565 320.645 95.3608V103.015C320.645 103.22 320.565 103.415 320.42 103.56C320.275 103.704 320.08 103.786 319.875 103.786Z" fill="white"/>
<path d="M324.555 103.786C324.352 103.786 324.155 103.704 324.01 103.56C323.867 103.415 323.785 103.22 323.785 103.015V95.3608C323.785 95.1565 323.867 94.9605 324.01 94.816C324.155 94.6715 324.352 94.5903 324.555 94.5903C324.76 94.5903 324.955 94.6715 325.1 94.816C325.245 94.9605 325.327 95.1565 325.327 95.3608V103.015C325.327 103.22 325.245 103.415 325.1 103.56C324.955 103.704 324.76 103.786 324.555 103.786Z" fill="white"/>
<path d="M227.288 287.028L227.185 254.743L241.156 255.377L241.26 286.987L227.288 287.028Z" fill="black"/>
<path d="M223.393 277.083C223.19 277.083 222.993 277.002 222.848 276.857C222.705 276.713 222.623 276.517 222.623 276.312C222.623 276.108 222.705 275.912 222.848 275.768C222.993 275.623 223.19 275.542 223.393 275.542L231.045 275.515C231.248 275.515 231.445 275.597 231.588 275.74C231.733 275.885 231.815 276.082 231.815 276.285C231.815 276.49 231.733 276.685 231.588 276.83C231.445 276.975 231.248 277.057 231.045 277.057L223.393 277.083Z" fill="white"/>
<path d="M223.41 281.652C223.205 281.652 223.009 281.57 222.865 281.425C222.72 281.282 222.639 281.085 222.639 280.882C222.639 280.677 222.72 280.48 222.865 280.337C223.009 280.192 223.205 280.11 223.41 280.11L231.064 280.083C231.269 280.083 231.464 280.165 231.609 280.31C231.754 280.453 231.834 280.65 231.834 280.853C231.834 281.058 231.754 281.255 231.609 281.398C231.464 281.543 231.269 281.625 231.064 281.625L223.414 281.652H223.41Z" fill="white"/>
<path d="M348.644 214.543H406.38C409.292 214.543 411.657 212.525 411.657 210.037C411.657 207.547 409.292 205.533 406.38 205.533H348.644C348.644 205.533 352.877 209.335 348.644 214.543Z" fill="white"/>
<path d="M406.38 215.313H348.643C348.478 215.298 348.323 215.232 348.2 215.122C348.075 215.013 347.988 214.87 347.95 214.708C347.886 214.525 347.861 214.33 347.878 214.137C347.895 213.942 347.951 213.753 348.046 213.583C351.748 207.34 348.276 202.84 348.126 202.652C348.008 202.487 347.93 202.297 347.895 202.097C347.86 201.897 347.87 201.692 347.926 201.495C347.956 201.322 348.043 201.16 348.173 201.04C348.301 200.918 348.466 200.842 348.643 200.822H406.38C409.715 200.822 412.426 204.073 412.426 208.072C412.426 212.07 409.715 215.313 406.38 215.313ZM350.138 213.195H406.38C408.863 213.195 410.886 210.883 410.886 208.06C410.886 205.237 408.863 202.925 406.38 202.925H350.221C350.945 204.542 351.311 206.295 351.296 208.065C351.281 209.837 350.885 211.583 350.133 213.187L350.138 213.195Z" fill="white"/>
<path d="M333.042 241.262H418.114C421.472 241.262 424.195 238.95 424.195 236.065C424.195 233.198 421.472 230.872 418.114 230.872H333.042C333.042 230.872 337.507 236.065 333.042 241.262Z" fill="white"/>
<path d="M418.113 242.032H331.366L332.46 240.76C336.428 236.138 332.621 231.565 332.46 231.373L331.381 230.102H418.116C421.895 230.102 424.97 232.798 424.97 236.065C424.97 239.332 421.891 242.032 418.113 242.032ZM334.563 240.492H418.113C421.045 240.492 423.425 238.507 423.425 236.065C423.425 233.623 421.045 231.643 418.113 231.643H334.478C335.495 233.433 336.793 236.89 334.563 240.492Z" fill="black"/>
<path d="M406.38 215.313H348.644C348.509 215.313 348.377 215.277 348.26 215.208C348.145 215.142 348.049 215.045 347.98 214.928C347.914 214.812 347.877 214.678 347.877 214.543C347.877 214.408 347.914 214.275 347.98 214.158C351.917 207.223 348.08 202.097 348.042 202.047C347.955 201.933 347.9 201.797 347.887 201.653C347.872 201.51 347.899 201.367 347.962 201.237C348.025 201.108 348.122 201 348.245 200.923C348.367 200.847 348.507 200.807 348.65 200.807H406.387C409.947 200.807 412.435 203.788 412.435 208.057C412.444 212.058 409.715 215.313 406.38 215.313ZM349.91 213.772H406.38C408.864 213.772 410.887 211.21 410.887 208.06C410.887 205.217 409.492 202.35 406.38 202.35H350.007C351.017 204.327 352.395 208.515 349.91 213.772Z" fill="#82C6AE"/>
<path d="M374.218 271.843C376.372 271.843 378.117 275.333 378.117 279.637C378.117 283.943 376.372 287.433 374.218 287.433L330.642 286.793L374.218 271.843Z" fill="white"/>
<path d="M333.474 271.96L418.71 271.758C420.799 271.76 422.802 272.59 424.28 274.068C425.757 275.545 426.587 277.548 426.589 279.637C426.59 280.672 426.389 281.697 425.995 282.655C425.6 283.612 425.022 284.482 424.292 285.215C423.56 285.948 422.694 286.532 421.737 286.928C420.782 287.327 419.757 287.532 418.722 287.533H333.474V271.96Z" fill="#82C6AE"/>
<path d="M418.721 288.303H333.473C333.268 288.303 333.073 288.223 332.928 288.078C332.783 287.933 332.703 287.738 332.703 287.533C332.703 287.33 332.783 287.133 332.928 286.988C333.073 286.845 333.268 286.763 333.473 286.763H418.721C420.606 286.763 422.415 286.015 423.746 284.682C425.08 283.348 425.828 281.542 425.828 279.657C425.828 277.772 425.08 275.963 423.746 274.63C422.415 273.298 420.606 272.548 418.721 272.548L333.473 272.73C333.268 272.73 333.073 272.648 332.928 272.503C332.783 272.36 332.703 272.163 332.703 271.96C332.703 271.755 332.783 271.558 332.928 271.415C333.073 271.27 333.268 271.188 333.473 271.188L418.71 270.988C421.003 270.988 423.203 271.9 424.825 273.522C426.446 275.143 427.358 277.343 427.358 279.637C427.358 281.93 426.446 284.13 424.825 285.752C423.203 287.373 421.003 288.285 418.71 288.285L418.721 288.303Z" fill="black"/>
<path d="M330.642 287.433H371.925C373.993 287.433 375.977 286.612 377.438 285.15C378.902 283.688 379.722 281.705 379.722 279.637C379.722 277.57 378.9 275.587 377.437 274.127C375.975 272.665 373.993 271.843 371.925 271.843H330.642C330.642 271.843 334.76 278.242 330.642 287.433Z" fill="white"/>
<path d="M329.451 288.493L329.94 287.398C333.885 278.593 330.033 272.437 329.995 272.375L329.225 271.197L372.368 270.988C374.661 270.988 376.861 271.9 378.483 273.522C380.105 275.143 381.016 277.343 381.016 279.637C381.016 281.93 380.105 284.13 378.483 285.752C376.861 287.373 374.661 288.285 372.368 288.285L329.451 288.493ZM331.901 272.727C332.891 274.948 334.466 280.133 331.801 286.94L372.38 286.763C374.265 286.763 376.073 286.015 377.405 284.682C378.738 283.348 379.486 281.542 379.486 279.657C379.486 277.772 378.738 275.963 377.405 274.63C376.073 273.298 374.265 272.548 372.38 272.548L331.901 272.727Z" fill="black"/>
<path d="M408.205 215.267L345.489 215.305C342.072 215.305 339.299 218.823 339.299 223.16C339.299 227.498 342.09 230.865 345.507 230.865H408.205V215.267Z" fill="#82C6AE"/>
<path d="M345.506 231.643C341.593 231.643 338.526 227.917 338.526 223.168C338.526 218.418 341.651 214.543 345.488 214.543L408.205 214.505C408.41 214.505 408.605 214.585 408.75 214.73C408.895 214.875 408.975 215.07 408.975 215.275C408.975 215.478 408.895 215.675 408.75 215.82C408.605 215.963 408.41 216.045 408.205 216.045L345.488 216.083C342.498 216.083 340.068 219.262 340.068 223.168C340.068 226.997 342.51 230.102 345.506 230.102H408.205C408.41 230.102 408.605 230.183 408.75 230.327C408.895 230.472 408.975 230.668 408.975 230.872C408.975 231.077 408.895 231.272 408.75 231.417C408.605 231.562 408.41 231.643 408.205 231.643H345.506Z" fill="black"/>
<path d="M390.963 242.91C388.74 242.91 386.941 246.512 386.941 250.957C386.941 255.398 388.74 259 390.963 259L435.941 258.342L390.963 242.91Z" fill="white"/>
<path d="M435.94 259.772H393.329C391.022 259.723 388.827 258.773 387.214 257.125C385.599 255.477 384.695 253.262 384.695 250.955C384.695 248.648 385.599 246.433 387.214 244.787C388.827 243.138 391.022 242.188 393.329 242.14H435.94C436.145 242.14 436.342 242.222 436.485 242.365C436.63 242.51 436.712 242.705 436.712 242.91C436.712 243.115 436.63 243.31 436.485 243.455C436.342 243.6 436.145 243.68 435.94 243.68H393.329C391.429 243.725 389.62 244.51 388.292 245.87C386.964 247.228 386.219 249.055 386.219 250.955C386.219 252.857 386.964 254.682 388.292 256.042C389.62 257.402 391.429 258.187 393.329 258.23H435.94C436.145 258.23 436.342 258.312 436.485 258.457C436.63 258.6 436.712 258.797 436.712 259C436.712 259.205 436.63 259.402 436.485 259.545C436.342 259.69 436.145 259.772 435.94 259.772Z" fill="black"/>
<path d="M433.307 242.91H346.247C344.114 242.91 342.067 243.758 340.557 245.267C339.049 246.777 338.2 248.823 338.2 250.957C338.2 252.013 338.409 253.06 338.812 254.037C339.217 255.012 339.81 255.9 340.557 256.647C341.305 257.393 342.192 257.985 343.169 258.39C344.144 258.793 345.19 259.002 346.247 259H433.307V242.91Z" fill="#2760AD"/>
<path d="M433.31 259.772H346.251C345.078 259.795 343.911 259.585 342.82 259.153C341.73 258.722 340.735 258.077 339.896 257.255C339.058 256.435 338.393 255.453 337.938 254.372C337.483 253.29 337.248 252.128 337.248 250.955C337.248 249.782 337.483 248.62 337.938 247.538C338.393 246.457 339.058 245.477 339.896 244.655C340.735 243.835 341.73 243.19 342.82 242.757C343.911 242.325 345.078 242.115 346.251 242.14H433.31C433.513 242.14 433.71 242.222 433.855 242.365C433.998 242.51 434.08 242.707 434.08 242.91C434.08 243.115 433.998 243.31 433.855 243.455C433.71 243.6 433.513 243.68 433.31 243.68H346.251C345.281 243.658 344.316 243.83 343.415 244.185C342.513 244.542 341.691 245.073 340.998 245.752C340.303 246.428 339.753 247.238 339.376 248.132C339 249.027 338.806 249.985 338.806 250.955C338.806 251.925 339 252.885 339.376 253.778C339.753 254.673 340.303 255.482 340.998 256.16C341.691 256.838 342.513 257.37 343.415 257.725C344.316 258.082 345.281 258.253 346.251 258.23H433.31C433.513 258.23 433.71 258.312 433.855 258.457C433.998 258.6 434.08 258.797 434.08 259C434.08 259.205 433.998 259.402 433.855 259.545C433.71 259.69 433.513 259.772 433.31 259.772Z" fill="#DCDCDC"/>
<path d="M435.94 259H393.328C392.272 259 391.227 258.793 390.25 258.388C389.275 257.985 388.389 257.392 387.64 256.645C386.894 255.898 386.302 255.012 385.897 254.035C385.493 253.06 385.285 252.013 385.285 250.957C385.285 249.9 385.492 248.855 385.897 247.878C386.3 246.902 386.892 246.015 387.64 245.267C388.387 244.52 389.273 243.927 390.25 243.523C391.225 243.118 392.272 242.91 393.328 242.91H435.94C435.94 242.91 431.612 249.843 435.94 259Z" fill="white"/>
<path d="M435.94 259.772H393.329C391.022 259.723 388.827 258.773 387.214 257.125C385.599 255.477 384.695 253.262 384.695 250.955C384.695 248.648 385.599 246.433 387.214 244.787C388.827 243.138 391.022 242.188 393.329 242.14H435.94C436.077 242.138 436.212 242.173 436.33 242.242C436.449 242.308 436.547 242.407 436.615 242.525C436.679 242.643 436.71 242.778 436.707 242.913C436.704 243.048 436.664 243.18 436.592 243.295C436.427 243.565 432.555 250.007 436.639 258.65C436.694 258.768 436.719 258.897 436.71 259.027C436.702 259.157 436.66 259.282 436.592 259.39C436.522 259.5 436.425 259.59 436.312 259.653C436.199 259.715 436.07 259.748 435.94 259.748V259.772ZM393.332 243.68C391.432 243.725 389.624 244.51 388.295 245.87C386.967 247.228 386.224 249.055 386.224 250.955C386.224 252.857 386.967 254.682 388.295 256.042C389.624 257.402 391.432 258.187 393.332 258.23H434.759C431.97 251.427 433.66 245.985 434.685 243.68H393.332Z" fill="#DCDCDC"/>
<path d="M410.058 259.878H340.958C339.323 259.878 337.755 260.528 336.6 261.683C335.443 262.84 334.795 264.408 334.795 266.042C334.795 269.455 337.665 271.728 341.077 271.728L410.073 271.993L410.058 259.878Z" fill="black"/>
<path d="M410.059 272.78L341.062 272.51C337.04 272.51 334.009 269.737 334.009 266.053C334.015 264.217 334.747 262.457 336.047 261.158C337.345 259.858 339.105 259.127 340.944 259.12H410.044C410.247 259.12 410.444 259.202 410.589 259.345C410.732 259.49 410.814 259.687 410.814 259.89C410.814 260.095 410.732 260.292 410.589 260.435C410.444 260.58 410.247 260.662 410.044 260.662H340.959C339.53 260.667 338.162 261.237 337.152 262.247C336.142 263.257 335.572 264.625 335.565 266.053C335.565 268.858 337.934 270.97 341.077 270.97L410.074 271.235C410.279 271.235 410.474 271.317 410.619 271.46C410.764 271.605 410.844 271.802 410.844 272.005C410.844 272.21 410.764 272.407 410.619 272.55C410.474 272.695 410.279 272.777 410.074 272.777L410.059 272.78Z" fill="black"/>
<path d="M414.118 231.623H386.052C383.78 231.623 381.602 230.722 379.997 229.115C378.39 227.51 377.488 225.332 377.488 223.06C377.488 220.788 378.39 218.61 379.997 217.005C381.602 215.398 383.78 214.497 386.052 214.497H414.118C414.323 214.497 414.518 214.578 414.663 214.722C414.808 214.867 414.888 215.063 414.888 215.267C414.888 215.472 414.808 215.667 414.663 215.812C414.518 215.957 414.323 216.038 414.118 216.038H386.052C384.188 216.038 382.403 216.777 381.085 218.095C379.768 219.412 379.028 221.198 379.028 223.06C379.028 224.923 379.768 226.708 381.085 228.025C382.403 229.343 384.188 230.083 386.052 230.083H414.118C414.323 230.083 414.518 230.163 414.663 230.308C414.808 230.453 414.888 230.648 414.888 230.853C414.888 231.057 414.808 231.253 414.663 231.398C414.518 231.542 414.323 231.623 414.118 231.623Z" fill="black"/>
<path d="M430.869 271.955H390.374C389.575 271.955 388.784 271.798 388.045 271.492C387.307 271.187 386.637 270.738 386.072 270.173C385.507 269.607 385.059 268.937 384.754 268.198C384.447 267.46 384.29 266.668 384.292 265.868C384.294 264.258 384.937 262.713 386.077 261.575C387.217 260.437 388.762 259.798 390.374 259.798H430.869C430.869 259.798 426.992 264.505 430.869 271.955Z" fill="white"/>
<path d="M416.715 231.623H386.052C383.78 231.623 381.602 230.722 379.997 229.115C378.39 227.51 377.488 225.332 377.488 223.06C377.488 220.788 378.39 218.61 379.997 217.005C381.602 215.398 383.78 214.497 386.052 214.497H416.912L415.502 215.825C415.212 216.1 408.517 222.622 415.54 230.333L416.715 231.623ZM386.052 216.038C384.188 216.038 382.403 216.777 381.085 218.095C379.768 219.412 379.028 221.198 379.028 223.06C379.028 224.923 379.768 226.708 381.085 228.025C382.403 229.343 384.188 230.083 386.052 230.083H413.333C408.71 223.918 411.53 218.46 413.333 216.038H386.052Z" fill="black"/>
<path d="M432.135 272.727H390.373C388.583 272.683 386.881 271.943 385.63 270.662C384.38 269.382 383.68 267.662 383.68 265.872C383.68 264.08 384.38 262.362 385.63 261.08C386.881 259.8 388.583 259.058 390.373 259.017H432.496L431.46 260.275C431.318 260.453 427.993 264.725 431.55 271.597L432.135 272.727ZM390.373 260.568C388.988 260.605 387.673 261.182 386.706 262.175C385.741 263.167 385.2 264.497 385.2 265.883C385.2 267.268 385.741 268.598 386.706 269.59C387.673 270.583 388.988 271.16 390.373 271.197H429.643C427.428 266.143 428.568 262.402 429.488 260.568H390.373Z" fill="black"/>
<path d="M414.974 230.853H386.052C385.029 230.853 384.015 230.652 383.07 230.26C382.124 229.868 381.265 229.293 380.542 228.57C379.817 227.847 379.244 226.988 378.852 226.042C378.46 225.097 378.259 224.083 378.259 223.06C378.259 222.037 378.46 221.023 378.852 220.078C379.244 219.132 379.817 218.273 380.542 217.55C381.265 216.827 382.124 216.252 383.07 215.86C384.015 215.468 385.029 215.267 386.052 215.267H414.974C414.974 215.267 407.335 222.463 414.974 230.853Z" fill="white"/>
<path d="M416.715 231.623H386.052C383.78 231.623 381.602 230.722 379.997 229.115C378.39 227.51 377.488 225.332 377.488 223.06C377.488 220.788 378.39 218.61 379.997 217.005C381.602 215.398 383.78 214.497 386.052 214.497H416.912L415.502 215.825C415.212 216.1 408.517 222.622 415.54 230.333L416.715 231.623ZM386.052 216.038C384.188 216.038 382.403 216.777 381.085 218.095C379.768 219.412 379.028 221.198 379.028 223.06C379.028 224.923 379.768 226.708 381.085 228.025C382.403 229.343 384.188 230.083 386.052 230.083H413.333C408.71 223.918 411.53 218.46 413.333 216.038H386.052Z" fill="black"/>
<path d="M352.18 282.492L349.143 279.657L346.108 282.492V272.703H352.18V282.492Z" fill="#82C6AE"/>
<path d="M418.04 253.732L414.973 250.873L411.903 253.732V243.712H418.04V253.732Z" fill="black"/>
<path d="M88.8377 287.625L96.6117 285.445L71.107 194.527L63.333 196.707L88.8377 287.625Z" fill="#2760AD"/>
<path d="M64.2028 184.858L71.1058 194.527L63.3359 196.707L64.2028 184.858Z" fill="black"/>
<path d="M64.2029 184.858L67.6544 189.692L63.7676 190.783L64.2029 184.858Z" fill="#82C6AE"/>
<path d="M86.8295 259.423L94.9037 258.617L85.4609 164.188L77.3867 164.996L86.8295 259.423Z" fill="white"/>
<path d="M85.9174 166.63L94.6385 257.56L89.6694 258.038L80.9634 167.127L85.9174 166.63ZM87.3041 164.95L79.2686 165.72L88.2672 259.713L96.3065 258.943L87.3195 164.95H87.3041Z" fill="#82C6AE"/>
<path d="M82.2192 154.206L87.3041 164.95L79.2686 165.717L82.2192 154.206Z" fill="#DCDCDC"/>
<path d="M82.2195 154.206L84.762 159.58L80.7441 159.961L82.2195 154.206Z" fill="black"/>
<path d="M77.9823 288.57H108.191L110.144 245.803H76.0293L77.9823 288.57Z" fill="#82C6AE"/>
<path d="M108.534 247.343L106.719 287.022H79.4538L77.6433 247.343H108.534ZM110.144 245.803H76.0293L77.9823 288.562H108.191L110.144 245.803Z" fill="black"/>
<path d="M355.4 242.02H353.858V259H355.4V242.02Z" fill="white"/>
<path d="M360.277 242.02H358.735V259H360.277V242.02Z" fill="white"/>
<path d="M398.617 272.703H397.092V286.663H398.617V272.703Z" fill="black"/>
<path d="M403.44 272.703H401.915V286.663H403.44V272.703Z" fill="black"/>
<path d="M133.546 465.627H109.104C108.9 465.627 108.704 465.545 108.56 465.402C108.415 465.257 108.334 465.06 108.334 464.857V302.172C108.334 301.967 108.415 301.772 108.56 301.627C108.704 301.483 108.9 301.402 109.104 301.402C109.309 301.402 109.505 301.483 109.649 301.627C109.794 301.772 109.875 301.967 109.875 302.172V464.102H133.546C133.751 464.102 133.947 464.183 134.091 464.327C134.236 464.472 134.317 464.667 134.317 464.872C134.317 465.077 134.236 465.272 134.091 465.417C133.947 465.562 133.751 465.642 133.546 465.642V465.627Z" fill="black"/>
<path d="M420.375 465.627H395.92C395.717 465.627 395.52 465.545 395.377 465.402C395.232 465.257 395.15 465.06 395.15 464.857V302.172C395.15 301.967 395.232 301.772 395.377 301.627C395.52 301.483 395.717 301.402 395.92 301.402C396.125 301.402 396.322 301.483 396.465 301.627C396.61 301.772 396.692 301.967 396.692 302.172V464.102H420.375C420.579 464.102 420.775 464.183 420.919 464.327C421.064 464.472 421.145 464.667 421.145 464.872C421.145 465.077 421.064 465.272 420.919 465.417C420.775 465.562 420.579 465.642 420.375 465.642V465.627Z" fill="black"/>
<path d="M247.444 203.53C247.239 203.53 247.044 203.448 246.899 203.303C246.754 203.16 246.672 202.963 246.672 202.758V193.625C246.672 193.422 246.754 193.225 246.899 193.08C247.044 192.937 247.239 192.855 247.444 192.855C247.647 192.855 247.844 192.937 247.989 193.08C248.132 193.225 248.214 193.422 248.214 193.625V202.758C248.214 202.963 248.132 203.16 247.989 203.303C247.844 203.448 247.647 203.53 247.444 203.53Z" fill="black"/>
<path d="M298.203 172.94C297.998 172.94 297.803 172.858 297.658 172.713C297.513 172.57 297.432 172.373 297.432 172.168V163.036C297.432 162.831 297.513 162.635 297.658 162.491C297.803 162.346 297.998 162.265 298.203 162.265C298.407 162.265 298.603 162.346 298.748 162.491C298.892 162.635 298.973 162.831 298.973 163.036V172.168C298.973 172.373 298.892 172.57 298.748 172.713C298.603 172.858 298.407 172.94 298.203 172.94Z" fill="black"/>
</svg>
