<svg width="500" height="500" viewBox="0 0 500 500" fill="none" xmlns="http://www.w3.org/2000/svg">
<path d="M85.9709 317.429C127.393 317.429 160.971 283.851 160.971 242.429C160.971 201.008 127.393 167.43 85.9709 167.43C44.5497 167.43 10.9712 201.008 10.9712 242.429C10.9712 283.851 44.5497 317.429 85.9709 317.429Z" fill="#EEA71E"/>
<path d="M51.1265 289.225C51.0204 289.118 50.9141 289.065 50.808 288.959C38.3787 279.557 30.3583 265.907 28.2337 250.503C26.1091 235.099 30.0928 219.749 39.4943 207.32C48.8958 194.891 62.5466 186.87 77.9503 184.745C93.3537 182.621 108.704 186.605 121.134 196.006C133.562 205.408 141.584 219.058 143.709 234.462C145.833 249.866 141.85 265.216 132.447 277.645C123.045 290.074 109.395 298.095 93.9913 300.22C78.6937 302.344 63.5028 298.467 51.1265 289.225ZM119.275 197.759C107.43 188.942 92.9288 185.224 78.2688 187.242C63.5027 189.313 50.4361 196.962 41.4595 208.86C32.4829 220.758 28.6586 235.418 30.7302 250.185C32.8017 264.951 40.4503 278.017 52.3483 286.994C64.2462 295.97 78.9062 299.795 93.6725 297.723C108.439 295.652 121.505 288.003 130.482 276.105C139.46 264.207 143.284 249.547 141.211 234.781C139.14 220.014 131.492 206.948 119.593 197.971C119.487 197.865 119.381 197.812 119.275 197.706V197.759Z" fill="white"/>
<path d="M130.176 181.9L119.346 196.219L121.38 197.757L132.209 183.438L130.176 181.9Z" fill="white"/>
<path d="M50.5759 287.215L39.7466 301.535L41.7801 303.073L52.6096 288.753L50.5759 287.215Z" fill="white"/>
<path d="M132.27 275.881L130.733 277.914L145.052 288.744L146.59 286.71L132.27 275.881Z" fill="white"/>
<path d="M26.903 196.281L25.3652 198.315L39.6843 209.144L41.2223 207.111L26.903 196.281Z" fill="white"/>
<path d="M139.308 262.761L138.347 265.123L154.98 271.878L155.941 269.515L139.308 262.761Z" fill="white"/>
<path d="M16.9406 213.098L15.9814 215.461L32.6154 222.215L33.5748 219.853L16.9406 213.098Z" fill="white"/>
<path d="M142.754 248.257L142.439 250.787L160.254 253.006L160.569 250.476L142.754 248.257Z" fill="white"/>
<path d="M11.6926 231.905L11.3774 234.435L29.1929 236.654L29.508 234.124L11.6926 231.905Z" fill="white"/>
<path d="M160.018 230.954L142.235 233.421L142.587 235.947L160.369 233.479L160.018 230.954Z" fill="white"/>
<path d="M29.2657 249.119L11.4829 251.587L11.8334 254.112L29.6162 251.645L29.2657 249.119Z" fill="white"/>
<path d="M154.538 212.206L138.001 219.192L138.993 221.54L155.531 214.554L154.538 212.206Z" fill="white"/>
<path d="M32.8868 263.489L16.3486 270.475L17.3407 272.824L33.8789 265.838L32.8868 263.489Z" fill="white"/>
<path d="M144.325 195.433L130.161 206.461L131.725 208.473L145.892 197.445L144.325 195.433Z" fill="white"/>
<path d="M40.1463 276.57L25.9795 287.598L27.5458 289.61L41.7123 278.582L40.1463 276.57Z" fill="white"/>
<path d="M63.3258 294.874L56.5713 311.508L58.9336 312.467L65.6879 295.833L63.3258 294.874Z" fill="white"/>
<path d="M112.988 172.509L106.233 189.143L108.596 190.102L115.35 173.468L112.988 172.509Z" fill="white"/>
<path d="M77.6918 298.923L75.4727 316.739L78.0028 317.054L80.2217 299.238L77.6918 298.923Z" fill="white"/>
<path d="M93.9906 167.909L91.7715 185.725L94.3016 186.04L96.5208 168.224L93.9906 167.909Z" fill="white"/>
<path d="M95.0604 298.812L92.5352 299.163L95.0026 316.946L97.5281 316.595L95.0604 298.812Z" fill="white"/>
<path d="M76.8941 168.06L74.3687 168.41L76.8364 186.193L79.3616 185.843L76.8941 168.06Z" fill="white"/>
<path d="M109.311 294.555L106.963 295.547L113.949 312.085L116.298 311.093L109.311 294.555Z" fill="white"/>
<path d="M57.9262 172.923L55.5776 173.915L62.5638 190.454L64.9124 189.462L57.9262 172.923Z" fill="white"/>
<path d="M121.997 286.745L119.985 288.311L131.013 302.478L133.025 300.912L121.997 286.745Z" fill="white"/>
<path d="M40.9123 182.565L38.9004 184.131L49.9289 198.298L51.9408 196.732L40.9123 182.565Z" fill="white"/>
<path d="M52.9326 253.903L57.9786 247.954C59.5191 252.947 62.0153 256.93 65.468 259.852C68.9206 262.773 72.5855 264.154 76.3567 263.995C80.1279 263.835 83.3681 262.136 86.1301 258.896C88.839 255.655 89.9014 252.256 89.2109 248.644C88.5735 245.032 86.2362 241.473 82.1995 238.074C80.8184 236.906 78.1628 234.887 74.1258 231.966L94.8943 207.373L118.637 227.398L114.388 232.444L95.9566 216.881L83.8461 231.275C85.4397 232.444 86.8739 233.559 88.1486 234.675C93.4071 239.083 96.3284 243.864 97.0189 248.91C97.7093 253.956 96.0629 258.789 92.1853 263.41C88.2017 268.138 83.4212 270.687 77.844 270.953C72.32 271.219 66.8491 269.094 61.4313 264.579C56.8632 260.755 54.048 257.196 52.9857 253.956L52.9326 253.903Z" fill="white"/>
<path d="M348.958 225.518C347.833 223.865 345.863 223.513 342.452 225.588L347.797 220.84C349.662 219.222 350.083 216.69 348.782 215.213C347.48 213.735 344.913 213.805 343.048 215.423L328.417 227.172L343.048 213.947C344.737 212.363 344.983 209.902 343.612 208.458C342.24 207.017 339.778 207.122 338.09 208.705L323.035 220.875L336.788 208.423C338.265 206.842 338.477 205.293 337.35 203.745C336.225 202.198 334.185 201.777 332.743 202.797C329.05 205.433 317.9 213.172 317.9 213.172C311.182 201.46 292.082 160.939 261.023 157.105C218.497 151.864 185.152 202.408 185.152 202.408C185.152 202.408 177.202 202.338 172.418 205.258C163.977 222.107 162.148 253.307 161.937 265.195C161.937 265.652 161.937 266.075 161.937 266.497V298.752C161.937 298.752 133.516 286.862 119.165 282.29C64.7854 265.617 79.6289 311.238 85.9954 322.635C98.0602 344.302 135.204 397.627 135.204 397.627L162.816 383.873L125.215 324.112C186.242 372.195 227.572 368.15 225.918 319.54L201.262 248.347L251.877 192.033C308.05 251.758 312.905 248.628 322.015 247.397C332.497 245.99 347.727 230.76 347.727 230.76C349.522 229.072 350.083 227.207 348.958 225.553V225.518ZM332.215 232.378C333.482 231.533 342.452 225.588 342.452 225.588L332.215 232.378Z" fill="white"/>
<path d="M119.165 282.29C133.516 286.862 225.918 319.54 225.918 319.54C227.572 368.15 186.242 372.195 125.215 324.112L162.816 383.873L135.204 397.627C135.204 397.627 98.0602 344.302 85.9954 322.635C79.6289 311.238 64.7854 265.617 119.165 282.29Z" fill="#2760AD"/>
<path d="M254.831 158.089C256.836 158.089 258.876 158.23 260.846 158.441C272.595 159.883 283.991 167.023 294.755 179.652C303.795 190.238 310.441 202.443 314.416 209.76C315.261 211.343 316.035 212.715 316.668 213.805C316.88 214.157 317.195 214.403 317.583 214.473C317.688 214.473 317.793 214.473 317.9 214.473C318.18 214.473 318.461 214.403 318.708 214.227C318.813 214.157 329.893 206.418 333.551 203.852C333.833 203.64 334.15 203.57 334.501 203.57C335.135 203.57 335.768 203.922 336.19 204.483C336.788 205.293 336.928 206.067 335.768 207.333L322.05 219.75C321.486 220.277 321.416 221.122 321.908 221.72C322.19 222.037 322.576 222.212 322.965 222.212C323.351 222.212 323.596 222.107 323.843 221.895L338.898 209.725C338.898 209.725 338.968 209.69 338.968 209.655C339.566 209.092 340.34 208.775 341.043 208.775C341.466 208.775 342.028 208.882 342.486 209.338C343.33 210.217 343.083 211.765 341.993 212.82L327.361 226.047C326.798 226.573 326.728 227.418 327.22 228.015C327.501 228.332 327.888 228.508 328.275 228.508C328.663 228.508 328.908 228.403 329.155 228.192L343.786 216.443C343.786 216.443 343.786 216.443 343.823 216.408C344.491 215.81 345.335 215.493 346.108 215.493C346.883 215.493 347.235 215.705 347.551 216.092C348.325 217.007 347.938 218.66 346.671 219.75L341.395 224.463C341.043 224.673 339.778 225.553 334.713 228.895L334.536 229L331.265 231.182C330.631 231.603 330.456 232.483 330.878 233.117C331.16 233.538 331.581 233.748 332.04 233.748C332.496 233.748 332.566 233.678 332.813 233.503L336.085 231.322L343.013 226.715C344.666 225.73 345.686 225.518 346.25 225.518C346.811 225.518 347.235 225.73 347.621 226.257C348.29 227.242 347.938 228.367 346.601 229.633C346.46 229.775 331.581 244.548 321.698 245.883C321.381 245.92 321.065 245.99 320.748 246.025C319.588 246.2 318.496 246.342 317.336 246.342C314.135 246.342 309.845 245.252 300.03 237.337C289.69 229 274.67 214.263 252.756 190.977C252.475 190.695 252.123 190.52 251.736 190.52C251.35 190.52 250.963 190.695 250.716 190.977L200.1 247.292C199.748 247.678 199.643 248.205 199.82 248.698L224.406 319.715C224.616 326.433 223.983 332.378 222.541 337.408C221.135 342.297 218.883 346.342 215.928 349.367C211.251 354.22 204.708 356.683 196.548 356.683C188.388 356.683 177.448 353.905 165.735 348.417C153.495 342.683 140.128 334.102 125.953 322.952C125.707 322.74 125.39 322.635 125.074 322.635C124.757 322.635 124.406 322.74 124.124 322.987C123.632 323.443 123.526 324.217 123.878 324.78L160.635 383.205L135.521 395.727C130.385 388.305 98.0601 341.593 87.0858 321.86C85.2918 318.66 82.7241 312.503 81.3875 305.715C80.2971 300.263 79.6991 292.63 82.9 287.143C85.714 282.395 91.0253 279.968 98.7636 279.968C104.216 279.968 110.863 281.163 118.567 283.52C132.707 288.023 160.952 299.842 161.233 299.947C161.409 300.017 161.585 300.052 161.761 300.052C162.042 300.052 162.323 299.982 162.534 299.807C162.921 299.56 163.168 299.103 163.168 298.645V266.427C163.168 266.038 163.168 265.617 163.168 265.16C163.308 258.477 164.434 224.393 173.333 206.172C176.745 204.273 182.161 203.745 184.905 203.745H184.975C185.433 203.745 185.89 203.5 186.136 203.112C186.206 203.007 193.735 191.645 205.975 180.495C213.115 173.953 220.431 168.747 227.748 165.019C236.823 160.411 245.861 158.054 254.62 158.054L254.831 158.089ZM254.831 156.682C215.296 156.682 185.186 202.373 185.186 202.373C185.186 202.373 185.186 202.373 185.116 202.373C184.343 202.373 176.956 202.443 172.453 205.223C164.012 222.072 162.183 253.27 161.972 265.16C161.972 265.617 161.972 266.038 161.972 266.462V298.717C161.972 298.717 133.551 286.827 119.2 282.255C110.969 279.722 104.286 278.632 98.9746 278.632C69.147 278.632 80.6488 312.927 86.0305 322.598C98.0953 344.267 135.239 397.59 135.239 397.59L162.851 383.837L125.25 324.077C154.409 347.045 179.066 358.125 196.688 358.125C214.311 358.125 226.833 344.9 225.953 319.503L201.296 248.312L251.911 191.997C298.553 241.558 309.808 247.818 317.511 247.818C325.215 247.818 320.501 247.573 322.05 247.362C332.531 245.955 347.761 230.723 347.761 230.723C349.556 229.035 350.118 227.172 348.993 225.518C348.395 224.673 347.586 224.147 346.46 224.147C345.335 224.147 344.103 224.568 342.486 225.553L347.831 220.805C349.696 219.187 350.118 216.655 348.816 215.177C348.185 214.473 347.305 214.122 346.32 214.122C345.335 214.122 344.068 214.543 343.118 215.388L328.486 227.137L343.118 213.91C344.808 212.328 345.053 209.865 343.681 208.423C343.048 207.755 342.17 207.403 341.22 207.403C340.165 207.403 339.038 207.825 338.16 208.67L323.105 220.84L336.858 208.388C338.335 206.805 338.546 205.258 337.421 203.71C336.716 202.725 335.626 202.198 334.571 202.198C333.516 202.198 333.34 202.373 332.813 202.76C329.12 205.398 317.97 213.137 317.97 213.137C311.251 201.423 292.151 160.903 261.093 157.069C259.018 156.823 256.941 156.682 254.901 156.682H254.831ZM335.486 230.162C338.511 228.157 342.415 225.553 342.415 225.553L335.486 230.162C333.938 231.182 332.636 232.06 332.215 232.342L335.486 230.162Z" fill="black"/>
<path d="M137.948 400.37C140.129 403.537 140.832 404.485 140.832 404.485L109.105 427.595L161.761 423.093L186.7 421.827L163.766 386.547L137.983 400.37H137.948Z" fill="black"/>
<path d="M109.105 428.333C108.824 428.333 108.542 428.158 108.437 427.877C108.331 427.595 108.437 427.243 108.683 427.067L139.847 404.345C139.425 403.747 138.651 402.657 137.385 400.792C137.28 400.617 137.244 400.405 137.28 400.23C137.315 400.018 137.456 399.878 137.631 399.772L163.414 385.948C163.731 385.773 164.153 385.878 164.329 386.195L187.262 421.475C187.403 421.685 187.403 421.967 187.297 422.178C187.192 422.388 186.945 422.565 186.7 422.565L161.761 423.832L109.14 428.333C109.14 428.333 109.105 428.333 109.07 428.333H109.105ZM139.003 400.617C140.797 403.22 141.395 404.063 141.43 404.063C141.641 404.38 141.571 404.802 141.29 405.048L111.602 426.68L161.726 422.39L185.468 421.158L163.555 387.427L139.003 400.582V400.617Z" fill="black"/>
<path d="M134.36 396.395L161.937 382.432L165.63 388.058L138.124 401.882L134.36 396.395Z" fill="#DCDCDC"/>
<path d="M252.335 340.68C249.943 339.87 247.587 339.202 245.123 338.745L241.502 365.688L217.442 295.34L178.117 312.645C178.117 312.645 213.467 391.33 228.382 415.847C238.757 432.942 256.098 433.258 266.475 402.27C274.002 381.025 275.127 358.758 275.092 346.73C273.368 346.132 271.645 345.533 269.957 344.9C264.328 342.79 257.998 342.438 252.37 340.68H252.335Z" fill="#2760AD"/>
<path d="M185.187 202.373C185.187 202.373 177.238 202.303 172.453 205.223C164.012 222.072 162.183 253.272 161.972 265.16C161.972 265.617 161.972 266.04 161.972 266.462L161.866 300.37C158.736 298.927 228.557 327.982 228.557 327.982L201.262 248.277L231.828 214.298C224.968 200.932 218.287 187.53 211.145 174.445C195.177 187.285 185.187 202.408 185.187 202.408V202.373Z" fill="#82C6AE"/>
<path d="M210.723 176.592C210.723 176.592 220.995 196.148 225.883 205.787C227.29 208.565 228.697 211.308 230.105 214.087L200.172 247.362C199.82 247.748 199.713 248.277 199.89 248.768L226.165 325.518C214.277 320.56 170.52 302.34 163.238 299.42L163.344 266.497C163.344 266.11 163.344 265.688 163.344 265.23C163.484 258.547 164.61 224.463 173.508 206.243C176.922 204.343 182.338 203.817 185.082 203.817H185.152C185.608 203.817 186.067 203.57 186.312 203.183C186.383 203.077 194.755 192.385 201.825 184.682C206.222 179.898 210.653 176.627 210.653 176.627L210.723 176.592ZM211.145 174.41C195.177 187.248 185.187 202.373 185.187 202.373C185.187 202.373 185.187 202.373 185.117 202.373C184.343 202.373 176.957 202.445 172.453 205.223C164.012 222.072 162.183 253.272 161.972 265.16C161.972 265.617 161.972 266.04 161.972 266.462L161.866 300.335C164.751 301.39 228.557 327.982 228.557 327.982L201.262 248.277L231.828 214.298C224.968 200.932 218.287 187.53 211.145 174.445V174.41ZM161.761 300.298C161.761 300.298 161.761 300.298 161.866 300.37C161.796 300.335 161.761 300.298 161.761 300.298Z" fill="black"/>
<path d="M309.563 320.102L249.767 304.062L244.948 339.8C254.797 342.543 264.962 344.267 275.022 346.412C275.022 340.925 274.74 337.653 274.74 337.653L309.528 320.102H309.563Z" fill="black"/>
<path d="M275.057 346.798C275.057 346.798 275.022 346.798 274.987 346.798C272.032 346.167 269.007 345.568 266.123 345.005C259.123 343.598 251.877 342.157 244.878 340.222C244.702 340.187 244.597 340.01 244.632 339.835L249.45 304.097C249.45 303.992 249.52 303.922 249.592 303.852C249.662 303.782 249.767 303.782 249.872 303.817L309.668 319.855C309.81 319.89 309.915 320.032 309.915 320.172C309.915 320.313 309.845 320.453 309.738 320.523L275.163 337.97C275.233 338.815 275.408 341.91 275.443 346.518C275.443 346.623 275.408 346.728 275.303 346.798C275.233 346.833 275.163 346.87 275.092 346.87L275.057 346.798ZM245.37 339.588C252.228 341.488 259.37 342.93 266.263 344.302C269.042 344.865 271.892 345.427 274.705 346.025C274.67 340.89 274.423 337.76 274.423 337.723C274.423 337.583 274.495 337.443 274.6 337.372L308.578 320.207L250.083 304.52L245.37 339.553V339.588Z" fill="black"/>
<path d="M244.525 428.157C238.476 428.157 232.426 423.902 227.783 416.233C213.045 391.963 186.311 332.378 186.066 331.78C185.89 331.428 186.066 331.007 186.418 330.865C186.77 330.725 187.191 330.865 187.333 331.217C187.613 331.815 214.276 391.33 228.978 415.53C233.691 423.303 239.848 427.383 245.791 426.715C253.671 425.835 260.776 417.077 265.771 402.093C276.64 371.35 274.071 338.077 274.036 337.76C274.036 337.478 274.178 337.197 274.423 337.092L307.593 320.348L250.365 305.012L242.168 365.863C242.133 366.18 241.853 366.427 241.536 366.462C241.22 366.497 240.903 366.285 240.796 366.005L215.436 293.687C215.296 293.335 215.506 292.912 215.858 292.807C216.21 292.667 216.633 292.877 216.738 293.228L241.148 362.803L249.028 304.063C249.028 303.852 249.168 303.675 249.345 303.57C249.52 303.465 249.731 303.43 249.906 303.465L309.703 319.503C309.985 319.575 310.196 319.82 310.231 320.102C310.231 320.383 310.125 320.665 309.845 320.805L275.478 338.147C275.76 342.332 277.343 373.567 267.108 402.585C261.901 418.133 254.41 427.207 245.933 428.157C245.44 428.228 244.983 428.228 244.49 428.228L244.525 428.157Z" fill="black"/>
<path d="M275.76 351.162L243.542 344.127L244.525 337.092L275.795 344.548C275.795 344.548 275.832 347.08 275.76 351.197V351.162Z" fill="#DCDCDC"/>
<path d="M170.027 213.137C170.027 213.137 178.222 213.032 185.539 202.937C177.239 206.032 172.489 205.787 172.489 205.787L170.027 213.173V213.137Z" fill="white"/>
<path d="M170.027 213.842C169.815 213.842 169.605 213.735 169.463 213.56C169.323 213.383 169.288 213.137 169.358 212.927L171.82 205.54C171.927 205.223 172.208 205.047 172.525 205.047C172.56 205.047 177.273 205.258 185.292 202.268C185.573 202.163 185.925 202.268 186.102 202.515C186.277 202.762 186.277 203.113 186.102 203.358C178.645 213.63 170.378 213.842 170.027 213.877V213.842ZM173.017 206.49L171.047 212.328C173.192 211.942 178.433 210.428 183.498 204.415C177.942 206.243 174.318 206.49 172.982 206.49H173.017Z" fill="black"/>
<path d="M172.77 212.962L169.5 213.665L168.585 216.092C168.408 216.76 168.585 218.977 169.112 218.518L172.735 212.927L172.77 212.962Z" fill="black"/>
<path d="M169.007 218.238C172.453 228.965 190.393 265.828 234.783 275.888L241.853 286.088L231.053 288.587C231.053 288.587 174.987 275.888 168.338 219.222C168.198 218.027 168.478 216.55 169.042 218.238H169.007Z" fill="black"/>
<path d="M249.38 194.39C249.203 194.39 249.028 194.32 248.887 194.213C248.607 193.968 248.572 193.51 248.852 193.228L257.153 184.188C257.4 183.908 257.857 183.873 258.138 184.153C258.42 184.4 258.455 184.857 258.173 185.138L249.872 194.178C249.732 194.32 249.555 194.39 249.345 194.39H249.38Z" fill="black"/>
<path d="M375.338 306.278C365.667 313.173 355.712 319.433 345.512 325.062C355.325 343.037 362.183 363.613 364.962 385.948C376.535 383.768 388.072 380.918 399.538 377.402C395.705 351.478 387.263 327.418 375.338 306.278Z" fill="#82C6AE"/>
<path d="M375.338 306.278C365.667 313.173 355.712 319.433 345.512 325.062C355.325 343.037 362.183 363.613 364.962 385.948C376.535 383.768 388.072 380.918 399.538 377.402C395.705 351.478 387.263 327.418 375.338 306.278ZM377.238 379.372C376.288 373.215 371.048 369.698 365.912 371.105C363.273 358.513 359.37 346.553 354.375 335.403C359.193 333.152 361.128 326.82 358.455 321.72C361.093 320.173 363.697 318.625 366.263 317.007C369.043 322.248 374.847 324.64 379.49 321.897C385.363 334.558 390.007 348.102 393.242 362.347C388.177 364.282 385.152 370.648 386.137 376.978C383.183 377.823 380.193 378.597 377.238 379.337V379.372Z" fill="#4A9E81"/>
<path d="M377.238 357.352C372.49 359.075 367.53 356.015 365.841 350.88C364.188 345.743 366.263 340.082 370.766 337.865C375.268 335.648 380.685 338.147 382.585 343.775C384.483 349.402 381.951 355.663 377.238 357.352Z" fill="#4A9E81"/>
<path d="M377.134 317.675C376.887 317.675 376.64 317.535 376.5 317.288C375.762 315.777 374.952 314.263 374.179 312.787C372.982 313.56 371.787 314.368 370.59 315.143C370.274 315.353 369.817 315.248 369.605 314.932C369.395 314.615 369.5 314.158 369.817 313.947C371.224 313.032 372.63 312.118 374.037 311.168C374.214 311.063 374.425 311.027 374.6 311.063C374.777 311.098 374.952 311.238 375.057 311.415C375.972 313.138 376.887 314.897 377.765 316.655C377.942 317.007 377.765 317.43 377.45 317.605C377.344 317.64 377.239 317.675 377.134 317.675Z" fill="black"/>
<path d="M352.51 331.71C352.265 331.71 351.983 331.57 351.878 331.323C351.138 329.775 350.365 328.263 349.592 326.75C349.415 326.398 349.557 325.977 349.873 325.802C351.35 324.992 352.792 324.183 354.235 323.373C354.587 323.198 355.008 323.303 355.183 323.655C355.36 324.007 355.255 324.428 354.903 324.605C353.672 325.308 352.405 326.012 351.138 326.68C351.807 327.982 352.475 329.353 353.143 330.69C353.32 331.042 353.143 331.463 352.827 331.64C352.722 331.675 352.617 331.71 352.51 331.71Z" fill="black"/>
<path d="M390.675 376.382C390.358 376.382 390.077 376.17 390.007 375.888C389.902 375.502 390.112 375.115 390.463 375.01C391.87 374.587 393.313 374.13 394.72 373.708C394.403 371.878 394.052 370.015 393.7 368.185C393.63 367.798 393.875 367.447 394.262 367.377C394.65 367.307 395.002 367.552 395.072 367.94C395.458 369.98 395.845 372.055 396.197 374.13C396.267 374.482 396.057 374.798 395.705 374.903C394.087 375.397 392.433 375.923 390.815 376.417C390.745 376.417 390.675 376.417 390.605 376.417L390.675 376.382Z" fill="black"/>
<path d="M367.951 382.255C367.811 382.255 367.669 382.22 367.564 382.115C367.389 382.008 367.283 381.833 367.283 381.622C367.001 379.828 366.721 377.998 366.404 376.17C366.334 375.783 366.58 375.432 366.966 375.362C367.355 375.29 367.706 375.537 367.776 375.923C368.058 377.507 368.303 379.09 368.55 380.672C369.956 380.355 371.328 380.038 372.699 379.723C373.088 379.652 373.475 379.863 373.545 380.25C373.65 380.637 373.405 381.023 373.016 381.095C371.4 381.482 369.746 381.833 368.093 382.22C368.058 382.22 367.986 382.22 367.951 382.22V382.255Z" fill="black"/>
<path d="M445.019 163.331C452.23 165.125 458.879 167.763 464.857 170.998C470.555 160.658 478.329 150.844 488.037 142.262C480.65 137.443 472.455 133.363 463.592 130.197C455.325 140.644 449.099 151.899 445.019 163.366V163.331Z" fill="#82C6AE"/>
<path d="M445.019 163.331C452.23 165.125 458.879 167.763 464.857 170.998C470.555 160.658 478.329 150.844 488.037 142.262C480.65 137.443 472.455 133.363 463.592 130.197C455.325 140.644 449.099 151.899 445.019 163.366V163.331ZM477.977 138.744C475.655 141.206 476.747 144.689 480.017 146.623C474.987 151.935 470.625 157.598 466.897 163.472C463.979 161.924 460.144 163.05 458.772 165.864C457.084 165.125 455.325 164.457 453.567 163.823C454.869 160.974 453.46 157.668 450.049 156.683C453.004 150.211 456.662 143.88 461.024 137.794C464.822 139.131 469.43 138.287 471.682 135.719C473.827 136.669 475.902 137.689 477.942 138.779L477.977 138.744Z" fill="#4A9E81"/>
<path d="M467.565 146.06C470.837 147.538 471.717 150.809 469.922 153.236C468.093 155.663 464.435 156.507 461.41 155.241C458.385 153.975 456.943 150.915 458.525 148.276C460.108 145.638 464.33 144.583 467.6 146.06H467.565Z" fill="#4A9E81"/>
<path d="M450.824 163.402C450.752 163.402 450.717 163.402 450.647 163.402C449.627 163.085 448.642 162.769 447.622 162.487C447.482 162.452 447.34 162.346 447.305 162.206C447.235 162.065 447.235 161.924 447.305 161.784C447.657 160.869 448.044 159.919 448.43 159.005C448.537 158.723 448.854 158.618 449.135 158.723C449.415 158.829 449.522 159.146 449.415 159.427C449.099 160.166 448.784 160.904 448.502 161.643C449.31 161.889 450.155 162.135 450.999 162.382C451.28 162.487 451.42 162.769 451.35 163.05C451.28 163.261 451.069 163.402 450.859 163.402H450.824Z" fill="black"/>
<path d="M463.943 168.818C463.871 168.818 463.766 168.818 463.696 168.748C462.816 168.29 461.938 167.868 461.023 167.447C460.776 167.305 460.636 167.023 460.776 166.743C460.918 166.461 461.198 166.356 461.48 166.497C462.218 166.848 462.993 167.2 463.731 167.587C464.118 166.883 464.54 166.18 464.926 165.477C465.068 165.23 465.385 165.16 465.666 165.301C465.911 165.441 465.983 165.758 465.841 166.039C465.35 166.883 464.856 167.728 464.4 168.572C464.295 168.748 464.118 168.853 463.943 168.853V168.818Z" fill="black"/>
<path d="M462.781 135.895C462.676 135.895 462.571 135.895 462.465 135.79C462.218 135.614 462.183 135.297 462.36 135.051C462.993 134.207 463.661 133.328 464.33 132.484C464.47 132.308 464.716 132.237 464.928 132.307C466.158 132.765 467.39 133.257 468.585 133.75C468.866 133.855 468.973 134.172 468.866 134.453C468.761 134.735 468.445 134.84 468.163 134.734C467.073 134.277 465.983 133.855 464.891 133.433C464.33 134.172 463.731 134.911 463.168 135.649C463.063 135.79 462.923 135.86 462.746 135.86L462.781 135.895Z" fill="black"/>
<path d="M481.916 145.005C481.776 145.005 481.635 144.97 481.53 144.865C481.318 144.654 481.318 144.337 481.53 144.126C482.093 143.528 482.69 142.965 483.288 142.402C482.408 141.875 481.53 141.382 480.65 140.855C480.403 140.714 480.298 140.397 480.44 140.151C480.58 139.905 480.896 139.8 481.143 139.94C482.233 140.573 483.323 141.206 484.378 141.84C484.52 141.91 484.625 142.086 484.625 142.227C484.625 142.402 484.59 142.543 484.45 142.649C483.71 143.352 482.936 144.091 482.233 144.829C482.128 144.935 481.986 144.97 481.846 144.97L481.916 145.005Z" fill="black"/>
<path d="M365.877 146.307L382.409 167.412L419.237 138.533L402.705 117.428L365.877 146.307Z" fill="#82C6AE"/>
<path d="M365.877 146.307L382.409 167.412L419.237 138.533L402.705 117.428L365.877 146.307ZM411.112 132.307C407.91 134.805 407.347 139.448 409.845 142.648L388.635 159.251C386.137 156.05 381.495 155.487 378.294 157.984L374.002 152.532C377.204 150.035 377.765 145.392 375.269 142.191L396.479 125.589C398.977 128.79 403.619 129.353 406.82 126.855L411.112 132.307Z" fill="#4A9E81"/>
<path d="M392.573 149.331C396.381 149.331 399.468 146.245 399.468 142.437C399.468 138.63 396.381 135.543 392.573 135.543C388.766 135.543 385.68 138.63 385.68 142.437C385.68 146.245 388.766 149.331 392.573 149.331Z" fill="#4A9E81"/>
<path d="M371.856 150.457C371.645 150.457 371.435 150.351 371.293 150.175L368.937 147.186C368.69 146.869 368.761 146.447 369.043 146.201L372.031 143.844C372.348 143.598 372.772 143.668 373.017 143.95C373.263 144.266 373.193 144.688 372.911 144.935L370.485 146.834L372.383 149.296C372.63 149.613 372.56 150.035 372.278 150.281C372.138 150.387 371.996 150.422 371.856 150.422V150.457Z" fill="black"/>
<path d="M382.795 164.386H382.725C382.55 164.386 382.373 164.28 382.268 164.105L379.912 161.115C379.665 160.798 379.735 160.376 380.017 160.13C380.333 159.884 380.755 159.954 381.002 160.235L382.902 162.698L385.363 160.798C385.68 160.552 386.102 160.622 386.348 160.904C386.595 161.22 386.523 161.642 386.243 161.889L383.253 164.245C383.112 164.351 382.972 164.386 382.832 164.386H382.795Z" fill="black"/>
<path d="M404.639 124.744C404.429 124.744 404.217 124.639 404.077 124.463L402.177 122.001L399.75 123.9C399.434 124.146 399.012 124.076 398.765 123.795C398.519 123.478 398.589 123.056 398.87 122.81L401.86 120.453C402.177 120.207 402.599 120.277 402.845 120.559L405.202 123.549C405.449 123.865 405.379 124.287 405.097 124.533C404.955 124.639 404.815 124.674 404.674 124.674L404.639 124.744Z" fill="black"/>
<path d="M412.554 141.066C412.342 141.066 412.132 140.96 411.99 140.784C411.744 140.468 411.815 140.046 412.095 139.799L414.524 137.9L412.624 135.438C412.377 135.121 412.449 134.699 412.729 134.453C413.045 134.207 413.469 134.277 413.714 134.558L416.07 137.548C416.177 137.689 416.247 137.865 416.212 138.076C416.212 138.252 416.105 138.428 415.93 138.533L412.94 140.89C412.8 140.995 412.659 141.03 412.519 141.03L412.554 141.066Z" fill="black"/>
<path d="M383.253 223.338C381.846 235.753 380.861 248.242 380.333 260.763C409.281 264.245 437.983 260.763 464.153 251.125C459.088 239.658 454.41 228.052 450.19 216.303C429.436 223.725 406.503 226.363 383.288 223.302L383.253 223.338Z" fill="#82C6AE"/>
<path d="M383.253 223.338C381.846 235.753 380.861 248.242 380.333 260.763C409.281 264.245 437.983 260.763 464.153 251.125C459.088 239.658 454.41 228.052 450.19 216.303C429.436 223.725 406.503 226.363 383.288 223.302L383.253 223.338ZM454.656 239.728C448.36 241.84 444.35 247.537 446.038 252.99C430.738 256.893 414.733 258.793 398.518 258.442C398.166 252.743 392.433 248.065 385.54 247.362C385.68 244.125 385.856 240.89 386.066 237.653C392.75 238.322 397.991 233.82 397.955 228.157C411.498 228.543 424.828 227.102 437.561 223.935C438.898 229.423 445.195 232.693 451.28 230.653C452.37 233.678 453.496 236.738 454.656 239.763V239.728Z" fill="#4A9E81"/>
<path d="M431.195 240.75C432.427 245.92 428.242 251.125 421.663 251.865C415.085 252.638 409.282 248.488 408.895 243.212C408.508 237.9 413.045 233.468 418.778 232.835C424.512 232.237 430 235.578 431.195 240.75Z" fill="#4A9E81"/>
<path d="M386.383 233.397C386.383 233.397 386.383 233.397 386.348 233.397C385.961 233.397 385.68 233.045 385.68 232.658C385.82 230.9 385.926 229.107 386.066 227.347C386.066 227.172 386.171 226.995 386.313 226.855C386.453 226.715 386.63 226.678 386.84 226.678C388.74 226.89 390.675 227.03 392.61 227.172C392.996 227.172 393.278 227.523 393.278 227.91C393.278 228.297 392.926 228.578 392.538 228.578C390.85 228.473 389.126 228.332 387.438 228.157C387.333 229.668 387.191 231.217 387.086 232.728C387.086 233.117 386.735 233.397 386.383 233.397Z" fill="black"/>
<path d="M392.082 258.723C392.082 258.723 392.082 258.723 392.047 258.723C389.725 258.582 387.403 258.407 385.117 258.195C384.765 258.16 384.483 257.843 384.483 257.492C384.52 255.698 384.59 253.903 384.66 252.145C384.66 251.758 385.012 251.442 385.398 251.477C385.785 251.477 386.102 251.828 386.067 252.215C385.997 253.763 385.962 255.347 385.927 256.893C388.002 257.07 390.077 257.245 392.152 257.352C392.538 257.352 392.82 257.703 392.82 258.09C392.82 258.477 392.503 258.758 392.117 258.758L392.082 258.723Z" fill="black"/>
<path d="M449.591 226.68C449.31 226.68 449.028 226.503 448.923 226.222C448.395 224.78 447.903 223.303 447.41 221.86C445.863 222.353 444.28 222.845 442.733 223.267C442.345 223.373 441.958 223.162 441.853 222.775C441.748 222.388 441.958 222.002 442.345 221.895C444.105 221.403 445.863 220.84 447.621 220.278C447.973 220.172 448.395 220.348 448.501 220.735C449.063 222.388 449.661 224.077 450.225 225.765C450.365 226.117 450.155 226.538 449.803 226.643C449.731 226.643 449.661 226.68 449.556 226.68H449.591Z" fill="black"/>
<path d="M451.983 251.863C451.667 251.863 451.385 251.653 451.315 251.372C451.21 250.985 451.42 250.597 451.808 250.492C453.707 249.928 455.572 249.332 457.435 248.733C456.873 247.327 456.31 245.883 455.747 244.477C455.607 244.125 455.782 243.703 456.133 243.563C456.485 243.422 456.908 243.598 457.048 243.95C457.717 245.603 458.35 247.292 459.018 248.908C459.088 249.085 459.088 249.297 459.018 249.472C458.948 249.648 458.772 249.788 458.597 249.858C456.485 250.562 454.34 251.23 452.195 251.863C452.123 251.863 452.053 251.863 451.983 251.863Z" fill="black"/>
<path d="M342.592 71.6667C338.018 75.958 332.708 79.8272 326.693 83.0632C334.36 92.525 344.702 101.002 357.365 107.263C363.203 102.128 368.198 96.5349 372.348 90.696C360.213 86.2992 350.118 79.5809 342.592 71.6667Z" fill="#82C6AE"/>
<path d="M342.592 71.6667C338.018 75.958 332.708 79.8272 326.693 83.0632C334.36 92.525 344.702 101.002 357.365 107.263C363.203 102.128 368.198 96.5349 372.348 90.696C360.213 86.2992 350.118 79.5457 342.592 71.6667ZM361.445 100.474C358.243 98.997 353.918 99.4895 351.28 101.635C344.597 97.6252 338.687 92.9822 333.622 87.9172C336.295 86.1937 336.437 82.9577 334.36 80.7065C335.768 79.7215 337.175 78.7015 338.477 77.6815C340.517 79.8624 344.28 79.9679 346.39 77.8925C351.35 82.219 357.118 86.053 363.625 89.2187C361.622 91.6809 362.183 94.8817 365.35 96.2887C364.118 97.7309 362.817 99.1377 361.445 100.51V100.474Z" fill="#4A9E81"/>
<path d="M353.178 92.8418C350.998 94.9523 346.883 95.1282 344.385 93.2288C341.888 91.3293 341.993 88.2692 344.245 86.4402C346.496 84.576 349.978 84.4352 352.405 86.0885C354.831 87.7417 355.36 90.7315 353.178 92.8418Z" fill="#4A9E81"/>
<path d="M344.491 76.6261C344.35 76.6261 344.245 76.591 344.14 76.4855C343.576 75.9578 343.048 75.4655 342.521 74.9378C341.958 75.4303 341.395 75.9226 340.833 76.4151C340.621 76.591 340.27 76.591 340.095 76.3448C339.918 76.1336 339.918 75.782 340.165 75.6061C340.868 75.0081 341.536 74.4101 342.205 73.8121C342.415 73.6363 342.731 73.6363 342.943 73.8121C343.576 74.4453 344.245 75.0785 344.913 75.7116C345.123 75.9226 345.123 76.2393 344.913 76.4503C344.808 76.5558 344.666 76.6261 344.526 76.6261H344.491Z" fill="black"/>
<path d="M331.794 86.3342C331.652 86.3342 331.512 86.2638 331.407 86.1583C330.739 85.4197 330.07 84.681 329.402 83.9072C329.295 83.8017 329.26 83.6258 329.295 83.4852C329.332 83.3445 329.402 83.2037 329.542 83.0982C330.387 82.6058 331.195 82.1133 332.004 81.5857C332.25 81.445 332.567 81.5153 332.744 81.7615C332.919 82.0078 332.814 82.3243 332.567 82.5002C331.934 82.8872 331.3 83.3092 330.632 83.6962C331.16 84.2942 331.689 84.8568 332.215 85.4197C332.427 85.6307 332.392 85.9825 332.215 86.1583C332.11 86.2638 331.969 86.299 331.864 86.299L331.794 86.3342Z" fill="black"/>
<path d="M367.248 94.5298C367.143 94.5298 367.002 94.4946 366.932 94.4243C366.722 94.2485 366.686 93.8966 366.861 93.6856C367.355 93.0876 367.847 92.4545 368.338 91.8213C367.565 91.5048 366.827 91.1883 366.088 90.8716C365.807 90.7661 365.702 90.4496 365.807 90.1681C365.912 89.8868 366.228 89.7813 366.51 89.8868C367.46 90.3088 368.41 90.6958 369.358 91.0826C369.5 91.1531 369.64 91.2586 369.675 91.4345C369.712 91.6103 369.675 91.751 369.57 91.8916C368.936 92.7008 368.303 93.5098 367.67 94.3188C367.565 94.4595 367.425 94.5298 367.248 94.5298Z" fill="black"/>
<path d="M357.048 105.188C356.978 105.188 356.872 105.188 356.802 105.118C355.782 104.59 354.797 104.062 353.812 103.535C353.567 103.394 353.46 103.077 353.602 102.831C353.742 102.585 354.058 102.48 354.305 102.62C355.183 103.113 356.063 103.57 356.943 104.027C357.646 103.394 358.35 102.726 359.053 102.093C359.263 101.882 359.58 101.882 359.792 102.093C360.003 102.304 360.003 102.62 359.792 102.831C359.018 103.57 358.208 104.309 357.4 105.047C357.295 105.153 357.188 105.188 357.048 105.188Z" fill="black"/>
<path d="M146.354 293.827L225.918 320.278L228.627 328.613L146.354 293.827Z" fill="black"/>
<path d="M225.988 214.368C226.668 214.368 227.22 213.817 227.22 213.137C227.22 212.457 226.668 211.907 225.988 211.907C225.308 211.907 224.758 212.457 224.758 213.137C224.758 213.817 225.308 214.368 225.988 214.368Z" fill="#00C2FF"/>
<path d="M334.888 230.585L332.356 232.273C332.813 231.957 333.763 231.358 334.888 230.585Z" fill="#00C2FF"/>
<path d="M334.888 230.585L334.008 231.147C334.29 230.972 334.571 230.76 334.888 230.585ZM334.008 231.147C333.27 231.64 332.708 232.027 332.356 232.238L334.008 231.147Z" fill="black"/>
<path d="M333.938 231.217C333.235 231.673 332.671 232.062 332.356 232.272L333.938 231.217Z" fill="#00C2FF"/>
<path d="M333.938 231.217C333.235 231.673 332.671 232.062 332.356 232.272L333.938 231.217Z" fill="black"/>
<path d="M204.995 180.747L203.74 181.382L224.095 221.503L225.35 220.867L204.995 180.747Z" fill="black"/>
<path d="M123.808 324.605L114.874 311.203L148.008 339.835L123.808 324.605Z" fill="black"/>
<path d="M240.692 365.547L245.722 380.108L243.859 348.207L240.692 365.547Z" fill="black"/>
<path d="M225.428 203.478L219.167 210.942L220.243 211.847L226.507 204.383L225.428 203.478Z" fill="black"/>
<path d="M168.303 427.453H187.578L186.7 421.827L168.303 423.092V427.453Z" fill="white"/>
<path d="M187.578 428.158H168.303C167.917 428.158 167.6 427.842 167.6 427.453V423.093C167.6 422.705 167.882 422.425 168.268 422.388L186.7 421.123C187.052 421.123 187.403 421.368 187.438 421.72L188.317 427.348C188.317 427.56 188.317 427.77 188.142 427.912C187.965 428.052 187.825 428.158 187.613 428.158H187.578ZM169.007 426.75H186.77L186.137 422.565L169.007 423.76V426.75Z" fill="black"/>
<path d="M269.113 304.767L250.857 298.54L249.872 304.168L267.705 308.882L269.113 304.767Z" fill="white"/>
<path d="M267.705 309.585C267.635 309.585 267.6 309.585 267.53 309.585L249.697 304.837C249.345 304.732 249.133 304.38 249.168 304.028L250.153 298.4C250.188 298.188 250.295 298.013 250.505 297.908C250.682 297.802 250.892 297.767 251.103 297.837L269.358 304.063C269.71 304.203 269.922 304.592 269.782 304.943L268.373 309.058C268.268 309.34 267.987 309.55 267.705 309.55V309.585ZM250.682 303.642L267.248 308.038L268.198 305.223L251.385 299.49L250.647 303.642H250.682Z" fill="black"/>
<path d="M141.254 414.052C141.043 414.052 140.832 413.947 140.691 413.772L136.435 408.038C136.189 407.722 136.259 407.298 136.576 407.053C136.892 406.807 137.315 406.877 137.561 407.193L141.817 412.927C142.063 413.243 141.993 413.665 141.676 413.912C141.535 414.017 141.395 414.052 141.254 414.052Z" fill="black"/>
<path d="M138.053 416.375C137.842 416.375 137.631 416.268 137.491 416.093L133.234 410.36C132.988 410.043 133.059 409.622 133.375 409.375C133.692 409.128 134.114 409.198 134.36 409.515L138.616 415.248C138.862 415.565 138.792 415.987 138.475 416.233C138.335 416.338 138.194 416.375 138.053 416.375Z" fill="black"/>
<path d="M282.161 334.242C281.916 334.242 281.67 334.102 281.528 333.855L278.151 327.56C277.976 327.208 278.081 326.785 278.433 326.61C278.785 326.433 279.208 326.54 279.383 326.892L282.76 333.187C282.936 333.538 282.83 333.962 282.478 334.137C282.373 334.207 282.268 334.207 282.161 334.207V334.242Z" fill="black"/>
<path d="M278.68 336.072C278.433 336.072 278.188 335.93 278.047 335.685L274.67 329.388C274.495 329.037 274.6 328.615 274.952 328.438C275.303 328.262 275.725 328.368 275.902 328.72L279.278 335.017C279.453 335.368 279.348 335.79 278.997 335.965C278.892 336.037 278.785 336.037 278.68 336.037V336.072Z" fill="black"/>
<path d="M63.1322 282.853C63.1322 282.853 60.8811 284.717 61.0921 284.472C62.2881 283.17 61.7252 281.06 60.0721 280.075C58.5244 279.16 56.7306 279.968 55.3587 281.2C55.3587 281.2 54.4091 281.798 54.4442 281.763C55.6049 280.215 54.9014 278.28 53.2482 277.295C51.7006 276.382 48.7107 277.928 47.4446 279.125L35.0632 289.113C31.9327 280.427 37.7364 276.838 39.9172 275.642L40.2689 275.432C40.7614 275.15 41.1836 274.728 41.4297 274.13C42.0277 272.758 41.4297 271.21 40.0227 270.402C38.6157 269.592 37.8419 269.838 36.8922 270.225C24.7219 275.467 25.3902 284.752 25.9179 287.215C25.9179 287.25 25.9179 287.32 25.9179 287.355C25.9882 287.637 26.0586 287.953 26.1289 288.235C29.6464 302.163 43.7864 311.697 58.2431 310.323L62.0066 309.972C60.1776 304.485 57.2932 299.103 57.2932 299.103L67.8456 287.602C68.0214 287.425 68.1621 287.25 68.3029 287.003C69.2174 285.457 68.6546 283.417 67.0014 282.432C65.6999 281.657 64.1522 281.973 63.0971 282.818L63.1322 282.853Z" fill="white"/>
<path d="M55.1129 311.133C41.3246 311.133 28.5914 301.53 25.4961 288.375C25.4257 288.058 25.3554 287.777 25.2851 287.46V287.32C24.1244 281.482 26.4811 273.778 36.6464 269.557C37.9477 269.03 39.2844 269.1 40.4101 269.768C42.0984 270.753 42.8371 272.687 42.0984 274.375C41.8169 275.043 41.2894 275.607 40.6562 275.993C40.6562 275.993 40.4101 276.135 40.3044 276.205C35.3801 278.913 33.7269 282.853 35.4152 287.883L48.5001 277.19C50.0477 275.783 51.8767 275.572 53.6356 276.627C54.7259 277.295 55.4646 278.28 55.7107 279.405C55.7459 279.582 55.7811 279.793 55.7811 279.968C57.4696 278.808 59.1227 278.632 60.4944 279.44C61.5497 280.073 62.2884 281.128 62.4642 282.29C62.4642 282.36 62.4642 282.465 62.4642 282.537L62.6752 282.325C64.0822 281.2 65.9466 280.988 67.3885 281.868C69.3584 283.028 70.0619 285.527 68.9362 287.39C68.7956 287.637 68.5845 287.883 68.3736 288.093L58.1729 299.173C58.9821 300.545 61.4091 304.872 62.7104 309.797C62.7807 310.007 62.7104 310.218 62.6049 310.393C62.4994 310.57 62.2884 310.675 62.0774 310.675L57.4696 311.062C56.6606 311.133 55.8867 311.168 55.0776 311.168L55.1129 311.133ZM38.3347 270.612C37.9477 270.612 37.5609 270.682 37.1739 270.858C25.3906 275.748 26.1292 284.47 26.6569 287.038V287.178C26.7272 287.46 26.7976 287.742 26.8679 288.058C29.9984 301.283 43.4349 310.782 57.3991 309.655L61.1627 309.338C59.6151 304.028 56.7661 299.525 56.7309 299.49C56.5549 299.208 56.5901 298.857 56.8012 298.647L67.3534 287.143C67.4942 286.968 67.6349 286.827 67.7052 286.687C68.4087 285.49 67.9514 283.873 66.6499 283.098C65.5244 282.43 64.2932 282.853 63.5546 283.415L50.0126 295.902C49.6256 296.29 49.2036 296.642 48.8517 296.993C48.5704 297.238 48.1132 297.238 47.8669 296.958C47.6207 296.677 47.6207 296.218 47.9021 295.973L49.0629 294.917C53.9521 290.415 60.2834 284.365 60.5649 284.048C60.9166 283.662 61.0572 283.133 60.9869 282.572C60.8814 281.833 60.3889 281.165 59.6854 280.742C58.2434 279.863 56.4846 281.165 55.8162 281.797L44.2441 292.315C43.3646 293.123 42.5556 293.862 41.8169 294.53C41.5356 294.777 41.0782 294.777 40.8321 294.495C40.6914 294.355 40.6211 294.178 40.6562 293.968C40.6562 293.792 40.7617 293.617 40.9024 293.475L43.4702 291.153C48.2187 286.792 53.6004 281.762 53.9521 281.375C54.3039 280.918 54.4446 280.355 54.3391 279.793C54.1982 279.088 53.7059 278.42 52.9321 277.963C51.7009 277.225 50.5402 277.365 49.4497 278.385L35.5559 289.712C35.3801 289.852 35.1691 289.888 34.9227 289.852C34.7117 289.782 34.5359 289.642 34.4304 289.43C32.7069 285.138 32.1792 279.16 39.6011 275.08L39.9527 274.903C39.9527 274.903 39.9527 274.903 39.9879 274.903C40.3749 274.692 40.6562 274.375 40.8321 273.953C41.2894 272.933 40.8321 271.738 39.7417 271.105C39.3196 270.858 38.8624 270.753 38.3699 270.753L38.3347 270.612Z" fill="black"/>
<path d="M196.922 191.32C199.29 191.247 201.13 188.62 201.03 185.455C200.932 182.29 198.93 179.785 196.562 179.86C194.193 179.933 192.353 182.56 192.452 185.725C192.552 188.89 194.553 191.395 196.922 191.32Z" fill="white"/>
<path d="M196.76 181.163C198.202 181.163 199.469 182.817 199.714 184.963C199.96 187.32 198.8 189.535 197.217 189.782C197.112 189.782 197.005 189.782 196.935 189.782C195.494 189.782 194.227 188.128 193.98 185.983C193.735 183.627 194.895 181.41 196.479 181.163C196.584 181.163 196.689 181.163 196.76 181.163ZM196.76 179.757C196.584 179.757 196.407 179.757 196.267 179.792C193.91 180.178 192.257 182.993 192.574 186.158C192.855 189.078 194.755 191.223 196.9 191.223C199.045 191.223 197.252 191.223 197.392 191.188C199.749 190.802 201.402 187.988 201.085 184.822C200.805 181.902 198.905 179.757 196.76 179.757Z" fill="black"/>
<path d="M197.147 187.777C197.04 187.777 196.9 187.777 196.795 187.672C196.478 187.46 196.337 187.038 196.548 186.722C197.568 185.033 196.407 184.013 196.372 183.978C196.092 183.732 196.055 183.275 196.302 182.993C196.548 182.712 197.005 182.677 197.287 182.923C198.025 183.557 199.08 185.315 197.78 187.46C197.638 187.672 197.428 187.812 197.182 187.812L197.147 187.777Z" fill="black"/>
<path d="M177.343 206.595C187.6 206.595 195.915 198.28 195.915 188.023C195.915 177.767 187.6 169.452 177.343 169.452C167.087 169.452 158.771 177.767 158.771 188.023C158.771 198.28 167.087 206.595 177.343 206.595Z" fill="white"/>
<path d="M177.343 170.823C183.428 170.823 189.127 174.095 192.187 179.37C194.508 183.345 195.107 187.953 193.945 192.385C192.785 196.817 189.935 200.545 185.997 202.832C183.358 204.343 180.403 205.153 177.378 205.153C171.293 205.153 165.595 201.882 162.535 196.605C157.786 188.41 160.565 177.893 168.725 173.11C171.363 171.597 174.318 170.788 177.343 170.788V170.823ZM177.343 169.417C174.177 169.417 170.942 170.225 168.022 171.948C159.158 177.118 156.133 188.48 161.304 197.345C164.751 203.288 170.977 206.595 177.378 206.595C183.78 206.595 183.78 205.787 186.7 204.063C195.563 198.892 198.588 187.53 193.418 178.667C189.97 172.722 183.745 169.417 177.343 169.417Z" fill="black"/>
<path d="M181.74 192.103C181.388 192.103 181.072 191.822 181.037 191.435C181.037 191.048 181.318 190.697 181.705 190.697L186.523 190.38C184.94 189.113 182.9 186.722 182.303 182.642C182.232 182.255 182.513 181.903 182.9 181.832C183.287 181.762 183.64 182.043 183.71 182.43C184.588 188.375 188.845 190.203 189.022 190.275C189.337 190.415 189.513 190.732 189.443 191.048C189.373 191.365 189.127 191.612 188.81 191.647L181.81 192.103C181.81 192.103 181.81 192.103 181.775 192.103H181.74Z" fill="black"/>
<path d="M156.829 192.992C159.197 192.883 161 190.233 160.856 187.07C160.712 183.907 158.677 181.428 156.309 181.537C153.942 181.643 152.139 184.295 152.282 187.458C152.426 190.622 154.462 193.098 156.829 192.992Z" fill="white"/>
<path d="M156.484 182.922C156.52 182.922 156.59 182.922 156.625 182.922C158.243 183.063 159.545 185.173 159.509 187.53C159.439 189.747 158.208 191.54 156.731 191.54C155.253 191.54 156.625 191.54 156.59 191.54C154.972 191.4 153.671 189.288 153.706 186.932C153.776 184.717 155.007 182.922 156.484 182.922ZM156.484 181.515C154.233 181.515 152.369 183.872 152.299 186.897C152.228 190.063 154.093 192.772 156.449 192.947C156.52 192.947 156.625 192.947 156.695 192.947C158.947 192.947 160.811 190.59 160.881 187.565C160.952 184.4 159.087 181.692 156.731 181.515C156.66 181.515 156.555 181.515 156.484 181.515Z" fill="black"/>
<path d="M177.765 165.617C175.373 166.11 166.193 168.325 162.886 176.345L190.885 175.29C201.12 173.145 194.367 162.276 177.8 165.617H177.765Z" fill="black"/>
<path d="M156.414 189.535C156.203 189.535 155.992 189.43 155.851 189.253C154.409 187.213 155.289 185.385 155.992 184.682C156.273 184.4 156.695 184.4 156.977 184.682C157.258 184.962 157.258 185.385 156.977 185.667C156.871 185.772 155.886 186.862 156.977 188.41C157.188 188.727 157.118 189.148 156.801 189.395C156.66 189.465 156.52 189.535 156.379 189.535H156.414Z" fill="black"/>
<path d="M177.005 186.248C177.587 186.23 178.027 185.16 177.985 183.858C177.945 182.558 177.438 181.518 176.857 181.537C176.273 181.555 175.835 182.625 175.875 183.925C175.917 185.227 176.422 186.267 177.005 186.248Z" fill="black"/>
<path d="M189.156 185.867C189.738 185.848 190.178 184.778 190.136 183.478C190.096 182.177 189.591 181.137 189.008 181.155C188.426 181.173 187.986 182.243 188.028 183.543C188.068 184.845 188.573 185.885 189.156 185.867Z" fill="black"/>
</svg>
