<svg width="500" height="500" viewBox="0 0 500 500" fill="none" xmlns="http://www.w3.org/2000/svg">
<path d="M161.92 457.75C161.706 457.75 161.501 457.665 161.35 457.513C161.198 457.362 161.113 457.157 161.113 456.943V330.723C161.113 330.508 161.198 330.303 161.35 330.152C161.501 330.002 161.706 329.917 161.92 329.917C162.134 329.917 162.34 330.002 162.491 330.152C162.642 330.303 162.727 330.508 162.727 330.723V456.955C162.724 457.167 162.638 457.37 162.487 457.518C162.336 457.667 162.132 457.75 161.92 457.75Z" fill="#DCDCDC"/>
<path d="M200.564 291.818L154.052 214.168L57.3125 251.88L68.9373 270.783C80.1477 289.002 95.7872 304.087 114.399 314.632C133.01 325.177 153.988 330.838 175.377 331.092L180.925 331.155L267.239 294.692L200.564 291.818Z" fill="#8CABD8"/>
<path d="M184.517 458.5H138.251C138.037 458.5 137.832 458.415 137.681 458.263C137.529 458.113 137.444 457.907 137.444 457.693C137.444 457.48 137.529 457.273 137.681 457.123C137.832 456.972 138.037 456.887 138.251 456.887H184.517C184.73 456.887 184.937 456.972 185.087 457.123C185.239 457.273 185.324 457.48 185.324 457.693C185.324 457.907 185.239 458.113 185.087 458.263C184.937 458.415 184.73 458.5 184.517 458.5Z" fill="#DCDCDC"/>
<path d="M187.464 430.513L182.48 443.392L195.359 448.373L200.34 435.495L187.464 430.513Z" fill="black"/>
<path d="M188.39 432.637L198.257 436.442L194.438 446.307L184.57 442.493L188.39 432.637ZM187.467 430.55L182.483 443.43L195.358 448.413L200.355 435.533L187.478 430.55H187.467Z" fill="black"/>
<path d="M226.687 320.587L188.785 427.185L234.22 458.178L228.907 424.602C228.907 424.602 257.833 339.535 265.488 317.525C275.668 288.258 265.96 267.893 238.287 272.735C224.378 275.177 170.813 288.727 159.463 293.105L182.91 303.543L226.687 320.587Z" fill="#2760AD"/>
<path d="M246.01 273.635C253.996 273.635 259.931 276.282 263.64 281.5C266.311 285.252 267.711 290.195 267.808 296.192C267.908 302.373 266.596 309.373 263.961 316.997C256.393 338.762 227.666 423.235 227.381 424.085C227.296 424.333 227.271 424.598 227.311 424.857L232.041 454.715L190.723 426.532L228.196 321.128C228.335 320.732 228.316 320.298 228.141 319.917C227.966 319.537 227.65 319.238 227.26 319.087L183.531 302.075L163.857 293.315C180.078 288.105 225.593 276.622 238.566 274.35C241.021 273.897 243.513 273.658 246.01 273.635ZM246.01 272.022C243.418 272.035 240.833 272.273 238.283 272.735C224.375 275.177 170.81 288.727 159.459 293.105L182.906 303.543L226.683 320.587L188.781 427.185L234.216 458.178L228.901 424.602C228.901 424.602 257.83 339.535 265.483 317.525C274.651 291.172 267.686 272.022 246.006 272.022H246.01Z" fill="black"/>
<path d="M186.731 432.657L234.22 458.178L228.906 424.602L230.58 419.68C230.58 419.68 197.771 406.23 196.445 405.65L186.731 432.657Z" fill="white"/>
<path d="M197.388 407.792C203.231 410.213 223.026 418.328 228.563 420.6L227.38 424.085C227.295 424.333 227.271 424.598 227.311 424.857L232.113 455.212L188.721 431.893L197.388 407.792ZM196.445 405.65L186.731 432.657L234.22 458.178L228.906 424.602L230.58 419.68C230.58 419.68 197.771 406.23 196.445 405.65Z" fill="black"/>
<path d="M228.481 429.897C228.375 429.897 228.266 429.873 228.168 429.832L216.24 424.812C216.136 424.775 216.041 424.718 215.96 424.643C215.88 424.568 215.815 424.478 215.771 424.377C215.726 424.277 215.703 424.168 215.701 424.058C215.701 423.948 215.723 423.84 215.765 423.738C215.808 423.637 215.871 423.545 215.95 423.468C216.03 423.393 216.123 423.333 216.226 423.295C216.33 423.257 216.44 423.24 216.55 423.245C216.66 423.25 216.766 423.278 216.865 423.327L228.793 428.347C228.963 428.42 229.105 428.548 229.19 428.713C229.276 428.877 229.305 429.067 229.268 429.248C229.231 429.43 229.133 429.593 228.99 429.712C228.846 429.83 228.668 429.895 228.481 429.897Z" fill="black"/>
<path d="M229.04 434.372C228.934 434.37 228.827 434.35 228.729 434.31L216.802 429.292C216.604 429.208 216.447 429.05 216.367 428.852C216.285 428.653 216.287 428.432 216.37 428.233C216.452 428.037 216.61 427.88 216.809 427.798C217.007 427.718 217.229 427.718 217.427 427.802L229.354 432.81C229.525 432.882 229.665 433.012 229.752 433.177C229.839 433.342 229.865 433.53 229.829 433.713C229.792 433.895 229.694 434.058 229.549 434.177C229.405 434.293 229.225 434.358 229.04 434.358V434.372Z" fill="black"/>
<path d="M198.737 400.077L198.118 401.567L230.677 415.067L231.295 413.577L198.737 400.077Z" fill="black"/>
<path d="M104.293 390.052L92.418 397.093L99.46 408.968L111.335 401.927L104.293 390.052Z" fill="black"/>
<path d="M104.59 391.45L110.009 400.53L100.918 405.948L95.4992 396.862L104.59 391.45ZM105.147 389.235L93.2881 396.308L100.361 408.168L112.22 401.098L105.147 389.232V389.235Z" fill="black"/>
<path d="M240.143 298.262C227.683 291.615 90.2256 221.373 90.2256 221.373C99.0058 240.895 107.774 264.06 114.032 277.267C119.52 288.848 127.025 292.12 140.789 298.342L185.38 317.44L203.8 326.802L108.262 387.398L124.947 439.802L141.45 410.088C141.45 410.088 216.651 360.917 236.266 348.3C262.296 331.53 264.915 311.488 240.143 298.262Z" fill="#2760AD"/>
<path d="M93.5544 224.888C103.88 248.408 228.288 293.767 239.385 299.685C249.758 305.222 255.403 312.11 255.71 319.61C256.078 328.552 248.851 338.26 235.37 346.943C216.001 359.42 141.321 408.248 140.567 408.74C140.347 408.882 140.167 409.077 140.042 409.305L125.351 435.752L110.179 388.093L204.663 328.165C204.903 328.012 205.1 327.798 205.23 327.547C205.361 327.293 205.423 327.01 205.41 326.727C205.396 326.442 205.308 326.167 205.153 325.927C204.998 325.688 204.783 325.493 204.53 325.365L186.11 316.003L186.013 315.958L141.442 296.865L140.914 296.627C127.425 290.53 120.654 287.468 115.493 276.577C112.301 269.838 108.391 260.352 104.255 250.305C100.777 241.868 97.1981 233.188 93.5544 224.888ZM90.2256 221.373C99.0058 240.895 107.774 264.06 114.032 277.267C119.52 288.848 127.025 292.12 140.789 298.342L185.38 317.44L203.8 326.802L108.262 387.398L124.947 439.802L141.45 410.088C141.45 410.088 216.651 360.917 236.266 348.3C262.316 331.522 264.951 311.488 240.163 298.265C227.683 291.615 90.2256 221.373 90.2256 221.373Z" fill="black"/>
<path d="M103.275 390.442L124.948 439.802L141.451 410.088L145.805 407.263C145.805 407.263 128.252 376.452 127.562 375.177L103.275 390.442Z" fill="white"/>
<path d="M126.989 377.428C130.1 382.928 140.688 401.527 143.65 406.723L140.567 408.74C140.348 408.882 140.168 409.077 140.043 409.305L125.113 436.175L105.309 391.067L126.989 377.428ZM127.562 375.157L103.275 390.442L124.948 439.802L141.451 410.088L145.805 407.263C145.805 407.263 128.252 376.452 127.562 375.177V375.157Z" fill="black"/>
<path d="M138.351 414.168C138.209 414.168 138.068 414.132 137.944 414.062C137.82 413.99 137.717 413.888 137.645 413.763L131.347 402.467C131.24 402.28 131.211 402.058 131.268 401.85C131.324 401.642 131.461 401.465 131.647 401.358C131.834 401.252 132.056 401.223 132.263 401.28C132.471 401.335 132.648 401.472 132.755 401.658L139.058 412.957C139.11 413.05 139.143 413.152 139.156 413.257C139.169 413.363 139.16 413.47 139.131 413.572C139.102 413.675 139.054 413.77 138.988 413.853C138.922 413.937 138.84 414.007 138.747 414.058C138.627 414.128 138.49 414.167 138.351 414.168Z" fill="black"/>
<path d="M136.036 418.037C135.893 418.038 135.752 418.002 135.628 417.932C135.504 417.86 135.401 417.757 135.33 417.633L129.027 406.335C128.923 406.148 128.898 405.927 128.957 405.722C129.016 405.515 129.155 405.342 129.342 405.238C129.529 405.135 129.75 405.108 129.956 405.168C130.162 405.227 130.336 405.365 130.439 405.553L136.742 416.852C136.813 416.973 136.851 417.113 136.85 417.257C136.85 417.398 136.812 417.538 136.74 417.662C136.669 417.783 136.566 417.885 136.442 417.957C136.318 418.027 136.178 418.063 136.036 418.062V418.037Z" fill="black"/>
<path d="M132.808 372.18L131.402 372.973L148.726 403.668L150.132 402.875L132.808 372.18Z" fill="black"/>
<path d="M257.3 274.233C257.865 274.205 259.94 276.492 259.94 276.492L265.355 282.98L266.109 284.888L227.082 285.788C227.082 285.788 247.875 274.728 257.3 274.233Z" fill="black"/>
<path d="M219.259 189.832L127.833 248.38C137.867 258.102 149.873 265.553 163.039 270.23L238.897 219.587L219.259 189.832Z" fill="#82C6AE"/>
<path d="M218.79 192.052L236.67 219.138L162.829 268.435C150.829 264.047 139.822 257.313 130.452 248.627L218.79 192.052ZM219.259 189.832L127.833 248.38C137.867 258.102 149.873 265.553 163.039 270.23L238.897 219.587L219.262 189.832H219.259Z" fill="black"/>
<path d="M197.53 256.225L124.306 262.353L88.6484 154.287H130.443C146.523 154.287 157.861 157.895 164.003 172.76L197.53 256.225Z" fill="#82C6AE"/>
<path d="M253.044 155.901C267.974 155.901 279.122 158.875 285.102 173.36L317.806 254.8L248.041 260.643L213.48 155.901H253.044ZM253.044 154.287H211.249L246.907 262.353L320.131 256.225L286.603 172.76C280.462 157.895 269.124 154.287 253.044 154.287Z" fill="black"/>
<path d="M176.245 254.295L145.578 181.233H112.834V179.62H146.115C146.273 179.62 146.428 179.667 146.56 179.753C146.692 179.842 146.796 179.965 146.857 180.112L177.733 253.653L176.245 254.295Z" fill="white"/>
<path d="M130.226 224.912L153.358 249.01L140.805 250.51L130.226 224.912Z" fill="black"/>
<path d="M270.197 248.377H142.613V230.57C142.613 230.57 201.412 227.777 206.262 243.078C212.96 227.895 270.197 230.57 270.197 230.57V248.377Z" fill="white"/>
<path d="M270.197 249.183H142.613C142.399 249.183 142.193 249.098 142.042 248.947C141.891 248.795 141.806 248.59 141.806 248.377V230.57C141.805 230.362 141.885 230.162 142.029 230.012C142.173 229.862 142.369 229.772 142.576 229.763C144.917 229.65 198.228 227.288 206.33 241.29C215.916 227.398 267.937 229.658 270.221 229.763C270.428 229.773 270.623 229.863 270.765 230.013C270.908 230.163 270.988 230.362 270.987 230.57V248.377C270.988 248.587 270.905 248.79 270.757 248.942C270.608 249.092 270.408 249.178 270.197 249.183ZM143.42 247.57H269.39V231.345C262.583 231.102 212.988 229.832 207 243.405C206.933 243.555 206.823 243.68 206.683 243.765C206.545 243.85 206.383 243.892 206.22 243.882C206.056 243.873 205.9 243.815 205.77 243.717C205.642 243.617 205.545 243.48 205.495 243.325C203.618 237.405 192.232 233.455 172.568 231.893C162.869 231.187 153.139 231.003 143.42 231.345V247.57Z" fill="black"/>
<path d="M268.325 237.712C268.325 237.712 216.797 235.968 208.005 246.185L268.325 237.712Z" fill="white"/>
<path d="M208.02 247C207.828 247 207.641 246.932 207.496 246.807C207.415 246.738 207.35 246.653 207.301 246.56C207.253 246.465 207.225 246.362 207.216 246.257C207.208 246.15 207.22 246.043 207.253 245.943C207.286 245.843 207.338 245.75 207.406 245.668C216.353 235.267 266.246 236.832 268.368 236.905C268.583 236.908 268.786 236.997 268.935 237.152C269.083 237.305 269.165 237.512 269.161 237.725C269.158 237.94 269.068 238.143 268.915 238.292C268.761 238.442 268.555 238.522 268.34 238.518H268.311C267.8 238.518 217.066 236.905 208.633 246.722C208.558 246.81 208.463 246.88 208.358 246.928C208.251 246.977 208.136 247 208.02 247Z" fill="black"/>
<path d="M268.325 243.325C268.325 243.325 222.18 241.548 211.225 247.602L268.325 243.325Z" fill="white"/>
<path d="M211.249 248.408C211.069 248.412 210.894 248.353 210.75 248.245C210.605 248.137 210.504 247.983 210.457 247.81C210.41 247.635 210.424 247.452 210.494 247.285C210.564 247.12 210.689 246.982 210.845 246.895C221.865 240.807 266.469 242.457 268.36 242.53C268.467 242.533 268.572 242.558 268.667 242.602C268.764 242.647 268.85 242.71 268.924 242.787C268.995 242.865 269.05 242.957 269.089 243.055C269.125 243.155 269.142 243.26 269.139 243.367C269.134 243.473 269.109 243.577 269.065 243.673C269.02 243.77 268.957 243.857 268.88 243.928C268.802 244 268.71 244.057 268.612 244.093C268.512 244.13 268.407 244.147 268.3 244.143C267.84 244.143 222.257 242.437 211.624 248.308C211.509 248.372 211.38 248.407 211.249 248.408Z" fill="black"/>
<path d="M280.72 245.492L258.419 243.74C259.12 239.793 259.479 235.793 259.487 231.783C259.487 228.362 258.93 225.853 256.227 225.853C252.294 225.853 252.79 230.368 250.845 235.267C245.749 248.098 225.75 248.985 215.03 249.058V286.583C263.732 286.597 278.477 250.333 280.72 245.492Z" fill="white"/>
<path d="M256.227 227.467C256.874 227.467 257.842 227.467 257.874 231.792C257.869 235.7 257.524 239.6 256.845 243.45C256.804 243.672 256.81 243.9 256.864 244.12C256.915 244.338 257.014 244.545 257.152 244.725C257.289 244.903 257.464 245.052 257.662 245.16C257.86 245.268 258.08 245.332 258.305 245.35L278.304 246.92C274.649 254.722 269.525 261.748 263.215 267.615C251.067 278.82 235.41 284.655 216.655 284.965V250.668C222.212 250.592 229.055 250.212 235.472 248.522C244.26 246.205 249.94 241.948 252.359 235.868C252.895 234.455 253.337 233.008 253.682 231.538C254.554 228.072 254.937 227.467 256.227 227.467ZM256.227 225.853C252.294 225.853 252.79 230.368 250.845 235.267C245.749 248.098 225.75 248.985 215.03 249.058V286.583C263.732 286.583 278.477 250.322 280.72 245.478L258.419 243.728C259.119 239.78 259.477 235.78 259.487 231.772C259.487 228.35 258.93 225.84 256.227 225.84V225.853Z" fill="black"/>
<path d="M278.948 247.017C281.816 242.263 288.265 225.167 288.801 221.398C289.156 218.912 288.608 217.258 286.921 216.58C284.408 215.572 282.673 217.492 281.991 219.175C279.525 225.252 270.366 241.517 263.731 248.182L278.948 247.017Z" fill="white"/>
<path d="M278.869 248.182C278.727 248.185 278.587 248.152 278.465 248.082C278.372 248.03 278.29 247.962 278.224 247.878C278.157 247.797 278.107 247.702 278.077 247.598C278.049 247.497 278.039 247.39 278.05 247.285C278.062 247.178 278.095 247.077 278.145 246.983C280.567 242.598 287.467 224.933 287.987 221.285C288.39 218.403 287.394 217.653 286.604 217.327C284.09 216.318 282.855 219.15 282.722 219.477C280.374 225.263 276.439 234.948 269.544 241.875C269.39 242.015 269.189 242.09 268.982 242.085C268.775 242.08 268.577 241.997 268.43 241.85C268.284 241.703 268.199 241.507 268.194 241.3C268.189 241.093 268.262 240.892 268.402 240.738C275.067 234.04 278.925 224.545 281.229 218.872C282.174 216.543 284.389 214.7 287.205 215.83C289.222 216.637 290.029 218.545 289.585 221.515C289.037 225.377 282.092 243.175 279.559 247.743C279.494 247.87 279.394 247.978 279.274 248.057C279.152 248.133 279.012 248.177 278.869 248.182Z" fill="black"/>
<path d="M272.556 250.51C275.43 245.762 283.011 226.768 283.548 223.003C283.903 220.515 283.355 218.86 281.663 218.182C279.155 217.173 277.42 219.093 276.736 220.777C274.268 226.853 270.366 236.247 263.731 242.908L272.556 250.51Z" fill="white"/>
<path d="M274.8 245.938C274.658 245.937 274.518 245.897 274.397 245.822C274.215 245.712 274.083 245.533 274.032 245.325C273.98 245.118 274.013 244.9 274.123 244.717C276.895 240.125 282.225 226.66 282.762 222.887C283.165 220.005 282.168 219.255 281.378 218.932C278.863 217.92 277.628 220.757 277.497 221.083C275.148 226.87 271.213 236.55 264.318 243.478C264.167 243.63 263.962 243.715 263.747 243.717C263.533 243.717 263.328 243.632 263.175 243.482C263.023 243.33 262.938 243.125 262.937 242.912C262.937 242.697 263.02 242.492 263.172 242.34C269.842 235.642 273.698 226.147 276.003 220.473C276.947 218.145 279.162 216.302 281.978 217.432C283.997 218.238 284.803 220.152 284.36 223.117C283.79 227.107 278.408 240.733 275.503 245.548C275.43 245.668 275.327 245.768 275.203 245.837C275.08 245.905 274.942 245.94 274.8 245.938Z" fill="black"/>
<path d="M267.993 248.57C270.862 243.817 277.31 228.455 277.852 224.687C278.207 222.202 277.653 220.547 275.967 219.868C273.457 218.86 271.722 220.78 271.037 222.463C268.57 228.54 260.903 241.25 254.267 247.912L267.993 248.57Z" fill="white"/>
<path d="M268.986 245.668C268.843 245.667 268.703 245.627 268.581 245.552C268.4 245.442 268.268 245.263 268.216 245.055C268.165 244.848 268.198 244.628 268.308 244.447C271.133 239.733 276.551 228.132 277.063 224.573C277.468 221.688 276.471 220.942 275.676 220.615C273.161 219.607 271.928 222.438 271.795 222.765C268.018 232.07 263.466 239.435 258.261 244.663C258.11 244.817 257.903 244.902 257.69 244.902C257.475 244.902 257.268 244.817 257.116 244.667C256.965 244.515 256.88 244.308 256.878 244.095C256.878 243.88 256.963 243.673 257.115 243.522C262.166 238.45 266.605 231.263 270.301 222.16C271.245 219.832 273.46 217.988 276.276 219.118C278.295 219.925 279.101 221.833 278.661 224.803C278.085 228.838 272.366 240.847 269.688 245.282C269.615 245.402 269.511 245.5 269.388 245.568C269.265 245.637 269.126 245.672 268.986 245.668Z" fill="black"/>
<path d="M142.015 249.716L113.322 174.894C100.531 139.98 60.5279 154.978 76.0104 189.344C76.0104 189.344 96.3106 237.079 110.623 270.316C117.942 287.308 122.966 287.501 137.121 287.501L217.015 287.448L217.058 249.741L142.015 249.716Z" fill="#82C6AE"/>
<path d="M89.9068 155.901C94.0226 155.901 98.0939 157.418 101.685 160.283C105.829 163.596 109.101 168.458 111.401 174.74V174.765L140.099 249.583C140.215 249.887 140.421 250.15 140.69 250.335C140.959 250.52 141.277 250.618 141.604 250.62L215.041 250.643L215.001 285.123L136.721 285.175H136.697C129.434 285.175 125.177 285.083 121.683 283.158C118.075 281.165 115.186 277.057 111.704 268.987C97.5531 236.113 77.2853 188.48 77.0916 188V187.968C74.7916 182.86 73.6578 177.993 73.7303 173.51C73.7214 169.833 74.7433 166.229 76.6799 163.104C78.0908 160.878 80.0456 159.049 82.3599 157.788C84.6743 156.528 87.2716 155.879 89.9068 155.901ZM89.9068 154.287C77.0633 154.287 66.2898 167.953 75.6066 188.633C75.6066 188.633 95.9069 236.368 110.219 269.605C117.535 286.588 122.554 286.79 136.693 286.79H136.717L216.611 286.737L216.655 249.03L141.604 249.005L112.919 174.183C107.822 160.279 98.4126 154.287 89.9189 154.287H89.9068Z" fill="black"/>
<path d="M211.91 221.728L202.792 215.793L269.167 116.721L278.287 122.657L211.91 221.728Z" fill="#2760AD"/>
<path d="M269.169 116.721L278.287 122.657L211.91 221.728L202.775 215.793L269.169 116.721ZM269.169 115.107C268.902 115.107 268.64 115.173 268.405 115.298C268.172 115.423 267.972 115.604 267.824 115.825L201.449 214.918C201.329 215.095 201.247 215.295 201.205 215.505C201.165 215.715 201.165 215.932 201.209 216.14C201.252 216.35 201.337 216.548 201.457 216.725C201.579 216.902 201.732 217.053 201.912 217.17L211.032 223.1C211.387 223.332 211.819 223.413 212.234 223.328C212.65 223.242 213.015 222.997 213.25 222.645L279.627 123.577C279.865 123.221 279.952 122.786 279.869 122.366C279.825 122.157 279.742 121.958 279.62 121.781C279.5 121.605 279.345 121.454 279.167 121.337L270.047 115.402C269.785 115.231 269.48 115.14 269.169 115.139V115.107Z" fill="black"/>
<path d="M198.66 232.123L211.91 221.728L202.792 215.797L198.66 232.123Z" fill="white"/>
<path d="M141.996 280.375L151.116 286.307L137.881 296.702L141.996 280.375ZM141.996 278.762C141.795 278.762 141.595 278.798 141.408 278.87C141.168 278.963 140.955 279.113 140.785 279.305C140.615 279.498 140.495 279.727 140.431 279.977L136.3 296.307C136.216 296.632 136.238 296.977 136.361 297.29C136.485 297.603 136.703 297.87 136.985 298.053C137.246 298.225 137.551 298.317 137.865 298.315C138.226 298.315 138.576 298.195 138.861 297.972L152.128 287.567C152.33 287.407 152.491 287.203 152.598 286.97C152.706 286.737 152.756 286.482 152.745 286.225C152.733 285.968 152.66 285.718 152.533 285.495C152.405 285.272 152.226 285.083 152.011 284.943L142.891 279.008C142.63 278.838 142.325 278.748 142.013 278.75L141.996 278.762Z" fill="black"/>
<path d="M206.104 204.805C206.104 204.805 209.11 204.472 208.76 204.458C206.947 204.402 205.774 202.49 206.234 200.537C206.637 198.745 208.562 197.998 210.442 197.845C210.442 197.845 211.572 197.583 211.519 197.575C209.534 197.342 208.594 195.425 209.054 193.472C209.482 191.668 212.787 190.578 214.579 190.477L230.88 188.46C226.687 179.913 219.852 181.637 217.407 182.407L217.004 182.525C216.417 182.702 215.787 182.68 215.215 182.46C214.514 182.168 213.944 181.627 213.617 180.942C213.29 180.255 213.229 179.472 213.444 178.743C213.585 178.197 213.85 177.69 214.222 177.265C214.592 176.838 215.057 176.505 215.579 176.29C228.18 171.025 234.402 179.822 236.339 182.412C246.192 195.573 246.024 206.025 243.96 212.673C243.129 215.372 241.317 217.662 238.882 219.09C236.445 220.518 233.564 220.983 230.804 220.393C221.979 218.46 222.329 212.153 222.329 212.153L206.225 211.75C205.97 211.753 205.715 211.725 205.467 211.665C204.579 211.428 203.822 210.848 203.362 210.053C202.902 209.257 202.777 208.312 203.014 207.425C203.2 206.725 203.597 206.1 204.15 205.632C204.702 205.163 205.384 204.875 206.104 204.805Z" fill="white"/>
<path d="M232.114 221.648C230.659 221.647 229.212 221.4 227.837 220.922C220.82 218.5 221.507 212.117 221.514 212.045C221.539 211.83 221.649 211.635 221.817 211.502C221.902 211.435 221.997 211.387 222.1 211.358C222.202 211.328 222.31 211.32 222.415 211.333C222.522 211.345 222.625 211.378 222.717 211.43C222.81 211.482 222.892 211.552 222.959 211.637C223.025 211.72 223.074 211.815 223.104 211.918C223.132 212.022 223.14 212.128 223.129 212.235C223.104 212.445 222.615 217.395 228.374 219.388C229.89 219.915 231.5 220.115 233.1 219.977C234.7 219.838 236.252 219.362 237.654 218.582C239.107 217.787 240.38 216.7 241.39 215.388C242.402 214.077 243.13 212.57 243.529 210.963C244.93 205.293 244.88 196.033 236.714 184.223C236.629 184.098 227.942 171.787 215.869 177.013C215.462 177.18 215.1 177.44 214.81 177.772C214.52 178.102 214.31 178.495 214.199 178.922C214.032 179.458 214.069 180.038 214.305 180.548C214.54 181.058 214.957 181.463 215.474 181.685C215.88 181.84 216.329 181.857 216.745 181.73H216.789L217.169 181.62C225.562 179.05 229.654 183.747 231.605 188.142C231.694 188.337 231.699 188.56 231.622 188.76C231.545 188.96 231.392 189.122 231.197 189.208C231.099 189.252 230.995 189.275 230.889 189.278C230.782 189.282 230.677 189.263 230.579 189.225C230.377 189.148 230.217 188.995 230.129 188.798C227.675 183.275 223.472 181.378 217.62 183.15L217.362 183.227L217.192 183.275H217.16C216.414 183.495 215.615 183.462 214.889 183.182C213.074 182.492 212.12 180.532 212.62 178.518C212.789 177.85 213.11 177.23 213.562 176.71C214.012 176.188 214.579 175.782 215.215 175.52C225.84 170.92 234.785 178.595 238.03 183.295C246.54 195.613 246.564 205.347 245.087 211.338C244.634 213.168 243.804 214.885 242.65 216.378C241.499 217.87 240.049 219.107 238.392 220.01C236.47 221.072 234.31 221.635 232.114 221.648Z" fill="black"/>
<path d="M224.242 212.638L206.214 212.548C205.897 212.553 205.58 212.517 205.274 212.445C204.182 212.158 203.247 211.45 202.675 210.478C202.102 209.505 201.939 208.345 202.219 207.252C202.44 206.388 202.924 205.615 203.602 205.037C204.28 204.458 205.12 204.105 206.007 204.023H206.06H206.214L206.152 203.95C205.782 203.443 205.527 202.862 205.407 202.245C205.285 201.628 205.3 200.993 205.45 200.383C205.822 198.802 207.145 197.7 209.142 197.257C209.04 197.143 208.945 197.025 208.857 196.902C208.512 196.378 208.282 195.79 208.18 195.172C208.08 194.555 208.11 193.923 208.27 193.318C208.767 191.22 210.249 189.993 212.452 189.857L230.787 187.69C230.892 187.677 231 187.685 231.102 187.715C231.205 187.743 231.302 187.792 231.385 187.858C231.469 187.925 231.539 188.007 231.59 188.1C231.642 188.193 231.675 188.295 231.689 188.402C231.7 188.507 231.692 188.615 231.664 188.718C231.634 188.82 231.585 188.917 231.519 189C231.454 189.083 231.37 189.153 231.279 189.205C231.185 189.258 231.082 189.292 230.977 189.303L212.617 191.475H212.569C211.067 191.563 210.172 192.282 209.84 193.697C209.735 194.082 209.71 194.483 209.769 194.877C209.827 195.272 209.967 195.648 210.18 195.985C210.344 196.212 210.554 196.402 210.797 196.54C211.04 196.678 211.309 196.765 211.589 196.792C212.237 196.792 219.79 196.43 226.364 196.03L229.91 195.8C230.02 195.793 230.13 195.808 230.234 195.847C230.337 195.883 230.432 195.942 230.512 196.018C230.627 196.125 230.709 196.263 230.747 196.417C230.784 196.57 230.775 196.73 230.724 196.878C230.67 197.027 230.575 197.157 230.449 197.252C230.324 197.347 230.174 197.403 230.015 197.413C228.999 197.482 227.854 197.555 226.642 197.628L210.502 198.673C209.595 198.745 207.42 199.077 207.029 200.743C206.93 201.118 206.915 201.512 206.985 201.893C207.054 202.275 207.207 202.637 207.432 202.953C207.587 203.168 207.79 203.343 208.024 203.468C208.257 203.592 208.515 203.662 208.78 203.672C209.389 203.672 218.279 203.313 225.06 202.942L226.675 202.848C226.889 202.837 227.099 202.91 227.259 203.052C227.419 203.195 227.515 203.395 227.529 203.61C227.54 203.823 227.467 204.033 227.325 204.193C227.182 204.353 226.982 204.45 226.767 204.463L225.154 204.555L206.152 205.633C205.6 205.685 205.075 205.903 204.649 206.258C204.222 206.615 203.914 207.092 203.764 207.627C203.584 208.307 203.68 209.032 204.032 209.642C204.382 210.252 204.96 210.697 205.64 210.883C205.827 210.923 206.019 210.943 206.209 210.943L224.245 211.032C224.46 211.032 224.665 211.117 224.817 211.268C224.967 211.42 225.052 211.625 225.052 211.838C225.052 212.053 224.967 212.258 224.817 212.41C224.665 212.562 224.46 212.647 224.245 212.647L224.242 212.638Z" fill="black"/>
<path d="M199.708 247.428C199.708 245.248 202.706 243.482 206.406 243.482C210.106 243.482 213.101 245.248 213.101 247.428H199.708Z" fill="white"/>
<path d="M213.1 248.235C212.886 248.235 212.681 248.15 212.53 247.998C212.378 247.847 212.293 247.642 212.293 247.428C212.293 245.725 209.598 244.288 206.406 244.288C203.215 244.288 200.515 245.725 200.515 247.428C200.515 247.642 200.43 247.847 200.278 247.998C200.128 248.15 199.923 248.235 199.708 248.235C199.495 248.235 199.29 248.15 199.138 247.998C198.986 247.847 198.901 247.642 198.901 247.428C198.901 244.76 202.198 242.675 206.406 242.675C210.615 242.675 213.908 244.76 213.908 247.428C213.908 247.642 213.823 247.847 213.671 247.998C213.52 248.15 213.315 248.235 213.1 248.235Z" fill="black"/>
<path d="M199.475 225.558L204.454 229.128L198.042 233.092L199.475 225.558Z" fill="black"/>
<path d="M229.047 285.53C224.232 286.343 219.36 286.765 214.477 286.79L214.432 249.025L229.003 248.162L229.047 285.53Z" fill="black"/>
<path d="M136.812 155.266L135.315 155.871L145.373 180.727L146.869 180.122L136.812 155.266Z" fill="white"/>
<path d="M131.307 155.044L129.805 155.634L139.654 180.715L141.156 180.125L131.307 155.044Z" fill="white"/>
<path d="M139.78 156.41C136.925 156.087 134.055 155.915 131.182 155.893V154.279C134.12 154.301 137.054 154.477 139.974 154.808L139.78 156.41Z" fill="black"/>
<path d="M114.311 177.637L112.816 178.247L115.122 183.895L116.616 183.285L114.311 177.637Z" fill="black"/>
<path d="M131.827 188.045C132.734 188.045 133.469 187.308 133.469 186.402C133.469 185.495 132.734 184.76 131.827 184.76C130.92 184.76 130.185 185.495 130.185 186.402C130.185 187.308 130.92 188.045 131.827 188.045Z" fill="white"/>
<path d="M134.22 194.323C135.127 194.323 135.863 193.588 135.863 192.68C135.863 191.773 135.127 191.038 134.22 191.038C133.313 191.038 132.578 191.773 132.578 192.68C132.578 193.588 133.313 194.323 134.22 194.323Z" fill="white"/>
<path d="M221.68 273.078C222.587 273.078 223.322 272.343 223.322 271.437C223.322 270.53 222.587 269.793 221.68 269.793C220.772 269.793 220.037 270.53 220.037 271.437C220.037 272.343 220.772 273.078 221.68 273.078Z" fill="white"/>
<path d="M221.772 279.793C222.678 279.793 223.415 279.058 223.415 278.15C223.415 277.243 222.678 276.508 221.772 276.508C220.865 276.508 220.13 277.243 220.13 278.15C220.13 279.058 220.865 279.793 221.772 279.793Z" fill="white"/>
<path d="M136.791 200.597C137.698 200.597 138.433 199.862 138.433 198.955C138.433 198.048 137.698 197.313 136.791 197.313C135.884 197.313 135.148 198.048 135.148 198.955C135.148 199.862 135.884 200.597 136.791 200.597Z" fill="white"/>
<path d="M489.291 283.478C487.068 281.663 480.681 286.207 474.31 293.873C474.628 288.087 472.958 283.467 469.811 282.543C468.196 282.07 466.445 282.635 464.763 283.975C466.26 267.758 463.875 254.52 459.19 253.95C454.276 253.342 448.7 266.863 446.721 284.148C446.695 284.427 446.661 284.71 446.633 284.988C446.035 281.007 445.22 277.062 444.188 273.17C438.506 251.658 427.701 236.003 420.051 238.207C412.4 240.408 410.803 259.628 416.48 281.138C418.873 290.19 422.165 298.198 425.76 304.28C423.985 302.497 422.118 300.807 420.168 299.215C411.096 291.807 402.155 287.918 400.198 290.54C398.241 293.163 404 301.282 413.066 308.698C417.755 312.527 435.028 327.093 450.463 326.085C464.888 325.145 477.561 308.908 480.988 304.337C488.081 294.862 491.798 285.525 489.291 283.478Z" fill="white"/>
<path d="M427.12 264.922L443.277 319.742H453.533L455.873 295.532L427.12 264.922Z" fill="white"/>
<path d="M453.533 321.548H443.293C443.118 321.548 442.948 321.492 442.808 321.387C442.668 321.283 442.566 321.135 442.518 320.968L426.345 266.152C426.31 266.048 426.295 265.94 426.303 265.832C426.31 265.722 426.34 265.617 426.39 265.52C426.44 265.422 426.508 265.337 426.593 265.267C426.676 265.197 426.773 265.145 426.878 265.113C426.981 265.083 427.091 265.073 427.2 265.085C427.308 265.098 427.413 265.133 427.508 265.187C427.603 265.24 427.685 265.313 427.751 265.4C427.816 265.487 427.865 265.587 427.891 265.692L443.878 319.935H452.795L455.066 296.452C455.088 296.237 455.193 296.04 455.358 295.903C455.525 295.767 455.738 295.702 455.953 295.723C456.166 295.743 456.363 295.848 456.5 296.015C456.636 296.18 456.701 296.395 456.681 296.608L454.34 320.818C454.321 321.018 454.228 321.205 454.078 321.34C453.93 321.475 453.735 321.55 453.533 321.548Z" fill="black"/>
<path d="M433.781 289.325C433.64 289.325 433.5 289.285 433.378 289.212L426.721 285.273C426.618 285.227 426.526 285.16 426.45 285.075C426.375 284.992 426.318 284.892 426.285 284.785C426.25 284.677 426.238 284.563 426.251 284.452C426.263 284.338 426.298 284.23 426.355 284.133C426.411 284.035 426.488 283.95 426.58 283.885C426.671 283.818 426.776 283.772 426.886 283.748C426.996 283.725 427.111 283.725 427.221 283.75C427.331 283.773 427.436 283.82 427.528 283.885L433.455 287.392L436.575 281.445C436.621 281.348 436.688 281.262 436.77 281.192C436.851 281.122 436.946 281.068 437.048 281.035C437.151 281.002 437.258 280.99 437.366 280.998C437.473 281.008 437.578 281.038 437.673 281.088C437.768 281.138 437.851 281.207 437.92 281.29C437.988 281.373 438.04 281.47 438.07 281.572C438.101 281.675 438.111 281.783 438.1 281.89C438.088 281.998 438.055 282.102 438.003 282.195L434.491 288.893C434.441 288.99 434.371 289.077 434.288 289.145C434.203 289.215 434.105 289.267 434 289.297C433.928 289.315 433.855 289.325 433.781 289.325Z" fill="black"/>
<path d="M455.023 306.167H454.995C454.88 306.16 454.768 306.128 454.666 306.075C454.565 306.022 454.475 305.947 454.405 305.857L451.12 301.635C451.055 301.552 451.008 301.457 450.98 301.353C450.951 301.252 450.943 301.145 450.956 301.04C450.97 300.935 451.003 300.833 451.055 300.74C451.108 300.648 451.178 300.567 451.261 300.502C451.345 300.437 451.441 300.388 451.543 300.36C451.646 300.332 451.753 300.325 451.858 300.338C451.963 300.352 452.065 300.385 452.156 300.437C452.25 300.49 452.33 300.56 452.396 300.643L455.115 304.142L458.238 300.995C458.313 300.918 458.401 300.86 458.5 300.818C458.598 300.777 458.703 300.757 458.808 300.755C458.915 300.755 459.02 300.777 459.118 300.817C459.216 300.857 459.305 300.915 459.38 300.99C459.455 301.065 459.515 301.153 459.556 301.252C459.596 301.35 459.618 301.455 459.618 301.56C459.62 301.667 459.598 301.772 459.558 301.87C459.518 301.968 459.46 302.057 459.385 302.132L455.615 305.928C455.538 306.007 455.445 306.068 455.343 306.11C455.241 306.15 455.133 306.17 455.023 306.167Z" fill="black"/>
<path d="M419.731 314.387H474.253C474.253 318.467 472.633 322.38 469.746 325.265C466.861 328.152 462.948 329.772 458.868 329.772H435.118C431.036 329.772 427.123 328.152 424.238 325.265C421.353 322.38 419.731 318.467 419.731 314.387Z" fill="black"/>
<path d="M448.897 327.937C434.053 327.937 418.295 315.023 412.985 310.678L412.542 310.315C404.29 303.577 396.927 294.535 399.533 291.057C399.79 290.737 400.11 290.473 400.473 290.285C400.837 290.095 401.235 289.983 401.643 289.955C405.403 289.495 413.047 293.368 420.665 299.59C421.347 300.147 422.012 300.717 422.682 301.285C419.73 295.22 417.393 288.875 415.71 282.345C409.83 260.078 411.642 240.783 419.837 238.432C421.657 237.907 423.633 238.242 425.725 239.428C432.855 243.463 440.59 257.352 444.975 273.963C445.565 276.187 446.082 278.402 446.525 280.63C448.43 268.29 452.13 258.348 456.125 255.208C457.177 254.378 458.247 254.022 459.295 254.155C465.002 254.862 466.805 269.122 465.715 283.382C466.36 282.997 467.075 282.745 467.818 282.642C468.562 282.537 469.319 282.582 470.045 282.772C473.063 283.655 474.968 287.445 475.15 292.67C480.682 286.428 487.017 281.578 489.813 283.858C493.145 286.585 488.09 297.205 481.633 305.817C475.738 313.685 463.852 327.017 450.515 327.888C449.975 327.92 449.438 327.937 448.897 327.937ZM402.293 291.532C402.143 291.532 401.993 291.54 401.845 291.557C401.653 291.562 401.467 291.607 401.293 291.688C401.12 291.768 400.965 291.883 400.837 292.025C399.545 293.743 403.77 301.058 413.57 309.065L414.018 309.432C419.208 313.68 434.63 326.322 448.89 326.322C449.398 326.322 449.902 326.307 450.403 326.273C463.093 325.443 474.614 312.49 480.335 304.843C488.002 294.607 490.422 286.448 488.783 285.105C487.263 283.862 481.52 287.44 474.932 295.39C474.823 295.522 474.677 295.615 474.512 295.658C474.347 295.7 474.172 295.69 474.013 295.628C473.855 295.565 473.72 295.455 473.629 295.312C473.537 295.168 473.493 294.998 473.504 294.828C473.805 289.317 472.232 285.092 469.585 284.338C467.972 283.857 466.357 284.773 465.268 285.628C465.143 285.727 464.993 285.787 464.835 285.802C464.677 285.815 464.519 285.782 464.38 285.705C464.243 285.628 464.133 285.513 464.062 285.373C463.99 285.235 463.96 285.078 463.977 284.923C465.533 268.04 462.717 256.222 459.107 255.773C458.497 255.693 457.835 255.938 457.129 256.492C453.05 259.72 449.107 271.535 447.542 285.262C447.51 285.54 447.482 285.818 447.448 286.093C447.453 286.307 447.372 286.513 447.223 286.668C447.075 286.823 446.872 286.912 446.658 286.917C446.443 286.92 446.237 286.84 446.083 286.692C445.928 286.543 445.84 286.34 445.835 286.125C445.243 282.173 444.435 278.258 443.413 274.395C439.128 258.178 431.712 244.698 424.922 240.852C423.227 239.888 421.665 239.602 420.277 240C413.18 242.042 411.803 261.257 417.267 281.965C419.567 290.685 422.747 298.613 426.455 304.905C426.555 305.073 426.592 305.275 426.553 305.468C426.517 305.663 426.41 305.837 426.253 305.957C426.097 306.078 425.902 306.137 425.703 306.122C425.507 306.108 425.322 306.022 425.183 305.88C423.428 304.108 421.58 302.43 419.648 300.853C412.037 294.623 405.327 291.532 402.293 291.532Z" fill="black"/>
<path d="M458.871 330.58H435.118C430.825 330.573 426.71 328.865 423.675 325.83C420.64 322.793 418.931 318.68 418.925 314.387V313.58H475.065V314.387C475.058 318.68 473.35 322.793 470.315 325.83C467.28 328.865 463.165 330.573 458.871 330.58ZM420.563 315.193C420.775 318.913 422.4 322.41 425.105 324.97C427.81 327.53 431.393 328.96 435.118 328.965H458.871C462.596 328.96 466.178 327.53 468.885 324.97C471.59 322.41 473.215 318.913 473.426 315.193H420.563Z" fill="black"/>
<path d="M343.082 216.35C341.153 216.352 339.23 216.142 337.348 215.725C330.798 214.272 324.997 210.443 320.102 204.342C307.783 188.98 301.23 162.745 295.928 141.666C293.45 131.784 291.317 123.254 289.048 117.758C287.7 114.49 286.09 112.73 284.263 112.512C281.172 112.161 278.21 116.281 278.17 116.321C278.047 116.496 277.858 116.615 277.647 116.651C277.437 116.688 277.218 116.639 277.043 116.515C276.868 116.392 276.75 116.204 276.713 115.992C276.678 115.781 276.727 115.564 276.85 115.389C276.995 115.188 280.402 110.451 284.445 110.906C286.898 111.185 288.947 113.279 290.542 117.137C292.85 122.737 295.003 131.324 297.493 141.266C302.738 162.192 309.263 188.238 321.36 203.322C330.122 214.243 342.343 217.602 354.045 212.298C364.693 207.488 371.162 196.877 369.422 187.077C367.675 177.153 358.16 168.558 348.48 167.067C343.008 171.59 336.492 171.835 334.483 170.673C334.18 170.54 333.93 170.307 333.775 170.015C333.62 169.722 333.568 169.385 333.627 169.06C333.922 167.502 336.985 166.275 342.73 165.428C344.468 165.175 346.233 165.158 347.977 165.375C356.345 157.749 355.573 137.534 355.113 125.376C355.022 122.979 354.94 120.909 354.932 119.166C354.932 118.952 355.017 118.747 355.168 118.596C355.32 118.444 355.525 118.359 355.74 118.359C355.953 118.359 356.158 118.444 356.31 118.596C356.462 118.747 356.547 118.952 356.547 119.166C356.547 120.885 356.635 122.943 356.723 125.324C357.212 138.099 357.935 157.112 349.942 165.706C353.72 166.55 357.278 168.185 360.38 170.503C366.053 174.668 369.93 180.612 371.02 186.805C372.872 197.328 366.017 208.68 354.718 213.792C351.065 215.462 347.098 216.333 343.082 216.35ZM335.318 169.282C335.753 169.48 336.223 169.59 336.702 169.608C339.152 169.827 342.807 169.023 346.087 166.837C345.048 166.803 344.008 166.865 342.98 167.018C337.218 167.885 335.685 168.918 335.318 169.282Z" fill="black"/>
<path d="M202.093 245.217C201.976 245.217 201.861 245.192 201.755 245.143C201.65 245.093 201.555 245.023 201.48 244.935C193.043 235.122 143.149 237.167 142.649 237.187C142.543 237.192 142.437 237.175 142.337 237.14C142.237 237.103 142.146 237.048 142.068 236.977C141.989 236.905 141.926 236.818 141.881 236.722C141.836 236.627 141.81 236.522 141.805 236.417C141.801 236.31 141.817 236.205 141.853 236.105C141.889 236.005 141.945 235.913 142.016 235.835C142.088 235.757 142.174 235.693 142.27 235.648C142.366 235.603 142.47 235.578 142.576 235.573C144.662 235.48 193.761 233.475 202.698 243.882C202.798 243.998 202.863 244.142 202.885 244.295C202.906 244.447 202.883 244.603 202.818 244.743C202.753 244.883 202.65 245.002 202.52 245.085C202.39 245.168 202.24 245.213 202.085 245.213L202.093 245.217Z" fill="black"/>
<path d="M199.708 247.472C199.568 247.475 199.428 247.44 199.305 247.372C188.688 241.5 143.105 243.187 142.653 243.207C142.547 243.212 142.442 243.195 142.342 243.158C142.243 243.122 142.151 243.065 142.073 242.993C141.995 242.922 141.932 242.835 141.888 242.738C141.843 242.643 141.818 242.538 141.814 242.433C141.81 242.327 141.827 242.22 141.863 242.122C141.9 242.022 141.956 241.93 142.028 241.852C142.1 241.775 142.186 241.712 142.282 241.667C142.379 241.623 142.483 241.598 142.589 241.593C144.485 241.52 189.085 239.87 200.108 245.96C200.265 246.047 200.39 246.183 200.46 246.35C200.53 246.515 200.543 246.7 200.497 246.873C200.452 247.047 200.348 247.2 200.203 247.31C200.06 247.418 199.885 247.475 199.705 247.472H199.708Z" fill="black"/>
<path d="M119.972 161.47C131.743 161.47 141.285 151.927 141.285 140.157C141.285 128.386 131.743 118.844 119.972 118.844C108.201 118.844 98.6592 128.386 98.6592 140.157C98.6592 151.927 108.201 161.47 119.972 161.47Z" fill="white"/>
<path d="M119.989 118.839V120.454C124.433 120.456 128.746 121.96 132.227 124.723C135.708 127.487 138.152 131.346 139.163 135.674C140.173 140.001 139.691 144.544 137.793 148.563C135.896 152.582 132.695 155.841 128.711 157.811C124.727 159.781 120.194 160.346 115.849 159.414C111.503 158.482 107.601 156.107 104.775 152.677C101.949 149.247 100.367 144.961 100.284 140.518C100.202 136.074 101.624 131.733 104.321 128.201C106.15 125.778 108.52 123.816 111.241 122.471C113.963 121.126 116.961 120.435 119.997 120.454L119.989 118.839ZM119.989 118.839C114.934 118.834 110.041 120.624 106.185 123.892C102.328 127.16 99.7578 131.692 98.9331 136.679C98.1084 141.666 99.0828 146.784 101.682 151.119C104.282 155.454 108.337 158.725 113.125 160.347C117.913 161.968 123.121 161.836 127.82 159.973C132.519 158.111 136.404 154.638 138.78 150.177C141.156 145.715 141.869 140.554 140.792 135.615C139.715 130.677 136.919 126.281 132.901 123.213C129.193 120.379 124.656 118.842 119.989 118.839Z" fill="black"/>
<path d="M100.935 131.437C101.338 129.823 105.458 120.575 117.107 119.259C126.908 118.154 137.754 123.331 140.333 135.577C138.018 133.517 135.839 131.311 133.808 128.971C110.691 134.217 100.935 131.437 100.935 131.437Z" fill="black"/>
<path d="M130.145 152.185C130.086 152.193 130.026 152.193 129.967 152.185L123.644 150.761C123.538 150.74 123.437 150.698 123.347 150.638C123.258 150.578 123.181 150.5 123.122 150.41C123.063 150.319 123.022 150.218 123.003 150.112C122.984 150.005 122.986 149.896 123.01 149.791C123.034 149.685 123.079 149.586 123.142 149.498C123.205 149.41 123.285 149.336 123.377 149.279C123.469 149.223 123.572 149.186 123.679 149.17C123.786 149.154 123.895 149.16 123.999 149.187L128.438 150.179C127.671 148.448 127.078 145.414 128.648 140.855C128.679 140.751 128.731 140.654 128.801 140.571C128.87 140.488 128.956 140.42 129.053 140.37C129.149 140.321 129.255 140.291 129.363 140.284C129.471 140.276 129.58 140.29 129.682 140.326C129.785 140.361 129.879 140.417 129.96 140.489C130.041 140.562 130.106 140.65 130.152 140.748C130.197 140.846 130.223 140.953 130.227 141.061C130.23 141.17 130.212 141.278 130.173 141.379C127.881 148.041 130.689 150.781 130.718 150.809C130.835 150.92 130.915 151.063 130.95 151.221C130.985 151.378 130.971 151.542 130.912 151.692C130.852 151.842 130.75 151.97 130.616 152.061C130.483 152.152 130.326 152.2 130.165 152.201L130.145 152.185Z" fill="black"/>
<path d="M137.248 144.017C137.649 142.592 137.46 141.293 136.827 141.115C136.194 140.937 135.355 141.948 134.955 143.372C134.554 144.797 134.742 146.097 135.376 146.275C136.009 146.453 136.847 145.442 137.248 144.017Z" fill="black"/>
<path d="M124.526 139.893C124.927 138.464 124.738 137.161 124.103 136.983C123.468 136.804 122.628 137.818 122.226 139.247C121.825 140.676 122.014 141.979 122.649 142.157C123.284 142.335 124.125 141.322 124.526 139.893Z" fill="black"/>
<path d="M106.332 134.508C107.111 130.97 105.583 127.625 102.919 127.039C100.256 126.452 97.4643 128.845 96.6849 132.384C95.9056 135.922 97.4333 139.267 100.097 139.853C102.761 140.44 105.552 138.047 106.332 134.508Z" fill="white"/>
<path d="M100.894 140.734C100.377 140.735 99.8643 140.648 99.3771 140.475C96.4033 139.422 94.9143 135.42 96.0563 131.55C96.7059 129.351 98.0738 127.588 99.7968 126.708C100.379 126.397 101.019 126.209 101.677 126.155C102.335 126.101 102.997 126.182 103.622 126.393C106.596 127.446 108.085 131.453 106.943 135.319C106.293 137.518 104.925 139.285 103.202 140.161C102.49 140.533 101.698 140.729 100.894 140.734ZM102.105 127.741C101.557 127.748 101.019 127.887 100.535 128.144C99.2198 128.818 98.1141 130.263 97.6098 132.01C96.7059 135.068 97.7429 138.188 99.9178 138.958C100.336 139.098 100.779 139.15 101.219 139.111C101.659 139.071 102.085 138.941 102.472 138.728C103.787 138.054 104.893 136.61 105.401 134.863C106.301 131.804 105.264 128.689 103.089 127.914C102.771 127.807 102.437 127.755 102.101 127.761L102.105 127.741Z" fill="black"/>
<path d="M101.173 136.456C101.008 136.456 100.847 136.405 100.712 136.31C100.578 136.216 100.475 136.082 100.418 135.928C99.4132 133.22 100.963 131.461 101.923 130.912C102.108 130.816 102.322 130.794 102.522 130.852C102.722 130.91 102.892 131.043 102.996 131.224C103.1 131.404 103.131 131.617 103.081 131.819C103.031 132.022 102.906 132.197 102.73 132.308C102.561 132.409 101.169 133.321 101.923 135.367C101.997 135.568 101.989 135.79 101.9 135.984C101.81 136.179 101.648 136.329 101.447 136.404C101.359 136.438 101.266 136.456 101.173 136.456Z" fill="black"/>
<path d="M116.514 121.107L103.489 100.783L75.0345 101.739L39.167 146.237L80.5342 121.41L110.664 122.273L116.514 121.107Z" fill="black"/>
</svg>
