<svg width="500" height="500" viewBox="0 0 500 500" fill="none" xmlns="http://www.w3.org/2000/svg">
<path d="M405.755 263.132H129.976V466.82H405.755V263.132Z" fill="#B4C6E0"/>
<path d="M232.327 294.528H194.325V390.662H232.327V294.528Z" fill="white"/>
<path d="M233.115 391.453H193.533V293.737H233.115V391.453ZM195.117 389.868H231.53V295.322H195.117V389.868Z" fill="black"/>
<path d="M129.976 263.13L264.067 145.69L405.755 263.13H129.976Z" fill="#B4C6E0"/>
<path d="M240.055 230.977H165.45V326.573H240.055V230.977Z" fill="#2760AD"/>
<path d="M238.472 232.56V324.988H167.035V232.56H238.472ZM240.055 230.977H165.45V326.573H240.055V230.977Z" fill="black"/>
<path d="M344.475 162.375C333.717 171.593 308.865 195.442 308.865 195.442L214.536 118.284C214.536 118.284 107.022 150.507 95.3996 153.787C73.9406 159.844 71.9241 176.818 90.8955 193.353C105.113 205.742 158.161 252.997 162.895 254.757L167.501 232.382H239.85L238.835 182.29C238.835 182.29 267.785 206.85 280.066 216.457C305.665 236.51 312.268 241.347 329.781 224.38C334.413 219.892 362.431 193.195 376.69 178.855C369.99 171.288 345.827 163.821 344.475 162.375ZM133.853 183.767L168.246 176.277L167.478 212.432L133.853 183.767Z" fill="#82C6AE"/>
<path d="M161.16 254.538C160.969 254.538 160.785 254.468 160.641 254.343C160.162 253.948 112.593 212.567 90.9947 194.475C80.5682 185.76 75.759 176.565 77.4545 168.635C79.0154 161.341 85.9717 155.597 97.0439 152.46C112.07 148.205 196.317 123.284 197.168 123.03C197.372 122.971 197.588 122.994 197.773 123.095C197.957 123.195 198.095 123.365 198.153 123.567C198.213 123.769 198.19 123.986 198.088 124.17C197.988 124.355 197.818 124.492 197.617 124.551C196.768 124.801 112.513 149.726 97.4757 153.985C86.9977 156.956 80.4415 162.276 79.0075 168.967C77.4229 176.295 82.0577 184.923 92.0129 193.263C113.623 211.362 161.199 252.732 161.679 253.148C161.837 253.285 161.935 253.48 161.95 253.69C161.964 253.9 161.896 254.107 161.758 254.265C161.684 254.35 161.592 254.42 161.489 254.467C161.385 254.513 161.273 254.538 161.16 254.538Z" fill="black"/>
<path d="M170.992 216.22C170.803 216.22 170.62 216.152 170.477 216.03L117.556 170.917C117.396 170.78 117.297 170.585 117.28 170.375C117.263 170.165 117.331 169.958 117.467 169.797C117.604 169.637 117.798 169.538 118.008 169.522C118.218 169.505 118.426 169.572 118.586 169.708L171.523 214.825C171.645 214.93 171.733 215.07 171.775 215.227C171.815 215.383 171.807 215.548 171.752 215.7C171.697 215.852 171.595 215.983 171.463 216.075C171.332 216.168 171.173 216.218 171.012 216.22H170.992Z" fill="black"/>
<path d="M194.325 123.791L209.992 160.929L223.374 123.791H194.325Z" fill="white"/>
<path d="M209.991 161.722C209.836 161.722 209.685 161.676 209.555 161.59C209.425 161.504 209.323 161.382 209.263 161.239L193.592 124.1C193.542 123.979 193.52 123.848 193.533 123.717C193.545 123.587 193.59 123.461 193.661 123.352C193.735 123.243 193.833 123.153 193.948 123.092C194.065 123.03 194.193 122.998 194.325 122.999H223.373C223.501 122.999 223.626 123.029 223.74 123.088C223.851 123.147 223.95 123.232 224.021 123.336C224.095 123.44 224.141 123.56 224.158 123.686C224.176 123.812 224.161 123.941 224.118 124.06L210.741 161.199C210.686 161.349 210.588 161.479 210.46 161.572C210.33 161.666 210.175 161.718 210.016 161.722H209.991ZM195.516 124.583L209.948 158.755L222.23 124.583H195.516Z" fill="black"/>
<path d="M225.312 119.128L234.467 160.929L223.373 183.767L222.415 124.73L225.312 119.128Z" fill="black"/>
<path d="M240.087 233.173H167.815C167.605 233.173 167.403 233.09 167.255 232.942C167.107 232.793 167.023 232.592 167.023 232.382C167.023 232.172 167.107 231.97 167.255 231.822C167.403 231.673 167.605 231.59 167.815 231.59H238.498L238.32 184.27C238.32 184.06 238.403 183.858 238.553 183.71C238.702 183.562 238.903 183.478 239.113 183.478C239.323 183.478 239.525 183.562 239.673 183.71C239.822 183.858 239.905 184.06 239.905 184.27L240.087 233.173Z" fill="black"/>
<path d="M167.055 233.173H167.035C166.828 233.168 166.631 233.083 166.487 232.935C166.342 232.787 166.262 232.588 166.262 232.382L167.45 177.282L134.04 184.56C133.834 184.605 133.619 184.567 133.442 184.453C133.265 184.34 133.14 184.16 133.095 183.955C133.049 183.75 133.088 183.535 133.201 183.358C133.315 183.18 133.493 183.055 133.699 183.01L168.097 175.52C168.213 175.493 168.335 175.495 168.452 175.523C168.568 175.552 168.676 175.605 168.77 175.682C168.861 175.758 168.935 175.855 168.985 175.963C169.033 176.073 169.058 176.192 169.055 176.312L167.867 232.417C167.857 232.625 167.766 232.82 167.615 232.962C167.463 233.103 167.262 233.18 167.055 233.173Z" fill="black"/>
<path d="M236.259 113.901C236.464 110.349 234.464 107.345 231.79 107.19C229.115 107.036 226.782 109.789 226.577 113.341C226.372 116.892 228.372 119.897 231.045 120.051C233.719 120.206 236.054 117.452 236.259 113.901Z" fill="white"/>
<path d="M231.59 108.774C233.274 108.774 234.664 110.818 234.695 113.329C234.729 115.999 233.222 118.356 231.404 118.479H231.262C229.582 118.479 228.192 116.435 228.16 113.927C228.124 111.253 229.634 108.896 231.452 108.777L231.59 108.774ZM231.59 107.189H231.345C228.667 107.363 226.527 110.386 226.59 113.923C226.635 117.362 228.71 120.04 231.277 120.04H231.524C234.205 119.862 236.34 116.839 236.297 113.305C236.254 109.863 234.177 107.185 231.607 107.185L231.59 107.189Z" fill="black"/>
<path d="M231.61 116.233C231.464 116.232 231.32 116.192 231.197 116.115C231.072 116.038 230.972 115.929 230.905 115.798C230.839 115.668 230.81 115.522 230.822 115.376C230.834 115.23 230.887 115.091 230.972 114.973C232.232 113.238 231.155 112.006 231.029 111.867C230.884 111.716 230.805 111.513 230.809 111.303C230.814 111.094 230.9 110.895 231.052 110.75C231.2 110.605 231.399 110.523 231.607 110.523C231.814 110.523 232.012 110.605 232.16 110.75C232.922 111.522 233.92 113.598 232.252 115.9C232.179 116.002 232.084 116.086 231.972 116.144C231.86 116.201 231.735 116.232 231.61 116.233Z" fill="black"/>
<path d="M209.263 132.114C220.82 132.114 230.188 122.746 230.188 111.19C230.188 99.6337 220.82 90.2657 209.263 90.2657C197.706 90.2657 188.338 99.6337 188.338 111.19C188.338 122.746 197.706 132.114 209.263 132.114Z" fill="white"/>
<path d="M209.249 91.8422C213.954 91.8383 218.5 93.5487 222.037 96.6533C225.575 99.7582 227.86 104.045 228.465 108.712C229.072 113.379 227.957 118.107 225.33 122.012C222.705 125.917 218.745 128.732 214.195 129.931C209.644 131.129 204.812 130.629 200.602 128.524C196.394 126.419 193.095 122.853 191.324 118.493C189.552 114.132 189.43 109.276 190.979 104.832C192.529 100.388 195.642 96.6603 199.74 94.3458C202.642 92.7077 205.917 91.8453 209.249 91.8422ZM209.249 90.2575C204.65 90.2607 200.18 91.778 196.53 94.5748C192.88 97.3718 190.254 101.293 189.054 105.732C187.855 110.171 188.152 114.882 189.897 119.136C191.642 123.39 194.74 126.951 198.712 129.269C202.684 131.586 207.307 132.532 211.87 131.959C216.432 131.386 220.679 129.327 223.955 126.099C227.23 122.872 229.352 118.656 229.99 114.102C230.63 109.549 229.754 104.911 227.494 100.906C225.675 97.668 223.025 94.9742 219.819 93.1023C216.61 91.2303 212.962 90.2483 209.249 90.2575Z" fill="black"/>
<path d="M214.536 119.077C214.326 119.077 214.125 118.993 213.977 118.845C213.827 118.696 213.743 118.495 213.743 118.284C213.743 118.074 213.827 117.873 213.977 117.724C214.125 117.576 214.326 117.492 214.536 117.492L220.308 117.456C218.747 115.476 216.255 111.34 215.982 104.903C215.978 104.799 215.995 104.695 216.03 104.597C216.067 104.499 216.122 104.41 216.192 104.333C216.262 104.257 216.347 104.195 216.442 104.151C216.537 104.107 216.638 104.083 216.743 104.079C216.846 104.075 216.95 104.091 217.048 104.127C217.147 104.163 217.235 104.218 217.312 104.288C217.388 104.359 217.45 104.444 217.493 104.538C217.538 104.633 217.562 104.735 217.567 104.839C217.927 113.368 222.558 117.603 222.605 117.643C222.727 117.749 222.812 117.89 222.85 118.046C222.89 118.202 222.88 118.366 222.823 118.516C222.766 118.667 222.665 118.797 222.533 118.888C222.4 118.98 222.243 119.029 222.083 119.029L214.556 119.077H214.536Z" fill="black"/>
<path d="M196.903 94.1357C188.335 94.3693 187.035 104.558 189.218 108.603L197.395 98.4773C215.847 92.0717 229.815 107.097 229.633 106.376C223.373 81.7522 199.018 84.747 196.903 94.1357Z" fill="black"/>
<path d="M209.928 106.394C209.942 104.937 209.428 103.75 208.782 103.744C208.133 103.738 207.597 104.913 207.583 106.371C207.568 107.828 208.082 109.014 208.728 109.02C209.377 109.027 209.913 107.851 209.928 106.394Z" fill="black"/>
<path d="M223.603 106.53C223.618 105.073 223.105 103.887 222.456 103.88C221.81 103.874 221.273 105.05 221.258 106.507C221.245 107.964 221.756 109.15 222.405 109.157C223.053 109.163 223.59 107.987 223.603 106.53Z" fill="black"/>
<path d="M214.46 128.081H214.437C212.745 128.081 211.422 126.271 211.355 123.91C211.355 123.347 211.295 121.846 212.345 121.513C213.093 121.279 213.858 121.854 214.493 122.599C215.142 121.858 215.923 121.287 216.672 121.545C217.717 121.901 217.633 123.411 217.602 123.977C217.475 126.362 216.152 128.081 214.46 128.081ZM212.948 123.264C212.948 123.407 212.948 123.601 212.948 123.85C212.992 125.292 213.668 126.473 214.465 126.481C215.257 126.481 215.942 125.316 216.022 123.874C216.022 123.625 216.022 123.434 216.022 123.288C215.688 123.609 215.388 123.963 215.127 124.346C215.053 124.451 214.955 124.537 214.842 124.597C214.728 124.656 214.602 124.687 214.473 124.686C214.343 124.685 214.215 124.652 214.102 124.59C213.987 124.527 213.89 124.438 213.818 124.33C213.565 123.946 213.273 123.589 212.948 123.264Z" fill="black"/>
<path d="M188.331 118.664C191.008 118.557 193.061 115.589 192.92 112.035C192.778 108.48 190.495 105.685 187.82 105.791C185.143 105.898 183.088 108.866 183.23 112.42C183.371 115.975 185.656 118.77 188.331 118.664Z" fill="white"/>
<path d="M187.966 107.379C189.571 107.379 191.033 109.24 191.295 111.617C191.586 114.271 190.316 116.767 188.521 117.064C188.406 117.081 188.291 117.091 188.176 117.092C186.571 117.092 185.11 115.23 184.848 112.853C184.551 110.199 185.823 107.703 187.621 107.406C187.736 107.387 187.851 107.378 187.966 107.379ZM187.966 105.794C187.766 105.792 187.566 105.805 187.368 105.834C184.718 106.273 182.885 109.49 183.276 113.02C183.636 116.28 185.768 118.669 188.18 118.669C188.381 118.669 188.583 118.652 188.783 118.617C191.433 118.182 193.263 114.965 192.875 111.435C192.515 108.175 190.383 105.786 187.97 105.786L187.966 105.794Z" fill="black"/>
<path d="M188.125 115.342C187.94 115.341 187.76 115.275 187.619 115.155C186.787 114.458 185.59 112.493 187.029 110.049C187.142 109.885 187.312 109.769 187.507 109.726C187.702 109.682 187.905 109.713 188.079 109.813C188.25 109.913 188.379 110.075 188.437 110.265C188.497 110.456 188.48 110.662 188.395 110.841C187.27 112.755 188.58 113.884 188.637 113.931C188.76 114.036 188.85 114.176 188.892 114.333C188.934 114.491 188.927 114.657 188.87 114.809C188.815 114.962 188.714 115.094 188.58 115.187C188.447 115.28 188.289 115.33 188.125 115.33V115.342Z" fill="black"/>
<path d="M124.243 175.575H168.25L133.854 183.767L124.243 175.575Z" fill="black"/>
<path d="M239.114 186.117C238.904 186.117 238.702 186.033 238.554 185.883C238.404 185.735 238.32 185.533 238.32 185.323L238.15 174.367C238.15 174.157 238.234 173.955 238.382 173.807C238.53 173.658 238.732 173.575 238.942 173.575C239.154 173.575 239.354 173.658 239.504 173.807C239.652 173.955 239.735 174.157 239.735 174.367L239.905 185.32C239.905 185.53 239.822 185.732 239.674 185.88C239.525 186.028 239.324 186.112 239.114 186.112V186.117Z" fill="black"/>
<path d="M311.524 235.512C310.262 235.505 309.004 235.358 307.772 235.072C300.409 233.403 292.117 226.912 279.572 217.078C267.442 207.572 238.899 184.198 238.61 183.965C238.529 183.898 238.462 183.818 238.414 183.727C238.364 183.633 238.333 183.533 238.323 183.43C238.313 183.325 238.324 183.222 238.354 183.122C238.384 183.022 238.434 182.928 238.499 182.848C238.565 182.767 238.647 182.7 238.739 182.652C238.83 182.602 238.93 182.572 239.035 182.562C239.138 182.552 239.244 182.562 239.344 182.592C239.442 182.622 239.535 182.672 239.617 182.737C239.902 182.975 268.432 206.343 280.545 215.832C292.482 225.183 301.105 231.938 308.125 233.527C314.662 235.005 320.382 232.37 329.223 223.793C330.48 222.577 333.91 219.34 338.655 214.865C351.234 202.98 372.142 183.268 382.73 172.663C377.608 168 361.885 165.893 352.358 164.618C347.645 163.984 345.569 163.679 344.59 163.322C333.76 172.658 309.662 195.778 309.417 196.012C309.277 196.147 309.094 196.225 308.9 196.233C308.707 196.24 308.517 196.178 308.367 196.055L223.842 126.885C223.679 126.752 223.575 126.56 223.553 126.351C223.533 126.142 223.595 125.933 223.729 125.77C223.862 125.607 224.053 125.503 224.263 125.482C224.472 125.461 224.682 125.524 224.844 125.657L308.827 194.383C312.423 190.937 334.155 170.172 343.96 161.773C344.105 161.646 344.29 161.576 344.483 161.576C344.675 161.576 344.862 161.646 345.007 161.773C345.617 162.098 349.15 162.566 352.568 163.029C363.323 164.471 379.573 166.65 384.442 172.14C384.577 172.292 384.647 172.488 384.642 172.69C384.635 172.892 384.553 173.083 384.41 173.225C373.995 183.7 352.553 203.93 339.742 216.008C334.988 220.482 331.573 223.713 330.328 224.922C322.695 232.335 317.205 235.507 311.524 235.512Z" fill="black"/>
<path d="M302.077 202.445C301.917 202.445 301.76 202.398 301.629 202.308C301.497 202.218 301.395 202.09 301.337 201.942C301.279 201.793 301.267 201.632 301.302 201.475C301.339 201.32 301.42 201.178 301.537 201.07L311.017 192.288C311.172 192.145 311.377 192.07 311.587 192.078C311.797 192.087 311.995 192.177 312.139 192.332C312.282 192.487 312.357 192.692 312.349 192.902C312.34 193.112 312.249 193.31 312.095 193.453L302.615 202.232C302.469 202.368 302.277 202.445 302.077 202.445Z" fill="black"/>
<path d="M357.184 191.342C357.025 191.342 356.872 191.295 356.74 191.207C356.608 191.118 356.507 190.992 356.448 190.847C356.388 190.7 356.375 190.538 356.408 190.383C356.44 190.23 356.518 190.088 356.633 189.978L373.18 173.97C373.33 173.823 373.533 173.743 373.743 173.747C373.953 173.748 374.155 173.835 374.3 173.987C374.447 174.137 374.528 174.34 374.525 174.55C374.522 174.76 374.435 174.96 374.285 175.107L357.733 191.132C357.585 191.27 357.387 191.345 357.184 191.342Z" fill="#152D53"/>
<path d="M354.715 187.3C355.833 187.3 356.74 186.395 356.74 185.277C356.74 184.158 355.833 183.252 354.715 183.252C353.596 183.252 352.691 184.158 352.691 185.277C352.691 186.395 353.596 187.3 354.715 187.3Z" fill="#152D53"/>
<path d="M360.725 181.292C361.844 181.292 362.75 180.385 362.75 179.267C362.75 178.148 361.844 177.243 360.725 177.243C359.607 177.243 358.7 178.148 358.7 179.267C358.7 180.385 359.607 181.292 360.725 181.292Z" fill="#152D53"/>
<path d="M157.083 234.183C156.896 234.183 156.715 234.115 156.572 233.993L139.039 219.04C138.909 218.897 138.837 218.71 138.835 218.517C138.833 218.323 138.902 218.137 139.029 217.99C139.155 217.843 139.331 217.748 139.522 217.723C139.714 217.698 139.908 217.743 140.069 217.852L157.594 232.802C157.717 232.907 157.805 233.047 157.846 233.203C157.887 233.36 157.879 233.527 157.823 233.678C157.767 233.83 157.665 233.962 157.532 234.053C157.399 234.147 157.241 234.197 157.079 234.197L157.083 234.183Z" fill="#152D53"/>
<path d="M137.431 225.882C138.549 225.882 139.455 224.975 139.455 223.857C139.455 222.738 138.549 221.833 137.431 221.833C136.313 221.833 135.406 222.738 135.406 223.857C135.406 224.975 136.313 225.882 137.431 225.882Z" fill="#152D53"/>
<path d="M143.805 231.498C144.923 231.498 145.829 230.592 145.829 229.473C145.829 228.357 144.923 227.45 143.805 227.45C142.687 227.45 141.78 228.357 141.78 229.473C141.78 230.592 142.687 231.498 143.805 231.498Z" fill="#152D53"/>
<path d="M367.656 135.374C367.656 135.374 368.766 138.48 368.691 138.103C368.295 136.166 370.03 134.439 372.221 134.439C374.233 134.439 375.501 136.273 376.135 138.23C376.135 138.23 376.696 139.363 376.693 139.304C376.443 137.141 378.241 135.659 380.433 135.659C382.453 135.659 384.441 138.896 385 140.77L391.24 157.574C399.261 150.978 395.711 144.153 394.301 141.728L394.071 141.332C393.73 140.755 393.591 140.08 393.676 139.415C393.893 137.763 395.38 136.578 397.178 136.602C397.793 136.614 398.398 136.769 398.943 137.055C399.488 137.341 399.96 137.75 400.32 138.25C409.078 150.309 402.57 159.135 400.32 161.852C378.813 187.835 343.963 163.001 343.963 163.001C348.896 158.739 363.93 154.433 363.93 154.433L360.316 137.232C360.25 136.961 360.215 136.683 360.213 136.404C360.245 135.402 360.671 134.454 361.401 133.766C362.13 133.079 363.101 132.708 364.103 132.736C364.895 132.76 365.66 133.026 366.295 133.498C366.93 133.969 367.405 134.624 367.656 135.374Z" fill="white"/>
<path d="M374.682 174.917C370.833 174.893 367.007 174.353 363.303 173.308C356.182 171.275 349.477 167.997 343.497 163.627C343.408 163.558 343.335 163.47 343.283 163.37C343.23 163.27 343.2 163.161 343.193 163.048C343.188 162.936 343.205 162.823 343.247 162.718C343.287 162.613 343.348 162.518 343.43 162.439C348.385 157.582 363.13 153.826 363.755 153.668C363.857 153.642 363.962 153.636 364.065 153.651C364.168 153.665 364.267 153.7 364.357 153.753C364.447 153.806 364.525 153.876 364.588 153.959C364.65 154.043 364.697 154.137 364.722 154.238C364.748 154.339 364.753 154.444 364.74 154.548C364.725 154.651 364.69 154.75 364.637 154.84C364.583 154.93 364.513 155.008 364.43 155.071C364.347 155.133 364.253 155.179 364.152 155.205C364.008 155.241 350.532 158.671 345.252 162.946C347.562 164.574 354.758 169.323 363.795 171.795C378.342 175.78 390.448 172.267 399.78 161.341C402.87 157.705 406.832 148.3 399.702 138.714C399.415 138.31 399.037 137.98 398.6 137.749C398.162 137.518 397.677 137.392 397.182 137.383H397.147C395.76 137.383 394.643 138.27 394.48 139.506C394.413 139.997 394.512 140.496 394.762 140.924C394.77 140.936 394.777 140.949 394.782 140.964L394.9 141.174L394.995 141.344C399.8 149.556 395.87 155.043 391.723 158.196C391.642 158.264 391.545 158.316 391.443 158.346C391.34 158.377 391.233 158.386 391.127 158.374C391.02 158.362 390.918 158.329 390.825 158.276C390.732 158.223 390.65 158.152 390.585 158.067C390.52 157.982 390.473 157.884 390.448 157.781C390.422 157.677 390.417 157.569 390.433 157.463C390.45 157.358 390.488 157.256 390.545 157.166C390.602 157.075 390.677 156.997 390.765 156.936C396.053 152.911 397.015 147.928 393.625 142.132L393.518 141.946L393.392 141.712V141.689C392.98 140.969 392.815 140.134 392.923 139.312C393.193 137.276 394.972 135.81 397.158 135.81H397.218C397.957 135.822 398.683 136.007 399.337 136.351C399.992 136.695 400.557 137.188 400.985 137.791C408.73 148.177 404.363 158.422 400.985 162.387C392.733 171.99 383.213 174.917 374.682 174.917Z" fill="black"/>
<path d="M239.271 225.12H163.453V226.705H239.271V225.12Z" fill="black"/>
<path d="M382.375 159.432C382.205 159.432 382.04 159.378 381.904 159.277C381.769 159.177 381.667 159.035 381.619 158.874C381.289 157.808 380.92 156.604 380.537 155.328L375.387 138.46C375.074 137.498 374.135 135.232 372.217 135.232C371.78 135.224 371.345 135.312 370.947 135.49C370.547 135.668 370.19 135.931 369.904 136.262C369.707 136.49 369.565 136.761 369.489 137.053C369.414 137.344 369.405 137.65 369.464 137.945C369.564 138.397 372.237 147.94 374.349 155.122L374.84 156.77C374.875 156.871 374.889 156.978 374.882 157.085C374.874 157.192 374.845 157.296 374.797 157.391C374.747 157.486 374.68 157.571 374.597 157.639C374.515 157.707 374.42 157.758 374.317 157.789C374.215 157.819 374.107 157.829 374 157.817C373.894 157.804 373.792 157.771 373.699 157.718C373.605 157.665 373.525 157.594 373.46 157.508C373.395 157.423 373.349 157.326 373.322 157.222L372.82 155.542L366.905 135.624C366.537 134.653 365.59 133.528 364.109 133.528C362.397 133.528 361.007 134.82 361.007 136.404C361.007 136.621 361.035 136.836 361.09 137.046L365.527 156.219C365.574 156.424 365.537 156.639 365.427 156.818C365.372 156.906 365.299 156.983 365.214 157.043C365.13 157.103 365.034 157.147 364.932 157.17C364.727 157.217 364.512 157.181 364.334 157.07C364.155 156.959 364.029 156.781 363.982 156.576L359.549 137.411C359.465 137.082 359.424 136.744 359.422 136.404C359.422 133.944 361.525 131.944 364.109 131.944C365.064 131.964 365.989 132.28 366.757 132.847C367.525 133.415 368.099 134.206 368.399 135.113C368.4 135.129 368.4 135.144 368.399 135.16L368.497 135.489C368.554 135.418 368.609 135.343 368.669 135.271C369.104 134.759 369.645 134.35 370.257 134.071C370.869 133.793 371.534 133.652 372.205 133.659C373.984 133.659 375.485 134.82 376.44 136.884C376.559 136.704 376.692 136.533 376.837 136.372C377.297 135.886 377.855 135.502 378.475 135.245C379.094 134.988 379.759 134.863 380.429 134.879C382.739 134.879 384.39 136.127 385.069 138.389L391.98 157.313C392.017 157.41 392.032 157.514 392.029 157.618C392.024 157.722 391.999 157.825 391.955 157.919C391.91 158.013 391.849 158.098 391.772 158.168C391.695 158.239 391.605 158.293 391.507 158.329C391.41 158.365 391.305 158.38 391.202 158.376C391.099 158.371 390.995 158.347 390.902 158.303C390.807 158.259 390.722 158.196 390.652 158.12C390.582 158.043 390.527 157.953 390.492 157.855L383.57 138.912V138.864C383.095 137.28 382.042 136.464 380.442 136.464C379.995 136.447 379.549 136.525 379.135 136.691C378.72 136.858 378.344 137.11 378.032 137.43C377.817 137.672 377.655 137.959 377.562 138.269C377.467 138.58 377.442 138.907 377.485 139.229C377.597 139.763 379.902 147.734 382.002 154.678L383.144 158.414C383.175 158.519 383.185 158.63 383.172 158.739C383.159 158.848 383.124 158.953 383.067 159.048C383.012 159.142 382.937 159.225 382.847 159.289C382.759 159.353 382.657 159.398 382.549 159.42C382.492 159.431 382.434 159.434 382.375 159.432Z" fill="black"/>
<path d="M192.824 238.297C192.824 238.297 189.857 238.15 190.202 238.118C191.972 237.952 193.01 236.01 192.44 234.122C191.917 232.39 190.012 231.772 188.157 231.745C188.157 231.745 187.032 231.553 187.087 231.542C189.017 231.193 189.825 229.26 189.259 227.375C188.732 225.632 185.427 224.76 183.669 224.768L167.562 223.75C171.162 215.127 177.964 216.41 180.405 217.015L180.8 217.11C181.387 217.25 182.004 217.19 182.552 216.94C183.222 216.613 183.747 216.05 184.027 215.36C184.307 214.668 184.322 213.898 184.069 213.197C183.899 212.668 183.609 212.187 183.22 211.792C182.832 211.395 182.355 211.095 181.83 210.915C169.154 206.507 163.608 215.498 161.849 218.148C152.976 231.618 153.756 241.865 156.181 248.255C157.156 250.852 159.07 252.988 161.543 254.243C164.017 255.5 166.87 255.783 169.542 255.038C178.079 252.617 177.354 246.462 177.354 246.462L193.109 245.102C193.36 245.092 193.609 245.048 193.85 244.975C194.705 244.688 195.412 244.075 195.815 243.267C196.219 242.46 196.285 241.525 196 240.67C195.775 239.998 195.35 239.412 194.782 238.988C194.215 238.563 193.532 238.323 192.824 238.297Z" fill="white"/>
<path d="M167.562 256.368C165.657 256.363 163.777 255.938 162.055 255.125C160.378 254.34 158.882 253.215 157.664 251.822C156.446 250.427 155.532 248.795 154.98 247.027C153.173 241.243 152.603 231.705 160.225 219.127C163.128 214.33 171.435 206.277 182.12 210.147C182.758 210.365 183.337 210.73 183.808 211.212C184.282 211.692 184.635 212.277 184.842 212.92C185.452 214.86 184.635 216.837 182.897 217.622C182.2 217.938 181.42 218.018 180.673 217.848H180.633L180.238 217.76C174.392 216.35 170.382 218.458 168.307 224.015C168.233 224.213 168.083 224.372 167.892 224.46C167.702 224.547 167.483 224.555 167.287 224.482C167.088 224.407 166.93 224.258 166.842 224.067C166.755 223.877 166.747 223.658 166.82 223.462C168.473 219.04 172.205 214.192 180.59 216.215L180.927 216.295H180.963H181.003C181.418 216.393 181.857 216.352 182.247 216.175C182.737 215.928 183.118 215.508 183.318 214.997C183.518 214.485 183.523 213.918 183.332 213.403C183.195 212.992 182.965 212.617 182.66 212.308C182.355 212.002 181.983 211.768 181.573 211.628C169.435 207.232 161.659 219.812 161.58 219.947C154.283 232.022 154.786 241.082 156.493 246.557C156.98 248.112 157.785 249.55 158.858 250.777C159.931 252.005 161.248 252.995 162.724 253.687C164.147 254.365 165.696 254.737 167.272 254.775C168.847 254.813 170.413 254.52 171.867 253.912C177.413 251.603 176.593 246.643 176.585 246.592C176.56 246.487 176.557 246.378 176.575 246.272C176.593 246.165 176.633 246.065 176.693 245.973C176.752 245.883 176.828 245.807 176.918 245.747C177.008 245.687 177.108 245.647 177.215 245.627C177.322 245.608 177.43 245.612 177.535 245.635C177.64 245.66 177.738 245.705 177.827 245.77C177.913 245.833 177.985 245.913 178.04 246.007C178.095 246.1 178.13 246.203 178.142 246.31C178.142 246.37 179.203 252.582 172.478 255.375C170.92 256.028 169.25 256.365 167.562 256.368Z" fill="black"/>
<path d="M175.485 247.052C175.38 247.055 175.277 247.038 175.178 247.002C175.082 246.965 174.992 246.908 174.917 246.838C174.84 246.767 174.78 246.682 174.737 246.587C174.693 246.492 174.67 246.388 174.667 246.285C174.663 246.18 174.68 246.077 174.717 245.98C174.753 245.882 174.808 245.793 174.88 245.717C174.952 245.642 175.037 245.58 175.132 245.537C175.227 245.493 175.328 245.47 175.433 245.467L193.093 244.307C193.283 244.3 193.473 244.27 193.655 244.215C193.972 244.117 194.265 243.955 194.515 243.74C194.767 243.525 194.972 243.26 195.117 242.963C195.433 242.32 195.49 241.58 195.275 240.895C195.098 240.38 194.768 239.932 194.328 239.608C193.89 239.285 193.363 239.102 192.82 239.085L174.133 239.16H172.548C172.338 239.16 172.137 239.077 171.988 238.928C171.84 238.78 171.757 238.578 171.757 238.368C171.757 238.158 171.84 237.957 171.988 237.808C172.137 237.658 172.338 237.575 172.548 237.575H174.133C180.868 237.537 189.662 237.358 190.153 237.322C190.412 237.295 190.66 237.208 190.88 237.072C191.1 236.935 191.287 236.75 191.425 236.53C191.628 236.207 191.76 235.842 191.807 235.463C191.855 235.083 191.82 234.698 191.702 234.335C191.223 232.75 189.068 232.528 188.162 232.513L172.315 232.45C171.127 232.45 169.978 232.45 168.968 232.45C168.758 232.45 168.557 232.367 168.407 232.218C168.258 232.068 168.175 231.867 168.175 231.657C168.175 231.447 168.258 231.245 168.407 231.097C168.557 230.948 168.758 230.865 168.968 230.865H172.485H172.568C179.007 230.865 186.335 230.782 186.98 230.73C187.253 230.685 187.513 230.582 187.743 230.428C187.973 230.273 188.167 230.072 188.312 229.835C188.502 229.493 188.618 229.117 188.652 228.727C188.685 228.338 188.637 227.947 188.51 227.577C188.113 226.218 187.187 225.56 185.717 225.56H185.657L167.538 224.523C167.433 224.517 167.332 224.49 167.238 224.445C167.143 224.4 167.06 224.337 166.99 224.258C166.922 224.18 166.868 224.09 166.833 223.992C166.8 223.893 166.785 223.788 166.792 223.685C166.797 223.582 166.823 223.478 166.868 223.385C166.913 223.292 166.977 223.207 167.055 223.138C167.133 223.068 167.223 223.015 167.322 222.982C167.42 222.947 167.525 222.932 167.628 222.938L185.725 223.972C187.888 223.972 189.417 225.09 190.027 227.113C190.22 227.697 190.287 228.315 190.223 228.925C190.16 229.537 189.97 230.127 189.662 230.658C189.585 230.787 189.498 230.91 189.405 231.027C191.385 231.345 192.752 232.347 193.212 233.872C193.397 234.46 193.448 235.082 193.365 235.692C193.283 236.303 193.067 236.888 192.732 237.405L192.677 237.48H192.883C193.757 237.507 194.602 237.803 195.3 238.328C195.998 238.855 196.518 239.583 196.785 240.417C197.115 241.487 197.023 242.643 196.527 243.648C196.285 244.138 195.947 244.575 195.53 244.928C195.113 245.283 194.63 245.548 194.107 245.708C193.805 245.797 193.493 245.85 193.18 245.867L175.528 247.023L175.485 247.052Z" fill="black"/>
<path d="M234.053 225.912H230.592V239.797H234.053V225.912Z" fill="#152D53"/>
<path d="M234.053 240.59H230.591C230.381 240.59 230.18 240.507 230.031 240.358C229.883 240.21 229.8 240.008 229.8 239.798V225.933C229.8 225.722 229.883 225.522 230.031 225.372C230.18 225.223 230.381 225.14 230.591 225.14H234.053C234.265 225.14 234.465 225.223 234.615 225.372C234.763 225.522 234.846 225.722 234.846 225.933V239.798C234.846 240.008 234.763 240.21 234.615 240.358C234.465 240.507 234.265 240.59 234.053 240.59ZM231.383 239.005H233.261V226.725H231.383V239.005Z" fill="black"/>
<path d="M224.345 225.912H220.882V239.797H224.345V225.912Z" fill="#152D53"/>
<path d="M224.345 240.59H220.882C220.672 240.59 220.47 240.507 220.322 240.358C220.173 240.21 220.09 240.008 220.09 239.798V225.933C220.09 225.722 220.173 225.522 220.322 225.372C220.47 225.223 220.672 225.14 220.882 225.14H224.345C224.555 225.14 224.757 225.223 224.905 225.372C225.053 225.522 225.136 225.722 225.136 225.933V239.798C225.136 240.008 225.053 240.21 224.905 240.358C224.757 240.507 224.555 240.59 224.345 240.59ZM221.675 239.005H223.552V226.725H221.675V239.005Z" fill="black"/>
<path d="M405.755 466.82H129.976V263.132L267.865 388.182L405.755 263.132V466.82Z" fill="white"/>
<path d="M404.17 266.708V465.235H131.56V266.708L266.8 389.353C267.092 389.618 267.472 389.767 267.865 389.767C268.259 389.767 268.639 389.618 268.93 389.353L404.17 266.708ZM405.755 263.143L267.865 388.182L129.976 263.132V466.82H405.755V263.132V263.143Z" fill="#152D53"/>
<path d="M129.975 467.612C129.813 467.612 129.655 467.562 129.522 467.47C129.389 467.377 129.288 467.245 129.232 467.093C129.176 466.942 129.167 466.777 129.208 466.62C129.249 466.463 129.337 466.322 129.46 466.217L244.341 367.902C244.416 367.818 244.508 367.752 244.611 367.707C244.715 367.662 244.826 367.64 244.938 367.64C245.05 367.642 245.161 367.667 245.263 367.713C245.365 367.762 245.455 367.83 245.528 367.913C245.601 367.998 245.656 368.098 245.69 368.207C245.721 368.313 245.73 368.427 245.715 368.538C245.7 368.648 245.661 368.755 245.603 368.852C245.543 368.947 245.465 369.028 245.371 369.09L130.49 467.405C130.349 467.533 130.166 467.607 129.975 467.612Z" fill="#152D53"/>
<path d="M405.755 467.612C405.565 467.612 405.383 467.545 405.24 467.422L290.366 369.107C290.273 369.045 290.193 368.963 290.135 368.867C290.075 368.772 290.036 368.665 290.021 368.553C290.006 368.443 290.016 368.33 290.048 368.222C290.08 368.115 290.135 368.015 290.208 367.93C290.281 367.845 290.373 367.777 290.475 367.73C290.576 367.683 290.686 367.658 290.8 367.657C290.911 367.655 291.023 367.678 291.126 367.723C291.228 367.768 291.32 367.835 291.396 367.918L406.278 466.233C406.4 466.338 406.488 466.48 406.53 466.637C406.57 466.793 406.562 466.958 406.505 467.11C406.45 467.262 406.348 467.393 406.215 467.485C406.083 467.578 405.925 467.628 405.763 467.628L405.755 467.612Z" fill="#152D53"/>
<path d="M105.742 103.186C105.779 103.288 105.814 103.387 105.849 103.482C105.273 103.003 104.541 102.389 103.682 101.658C101.453 99.7596 98.374 97.0751 94.9717 93.9299C88.1841 87.6551 80.1394 79.5716 74.9915 72.2502L75.033 72.1969C71.8261 68.372 70 63.99 70 59.3463C70 52.107 74.4156 45.4909 81.6823 40.6618C88.9454 35.835 99.0082 32.8333 110.148 32.8333C121.29 32.8333 131.357 35.837 138.624 40.6652C145.894 45.496 150.312 52.113 150.312 59.3503C150.312 66.5878 145.897 73.2028 138.63 78.0315C131.366 82.8577 121.302 85.8594 110.16 85.8594C107.652 85.8592 105.145 85.7017 102.656 85.3879L102.136 85.3223L102.095 85.8455C101.824 89.3574 102.945 94.2293 104.105 98.1681C104.689 100.149 105.288 101.915 105.742 103.186Z" fill="white" stroke="black"/>
<path d="M302.077 316.633C321.559 316.633 337.352 306.137 337.352 293.19C337.352 289.038 335.72 285.14 332.872 281.762L332.975 281.808C323.99 268.985 304.822 253.523 304.822 253.523C304.822 253.523 309.092 264.22 308.632 270.162C306.455 269.895 304.262 269.762 302.069 269.767C282.582 269.767 266.787 280.26 266.787 293.205C266.787 306.152 282.59 316.633 302.077 316.633Z" fill="white"/>
<path d="M302.076 317.427C282.185 317.427 266.003 306.552 266.003 293.19C266.003 279.828 282.185 268.958 302.076 268.958C304.013 268.96 305.95 269.065 307.875 269.275C307.903 263.472 304.123 253.917 304.085 253.825C304.02 253.663 304.01 253.483 304.058 253.315C304.106 253.147 304.208 252.998 304.35 252.895C304.49 252.79 304.661 252.737 304.836 252.74C305.011 252.743 305.18 252.805 305.316 252.913C305.51 253.068 324.68 268.593 333.625 281.365C333.666 281.423 333.7 281.487 333.723 281.555C336.615 285.12 338.145 289.125 338.145 293.198C338.145 306.552 321.961 317.427 302.076 317.427ZM302.076 270.542C283.061 270.542 267.588 280.703 267.588 293.19C267.588 305.677 283.061 315.842 302.076 315.842C321.09 315.842 336.56 305.68 336.56 293.19C336.56 289.383 335.075 285.603 332.266 282.268C332.186 282.175 332.128 282.063 332.1 281.943C325.036 272.04 311.845 260.46 306.576 256.012C307.823 259.625 309.721 265.94 309.428 270.138C309.431 270.225 309.42 270.31 309.393 270.392C309.338 270.57 309.223 270.722 309.066 270.823C308.911 270.925 308.725 270.968 308.541 270.947C306.396 270.678 304.236 270.543 302.076 270.542Z" fill="black"/>
<circle cx="291" cy="294" r="2" fill="#2760AD"/>
<circle cx="303" cy="294" r="2" fill="#2760AD"/>
<circle cx="315" cy="294" r="2" fill="#2760AD"/>
<circle cx="98" cy="61" r="2" fill="#2760AD"/>
<circle cx="110" cy="61" r="2" fill="#2760AD"/>
<circle cx="122" cy="61" r="2" fill="#2760AD"/>
</svg>
