<svg width="500" height="500" viewBox="0 0 500 500" fill="none" xmlns="http://www.w3.org/2000/svg">
<path d="M374.456 126.389C375.061 126.394 375.663 126.481 376.246 126.648C377.023 126.839 377.749 127.195 378.378 127.689C379.006 128.184 379.523 128.807 379.891 129.516C381.528 132.582 380.934 137.219 379.836 140.533C379.068 142.859 378.929 143.278 379.428 143.97C379.566 144.16 379.746 144.314 379.954 144.421C380.163 144.527 380.393 144.583 380.628 144.583C381.451 144.583 381.804 144.083 382.449 143.176C382.679 142.851 382.961 142.447 383.303 141.998L391.504 130.873L391.541 130.822C391.803 130.405 392.161 130.058 392.584 129.809C393.008 129.56 393.486 129.417 393.976 129.393C394.354 129.387 394.724 129.497 395.038 129.706C395.151 129.782 395.253 129.871 395.344 129.972C395.564 130.212 395.721 130.503 395.803 130.818C395.909 131.253 395.923 131.706 395.839 132.146C395.756 132.586 395.579 133.003 395.323 133.37L388.924 142.439L384.386 148.892C384.163 149.201 384.071 149.585 384.128 149.962C384.186 150.339 384.389 150.678 384.693 150.907C384.998 151.137 385.379 151.238 385.758 151.188C386.136 151.139 386.479 150.944 386.714 150.645L397.994 136.614C398.009 136.599 398.023 136.582 398.034 136.563C398.103 136.468 398.179 136.377 398.256 136.29C398.776 135.661 399.498 135.231 400.298 135.072C400.431 135.05 400.568 135.039 400.703 135.039C400.876 135.038 401.049 135.06 401.216 135.105C401.411 135.155 401.594 135.242 401.756 135.36C402.001 135.568 402.196 135.829 402.321 136.125C402.448 136.421 402.504 136.742 402.484 137.062C402.484 137.285 402.461 137.508 402.416 137.726C402.414 137.739 402.414 137.753 402.416 137.766C402.293 138.292 402.066 138.787 401.749 139.224L394.334 148.338L389.373 154.429C389.198 154.643 389.088 154.902 389.054 155.176C389.021 155.45 389.066 155.727 389.184 155.977C389.303 156.226 389.489 156.437 389.723 156.584C389.956 156.731 390.226 156.81 390.503 156.809C391.163 156.809 391.163 156.809 392.861 154.877L395.639 151.713L399.681 147.113L399.704 147.091C401.851 144.539 403.043 144.175 403.561 144.175C403.861 144.181 404.151 144.296 404.373 144.499C404.888 144.904 405.069 145.261 404.738 146.194C404.319 147.324 403.279 148.779 402.044 150.467L401.541 151.079C397.746 156.354 387.276 167.348 373.074 179.298C367.643 172.995 359.976 164.239 352.146 156.128L353.094 155.362C355.434 153.47 357.851 151.516 358.453 149.508C358.894 148.02 359.338 146.351 359.813 144.583C360.559 141.78 361.336 138.881 362.199 136.308C364.348 129.921 365.806 129.597 366.074 129.597C366.186 129.6 366.296 129.628 366.396 129.677C368.241 130.504 368.039 132.254 366.836 136.118C366.138 138.367 365.536 140.31 366.443 141.783C366.676 142.148 366.988 142.456 367.354 142.686C367.721 142.915 368.134 143.06 368.564 143.11C368.806 143.15 369.049 143.171 369.294 143.172C373.016 143.172 376.399 138.495 376.556 134.667C376.673 131.809 374.999 129.892 372.181 129.662C371.309 129.589 370.876 129.298 370.898 128.751C370.959 127.748 372.209 126.389 374.456 126.389ZM374.456 124.931C369.249 124.931 367.529 130.738 372.083 131.128C378.199 131.627 373.906 141.725 369.301 141.725C369.134 141.725 368.966 141.71 368.801 141.681C364.263 140.952 373.074 131.084 366.979 128.357C366.693 128.223 366.381 128.152 366.064 128.149C363.958 128.149 362.263 131.525 360.808 135.856C359.374 140.117 358.171 145.305 357.041 149.099C356.386 151.309 351.989 154.203 350.018 156.048C357.848 164.086 365.644 172.912 372.899 181.35C386.751 169.802 398.326 158.042 402.714 151.943C405.511 148.057 407.738 145.301 405.241 143.336C404.761 142.931 404.156 142.705 403.528 142.698C402.109 142.698 400.488 143.854 398.551 146.15L390.496 155.337L395.443 149.256L402.889 140.103C403.338 139.498 403.656 138.806 403.823 138.072C403.894 137.743 403.931 137.407 403.933 137.07C403.958 136.518 403.849 135.968 403.618 135.466C403.386 134.964 403.038 134.525 402.601 134.186C402.296 133.962 401.951 133.797 401.584 133.698C401.298 133.62 401.001 133.58 400.703 133.581C400.494 133.58 400.284 133.597 400.079 133.632C398.939 133.843 397.908 134.445 397.163 135.335C397.061 135.451 396.963 135.575 396.871 135.699L385.571 149.726L390.124 143.274L396.528 134.19C396.906 133.65 397.164 133.036 397.283 132.388C397.401 131.74 397.379 131.074 397.218 130.435C397.071 129.892 396.798 129.392 396.419 128.977C396.253 128.796 396.066 128.636 395.861 128.499C395.306 128.126 394.653 127.929 393.984 127.934C393.254 127.959 392.541 128.16 391.906 128.521C391.271 128.883 390.733 129.393 390.339 130.009L382.136 141.131C381.273 142.279 380.754 143.125 380.638 143.125C380.521 143.125 380.726 142.523 381.233 140.992C383.078 135.426 383.391 127.118 376.628 125.24C375.916 125.039 375.181 124.935 374.441 124.931H374.456Z" fill="black"/>
<path d="M374.4 180.048L352.459 154.207C352.459 154.207 299.112 198.947 297.107 200.577L231.1 169.827C227.072 167.95 222.69 166.95 218.247 166.893C204.074 166.7 173.044 166.583 173.044 166.583C163.453 197.937 165.658 271.377 165.658 271.377L240.272 255.625C240.272 255.625 235.669 234.077 230.98 211.65L270.565 228.42C291.679 237.168 306.432 235.805 322.694 223.72L374.4 180.048Z" fill="#7AB9A3"/>
<path d="M352.287 156.255L372.337 179.882L321.782 222.575C312.585 229.403 303.997 232.587 294.755 232.587C287.83 232.587 280.087 230.763 271.134 227.078L231.555 210.323C231.377 210.245 231.184 210.207 230.987 210.207C230.77 210.207 230.555 210.253 230.36 210.345C230.164 210.438 229.99 210.572 229.852 210.74C229.715 210.908 229.617 211.103 229.564 211.315C229.512 211.525 229.507 211.745 229.55 211.957C233.502 230.85 237.435 249.325 238.54 254.51L167.09 269.593C166.844 258.417 165.888 196.62 174.137 168.037C179.777 168.058 205.739 168.175 218.247 168.343C222.487 168.393 226.667 169.347 230.51 171.14L296.514 201.892C296.76 202.007 297.037 202.05 297.307 202.017C297.579 201.983 297.835 201.875 298.047 201.702C299.877 200.2 344.417 162.853 352.287 156.255ZM352.459 154.207C352.459 154.207 299.112 198.947 297.107 200.577L231.1 169.827C227.072 167.95 222.69 166.95 218.247 166.893C204.074 166.7 173.044 166.583 173.044 166.583C163.453 197.937 165.658 271.377 165.658 271.377L240.272 255.625C240.272 255.625 235.669 234.077 230.98 211.65L270.565 228.42C279.584 232.152 287.444 234.045 294.755 234.045C304.559 234.045 313.377 230.643 322.687 223.72L374.4 180.048L352.459 154.207Z" fill="black"/>
<path d="M214.729 205.438C214.729 205.833 214.754 206.015 214.812 206.015C214.87 206.015 214.934 205.862 215.027 205.57L214.729 205.438Z" fill="black"/>
<path d="M168.83 268.825C171.437 259.475 240.435 255.57 250.423 253.743C286.003 247.24 334.797 246.978 391.927 276.298L432.825 266.132L394.312 322.412C394.312 322.412 387.078 314.52 370.433 307.707C339.688 295.118 282.442 286.3 247.665 304.443C268.247 331.577 279.857 372.878 291.682 422.967L327.407 445.33L261.28 456.518C261.28 456.518 242.193 371.88 194.132 325.788C169.095 301.778 166.507 277.152 168.83 268.825Z" fill="#2760AD"/>
<path d="M432.825 266.127L394.312 322.412C394.312 322.412 381.632 314.028 370.434 307.707L392.197 276.232L432.825 266.127Z" fill="black"/>
<path d="M429.457 268.46L393.914 320.4C390.655 318.275 381.287 312.238 372.537 307.215L393.084 277.505L429.457 268.46ZM432.825 266.12L392.197 276.222L370.445 307.703C381.644 314.038 394.322 322.408 394.322 322.408L432.825 266.127V266.12Z" fill="black"/>
<path d="M291.683 422.962L327.406 445.327L261.28 456.515C261.28 456.515 257.153 442.575 253.088 429.717C253.081 429.717 291.613 422.678 291.683 422.962Z" fill="black"/>
<path d="M291.3 424.45L323.379 444.528L262.305 454.86C261.259 451.345 258.134 440.908 254.974 430.855C268.8 428.332 288.18 424.847 291.31 424.45H291.3ZM291.62 422.955C290.1 422.955 253.07 429.717 253.07 429.717C257.135 442.575 261.262 456.515 261.262 456.515L327.389 445.327L291.665 422.962C291.665 422.962 291.647 422.962 291.614 422.962L291.62 422.955Z" fill="black"/>
<path d="M168.016 270.222C167.823 270.24 167.63 270.18 167.48 270.057C167.331 269.933 167.236 269.755 167.218 269.562C167.2 269.368 167.258 269.175 167.383 269.025C167.506 268.875 167.685 268.782 167.878 268.763L239.601 254.91L229.616 211.53C229.573 211.342 229.606 211.143 229.71 210.98C229.813 210.817 229.976 210.7 230.165 210.657C230.353 210.613 230.551 210.648 230.715 210.75C230.878 210.853 230.995 211.017 231.038 211.205L241.19 255.315C241.213 255.41 241.215 255.508 241.198 255.605C241.181 255.702 241.145 255.793 241.091 255.877C241.038 255.958 240.968 256.028 240.886 256.083C240.806 256.138 240.715 256.175 240.618 256.193L168.155 270.207C168.11 270.217 168.063 270.222 168.016 270.222Z" fill="black"/>
<path d="M239.268 250.233L187.77 266.918C188.963 266.47 240.48 255.487 240.48 255.487L239.268 250.233Z" fill="black"/>
<path d="M291.868 206.258C291.716 206.258 291.568 206.212 291.445 206.123C291.321 206.037 291.228 205.912 291.18 205.768C291.13 205.627 291.125 205.472 291.168 205.325C291.21 205.18 291.296 205.052 291.416 204.958L299.556 198.505C299.631 198.447 299.718 198.402 299.81 198.377C299.901 198.35 299.998 198.342 300.093 198.353C300.188 198.365 300.28 198.395 300.365 198.442C300.448 198.488 300.521 198.55 300.581 198.625C300.64 198.7 300.685 198.787 300.71 198.878C300.736 198.972 300.743 199.068 300.733 199.163C300.721 199.258 300.691 199.35 300.645 199.433C300.598 199.517 300.535 199.59 300.46 199.65L292.32 206.102C292.191 206.203 292.031 206.258 291.868 206.258Z" fill="black"/>
<path d="M198.543 136.217C202.632 136.218 206.595 137.627 209.768 140.207C212.94 142.787 215.127 146.381 215.96 150.384C216.793 154.387 216.223 158.555 214.347 162.187C212.468 165.819 209.397 168.693 205.648 170.328C201.9 171.962 197.703 172.255 193.765 171.158C189.825 170.062 186.383 167.642 184.02 164.306C181.655 160.971 180.51 156.923 180.78 152.843C181.048 148.763 182.713 144.9 185.497 141.903C187.16 140.106 189.178 138.673 191.425 137.694C193.67 136.716 196.093 136.212 198.543 136.217ZM198.543 134.758C194.058 134.758 189.713 136.323 186.258 139.184C182.803 142.045 180.457 146.022 179.622 150.429C178.787 154.836 179.517 159.396 181.685 163.322C183.853 167.248 187.325 170.295 191.5 171.935C195.673 173.575 200.29 173.707 204.552 172.307C208.812 170.905 212.452 168.062 214.838 164.265C217.227 160.468 218.215 155.957 217.632 151.51C217.048 147.062 214.93 142.958 211.645 139.906C208.087 136.593 203.405 134.754 198.543 134.758Z" fill="black"/>
<path d="M203.909 156.788C203.737 156.789 203.57 156.73 203.437 156.62C203.305 156.51 203.215 156.357 203.185 156.188C203.155 156.019 203.185 155.844 203.27 155.695C203.357 155.546 203.492 155.432 203.654 155.373L208.345 153.631C206.41 152.847 203.669 151.101 201.832 147.244C201.787 147.157 201.762 147.063 201.754 146.966C201.747 146.869 201.76 146.771 201.792 146.679C201.824 146.587 201.872 146.502 201.937 146.43C202.002 146.357 202.08 146.298 202.169 146.256C202.255 146.214 202.352 146.191 202.449 146.186C202.545 146.182 202.642 146.197 202.734 146.23C202.825 146.264 202.909 146.315 202.98 146.382C203.05 146.448 203.107 146.528 203.147 146.617C205.824 152.234 210.574 152.781 210.774 152.814C210.937 152.831 211.09 152.903 211.207 153.017C211.325 153.132 211.4 153.283 211.42 153.446C211.442 153.608 211.407 153.773 211.324 153.914C211.239 154.055 211.109 154.163 210.955 154.221L204.164 156.773C204.08 156.792 203.995 156.797 203.909 156.788Z" fill="black"/>
<path d="M180.096 155.155C181.665 155.155 183.295 156.766 183.888 158.905C184.275 160.302 184.158 161.72 183.571 162.697C183.426 162.959 183.228 163.188 182.991 163.371C182.753 163.553 182.48 163.685 182.19 163.757C182.045 163.79 181.896 163.806 181.748 163.805C180.181 163.805 178.551 162.194 177.958 160.054C177.571 158.658 177.688 157.24 178.278 156.263C178.423 156.001 178.62 155.772 178.856 155.589C179.095 155.407 179.366 155.275 179.656 155.202C179.801 155.17 179.948 155.154 180.096 155.155ZM180.096 153.696C179.843 153.696 179.59 153.723 179.343 153.777C176.93 154.309 175.696 157.294 176.553 160.444C177.335 163.266 179.558 165.263 181.748 165.263C182.001 165.264 182.255 165.237 182.503 165.183C184.92 164.651 186.148 161.665 185.295 158.516C184.511 155.694 182.288 153.696 180.096 153.696Z" fill="black"/>
<path d="M184.428 140.912C182.83 142.631 181.56 144.629 180.68 146.807L208.111 137.329C204.34 135.164 199.945 134.339 195.645 134.99C191.345 135.641 187.391 137.728 184.428 140.912Z" fill="black"/>
<path d="M181.223 161.858C181.063 161.858 180.907 161.804 180.778 161.705C178.715 160.105 179.065 158.02 179.537 157.138C179.627 156.967 179.782 156.839 179.967 156.782C180.153 156.725 180.353 156.744 180.523 156.835C180.695 156.926 180.823 157.081 180.88 157.266C180.937 157.452 180.917 157.652 180.827 157.823C180.747 157.98 180.097 159.347 181.672 160.55C181.793 160.643 181.883 160.771 181.928 160.918C181.972 161.064 181.97 161.221 181.92 161.366C181.87 161.51 181.777 161.636 181.652 161.724C181.527 161.813 181.377 161.86 181.223 161.858Z" fill="black"/>
<path d="M197.71 152.268C198.275 152.077 198.383 150.892 197.952 149.622C197.522 148.353 196.715 147.478 196.15 147.67C195.585 147.861 195.478 149.046 195.908 150.316C196.338 151.585 197.145 152.46 197.71 152.268Z" fill="black"/>
<path d="M209.625 148.228C210.188 148.036 210.296 146.852 209.866 145.582C209.436 144.312 208.628 143.438 208.065 143.629C207.5 143.821 207.391 145.005 207.823 146.275C208.253 147.545 209.06 148.419 209.625 148.228Z" fill="black"/>
<path d="M242.451 220.302L231.982 235.928L185.868 245.603L216.785 199.727L242.451 220.302Z" fill="white"/>
<path d="M217.108 201.855L240.493 220.6L231.1 234.623L189.087 243.438L217.108 201.855ZM216.785 199.727L185.868 245.603L231.982 235.928L242.451 220.302L216.785 199.727Z" fill="black"/>
<path d="M205.338 216.562L182.77 250.233L187.772 195.327C191.822 158.005 156.176 158.005 153.61 189.505C153.61 189.505 152.006 217.628 149.374 258.57C146.458 303.9 182.328 303.577 195.258 286.275C203.523 275.218 232.807 234.703 232.807 234.703L205.338 216.562Z" fill="#7AB9A3"/>
<path d="M172.06 168.005C175.534 168.005 178.822 169.535 181.315 172.317C185.62 177.115 187.399 185.228 186.324 195.163V195.188L181.319 250.095L180.802 255.785L183.984 251.047L205.744 218.583L230.714 235.093C225.745 241.97 201.445 275.558 194.089 285.4C191.68 288.535 188.592 291.083 185.055 292.852C181.519 294.62 177.629 295.562 173.675 295.607C169.534 295.607 163.551 294.513 158.579 289.192C152.633 282.852 149.954 272.292 150.833 258.658C153.406 218.602 155.003 190.448 155.065 189.603C155.615 182.9 157.748 177.275 161.236 173.33C164.273 169.897 168.119 168.005 172.06 168.005ZM172.06 166.546C163.653 166.546 154.839 174.41 153.61 189.512C153.61 189.512 152.006 217.637 149.374 258.578C147.577 286.472 160.475 297.08 173.67 297.08C181.92 297.08 190.284 292.938 195.259 286.287C203.524 275.23 232.807 234.715 232.807 234.715L205.357 216.568L182.77 250.233L187.772 195.327C189.882 175.872 181.21 166.554 172.06 166.554V166.546Z" fill="black"/>
<path d="M323.616 209.365C324.818 209.365 325.791 208.39 325.791 207.188C325.791 205.987 324.818 205.012 323.616 205.012C322.413 205.012 321.439 205.987 321.439 207.188C321.439 208.39 322.413 209.365 323.616 209.365Z" fill="white"/>
<path d="M175.479 263.247C175.335 263.247 175.195 263.205 175.074 263.127C174.914 263.02 174.802 262.853 174.764 262.665C174.725 262.475 174.764 262.278 174.87 262.117L183.762 248.735C183.869 248.573 184.035 248.462 184.225 248.425C184.415 248.387 184.612 248.425 184.772 248.533C184.934 248.64 185.045 248.807 185.084 248.997C185.122 249.187 185.082 249.383 184.975 249.545L176.084 262.923C176.017 263.023 175.927 263.105 175.822 263.16C175.717 263.217 175.599 263.247 175.479 263.247Z" fill="black"/>
<path d="M239.145 290.383C239.09 290.303 239.018 290.235 238.936 290.183C238.853 290.13 238.761 290.095 238.665 290.078C238.57 290.063 238.471 290.067 238.376 290.088C238.281 290.112 238.191 290.153 238.113 290.21C238.035 290.268 237.968 290.342 237.918 290.425C237.868 290.51 237.836 290.602 237.823 290.698C237.81 290.795 237.816 290.893 237.841 290.988C237.866 291.083 237.911 291.17 237.971 291.248L247.766 304.55L249.068 303.86L239.145 290.383Z" fill="white"/>
<path d="M205.63 207.918C205.441 207.918 205.26 207.845 205.123 207.715C204.988 207.583 204.908 207.407 204.9 207.218L203.518 172.692C203.511 172.498 203.58 172.31 203.711 172.168C203.843 172.027 204.025 171.942 204.218 171.935C204.411 171.927 204.6 171.997 204.743 172.127C204.885 172.258 204.97 172.44 204.976 172.633L206.358 207.16C206.363 207.255 206.348 207.352 206.315 207.442C206.281 207.53 206.231 207.613 206.166 207.683C206.101 207.755 206.023 207.812 205.935 207.852C205.848 207.892 205.755 207.913 205.658 207.918H205.63Z" fill="black"/>
<path d="M200.107 183.008C199.602 183.008 199.108 182.86 198.688 182.578C198.27 182.298 197.942 181.9 197.75 181.433C197.557 180.967 197.505 180.455 197.603 179.96C197.703 179.465 197.945 179.01 198.302 178.653C198.66 178.297 199.113 178.053 199.608 177.955C200.103 177.857 200.617 177.907 201.083 178.1C201.55 178.293 201.948 178.62 202.228 179.04C202.508 179.458 202.658 179.952 202.658 180.457C202.658 181.133 202.39 181.783 201.912 182.262C201.433 182.74 200.783 183.008 200.107 183.008ZM200.107 179.393C199.89 179.393 199.678 179.457 199.5 179.577C199.32 179.697 199.18 179.868 199.097 180.068C199.013 180.268 198.992 180.488 199.035 180.7C199.077 180.912 199.18 181.107 199.333 181.26C199.487 181.413 199.682 181.517 199.893 181.558C200.105 181.602 200.325 181.58 200.525 181.497C200.725 181.413 200.897 181.273 201.017 181.093C201.137 180.913 201.2 180.703 201.2 180.487C201.2 180.197 201.085 179.918 200.88 179.713C200.675 179.508 200.397 179.393 200.107 179.393Z" fill="black"/>
<path d="M200.107 197.397C199.602 197.397 199.108 197.248 198.688 196.967C198.27 196.687 197.942 196.288 197.75 195.822C197.557 195.355 197.505 194.843 197.603 194.348C197.703 193.853 197.945 193.398 198.302 193.042C198.66 192.683 199.113 192.442 199.608 192.343C200.103 192.245 200.617 192.295 201.083 192.488C201.55 192.682 201.948 193.008 202.228 193.428C202.508 193.847 202.658 194.34 202.658 194.845C202.658 195.522 202.39 196.172 201.912 196.65C201.433 197.128 200.783 197.397 200.107 197.397ZM200.107 193.777C199.89 193.777 199.678 193.842 199.5 193.962C199.32 194.082 199.18 194.253 199.097 194.452C199.013 194.652 198.992 194.872 199.035 195.085C199.077 195.297 199.18 195.492 199.333 195.645C199.487 195.797 199.682 195.902 199.893 195.943C200.105 195.985 200.325 195.963 200.525 195.882C200.725 195.798 200.897 195.658 201.017 195.478C201.137 195.298 201.2 195.087 201.2 194.872C201.2 194.582 201.085 194.303 200.88 194.098C200.675 193.893 200.397 193.777 200.107 193.777Z" fill="black"/>
<path d="M283.219 452.763L272.326 445.188L259.436 447.092L259.221 445.648L272.687 443.662L284.049 451.568L283.219 452.763Z" fill="black"/>
<path d="M283.629 429.817C283.436 429.832 283.244 429.77 283.096 429.643C282.949 429.518 282.858 429.338 282.843 429.145C282.826 428.952 282.888 428.76 283.014 428.613C283.139 428.465 283.319 428.373 283.513 428.358L291.398 427.06C291.591 427.028 291.789 427.075 291.948 427.19C292.106 427.305 292.214 427.477 292.246 427.67C292.276 427.863 292.229 428.062 292.116 428.222C292.001 428.38 291.828 428.487 291.634 428.518L283.749 429.812L283.629 429.817Z" fill="white"/>
<path d="M285.361 434.362C285.168 434.377 284.976 434.315 284.828 434.19C284.681 434.063 284.589 433.885 284.573 433.692C284.558 433.498 284.619 433.307 284.746 433.158C284.871 433.01 285.051 432.918 285.244 432.903L293.126 431.61C293.319 431.578 293.516 431.625 293.676 431.74C293.834 431.853 293.941 432.027 293.973 432.22C294.004 432.413 293.958 432.612 293.843 432.77C293.729 432.93 293.556 433.037 293.363 433.068L285.481 434.362H285.361Z" fill="white"/>
<path d="M290.396 417.457L251.301 424.597L251.562 426.03L290.657 418.89L290.396 417.457Z" fill="white"/>
<path d="M386.78 316.507L385.588 315.672L393.391 304.523L406.946 301.698L407.245 303.128L394.256 305.833L386.78 316.507Z" fill="black"/>
<path d="M390.328 287.285C390.183 287.285 390.039 287.242 389.919 287.162C389.839 287.107 389.773 287.038 389.719 286.958C389.666 286.878 389.631 286.788 389.613 286.695C389.594 286.6 389.596 286.503 389.614 286.41C389.634 286.317 389.673 286.227 389.726 286.148L394.199 279.528C394.253 279.448 394.321 279.38 394.401 279.327C394.481 279.275 394.571 279.238 394.664 279.22C394.759 279.202 394.856 279.202 394.949 279.22C395.044 279.24 395.133 279.277 395.213 279.33C395.291 279.385 395.359 279.453 395.413 279.533C395.466 279.613 395.503 279.703 395.521 279.797C395.539 279.89 395.538 279.988 395.519 280.082C395.501 280.175 395.463 280.265 395.409 280.343L390.933 286.965C390.866 287.063 390.776 287.143 390.669 287.2C390.564 287.257 390.448 287.285 390.328 287.285Z" fill="white"/>
<path d="M394.818 289.152C394.672 289.152 394.53 289.108 394.41 289.028C394.33 288.973 394.262 288.905 394.21 288.825C394.157 288.745 394.12 288.655 394.103 288.562C394.085 288.467 394.085 288.37 394.105 288.277C394.125 288.182 394.162 288.093 394.217 288.013L398.688 281.393C398.798 281.233 398.965 281.123 399.155 281.088C399.345 281.052 399.542 281.092 399.702 281.202C399.862 281.31 399.973 281.478 400.008 281.668C400.045 281.858 400.005 282.055 399.895 282.215L395.423 288.83C395.357 288.93 395.265 289.01 395.16 289.067C395.055 289.122 394.937 289.152 394.818 289.152Z" fill="white"/>
<path d="M386.536 273.605L364.248 305.143L365.438 305.985L387.726 274.447L386.536 273.605Z" fill="white"/>
<path d="M220.583 133.482C219.748 138.011 220.275 142.684 222.097 146.913C223.92 151.141 226.955 154.735 230.818 157.238C234.683 159.742 239.202 161.044 243.807 160.979C248.41 160.913 252.892 159.485 256.683 156.873C260.475 154.261 263.407 150.583 265.108 146.305C266.81 142.026 267.205 137.339 266.242 132.837C265.28 128.334 263.005 124.218 259.703 121.008C256.402 117.799 252.222 115.641 247.693 114.807C244.687 114.253 241.602 114.296 238.612 114.935C235.622 115.574 232.788 116.795 230.27 118.529C227.752 120.263 225.602 122.477 223.938 125.042C222.277 127.608 221.137 130.476 220.583 133.482Z" fill="white"/>
<path d="M237.189 226.013C235.859 225.918 234.622 225.3 233.749 224.295C232.875 223.288 232.439 221.977 232.532 220.647L236.102 170.52L246.127 171.248L242.557 221.373C242.46 222.7 241.839 223.933 240.832 224.803C239.825 225.673 238.515 226.108 237.189 226.013Z" fill="black"/>
<path d="M219.609 133.3C218.739 138.02 219.288 142.893 221.188 147.301C223.086 151.709 226.249 155.455 230.278 158.065C234.306 160.675 239.018 162.032 243.816 161.964C248.616 161.897 253.288 160.408 257.239 157.685C261.193 154.962 264.249 151.129 266.023 146.669C267.798 142.209 268.209 137.323 267.206 132.63C266.203 127.936 263.831 123.645 260.389 120.299C256.948 116.954 252.593 114.704 247.871 113.834C241.543 112.668 235.009 114.063 229.709 117.714C224.409 121.365 220.776 126.971 219.609 133.3ZM265.691 141.79C264.883 146.188 262.788 150.247 259.673 153.454C256.558 156.661 252.561 158.873 248.189 159.808C243.816 160.743 239.264 160.361 235.111 158.709C230.956 157.057 227.384 154.209 224.848 150.527C222.311 146.845 220.924 142.493 220.863 138.022C220.799 133.552 222.064 129.163 224.496 125.411C226.929 121.659 230.419 118.714 234.526 116.946C238.634 115.179 243.173 114.669 247.569 115.482C253.459 116.57 258.676 119.953 262.074 124.886C265.473 129.819 266.773 135.899 265.691 141.79Z" fill="black"/>
<path d="M243.53 162.704C241.994 162.702 240.46 162.561 238.949 162.281C232.667 161.107 227.079 157.558 223.347 152.371C219.614 147.184 218.022 140.759 218.904 134.429C219.785 128.1 223.072 122.354 228.08 118.384C233.089 114.415 239.434 112.528 245.797 113.115C252.16 113.702 258.052 116.719 262.25 121.538C266.447 126.357 268.625 132.607 268.334 138.991C268.042 145.375 265.302 151.401 260.684 155.817C256.064 160.233 249.922 162.699 243.53 162.704ZM243.425 114.155C237.365 114.162 231.54 116.504 227.162 120.695C222.784 124.886 220.189 130.602 219.915 136.657C219.644 142.712 221.715 148.638 225.7 153.205C229.685 157.772 235.277 160.627 241.312 161.178C247.347 161.728 253.364 159.931 258.109 156.161C262.854 152.391 265.964 146.937 266.792 140.933C267.619 134.929 266.102 128.837 262.554 123.923C259.005 119.009 253.7 115.652 247.742 114.548C246.317 114.288 244.874 114.156 243.425 114.155ZM243.527 161.023C242.094 161.022 240.662 160.891 239.252 160.63C233.389 159.535 228.174 156.224 224.689 151.385C221.204 146.545 219.717 140.548 220.539 134.641C221.36 128.734 224.427 123.371 229.099 119.665C233.772 115.96 239.694 114.198 245.632 114.745C251.57 115.291 257.07 118.105 260.989 122.602C264.907 127.098 266.942 132.931 266.67 138.889C266.4 144.846 263.844 150.471 259.534 154.593C255.224 158.715 249.492 161.018 243.527 161.023ZM243.429 115.821C239.274 115.828 235.207 117.018 231.704 119.252C228.2 121.487 225.405 124.673 223.647 128.438C221.889 132.203 221.24 136.39 221.775 140.511C222.31 144.631 224.009 148.514 226.67 151.705C229.332 154.895 232.849 157.262 236.805 158.527C240.764 159.792 245 159.903 249.019 158.848C253.039 157.793 256.674 155.615 259.499 152.569C262.325 149.523 264.225 145.735 264.977 141.648C266.024 135.947 264.765 130.063 261.477 125.289C258.189 120.515 253.139 117.242 247.439 116.189C246.115 115.949 244.774 115.83 243.429 115.832V115.821Z" fill="black"/>
<path d="M240.225 162.111L239.533 171.823L242.078 172.003L242.77 162.292L240.225 162.111Z" fill="black"/>
<path d="M218.147 194.93C224.771 187.813 244.171 185.682 244.171 185.682C246.636 185.192 249.509 185.072 249.979 187.503C250.176 188.513 249.224 189.757 248.791 190.613C249.806 190.653 250.776 191.04 251.542 191.705C252.309 192.372 252.827 193.278 253.009 194.277C253.192 195.277 253.029 196.308 252.549 197.202C252.067 198.097 251.296 198.8 250.361 199.198C251.137 199.708 252.621 200.657 252.964 201.597C253.814 203.927 251.349 205.742 248.987 206.602L245.422 208.462C246.292 208.515 248.002 209.377 248.337 210.102C249.264 212.147 247.302 214.22 245.229 215.157L236.641 219.007C227.756 222.652 221.402 218.012 219.241 214.69C214.942 208.097 212.282 201.232 218.147 194.93Z" fill="white"/>
<path d="M239.368 211.143C239.198 211.145 239.033 211.085 238.901 210.977C238.771 210.87 238.681 210.718 238.649 210.552C238.618 210.385 238.644 210.213 238.726 210.063C238.808 209.915 238.939 209.8 239.098 209.737L249.939 205.438C250.766 205.16 251.486 204.632 252.003 203.927C252.218 203.63 252.358 203.285 252.406 202.922C252.454 202.56 252.411 202.19 252.279 201.848C251.663 200.15 249.728 199.708 248.203 200.262L236.589 204.342C236.409 204.398 236.213 204.383 236.044 204.298C235.874 204.213 235.746 204.067 235.683 203.888C235.619 203.71 235.628 203.515 235.708 203.343C235.786 203.17 235.928 203.037 236.104 202.967L247.711 198.888C250.204 197.98 252.814 199.06 253.649 201.348C253.856 201.907 253.923 202.507 253.848 203.098C253.771 203.688 253.553 204.252 253.213 204.738C252.533 205.698 251.568 206.42 250.456 206.802L239.636 211.093C239.551 211.127 239.459 211.143 239.368 211.143Z" fill="black"/>
<path d="M246.071 200.967C245.901 200.967 245.734 200.907 245.604 200.797C245.473 200.688 245.384 200.537 245.353 200.368C245.323 200.2 245.351 200.027 245.436 199.878C245.519 199.73 245.653 199.615 245.813 199.555L249.909 197.983L249.979 197.958C251.454 197.553 252.768 196.195 252.294 194.47C252.193 194.1 252.016 193.757 251.773 193.46C251.531 193.163 251.228 192.922 250.886 192.75C250.163 192.387 249.328 192.31 248.549 192.535L234.471 196.777C234.288 196.828 234.091 196.805 233.924 196.712C233.758 196.62 233.634 196.467 233.579 196.283C233.524 196.102 233.544 195.905 233.633 195.737C233.719 195.568 233.871 195.44 234.053 195.382L248.168 191.135C249.299 190.808 250.514 190.922 251.568 191.452C252.091 191.715 252.553 192.085 252.923 192.538C253.293 192.992 253.563 193.518 253.716 194.083C254.339 196.352 252.891 198.658 250.434 199.355L246.366 200.918C246.273 200.955 246.171 200.97 246.071 200.967Z" fill="black"/>
<path d="M231.336 220.732C225.14 220.732 219.81 217.192 216.893 212.973C212.708 206.918 213.116 199.662 217.933 194.477C225.61 186.217 244.018 184.893 244.8 184.842C248.16 184.5 250.063 185.4 250.763 187.678C250.906 188.142 250.946 188.628 250.885 189.108C250.821 189.588 250.656 190.05 250.398 190.46C249.615 191.777 247.96 192.83 246.075 193.22L234.471 196.777C234.286 196.833 234.086 196.815 233.915 196.723C233.745 196.633 233.616 196.478 233.56 196.293C233.503 196.107 233.523 195.907 233.615 195.737C233.705 195.565 233.86 195.438 234.045 195.382L245.71 191.812H245.78C247.266 191.513 248.598 190.697 249.173 189.732C249.323 189.495 249.42 189.228 249.456 188.95C249.493 188.673 249.468 188.39 249.385 188.123C249.02 186.982 248.251 185.973 244.933 186.3C244.726 186.3 226.298 187.642 219.015 195.48C213.758 201.133 215.1 207.802 218.108 212.153C221.676 217.312 229.178 221.373 237.231 218.103L245.565 213.885C246.738 213.36 247.515 212.678 247.788 211.953C247.878 211.703 247.915 211.437 247.898 211.172C247.88 210.905 247.806 210.647 247.683 210.412C246.75 208.362 244.001 209.47 243.458 209.715L239.845 211.228C239.756 211.272 239.658 211.297 239.56 211.302C239.46 211.307 239.361 211.292 239.268 211.257C239.175 211.222 239.09 211.168 239.018 211.1C238.946 211.032 238.89 210.948 238.851 210.857C238.813 210.765 238.793 210.667 238.795 210.567C238.795 210.468 238.816 210.37 238.856 210.278C238.896 210.188 238.955 210.107 239.028 210.038C239.1 209.972 239.186 209.92 239.28 209.887L242.863 208.377C245.62 207.138 248.033 207.695 248.995 209.807C249.2 210.217 249.316 210.665 249.341 211.122C249.366 211.58 249.296 212.037 249.136 212.467C248.721 213.56 247.678 214.52 246.176 215.202L237.848 219.415L237.796 219.44C235.748 220.287 233.553 220.725 231.336 220.732Z" fill="black"/>
<path d="M67.0362 264.91C49.9867 264.91 36.167 274.092 36.167 285.418C36.167 289.063 37.596 292.465 40.0895 295.425L39.9947 295.378C47.8577 306.602 64.6338 320.13 64.6338 320.13C64.6338 320.13 60.8973 310.747 61.3165 305.573C63.2222 305.815 65.1408 305.937 67.0617 305.938C84.1112 305.938 97.9306 296.755 97.9306 285.427C97.9306 274.097 84.0855 264.91 67.0362 264.91Z" fill="#8CABD8"/>
<path d="M299.75 44.9982C312.363 44.3822 322.92 50.6777 323.328 59.0583C323.46 61.7487 322.527 64.3223 320.777 66.6007L320.842 66.5643C315.432 75.1528 303.508 85.7682 303.508 85.7682C303.508 85.7682 305.937 78.6962 305.452 74.8757C304.048 75.1192 302.633 75.2775 301.212 75.3497C288.598 75.962 278.042 69.6665 277.633 61.2857C277.225 52.905 287.137 45.6178 299.75 44.9982Z" fill="white"/>
<path d="M301.447 44.9582C313.296 44.9582 322.937 51.0605 323.319 59.0622C323.451 61.7525 322.517 64.326 320.767 66.6045L320.834 66.568C315.424 75.1565 303.501 85.7718 303.501 85.7718C303.501 85.7718 305.927 78.6998 305.442 74.8795C304.041 75.123 302.624 75.2812 301.204 75.3533C300.634 75.3788 300.066 75.3935 299.504 75.3935C287.657 75.3935 277.997 69.2947 277.632 61.2895C277.224 52.9052 287.111 45.6143 299.731 45.0018C300.317 44.9727 300.886 44.9582 301.447 44.9582ZM301.447 43.5C300.861 43.5 300.266 43.5 299.679 43.5437C293.292 43.8572 287.354 45.8148 282.951 49.0592C278.372 52.4348 275.974 56.8057 276.196 61.3623C276.407 65.704 279.002 69.6848 283.487 72.572C287.796 75.3315 293.486 76.8517 299.526 76.8517C300.114 76.8517 300.707 76.8517 301.294 76.8078C302.209 76.7642 303.117 76.684 304.051 76.5673C303.901 79.5455 302.679 83.7122 302.137 85.3162C302.032 85.6212 302.031 85.9523 302.134 86.2577C302.239 86.5632 302.441 86.8255 302.709 87.004C302.977 87.1817 303.297 87.2657 303.619 87.2425C303.939 87.2195 304.244 87.0907 304.484 86.8765C304.976 86.439 316.591 76.057 322.059 67.4028C322.106 67.3357 322.147 67.2637 322.179 67.1877C324.002 64.636 324.916 61.829 324.777 59.0112C324.567 54.6695 321.971 50.6887 317.487 47.8015C313.179 45.042 307.487 43.5182 301.447 43.5182V43.5Z" fill="black"/>
<path d="M311.606 61.3817C312.816 61.3817 313.796 60.4008 313.796 59.1908C313.796 57.9808 312.816 57 311.606 57C310.396 57 309.414 57.9808 309.414 59.1908C309.414 60.4008 310.396 61.3817 311.606 61.3817Z" fill="black"/>
<path d="M290.207 62.6202C291.417 62.6202 292.397 61.6392 292.397 60.4292C292.397 59.2193 291.417 58.2383 290.207 58.2383C288.997 58.2383 288.016 59.2193 288.016 60.4292C288.016 61.6392 288.997 62.6202 290.207 62.6202Z" fill="black"/>
<path d="M300.905 62.0987C302.115 62.0987 303.096 61.1178 303.096 59.9078C303.096 58.6978 302.115 57.717 300.905 57.717C299.695 57.717 298.715 58.6978 298.715 59.9078C298.715 61.1178 299.695 62.0987 300.905 62.0987Z" fill="black"/>
<path d="M356.18 373.608L358.105 384.008L389.4 378.008C391.129 377.677 392.765 378.565 393.047 379.987L397.76 404.557C398.03 405.978 396.842 407.412 395.114 407.743L356.107 415.223C354.38 415.555 352.744 414.665 352.462 413.243L348.089 390.472C347.407 386.935 348.51 386.013 356.18 373.608Z" fill="black"/>
<path d="M355.79 394.365C355.597 394.383 355.403 394.323 355.255 394.2C355.105 394.077 355.01 393.898 354.992 393.705C354.973 393.512 355.033 393.318 355.157 393.168C355.28 393.018 355.458 392.925 355.652 392.907L385.472 387.187C385.662 387.15 385.858 387.192 386.018 387.3C386.177 387.408 386.288 387.577 386.323 387.767C386.36 387.957 386.32 388.153 386.21 388.313C386.102 388.473 385.935 388.583 385.745 388.62L355.928 394.338L355.79 394.365Z" fill="white"/>
<path d="M356.956 400.47C356.861 400.48 356.765 400.47 356.673 400.442C356.58 400.413 356.495 400.367 356.421 400.305C356.271 400.18 356.178 400.002 356.159 399.808C356.141 399.615 356.201 399.423 356.326 399.273C356.449 399.125 356.628 399.03 356.821 399.013L386.636 393.293C386.826 393.257 387.025 393.297 387.185 393.405C387.345 393.513 387.454 393.68 387.491 393.87C387.528 394.06 387.488 394.257 387.38 394.418C387.271 394.578 387.104 394.688 386.914 394.725L357.095 400.445C357.05 400.457 357.003 400.467 356.956 400.47Z" fill="white"/>
<path d="M358.13 406.577C358.035 406.585 357.939 406.575 357.847 406.547C357.755 406.518 357.67 406.472 357.595 406.41C357.447 406.287 357.352 406.108 357.335 405.915C357.317 405.722 357.377 405.528 357.5 405.38C357.624 405.23 357.802 405.137 357.995 405.118L373.799 402.085C373.989 402.048 374.185 402.088 374.345 402.197C374.507 402.305 374.617 402.473 374.654 402.663C374.69 402.853 374.65 403.05 374.542 403.21C374.434 403.37 374.265 403.482 374.075 403.518L358.27 406.547C358.225 406.563 358.179 406.572 358.13 406.577Z" fill="white"/>
<path d="M459.009 203.208H417.481C415.148 203.208 413.256 205.1 413.256 207.433V231.66C413.256 233.993 415.148 235.885 417.481 235.885H459.009C461.343 235.885 463.234 233.993 463.234 231.66V207.433C463.234 205.1 461.343 203.208 459.009 203.208Z" fill="white"/>
<path d="M459.028 236.61H417.471C416.158 236.61 414.899 236.088 413.971 235.16C413.041 234.232 412.519 232.973 412.518 231.66V207.43C412.519 206.117 413.041 204.858 413.971 203.93C414.899 203.002 416.158 202.48 417.471 202.478H459.028C460.341 202.48 461.601 203.002 462.529 203.93C463.458 204.858 463.981 206.117 463.983 207.43V231.66C463.981 232.973 463.458 234.232 462.529 235.16C461.601 236.088 460.341 236.61 459.028 236.61ZM417.471 203.937C416.544 203.938 415.656 204.307 415.001 204.96C414.346 205.615 413.978 206.503 413.974 207.43V231.66C413.978 232.587 414.346 233.473 415.001 234.128C415.656 234.783 416.544 235.152 417.471 235.152H459.028C459.954 235.152 460.843 234.783 461.498 234.128C462.153 233.473 462.523 232.587 462.524 231.66V207.43C462.523 206.503 462.153 205.615 461.498 204.96C460.843 204.307 459.954 203.938 459.028 203.937H417.471Z" fill="black"/>
<path d="M448.189 212.973H428.304C428.111 212.973 427.924 212.897 427.788 212.76C427.651 212.623 427.574 212.438 427.574 212.245C427.574 212.052 427.651 211.867 427.788 211.73C427.924 211.593 428.111 211.515 428.304 211.515H448.189C448.383 211.515 448.568 211.593 448.704 211.73C448.841 211.867 448.918 212.052 448.918 212.245C448.918 212.438 448.841 212.623 448.704 212.76C448.568 212.897 448.383 212.973 448.189 212.973Z" fill="black"/>
<path d="M455.287 222.445H421.207C421.013 222.445 420.828 222.368 420.692 222.232C420.555 222.095 420.479 221.908 420.479 221.715C420.479 221.522 420.555 221.337 420.692 221.2C420.828 221.063 421.013 220.987 421.207 220.987H455.287C455.48 220.987 455.667 221.063 455.804 221.2C455.94 221.337 456.017 221.522 456.017 221.715C456.017 221.908 455.94 222.095 455.804 222.232C455.667 222.368 455.48 222.445 455.287 222.445Z" fill="black"/>
<path d="M455.287 228.317H421.207C421.013 228.317 420.828 228.24 420.692 228.103C420.555 227.967 420.479 227.782 420.479 227.588C420.479 227.395 420.555 227.21 420.692 227.073C420.828 226.937 421.013 226.858 421.207 226.858H455.287C455.48 226.858 455.667 226.937 455.804 227.073C455.94 227.21 456.017 227.395 456.017 227.588C456.017 227.782 455.94 227.967 455.804 228.103C455.667 228.24 455.48 228.317 455.287 228.317Z" fill="black"/>
<path d="M186.712 107.802L221.407 105.163L218.05 61.0313L183.355 63.6707L186.712 107.802Z" fill="black"/>
<path d="M194.497 71.296C194.304 71.3033 194.116 71.2333 193.974 71.1018C193.832 70.9701 193.747 70.7877 193.741 70.5943C193.734 70.4008 193.804 70.2125 193.936 70.0707C194.067 69.9288 194.249 69.8452 194.442 69.8378L208.026 68.8025C208.219 68.7875 208.411 68.85 208.557 68.9761C208.704 69.1023 208.796 69.2818 208.811 69.4752C208.826 69.6685 208.764 69.8598 208.637 70.0071C208.511 70.1545 208.332 70.2456 208.139 70.2606L194.556 71.2923L194.497 71.296Z" fill="white"/>
<path d="M190.609 84.2482C190.416 84.2554 190.228 84.1855 190.086 84.054C189.944 83.9224 189.861 83.7399 189.854 83.5464C189.846 83.353 189.916 83.1647 190.048 83.0228C190.179 82.881 190.363 82.7972 190.556 82.79L213.828 81.0183C214.021 81.0038 214.213 81.0667 214.359 81.1932C214.506 81.3197 214.596 81.4994 214.611 81.6927C214.626 81.8862 214.563 82.0774 214.436 82.2244C214.309 82.3714 214.131 82.462 213.936 82.4765L190.664 84.2482H190.609Z" fill="white"/>
<path d="M191.019 89.6322C190.825 89.6395 190.637 89.5697 190.495 89.438C190.354 89.3065 190.27 89.1238 190.262 88.9305C190.255 88.7372 190.325 88.5488 190.457 88.407C190.589 88.2652 190.771 88.1813 190.964 88.1742L214.237 86.406C214.431 86.3912 214.622 86.4535 214.769 86.5797C214.915 86.7058 215.007 86.8853 215.022 87.0787C215.037 87.272 214.975 87.4633 214.849 87.6107C214.722 87.758 214.544 87.8492 214.35 87.8642L191.092 89.6287L191.019 89.6322Z" fill="white"/>
<path d="M191.427 95.0128C191.234 95.0202 191.045 94.9503 190.904 94.8187C190.762 94.687 190.679 94.5045 190.67 94.3112C190.664 94.1178 190.734 93.9295 190.865 93.7877C190.997 93.6457 191.179 93.562 191.374 93.5547L214.649 91.783C214.842 91.7685 215.034 91.8315 215.18 91.958C215.327 92.0843 215.419 92.2642 215.432 92.4575C215.447 92.6508 215.384 92.842 215.257 92.989C215.13 93.136 214.952 93.2267 214.759 93.2412L191.485 95.0128H191.427Z" fill="white"/>
<path d="M191.822 100.408C191.629 100.415 191.44 100.344 191.299 100.212C191.157 100.081 191.074 99.8978 191.067 99.7045C191.06 99.5112 191.13 99.323 191.262 99.1815C191.393 99.04 191.577 98.9567 191.77 98.9498L215.042 97.1818C215.235 97.1673 215.427 97.2303 215.573 97.3568C215.72 97.4833 215.812 97.663 215.825 97.8563C215.84 98.0497 215.777 98.2408 215.652 98.3878C215.525 98.5348 215.345 98.6255 215.152 98.64L191.894 100.408H191.822Z" fill="white"/>
<path d="M188.39 55.4348L202.805 81.689L171.692 98.7675L150.865 60.83L170.295 50.1637L188.39 55.4348Z" fill="#8CABD8"/>
<path d="M188.39 55.4348L176.707 61.8472L170.295 50.1637L188.39 55.4348Z" fill="#CCD0DE"/>
<path d="M176.707 62.5763C176.639 62.5773 176.569 62.5675 176.504 62.5472C176.41 62.5185 176.324 62.4713 176.25 62.4088C176.175 62.3462 176.114 62.2693 176.07 62.1827L169.654 50.4992C169.607 50.4152 169.579 50.323 169.569 50.2277C169.559 50.1325 169.567 50.0362 169.594 49.9443C169.649 49.7587 169.774 49.6023 169.944 49.5095C170.114 49.4167 170.312 49.395 170.499 49.4493C170.684 49.5037 170.84 49.6297 170.934 49.7993L176.995 60.8448L188.04 54.7788C188.21 54.6855 188.41 54.6635 188.597 54.7175C188.782 54.7715 188.939 54.8972 189.032 55.0668C189.125 55.2365 189.149 55.4363 189.094 55.6223C189.04 55.8082 188.914 55.9652 188.745 56.0583L177.057 62.4962C176.949 62.5517 176.829 62.5792 176.707 62.5763Z" fill="white"/>
<path d="M174.535 89.738C174.372 89.7407 174.213 89.6888 174.083 89.5907C173.953 89.4927 173.86 89.354 173.818 89.1968C173.777 89.0397 173.788 88.873 173.852 88.7233C173.915 88.5737 174.028 88.4497 174.17 88.371L193.855 77.5588C194.025 77.4655 194.225 77.4433 194.41 77.4973C194.597 77.5513 194.753 77.677 194.847 77.8467C194.94 78.0165 194.962 78.2162 194.908 78.4022C194.853 78.5882 194.728 78.745 194.558 78.8383L174.873 89.6468C174.77 89.7052 174.653 89.7367 174.535 89.738Z" fill="white"/>
<path d="M171.22 83.6975C171.058 83.7002 170.9 83.6483 170.77 83.5503C170.64 83.4522 170.547 83.3137 170.505 83.1565C170.463 82.9993 170.475 82.8327 170.538 82.683C170.602 82.5333 170.713 82.4093 170.857 82.3305L190.542 71.522C190.625 71.4712 190.718 71.438 190.817 71.4242C190.913 71.4103 191.012 71.4163 191.107 71.4417C191.202 71.4672 191.29 71.5113 191.368 71.572C191.445 71.6325 191.51 71.708 191.557 71.794C191.605 71.8798 191.633 71.9745 191.643 72.0722C191.653 72.1698 191.643 72.2685 191.615 72.3623C191.585 72.456 191.538 72.543 191.475 72.6178C191.41 72.6927 191.333 72.7538 191.245 72.7978L171.56 83.61C171.455 83.665 171.338 83.695 171.22 83.6975Z" fill="white"/>
<path d="M167.578 77.0777C167.415 77.0818 167.255 77.0307 167.123 76.9325C166.992 76.8342 166.898 76.6945 166.855 76.5362C166.813 76.3777 166.827 76.2097 166.892 76.0593C166.957 75.9088 167.07 75.7847 167.215 75.707L186.9 64.8983C186.983 64.8525 187.075 64.8235 187.172 64.8132C187.267 64.8028 187.362 64.8113 187.455 64.8383C187.547 64.8652 187.632 64.91 187.707 64.97C187.782 65.03 187.843 65.1042 187.89 65.1882C187.935 65.2722 187.963 65.3645 187.975 65.4597C187.985 65.5548 187.977 65.6512 187.95 65.743C187.922 65.835 187.878 65.9207 187.818 65.9953C187.758 66.0698 187.683 66.132 187.6 66.1778L167.915 76.9865C167.812 77.0443 167.697 77.0757 167.578 77.0777Z" fill="white"/>
<path d="M115.282 162.015L85.1167 188.747L48.3092 145.101L47.9629 139.439L82.1602 119.616L115.282 157.021V162.015Z" fill="black"/>
<path d="M77.7625 114.507L48.709 139.488L85.6685 182.472L114.722 157.491L77.7625 114.507Z" fill="white"/>
<path d="M85.6713 183.198C85.566 183.198 85.462 183.175 85.3663 183.132C85.2706 183.087 85.1856 183.023 85.1173 182.943L48.1566 139.96C48.0938 139.888 48.046 139.803 48.016 139.712C47.986 139.62 47.9743 139.524 47.9816 139.428C47.9968 139.236 48.0871 139.058 48.2333 138.932L77.287 113.95C77.4335 113.824 77.624 113.762 77.8168 113.776C78.0096 113.79 78.1888 113.881 78.315 114.027L115.268 157.01C115.394 157.156 115.457 157.347 115.443 157.54C115.428 157.732 115.338 157.912 115.192 158.038L86.138 183.02C86.0083 183.132 85.843 183.195 85.6713 183.198ZM49.7388 139.563L85.7406 181.442L113.686 157.407L77.6843 115.533L49.7388 139.563Z" fill="black"/>
<path d="M65.4644 144.488C65.3154 144.488 65.1699 144.443 65.0478 144.357C64.9254 144.272 64.8321 144.151 64.7806 144.012C64.7289 143.872 64.7213 143.72 64.7589 143.575C64.7964 143.431 64.8773 143.302 64.9906 143.205L79.1784 131.084C79.2473 131.006 79.3321 130.944 79.4271 130.901C79.5219 130.859 79.6249 130.837 79.7291 130.837C79.8331 130.838 79.9358 130.861 80.0303 130.904C80.1248 130.948 80.2089 131.011 80.2769 131.09C80.3449 131.169 80.3953 131.261 80.4246 131.361C80.4539 131.461 80.4614 131.566 80.4469 131.669C80.4323 131.772 80.3958 131.871 80.3398 131.958C80.2839 132.046 80.2098 132.121 80.1226 132.178L65.9056 144.299C65.7841 144.41 65.6288 144.477 65.4644 144.488Z" fill="black"/>
<path d="M68.5338 148.341C68.3848 148.341 68.2393 148.295 68.1171 148.21C67.9948 148.125 67.9014 148.004 67.8499 147.865C67.7983 147.725 67.7906 147.573 67.8283 147.428C67.8658 147.284 67.9466 147.155 68.0599 147.058L82.2588 134.937C82.3279 134.86 82.4126 134.799 82.5071 134.758C82.6018 134.716 82.7041 134.695 82.8073 134.696C82.9106 134.697 83.0124 134.72 83.1063 134.764C83.1999 134.807 83.2834 134.87 83.3511 134.948C83.4186 135.026 83.4689 135.117 83.4986 135.216C83.5281 135.315 83.5364 135.419 83.5228 135.522C83.5091 135.624 83.4738 135.723 83.4193 135.81C83.3648 135.898 83.2923 135.973 83.2064 136.031L69.0078 148.162C68.8763 148.277 68.7081 148.34 68.5338 148.341Z" fill="black"/>
<path d="M73.8814 150.018C73.7324 150.018 73.5869 149.973 73.4646 149.887C73.3424 149.802 73.2491 149.681 73.1974 149.542C73.1459 149.402 73.1383 149.25 73.1759 149.105C73.2134 148.961 73.2943 148.832 73.4076 148.735L83.2246 140.351C83.2938 140.274 83.3784 140.213 83.4731 140.171C83.5676 140.13 83.6699 140.109 83.7733 140.11C83.8764 140.111 83.9784 140.134 84.0721 140.177C84.1658 140.221 84.2493 140.283 84.3169 140.361C84.3846 140.439 84.4349 140.531 84.4644 140.63C84.4941 140.729 84.5023 140.833 84.4886 140.935C84.4749 141.038 84.4398 141.136 84.3853 141.224C84.3306 141.312 84.2581 141.387 84.1724 141.444L74.3554 149.829C74.2254 149.947 74.0571 150.014 73.8814 150.018Z" fill="black"/>
<path d="M121.218 363.24C121.496 363.24 121.772 363.293 122.031 363.397L135.883 368.748C136.845 369.113 137.407 370.083 137.112 370.848L135.077 376.108C134.938 376.468 134.948 376.87 135.105 377.223C135.261 377.577 135.552 377.853 135.912 377.993L163.544 388.685C164.027 388.867 164.429 389.215 164.674 389.67C164.768 389.838 164.825 390.025 164.842 390.217C164.859 390.408 164.835 390.602 164.773 390.785L154.617 417.032C154.483 417.313 154.267 417.547 153.998 417.703C153.728 417.86 153.418 417.932 153.107 417.91C152.829 417.91 152.553 417.857 152.295 417.753L107.69 400.497C106.727 400.132 106.162 399.162 106.457 398.397L119.723 364.13C119.855 363.85 120.068 363.615 120.334 363.457C120.6 363.298 120.908 363.222 121.218 363.24ZM121.218 361.782C120.611 361.76 120.012 361.922 119.5 362.247C118.987 362.573 118.586 363.047 118.349 363.605L105.083 397.872C104.493 399.398 105.422 401.192 107.146 401.86L151.755 419.12C152.182 419.287 152.635 419.372 153.093 419.372C153.699 419.395 154.298 419.232 154.811 418.907C155.323 418.582 155.724 418.108 155.962 417.55L166.118 391.302C166.709 389.775 165.782 387.982 164.055 387.315L136.412 376.64L138.446 371.383C139.036 369.857 138.107 368.063 136.382 367.397L122.559 362.045C122.132 361.875 121.677 361.79 121.218 361.79V361.782Z" fill="black"/>
<path d="M397.975 113.502L371.999 104.753L373.664 99.8103C374.149 98.374 373.215 96.7555 371.594 96.2087L358.587 91.8342C356.964 91.2873 355.244 92.0128 354.759 93.4455L343.892 125.671C343.407 127.103 344.34 128.726 345.962 129.272L387.885 143.413C389.507 143.96 391.227 143.234 391.712 141.802L400.035 117.122C400.527 115.668 399.609 114.049 397.975 113.502Z" fill="#8CABD8"/>
<path d="M367.894 137.722L366.5 137.299L366.552 137.128C367.317 134.609 368.269 131.478 367.51 130.169C367.42 130.017 367.298 129.887 367.153 129.787C367.008 129.688 366.842 129.622 366.668 129.593C365.078 129.229 363.315 131.948 362.072 136.683L360.66 136.319C362.192 130.486 364.44 127.595 366.993 128.179C367.362 128.251 367.712 128.401 368.019 128.619C368.325 128.838 368.582 129.119 368.772 129.444C369.865 131.299 368.88 134.482 367.948 137.562L367.894 137.722Z" fill="black"/>
<path d="M84.906 279.593H49.1812C48.9878 279.593 48.8025 279.517 48.6656 279.38C48.529 279.243 48.4521 279.058 48.4521 278.865C48.4521 278.67 48.529 278.485 48.6656 278.348C48.8025 278.212 48.9878 278.135 49.1812 278.135H84.906C85.0993 278.135 85.2848 278.212 85.4215 278.348C85.5583 278.485 85.635 278.67 85.635 278.865C85.635 279.058 85.5583 279.243 85.4215 279.38C85.2848 279.517 85.0993 279.593 84.906 279.593Z" fill="white"/>
<path d="M84.906 286.377H49.1812C48.9878 286.377 48.8025 286.3 48.6656 286.163C48.529 286.027 48.4521 285.842 48.4521 285.648C48.4521 285.455 48.529 285.27 48.6656 285.133C48.8025 284.997 48.9878 284.92 49.1812 284.92H84.906C85.0993 284.92 85.2848 284.997 85.4215 285.133C85.5583 285.27 85.635 285.455 85.635 285.648C85.635 285.842 85.5583 286.027 85.4215 286.163C85.2848 286.3 85.0993 286.377 84.906 286.377Z" fill="white"/>
<path d="M84.906 293.162H49.1812C48.9878 293.162 48.8025 293.085 48.6656 292.948C48.529 292.812 48.4521 292.625 48.4521 292.432C48.4521 292.238 48.529 292.053 48.6656 291.917C48.8025 291.78 48.9878 291.703 49.1812 291.703H84.906C85.0993 291.703 85.2848 291.78 85.4215 291.917C85.5583 292.053 85.635 292.238 85.635 292.432C85.635 292.625 85.5583 292.812 85.4215 292.948C85.2848 293.085 85.0993 293.162 84.906 293.162Z" fill="white"/>
<path d="M185.868 207.188L182.77 250.227L187.771 242.778L185.868 207.188Z" fill="black"/>
<ellipse cx="180.826" cy="159.617" rx="3.5" ry="4.75331" transform="rotate(-18.4723 180.826 159.617)" fill="white"/>
</svg>
