<svg width="500" height="500" viewBox="0 0 500 500" fill="none" xmlns="http://www.w3.org/2000/svg">
<path d="M286.072 297.658L394.111 295.408L418.815 272.865L421.727 237.882L388.905 255.308C388.905 255.308 267.368 255.837 241.868 256.278L286.072 297.658Z" fill="#2760AD"/>
<path d="M419.698 240.97L417.095 272.027L393.361 293.688L286.735 295.938L246.237 257.998C278.573 257.557 387.715 257.072 388.861 257.072C389.126 257.072 389.435 256.983 389.7 256.852L419.653 240.927L419.698 240.97ZM421.727 237.882L388.905 255.308C388.905 255.308 267.368 255.837 241.868 256.278L286.072 297.658L394.111 295.408L418.815 272.865L421.727 237.882Z" fill="black"/>
<path d="M314.527 334.803L431.697 334.98L456.005 311.775L456.359 276.748L426.095 294.217C426.095 294.217 304.557 294.747 279.059 295.188L314.484 334.76L314.527 334.803Z" fill="#2760AD"/>
<path d="M454.593 279.835L454.24 311.025L430.992 333.215L315.32 333.038L282.985 296.908C314.658 296.467 424.948 295.982 426.095 295.982C426.403 295.982 426.712 295.893 426.977 295.762L454.593 279.835ZM456.402 276.748L426.138 294.217C426.138 294.217 304.6 294.747 279.102 295.188L314.527 334.76L431.697 334.937L456.005 311.732L456.358 276.703L456.402 276.748Z" fill="black"/>
<path d="M426.845 335.068L456.535 334.892L456.666 327.79L441.181 327.877C445.946 322.055 456.666 311.422 456.666 311.422L456.535 276.703L441.358 285.703L426.845 335.068Z" fill="black"/>
<path d="M434.255 332.422C436.058 332.422 437.52 330.96 437.52 329.157C437.52 327.353 436.058 325.892 434.255 325.892C432.453 325.892 430.991 327.353 430.991 329.157C430.991 330.96 432.453 332.422 434.255 332.422Z" fill="#2760AD"/>
<path d="M451.152 316.937L449.389 318.79L449.74 280.585L451.505 279.527L451.152 316.937Z" fill="white"/>
<path d="M391.905 295.762L421.595 295.585L421.815 289.057L406.332 289.145C411.095 283.322 421.815 272.688 421.815 272.688L421.684 237.97L406.507 246.97L391.905 295.717V295.762Z" fill="black"/>
<path d="M399.405 293.732C401.208 293.732 402.67 292.27 402.67 290.467C402.67 288.665 401.208 287.203 399.405 287.203C397.601 287.203 396.14 288.665 396.14 290.467C396.14 292.27 397.601 293.732 399.405 293.732Z" fill="#2760AD"/>
<path d="M416.302 278.248L414.537 280.1L414.934 241.5L416.699 240.528L416.302 278.248Z" fill="white"/>
<path d="M129.198 197.34C129.198 189.835 123.115 183.752 115.611 183.752C108.107 183.752 102.023 189.835 102.023 197.34C102.023 204.843 108.107 210.927 115.611 210.927C123.115 210.927 129.198 204.843 129.198 197.34Z" fill="black"/>
<path d="M146.976 441.253L179.931 270.263L119.537 227.912C119.537 227.912 111.375 222.662 107.008 225.573C30.4233 276.307 2.71885 442.798 147.02 441.253H146.976Z" fill="#7AB9A3"/>
<path d="M144.992 442.137C118.522 442.137 96.597 436.445 79.789 425.152C64.3045 414.785 53.5403 400.007 47.8053 381.302C43.835 368.42 42.4233 354.127 43.6145 338.818C44.7173 324.215 48.1141 309.393 53.6726 294.747C64.9663 265.102 84.2446 239.602 106.523 224.823C111.332 221.647 119.669 226.942 120.022 227.162L180.46 269.513C180.725 269.733 180.902 270.042 180.814 270.395L147.859 441.387C147.771 441.783 147.418 442.092 147.021 442.092C146.359 442.092 145.653 442.092 144.992 442.092V442.137ZM110.273 225.573C109.258 225.573 108.288 225.795 107.493 226.28C60.8195 257.16 33.7325 329.377 49.4818 380.772C61.393 419.55 95.7588 440.68 146.271 440.372L178.96 270.66L119.052 228.618C117.464 227.603 113.493 225.573 110.273 225.573Z" fill="black"/>
<path d="M181.475 211.677H294.852V396.035H181.475C175.21 396.035 170.137 390.963 170.137 384.698V223.015C170.137 216.75 175.21 211.677 181.475 211.677Z" fill="#8CABD8"/>
<path d="M293.616 211.502L293.748 395.903L353.833 358.758C353.878 358.758 353.921 358.713 353.965 358.67C360.538 354.523 365.788 345.743 365.788 338.995L365.656 179.297C365.656 172.458 360.275 170.253 353.701 174.355L293.571 211.502H293.616Z" fill="#8CABD8"/>
<path d="M293.44 220.987L295.16 384.433L347.702 352.23C347.702 352.23 347.79 352.185 347.834 352.142C353.569 348.568 358.114 340.847 358.069 334.848L356.569 193.325C356.525 187.282 351.76 185.252 345.982 188.782L293.44 220.987Z" fill="white"/>
<path d="M217.737 278.203H196.562C194.198 278.203 192.283 280.12 192.283 282.483V325.23C192.283 327.593 194.198 329.51 196.562 329.51H217.737C220.1 329.51 222.017 327.593 222.017 325.23V282.483C222.017 280.12 220.1 278.203 217.737 278.203Z" fill="white"/>
<path d="M265.692 236.778H240.59C239.005 236.778 237.722 238.063 237.722 239.647V365.112C237.722 366.695 239.005 367.978 240.59 367.978H265.692C267.275 367.978 268.558 366.695 268.558 365.112V239.647C268.558 238.063 267.275 236.778 265.692 236.778Z" fill="white"/>
<path d="M342.275 324.348C341.702 324.702 341.262 324.525 341.217 323.952L341.085 317.157C341.085 316.583 341.525 315.833 342.098 315.482L348.76 311.29C349.333 310.937 349.775 311.113 349.82 311.687L349.952 318.48C349.952 319.055 349.51 319.805 348.937 320.157L342.275 324.348ZM348.717 309.967L342.055 314.157C340.775 314.952 339.762 316.672 339.805 317.952L339.937 324.745C339.937 326.025 341.04 326.465 342.32 325.672L348.982 321.48C350.26 320.687 351.275 318.967 351.232 317.687L351.098 310.893C351.098 309.613 349.995 309.172 348.717 309.967Z" fill="black"/>
<path d="M340.687 333.437C340.51 333.525 340.378 333.7 340.245 333.922C339.982 334.318 340.025 334.76 340.245 334.848L349.378 338.51C349.51 338.553 349.687 338.51 349.863 338.422C350.04 338.333 350.172 338.157 350.303 337.935C350.568 337.538 350.568 337.098 350.303 337.01L341.172 333.348C341.04 333.303 340.863 333.348 340.687 333.437Z" fill="black"/>
<path d="M349.555 327.833C349.379 327.922 349.202 328.098 349.114 328.318L340.379 343.142C340.114 343.538 340.159 343.98 340.379 344.068C340.51 344.112 340.687 344.068 340.82 343.98C340.952 343.892 341.174 343.715 341.26 343.495L349.995 328.672C350.26 328.275 350.217 327.833 349.995 327.745C349.864 327.702 349.687 327.745 349.555 327.833Z" fill="black"/>
<path d="M189.68 278.248C190.475 275.513 189.195 273.438 184.871 272.337C174.725 269.69 173.358 269.028 168.24 267.483L191.975 268.587C195.548 268.94 197.445 266.557 197.445 264.13C197.445 261.66 195.503 259.895 191.93 259.72L168.681 257.867L193.121 258.352C195.988 258.572 198.195 256.147 198.061 253.675C197.973 251.248 195.548 249.352 192.725 249.485L169.343 247.985L191.71 248.162C194.445 248.205 195.768 246.617 195.988 244.235C196.21 241.897 194.621 239.867 192.46 239.647C188.49 239.293 157.476 236.382 140.227 234.793C134.006 234.22 128.58 239.073 128.536 245.338C128.536 248.293 128.492 250.985 128.536 252.308C128.668 258.837 130.036 264.968 136.212 269.16C146.182 275.953 171.24 279.395 181.475 280.718C186.591 281.38 188.886 280.983 189.68 278.248Z" fill="white"/>
<path d="M139.212 236.47C139.477 236.47 139.786 236.47 140.05 236.47C157.299 238.058 188.313 240.97 192.283 241.323C193.475 241.455 194.356 242.647 194.225 244.013C194.048 246.043 192.9 246.308 191.841 246.308H191.71L169.343 246.132C168.373 246.132 167.623 246.882 167.578 247.852C167.578 248.823 168.285 249.617 169.21 249.662L192.591 251.16C192.591 251.16 192.68 251.16 192.725 251.16C192.768 251.16 192.768 251.16 192.813 251.16C192.856 251.16 192.945 251.16 192.988 251.16C194.753 251.16 196.253 252.308 196.298 253.675C196.298 254.337 196.033 255.087 195.503 255.617C194.975 256.19 194.225 256.498 193.475 256.498C192.725 256.498 193.341 256.498 193.253 256.498C193.253 256.498 193.21 256.498 193.165 256.498L168.725 256.013C167.798 256.013 167.005 256.763 166.961 257.69C166.916 258.66 167.623 259.455 168.593 259.543L191.841 261.395C191.841 261.395 191.841 261.395 191.886 261.395C193.298 261.483 195.723 261.925 195.723 264.043C195.723 264.792 195.46 265.455 194.975 265.94C194.445 266.468 193.65 266.733 192.725 266.733C191.798 266.733 192.371 266.733 192.195 266.733C192.195 266.733 192.15 266.733 192.106 266.733L168.373 265.63C168.373 265.63 168.328 265.63 168.285 265.63C167.446 265.63 166.696 266.248 166.564 267.087C166.431 267.968 166.916 268.807 167.798 269.072C168.99 269.425 170.005 269.778 170.975 270.087C174.063 271.057 176.755 271.938 184.518 273.968C186.901 274.587 187.74 275.38 188.048 275.91C188.136 276.087 188.445 276.572 188.091 277.673C187.871 278.38 187.651 279.13 185.091 279.13C182.533 279.13 183.151 279.042 181.783 278.865C158.888 275.91 143.932 272.115 137.271 267.572C131.404 263.602 130.477 257.778 130.345 252.132C130.345 250.985 130.345 248.69 130.345 245.25C130.389 240.397 134.403 236.427 139.256 236.427L139.212 236.47ZM139.212 234.705C133.433 234.705 128.58 239.382 128.536 245.293C128.536 248.25 128.492 250.94 128.536 252.263C128.668 258.793 130.036 264.925 136.212 269.115C146.182 275.91 171.24 279.35 181.475 280.673C182.841 280.85 184.033 280.938 185.003 280.938C187.695 280.938 189.106 280.188 189.68 278.203C190.475 275.468 189.195 273.395 184.871 272.292C174.725 269.645 173.358 268.983 168.24 267.44L191.975 268.542C192.195 268.542 192.46 268.542 192.68 268.542C195.811 268.542 197.445 266.337 197.445 264.043C197.445 261.572 195.503 259.807 191.93 259.632L168.681 257.778L193.121 258.263C193.253 258.263 193.341 258.263 193.475 258.263C196.165 258.263 198.15 255.925 198.061 253.587C197.973 251.205 195.723 249.397 192.988 249.397C192.9 249.397 192.813 249.397 192.725 249.397L169.343 247.897L191.71 248.073C191.71 248.073 191.798 248.073 191.841 248.073C194.488 248.073 195.768 246.485 195.988 244.147C196.21 241.808 194.621 239.778 192.46 239.558C188.49 239.205 157.476 236.293 140.227 234.705C139.874 234.705 139.565 234.662 139.212 234.662V234.705Z" fill="black"/>
<path d="M153.019 237.992C155.004 234.553 154.527 230.56 151.953 229.073C149.379 227.588 145.682 229.172 143.697 232.61C141.711 236.05 142.188 240.043 144.762 241.528C147.336 243.015 151.033 241.432 153.019 237.992Z" fill="white"/>
<path d="M149.756 230.293C150.109 230.293 150.462 230.382 150.771 230.515C151.565 230.868 151.962 231.573 152.182 232.058C152.668 233.338 152.491 235.058 151.741 236.647C150.683 238.808 148.697 240.308 146.933 240.308C145.168 240.308 146.227 240.22 145.918 240.088C145.124 239.735 144.727 239.028 144.506 238.543C144.021 237.265 144.198 235.543 144.948 233.955C146.006 231.793 147.991 230.293 149.756 230.293ZM149.756 228.53C147.33 228.53 144.727 230.338 143.359 233.205C141.639 236.778 142.477 240.573 145.212 241.763C145.742 241.985 146.315 242.117 146.933 242.117C149.359 242.117 151.962 240.308 153.329 237.44C155.05 233.867 154.212 230.073 151.477 228.882C150.947 228.662 150.374 228.53 149.756 228.53Z" fill="black"/>
<path d="M129.507 248.558C142.371 248.558 152.8 238.13 152.8 225.265C152.8 212.4 142.371 201.972 129.507 201.972C116.643 201.972 106.214 212.4 106.214 225.265C106.214 238.13 116.643 248.558 129.507 248.558Z" fill="white"/>
<path d="M129.462 203.737C137.359 203.737 144.594 208.017 148.388 214.942C154.079 225.353 150.241 238.455 139.829 244.19C136.653 245.912 133.08 246.837 129.506 246.837C121.61 246.837 114.375 242.558 110.581 235.632C104.89 225.222 108.728 212.118 119.139 206.383C122.316 204.663 125.889 203.737 129.462 203.737ZM129.462 201.972C125.668 201.972 121.83 202.898 118.301 204.84C107.007 211.015 102.861 225.177 109.037 236.47C113.272 244.19 121.257 248.602 129.506 248.602C137.756 248.602 137.138 247.675 140.668 245.735C151.961 239.558 156.108 225.397 149.932 214.103C145.697 206.383 137.712 201.972 129.462 201.972Z" fill="black"/>
<path d="M111.949 210.927C117.949 203.605 128.096 201.133 134.228 202.59C144.727 205.105 150.33 215.737 150.903 219.045L111.949 210.927Z" fill="black"/>
<path d="M140.889 238.985C140.845 238.985 140.757 238.985 140.713 238.985L133.742 237.573C133.257 237.485 132.948 237 133.036 236.515C133.125 236.028 133.61 235.72 134.095 235.808L138.948 236.823C138.066 234.927 137.36 231.662 138.948 226.633C139.08 226.147 139.61 225.927 140.051 226.058C140.536 226.192 140.757 226.72 140.624 227.162C138.286 234.397 141.286 237.353 141.418 237.485C141.727 237.75 141.771 238.19 141.595 238.543C141.462 238.853 141.154 239.028 140.801 239.028L140.889 238.985Z" fill="black"/>
<path d="M149.24 229.628C149.652 228.048 149.412 226.618 148.705 226.435C147.997 226.25 147.09 227.382 146.679 228.962C146.267 230.54 146.507 231.97 147.214 232.155C147.922 232.338 148.829 231.208 149.24 229.628Z" fill="black"/>
<path d="M134.533 225.803C134.945 224.223 134.705 222.793 133.997 222.608C133.29 222.425 132.383 223.557 131.972 225.135C131.56 226.715 131.8 228.145 132.507 228.33C133.215 228.513 134.122 227.382 134.533 225.803Z" fill="black"/>
<path d="M113.216 219.765C114.271 215.935 112.803 212.192 109.937 211.403C107.071 210.613 103.893 213.077 102.839 216.907C101.784 220.735 103.252 224.478 106.118 225.268C108.984 226.057 112.162 223.593 113.216 219.765Z" fill="white"/>
<path d="M107.229 226.368C106.567 226.368 105.905 226.235 105.332 225.972C102.156 224.648 100.744 220.192 102.2 216.045C103.038 213.663 104.626 211.853 106.567 210.972C107.979 210.353 109.435 210.31 110.758 210.84C113.934 212.163 115.346 216.618 113.89 220.765C113.052 223.148 111.464 224.957 109.523 225.838C108.773 226.192 107.979 226.323 107.229 226.323V226.368ZM108.861 212.252C108.332 212.252 107.847 212.383 107.317 212.603C105.861 213.265 104.582 214.765 103.92 216.663C102.773 219.972 103.7 223.412 106.038 224.383C106.92 224.735 107.891 224.692 108.817 224.295C110.273 223.633 111.552 222.133 112.214 220.237C113.361 216.927 112.435 213.487 110.096 212.515C109.699 212.34 109.302 212.252 108.861 212.252Z" fill="black"/>
<path d="M107.582 221.737C107.184 221.737 106.876 221.515 106.743 221.118C105.817 218.118 107.582 216.265 108.684 215.737C109.126 215.515 109.655 215.692 109.876 216.133C110.096 216.575 109.92 217.103 109.478 217.325C109.302 217.413 107.714 218.338 108.42 220.633C108.552 221.118 108.287 221.603 107.846 221.737C107.758 221.737 107.67 221.737 107.582 221.737Z" fill="black"/>
<path d="M169.344 335.95L128.934 336.922L129.507 265.013C129.507 223.722 89.1858 222.133 88.6565 261.837L87.5977 420.873C91.921 494.105 168.594 494.502 170.005 416.55L169.344 335.95Z" fill="#7AB9A3"/>
<path d="M181.695 283.63C171.46 284.953 146.403 288.438 136.433 295.188C126.684 301.805 128.933 313.098 128.933 323.378V336.922L170.313 337.803L170.225 326.642C170.225 326.642 187.165 325.23 192.725 324.702C194.887 324.48 196.473 322.452 196.253 320.113C196.033 317.775 194.71 316.143 191.975 316.187L169.608 316.363L192.988 314.863C195.812 314.995 198.238 313.098 198.327 310.672C198.415 308.247 196.253 305.775 193.387 305.997L168.947 306.482L192.195 304.628C195.768 304.452 197.71 302.688 197.71 300.217C197.71 297.747 195.857 295.408 192.238 295.762L168.505 296.865C173.578 295.277 174.99 294.658 185.137 292.012C189.46 290.865 190.783 288.835 189.945 286.1C189.152 283.408 186.857 283.012 181.74 283.63H181.695Z" fill="white"/>
<path d="M185.225 285.13C187.783 285.13 188.003 285.88 188.225 286.585C188.533 287.688 188.225 288.173 188.18 288.35C187.872 288.88 186.99 289.673 184.652 290.292C176.887 292.32 174.195 293.203 171.108 294.173C170.137 294.482 169.167 294.79 167.932 295.188C167.093 295.453 166.564 296.29 166.697 297.173C166.828 298.012 167.578 298.628 168.417 298.628C169.255 298.628 168.46 298.628 168.505 298.628L192.238 297.527C192.238 297.527 192.283 297.527 192.327 297.527C192.503 297.527 192.68 297.527 192.857 297.527C193.827 297.527 194.577 297.79 195.107 298.32C195.592 298.805 195.857 299.512 195.857 300.217C195.857 302.335 193.43 302.775 192.018 302.863C192.018 302.863 192.018 302.863 191.975 302.863L168.725 304.717C167.755 304.805 167.048 305.598 167.093 306.57C167.137 307.497 167.932 308.247 168.858 308.247L193.298 307.76C193.298 307.76 193.342 307.76 193.387 307.76C193.475 307.76 193.518 307.76 193.607 307.76C194.357 307.76 195.107 308.07 195.637 308.643C196.165 309.172 196.43 309.922 196.43 310.583C196.387 311.995 194.887 313.098 193.122 313.098C191.357 313.098 192.988 313.098 192.945 313.098C192.945 313.098 192.9 313.098 192.857 313.098C192.857 313.098 192.768 313.098 192.725 313.098L169.343 314.598C168.373 314.643 167.667 315.482 167.71 316.407C167.71 317.378 168.505 318.128 169.475 318.128L191.887 317.952H191.975C193.077 317.952 194.18 318.217 194.357 320.245C194.488 321.613 193.607 322.803 192.415 322.937C186.945 323.465 170.137 324.878 169.96 324.878C169.035 324.965 168.328 325.715 168.328 326.642L168.417 335.995L130.61 335.2V323.378C130.61 321.745 130.566 320.025 130.477 318.437C130.169 309.833 129.904 301.717 137.315 296.688C143.977 292.143 158.932 288.35 181.828 285.395C183.195 285.218 184.298 285.13 185.137 285.13H185.225ZM185.225 283.365C184.253 283.365 183.063 283.453 181.695 283.63C171.46 284.953 146.403 288.438 136.433 295.188C126.684 301.805 128.933 313.098 128.933 323.378V336.922L170.313 337.803L170.225 326.642C170.225 326.642 187.165 325.23 192.725 324.702C194.887 324.48 196.473 322.452 196.253 320.113C196.077 317.818 194.753 316.187 192.107 316.187C192.107 316.187 192.018 316.187 191.975 316.187L169.608 316.363L192.988 314.863C193.077 314.863 193.165 314.863 193.253 314.863C195.988 314.863 198.238 313.01 198.327 310.672C198.415 308.335 196.43 305.997 193.738 305.997C193.607 305.997 193.518 305.997 193.387 305.997L168.947 306.482L192.195 304.628C195.768 304.452 197.71 302.687 197.71 300.217C197.71 297.923 196.077 295.717 192.945 295.717C192.725 295.717 192.503 295.717 192.238 295.717L168.505 296.82C173.578 295.232 174.99 294.615 185.137 291.967C189.46 290.82 190.783 288.792 189.945 286.057C189.372 284.07 187.96 283.32 185.268 283.32L185.225 283.365Z" fill="black"/>
<path d="M138.55 356.465C140.134 356.465 141.418 355.18 141.418 353.597C141.418 352.013 140.134 350.73 138.55 350.73C136.966 350.73 135.683 352.013 135.683 353.597C135.683 355.18 136.966 356.465 138.55 356.465Z" fill="white"/>
<path d="M129.11 476.282C110.14 476.282 88.9647 459.077 86.7148 420.917C86.7148 420.917 86.7148 420.917 86.7148 420.873L87.7737 261.837C87.3325 249.132 91.6117 239.117 99.5083 234.397C105.067 231.043 111.772 231 117.419 234.308C125.801 239.162 130.433 250.058 130.169 264.175L131.007 418.623C131.007 419.108 130.61 419.505 130.124 419.505C129.639 419.505 129.242 419.108 129.242 418.623L128.404 264.13C128.669 250.675 124.345 240.352 116.537 235.808C111.464 232.853 105.464 232.897 100.435 235.897C93.1115 240.265 89.1412 249.705 89.5382 261.793L88.4795 420.828C90.6852 458.238 111.42 474.87 129.727 474.517C139.874 474.297 149.359 469.135 156.373 459.915C164.358 449.46 168.77 434.417 169.122 416.505L168.682 337.495C168.682 337.01 169.078 336.612 169.563 336.612C170.048 336.612 170.447 337.01 170.447 337.495L170.887 416.505C170.533 434.857 166.034 450.21 157.785 460.973C150.418 470.592 140.447 476.017 129.772 476.238C129.551 476.238 129.33 476.238 129.11 476.238V476.282Z" fill="black"/>
<path d="M170.313 331.275H128.845V344.907H170.313V331.275Z" fill="black"/>
<path d="M168.548 333.038V343.142H130.609V333.038H168.548ZM170.313 331.275H128.845V344.907H170.313V331.275Z" fill="black"/>
<path d="M138.55 341.773C140.134 341.773 141.418 340.49 141.418 338.907C141.418 337.323 140.134 336.038 138.55 336.038C136.966 336.038 135.683 337.323 135.683 338.907C135.683 340.49 136.966 341.773 138.55 341.773Z" fill="white"/>
<path d="M88.5674 330.965H45.0254V332.73H88.5674V330.965Z" fill="black"/>
<path d="M88.5674 343.142H45.0254V344.907H88.5674V343.142Z" fill="black"/>
<path d="M254.134 160.989C291.557 160.989 321.895 130.651 321.895 93.2275C321.895 55.804 291.557 25.4662 254.134 25.4662C216.71 25.4662 186.372 55.804 186.372 93.2275C186.372 130.651 216.71 160.989 254.134 160.989Z" fill="white"/>
<path d="M254.133 25.4662C291.543 25.4662 321.895 55.8618 321.895 93.2717C321.895 130.681 291.543 161.033 254.133 161.033C216.723 161.033 186.371 130.637 186.371 93.2275C186.371 55.8177 216.723 25.4662 254.133 25.4662ZM254.133 23.7017C235.56 23.7017 218.09 30.9365 204.988 44.0388C191.841 57.1852 184.606 74.6108 184.606 93.1833C184.606 111.756 191.841 129.226 204.945 142.372C218.09 155.518 235.516 162.753 254.088 162.753C272.661 162.753 290.131 155.518 303.233 142.416C316.38 129.27 323.615 111.844 323.615 93.2717C323.615 74.699 316.38 57.2293 303.278 44.083C290.131 30.9365 272.705 23.7017 254.133 23.7017Z" fill="black"/>
<path d="M254.839 93.801C254.574 93.801 254.354 93.7128 254.177 93.4922L230.619 66.9788C230.31 66.6258 230.31 66.0523 230.707 65.7435C231.06 65.4348 231.634 65.4348 231.944 65.8318L254.839 91.6393L285.145 58.5087C285.455 58.1557 286.029 58.1117 286.382 58.4645C286.734 58.7733 286.779 59.3468 286.425 59.6998L255.457 93.5803C255.28 93.7568 255.059 93.8892 254.795 93.8892L254.839 93.801Z" fill="#2760AD"/>
<path d="M254.133 24.584C254.618 24.584 255.015 24.981 255.015 25.4663V45.3623C255.015 45.8475 254.618 46.2446 254.133 46.2446C253.648 46.2446 253.25 45.8475 253.25 45.3623V25.4663C253.25 24.981 253.648 24.584 254.133 24.584Z" fill="black"/>
<path d="M254.089 140.255C254.574 140.255 254.972 140.652 254.972 141.137V161.033C254.972 161.518 254.574 161.915 254.089 161.915C253.604 161.915 253.207 161.518 253.207 161.033V141.137C253.207 140.652 253.604 140.255 254.089 140.255Z" fill="black"/>
<path d="M321.894 94.154H301.999C301.514 94.154 301.115 93.7568 301.115 93.2717C301.115 92.7863 301.514 92.3893 301.999 92.3893H321.894C322.38 92.3893 322.777 92.7863 322.777 93.2717C322.777 93.7568 322.38 94.154 321.894 94.154Z" fill="black"/>
<path d="M206.224 94.1098H186.327C185.842 94.1098 185.445 93.7128 185.445 93.2275C185.445 92.7423 185.842 92.3453 186.327 92.3453H206.224C206.709 92.3453 207.105 92.7423 207.105 93.2275C207.105 93.7128 206.709 94.1098 206.224 94.1098Z" fill="black"/>
<path d="M286.294 149.21C285.984 149.21 285.675 149.033 285.544 148.769L280.337 139.769C280.072 139.328 280.249 138.799 280.647 138.578C281.087 138.313 281.617 138.49 281.837 138.887L287.044 147.886C287.307 148.328 287.132 148.857 286.734 149.078C286.602 149.166 286.425 149.21 286.294 149.21Z" fill="#2760AD"/>
<path d="M227.09 46.6858C226.781 46.6858 226.473 46.5093 226.34 46.2447L221.135 37.2452C220.87 36.804 221.046 36.2745 221.443 36.054C221.885 35.7893 222.413 35.9658 222.635 36.3628L227.84 45.3623C228.105 45.8035 227.928 46.3328 227.531 46.5535C227.398 46.6417 227.223 46.6858 227.09 46.6858Z" fill="#2760AD"/>
<path d="M309.85 125.652C309.718 125.652 309.542 125.652 309.408 125.52L300.41 120.315C299.968 120.05 299.837 119.52 300.1 119.123C300.365 118.682 300.895 118.55 301.292 118.815L310.292 124.02C310.733 124.285 310.865 124.814 310.6 125.211C310.423 125.476 310.158 125.652 309.85 125.652Z" fill="#2760AD"/>
<path d="M207.282 66.4493C207.15 66.4493 206.974 66.4493 206.842 66.317L197.842 61.1115C197.4 60.8468 197.269 60.3173 197.534 59.9203C197.799 59.4792 198.327 59.3468 198.724 59.6115L207.724 64.8172C208.165 65.0818 208.297 65.6112 208.032 66.0083C207.857 66.273 207.592 66.4493 207.282 66.4493Z" fill="#2760AD"/>
<path d="M281.087 46.6858C280.955 46.6858 280.779 46.6858 280.647 46.5535C280.205 46.2887 280.074 45.7593 280.337 45.3623L285.544 36.3628C285.809 35.9217 286.337 35.7892 286.734 36.054C287.175 36.3187 287.309 36.848 287.044 37.245L281.837 46.2447C281.66 46.5093 281.397 46.6858 281.087 46.6858Z" fill="#2760AD"/>
<path d="M221.885 149.21C221.752 149.21 221.575 149.21 221.444 149.078C221.002 148.813 220.87 148.284 221.135 147.887L226.34 138.887C226.605 138.446 227.135 138.314 227.532 138.578C227.974 138.843 228.105 139.372 227.84 139.769L222.635 148.769C222.459 149.034 222.194 149.21 221.885 149.21Z" fill="#2760AD"/>
<path d="M300.852 66.4495C300.542 66.4495 300.233 66.273 300.102 66.0083C299.837 65.5672 300.013 65.0378 300.41 64.8172L309.41 59.6115C309.85 59.3468 310.38 59.5233 310.6 59.9203C310.865 60.3615 310.688 60.891 310.292 61.1115L301.292 66.3172C301.16 66.4053 300.983 66.4495 300.852 66.4495Z" fill="#2760AD"/>
<path d="M198.283 125.652C197.973 125.652 197.665 125.476 197.533 125.211C197.268 124.77 197.445 124.241 197.842 124.02L206.842 118.814C207.282 118.55 207.812 118.726 208.032 119.123C208.297 119.564 208.12 120.094 207.723 120.314L198.723 125.52C198.592 125.608 198.415 125.652 198.283 125.652Z" fill="#2760AD"/>
<path d="M289.425 53.7443L279.278 57.3177L287.44 64.332L289.425 53.7443Z" fill="#2760AD"/>
<path d="M226.958 62.3908L228.721 69.0523L233.575 64.1995L226.958 62.3908Z" fill="#2760AD"/>
<path d="M254.707 96.7567C256.68 96.7567 258.28 95.1568 258.28 93.1833C258.28 91.2098 256.68 89.61 254.707 89.61C252.734 89.61 251.134 91.2098 251.134 93.1833C251.134 95.1568 252.734 96.7567 254.707 96.7567Z" fill="#2760AD"/>
</svg>
