<svg width="48" height="48" viewBox="0 0 48 48" fill="none" xmlns="http://www.w3.org/2000/svg">
<path d="M24 4.0957C22.7957 4.0957 21.5928 4.48742 20.5977 5.27148L6.57227 16.3223C6.3277 16.5153 6.1493 16.7797 6.06183 17.0787C5.97436 17.3777 5.98216 17.6966 6.08416 17.991C6.18615 18.2853 6.37728 18.5407 6.631 18.7215C6.88472 18.9023 7.18844 18.9997 7.5 19H40.5C40.8116 18.9997 41.1153 18.9023 41.369 18.7215C41.6227 18.5407 41.8138 18.2853 41.9158 17.991C42.0178 17.6966 42.0256 17.3777 41.9382 17.0787C41.8507 16.7797 41.6723 16.5153 41.4277 16.3223L27.4043 5.27148C26.4091 4.48742 25.2043 4.0957 24 4.0957ZM24 7.08789C24.5452 7.08789 25.09 7.26897 25.5469 7.62891L36.1738 16H11.8262L22.4531 7.62891C22.91 7.26897 23.4548 7.08789 24 7.08789ZM24 10C23.4696 10 22.9609 10.2107 22.5858 10.5858C22.2107 10.9609 22 11.4696 22 12C22 12.5304 22.2107 13.0391 22.5858 13.4142C22.9609 13.7893 23.4696 14 24 14C24.5304 14 25.0391 13.7893 25.4142 13.4142C25.7893 13.0391 26 12.5304 26 12C26 11.4696 25.7893 10.9609 25.4142 10.5858C25.0391 10.2107 24.5304 10 24 10ZM9.5 21V34.1211C7.50042 34.5784 6 36.3645 6 38.5C6 40.98 8.02 43 10.5 43H21V40H10.5C9.67 40 9 39.33 9 38.5C9 37.67 9.67 37 10.5 37H21V34H19V21H16V34H12.5V21H9.5ZM22.5 21V28.6406C23.06 28.2306 23.76 28 24.5 28H25.5V21H22.5ZM29 21V28H32V21H29ZM35.5 21V28H38.5V21H35.5ZM25.5 30C24.1364 30 23 31.1364 23 32.5V43.5C23 44.8636 24.1364 46 25.5 46H43.5C44.8636 46 46 44.8636 46 43.5V32.5C46 31.1364 44.8636 30 43.5 30H25.5ZM26 33H43V35H26V33ZM26 38H43V43H26V38Z" fill="#1E2028"/>
</svg>
