<svg width="18" height="18" viewBox="0 0 18 18" fill="none" xmlns="http://www.w3.org/2000/svg">
<path d="M13.8098 16.425L10.6879 15.1594C10.477 15.9047 9.60508 16.3266 8.97227 16.411V16.425C8.87383 16.425 8.70508 16.411 8.69102 16.411C8.08633 16.2985 7.52383 15.8907 7.32695 15.1735L4.20508 16.4391C7.31289 17.4235 10.6879 17.4235 13.8098 16.425Z" fill="white"/>
<path d="M10.6871 14.3438V15.2578C10.1949 16.9453 7.8043 16.9453 7.32617 15.2578V14.3438" fill="#F1F3F4"/>
<path d="M13.542 8.40938C13.542 4.69688 11.6998 2.79844 8.99977 2.79844C6.29977 2.79844 4.45758 4.71094 4.45758 8.40938C3.58571 8.47969 3.78258 10.4625 4.76696 10.35C5.04821 11.1516 5.35758 11.8125 5.68102 12.375C6.79196 14.2734 8.05758 14.8359 8.98571 14.8359C10.181 14.8359 11.9529 13.9078 13.2045 10.3641C14.217 10.4625 14.4138 8.47969 13.542 8.40938Z" fill="#F1F3F4"/>
<path d="M13.5986 8.42344C13.5846 8.42344 13.5705 8.42344 13.5424 8.42344C13.5424 4.71094 11.7002 2.8125 9.0002 2.8125C7.03145 2.8125 5.5127 3.825 4.8377 5.82188C4.59863 6.51094 4.47207 7.3125 4.45801 8.22656C6.3002 3.83906 9.12676 9.71719 13.5986 8.42344Z" fill="#979797"/>
<path d="M12.2485 9.04218C10.7157 9.04218 9.39381 8.35312 8.28287 7.77656C7.32662 7.27031 6.49693 6.84843 5.90631 7.05937C5.51256 7.2 5.16099 7.63593 4.85162 8.38125C4.76724 8.59218 4.51412 8.69062 4.30318 8.60625C4.09224 8.52187 3.99381 8.26875 4.07818 8.05781C4.48599 7.07343 4.99224 6.49687 5.62506 6.25781C6.56724 5.92031 7.55162 6.42656 8.67662 7.01718C10.0547 7.73437 11.6157 8.55 13.4719 8.01562C13.6969 7.94531 13.936 8.07187 13.9922 8.29687C14.0626 8.52187 13.936 8.76093 13.711 8.81718C13.2047 8.97187 12.7126 9.02812 12.2485 9.04218ZM4.21881 16.9453C4.05006 16.9453 3.89537 16.8469 3.82506 16.6781C3.74068 16.4672 3.83912 16.2141 4.05006 16.1297L7.15787 14.8641C7.36881 14.7797 7.62193 14.8781 7.70631 15.0891C7.79068 15.3 7.69224 15.5531 7.48131 15.6375L4.37349 16.9031C4.31724 16.9312 4.26099 16.9453 4.21881 16.9453ZM13.7954 16.9453C13.7391 16.9453 13.6829 16.9312 13.6407 16.9172L10.5329 15.6516C10.3219 15.5672 10.2094 15.3141 10.3079 15.1031C10.3922 14.8922 10.6454 14.7797 10.8563 14.8781L13.9641 16.1437C14.1751 16.2281 14.2876 16.4812 14.1891 16.6922C14.1188 16.8469 13.9501 16.9453 13.7954 16.9453Z" fill="black"/>
<path d="M8.99985 16.9453C8.00142 16.9453 7.18579 16.3266 6.9186 15.3703C6.84829 15.1453 6.98892 14.9063 7.21392 14.85C7.43892 14.7797 7.67798 14.9203 7.73423 15.1453C7.94517 15.8625 8.52173 16.1156 9.01392 16.1156C9.49204 16.1156 10.0827 15.8625 10.2936 15.1453L11.1092 15.3844C10.8139 16.3266 9.99829 16.9453 8.99985 16.9453Z" fill="black"/>
<path d="M4.69719 10.5609C4.41594 10.5609 4.14875 10.4202 3.96594 10.1671C3.67063 9.7593 3.60031 9.09836 3.81125 8.66243C3.93781 8.38118 4.16281 8.22649 4.44406 8.19836C4.55656 8.1843 4.655 8.28274 4.66906 8.39524C4.68313 8.50774 4.58469 8.60618 4.47219 8.62024C4.43 8.62024 4.28938 8.6343 4.19094 8.84524C4.05031 9.14055 4.10656 9.63274 4.30344 9.92805C4.41594 10.0968 4.57063 10.1671 4.73938 10.139C4.85188 10.1249 4.96438 10.2093 4.97844 10.3218C4.9925 10.4343 4.90813 10.5468 4.79563 10.5609C4.7675 10.5609 4.72531 10.5609 4.69719 10.5609ZM13.3034 10.5609C13.2753 10.5609 13.2331 10.5609 13.205 10.5609C13.0925 10.5468 13.0081 10.4484 13.0222 10.3218C13.0363 10.1952 13.1347 10.1249 13.2613 10.139C13.43 10.1671 13.5847 10.0827 13.6972 9.92805C13.9081 9.6468 13.9503 9.15462 13.8097 8.84524C13.7113 8.6343 13.5706 8.6343 13.5284 8.62024C13.4159 8.60618 13.3316 8.50774 13.3316 8.39524C13.3456 8.28274 13.4441 8.19836 13.5566 8.19836C13.8378 8.21243 14.0628 8.38118 14.1894 8.66243C14.4003 9.09836 14.33 9.7593 14.0347 10.1671C13.8519 10.4202 13.5988 10.5609 13.3034 10.5609Z" fill="black"/>
<path d="M13.5421 8.83125C13.303 8.83125 13.1202 8.64844 13.1202 8.40938C13.1202 5.11875 11.6155 3.22031 8.99991 3.22031C7.19991 3.22031 5.92022 4.10625 5.30147 5.77969C5.2171 6.00469 4.97803 6.10313 4.75303 6.03281C4.52803 5.94844 4.4296 5.70938 4.49991 5.48438C5.25928 3.4875 6.84835 2.37656 8.99991 2.37656C12.1077 2.37656 13.964 4.62656 13.964 8.40938C13.964 8.64844 13.7671 8.83125 13.5421 8.83125ZM8.99991 15.2438C8.24053 15.2438 6.74991 14.9203 5.41397 12.7125C5.28741 12.5156 5.35772 12.2484 5.5546 12.1359C5.75147 12.0094 6.01866 12.0797 6.13116 12.2766C7.25616 14.1328 8.40928 14.4 8.99991 14.4C9.70303 14.4 11.4749 13.9922 12.8249 10.2094C12.9093 9.98438 13.1483 9.87188 13.3593 9.95625C13.5843 10.0406 13.6968 10.2797 13.6124 10.4906C12.0937 14.7797 9.88585 15.2438 8.99991 15.2438Z" fill="black"/>
<path d="M4.78125 10.7016C4.66875 10.7016 4.57031 10.6031 4.57031 10.4906V7.91719C4.57031 7.80469 4.66875 7.70625 4.78125 7.70625C4.89375 7.70625 4.99219 7.80469 4.99219 7.91719V10.4906C4.99219 10.6172 4.89375 10.7016 4.78125 10.7016ZM13.2188 10.7016C13.1062 10.7016 13.0078 10.6031 13.0078 10.4906V7.91719C13.0078 7.80469 13.1062 7.70625 13.2188 7.70625C13.3313 7.70625 13.4297 7.80469 13.4297 7.91719V10.4906C13.4297 10.6172 13.3313 10.7016 13.2188 10.7016Z" fill="black"/>
<path d="M13.9079 11.4328L12.7688 11.2359L13.5423 6.75L14.6813 6.94688C15.1735 7.03125 15.497 7.50938 15.4126 8.00156L14.9485 10.6875C14.8642 11.1797 14.4001 11.5172 13.9079 11.4328ZM4.09228 11.4328L5.23134 11.2359L4.4579 6.75L3.31884 6.94688C2.82665 7.03125 2.50321 7.50938 2.58759 8.00156L3.05165 10.6875C3.13603 11.1797 3.60009 11.5172 4.09228 11.4328Z" fill="white"/>
<path d="M14.0621 11.8688C13.9918 11.8688 13.9074 11.8688 13.8371 11.8547L12.7684 11.6719C12.5434 11.6297 12.3887 11.4188 12.4168 11.1938L13.1199 6.69375C13.134 6.58125 13.2043 6.48282 13.2887 6.4125C13.3871 6.34219 13.4996 6.31407 13.6121 6.34219L14.7512 6.53907C15.4684 6.66563 15.9605 7.35469 15.834 8.08594L15.3559 10.7719C15.2574 11.4047 14.709 11.8688 14.0621 11.8688ZM13.3309 10.8984L13.9777 11.0109C14.0059 11.0109 14.034 11.025 14.0621 11.025C14.3012 11.025 14.498 10.8563 14.5402 10.6172L15.0184 7.93125C15.0605 7.66407 14.8918 7.41094 14.6246 7.36875L13.9074 7.24219L13.3309 10.8984ZM3.9371 11.8688C3.29023 11.8688 2.74179 11.4047 2.62929 10.7719L2.15117 8.08594C2.0246 7.36875 2.50273 6.67969 3.21992 6.53907L4.35898 6.34219C4.47148 6.32813 4.58398 6.34219 4.66835 6.4125C4.76679 6.48282 4.82304 6.58125 4.8371 6.67969L5.6246 11.1516C5.66679 11.3766 5.5121 11.6016 5.2871 11.6438L4.14804 11.8406C4.09179 11.8547 4.02148 11.8688 3.9371 11.8688ZM4.10585 7.24219L3.3746 7.36875C3.10742 7.41094 2.93867 7.66407 2.98085 7.93125L3.45898 10.6172C3.50117 10.8563 3.69804 11.025 3.9371 11.025C3.96523 11.025 3.99335 11.025 4.02148 11.0109L4.75273 10.8844L4.10585 7.24219Z" fill="black"/>
<path d="M3.57129 7.14375H3.55723C3.31816 7.12969 3.14941 6.93281 3.14941 6.70781C3.27598 3.52969 5.83535 1.05469 8.99941 1.05469C12.1072 1.05469 14.6666 3.4875 14.8354 6.59531C14.8494 6.83438 14.6666 7.03125 14.4416 7.04531C14.2166 7.05937 14.0057 6.87656 13.9916 6.65156C13.851 3.99375 11.6572 1.9125 8.99941 1.9125C6.29941 1.9125 4.10566 4.03594 3.99316 6.75C3.99316 6.96094 3.79629 7.14375 3.57129 7.14375Z" fill="black"/>
</svg>
