<svg width="48" height="48" viewBox="0 0 48 48" fill="none" xmlns="http://www.w3.org/2000/svg">
<path d="M9.5 9C5.92909 9 3 11.9291 3 15.5V32.5C3 36.0709 5.92909 39 9.5 39H38.5C42.0709 39 45 36.0709 45 32.5V15.5C45 11.9291 42.0709 9 38.5 9H9.5ZM9.5 12H38.5C40.4451 12 42 13.5549 42 15.5V32.5C42 34.4451 40.4451 36 38.5 36H9.5C7.55491 36 6 34.4451 6 32.5V15.5C6 13.5549 7.55491 12 9.5 12ZM11 18C9.895 18 9 18.895 9 20V22C9 23.105 9.895 24 11 24H15C16.105 24 17 23.105 17 22V20C17 18.895 16.105 18 15 18H11ZM10.5 28C10.3012 27.9972 10.1039 28.0339 9.91944 28.108C9.73498 28.1822 9.5671 28.2922 9.42555 28.4318C9.28399 28.5713 9.17159 28.7376 9.09487 28.921C9.01815 29.1044 8.97864 29.3012 8.97864 29.5C8.97864 29.6988 9.01815 29.8956 9.09487 30.079C9.17159 30.2624 9.28399 30.4287 9.42555 30.5682C9.5671 30.7078 9.73498 30.8178 9.91944 30.892C10.1039 30.9661 10.3012 31.0028 10.5 31H13.5C13.6988 31.0028 13.8961 30.9661 14.0806 30.892C14.265 30.8178 14.4329 30.7078 14.5745 30.5682C14.716 30.4287 14.8284 30.2624 14.9051 30.079C14.9819 29.8956 15.0214 29.6988 15.0214 29.5C15.0214 29.3012 14.9819 29.1044 14.9051 28.921C14.8284 28.7376 14.716 28.5713 14.5745 28.4318C14.4329 28.2922 14.265 28.1822 14.0806 28.108C13.8961 28.0339 13.6988 27.9972 13.5 28H10.5ZM18.5 28C18.3012 27.9972 18.1039 28.0339 17.9194 28.108C17.735 28.1822 17.5671 28.2922 17.4255 28.4318C17.284 28.5713 17.1716 28.7376 17.0949 28.921C17.0181 29.1044 16.9786 29.3012 16.9786 29.5C16.9786 29.6988 17.0181 29.8956 17.0949 30.079C17.1716 30.2624 17.284 30.4287 17.4255 30.5682C17.5671 30.7078 17.735 30.8178 17.9194 30.892C18.1039 30.9661 18.3012 31.0028 18.5 31H21.5C21.6988 31.0028 21.8961 30.9661 22.0806 30.892C22.265 30.8178 22.4329 30.7078 22.5745 30.5682C22.716 30.4287 22.8284 30.2624 22.9051 30.079C22.9819 29.8956 23.0214 29.6988 23.0214 29.5C23.0214 29.3012 22.9819 29.1044 22.9051 28.921C22.8284 28.7376 22.716 28.5713 22.5745 28.4318C22.4329 28.2922 22.265 28.1822 22.0806 28.108C21.8961 28.0339 21.6988 27.9972 21.5 28H18.5ZM26.5 28C26.3012 27.9972 26.1039 28.0339 25.9194 28.108C25.735 28.1822 25.5671 28.2922 25.4255 28.4318C25.284 28.5713 25.1716 28.7376 25.0949 28.921C25.0181 29.1044 24.9786 29.3012 24.9786 29.5C24.9786 29.6988 25.0181 29.8956 25.0949 30.079C25.1716 30.2624 25.284 30.4287 25.4255 30.5682C25.5671 30.7078 25.735 30.8178 25.9194 30.892C26.1039 30.9661 26.3012 31.0028 26.5 31H29.5C29.6988 31.0028 29.8961 30.9661 30.0806 30.892C30.265 30.8178 30.4329 30.7078 30.5745 30.5682C30.716 30.4287 30.8284 30.2624 30.9051 30.079C30.9819 29.8956 31.0214 29.6988 31.0214 29.5C31.0214 29.3012 30.9819 29.1044 30.9051 28.921C30.8284 28.7376 30.716 28.5713 30.5745 28.4318C30.4329 28.2922 30.265 28.1822 30.0806 28.108C29.8961 28.0339 29.6988 27.9972 29.5 28H26.5ZM34.5 28C34.3012 27.9972 34.1039 28.0339 33.9194 28.108C33.735 28.1822 33.5671 28.2922 33.4255 28.4318C33.284 28.5713 33.1716 28.7376 33.0949 28.921C33.0181 29.1044 32.9786 29.3012 32.9786 29.5C32.9786 29.6988 33.0181 29.8956 33.0949 30.079C33.1716 30.2624 33.284 30.4287 33.4255 30.5682C33.5671 30.7078 33.735 30.8178 33.9194 30.892C34.1039 30.9661 34.3012 31.0028 34.5 31H37.5C37.6988 31.0028 37.8961 30.9661 38.0806 30.892C38.265 30.8178 38.4329 30.7078 38.5745 30.5682C38.716 30.4287 38.8284 30.2624 38.9051 30.079C38.9819 29.8956 39.0214 29.6988 39.0214 29.5C39.0214 29.3012 38.9819 29.1044 38.9051 28.921C38.8284 28.7376 38.716 28.5713 38.5745 28.4318C38.4329 28.2922 38.265 28.1822 38.0806 28.108C37.8961 28.0339 37.6988 27.9972 37.5 28H34.5Z" fill="#1E2028"/>
</svg>
