<svg width="48" height="48" viewBox="0 0 48 48" fill="none" xmlns="http://www.w3.org/2000/svg">
<path d="M23.9998 2C22.3559 2 21.0016 2.8518 19.9978 4H15.4998C15.2574 4.00003 15.0186 4.0588 14.8038 4.1713C14.5891 4.28379 14.4048 4.44666 14.2668 4.64594C14.1287 4.84522 14.041 5.07499 14.0112 5.31558C13.9814 5.55616 14.0103 5.80038 14.0955 6.02734L16.7088 12.9961C13.8271 15.2969 4.64799 23.5187 5.06033 34.875C5.2453 39.9617 9.47377 44 14.5564 44H33.4431C38.5258 44 42.7543 39.9617 42.9392 34.875C43.3525 23.5187 34.1727 15.2969 31.2908 12.9961L33.9041 6.02734C33.9893 5.80038 34.0182 5.55616 33.9884 5.31558C33.9585 5.07499 33.8709 4.84522 33.7328 4.64594C33.5948 4.44666 33.4105 4.28379 33.1958 4.1713C32.981 4.0588 32.7422 4.00003 32.4998 4H28.0017C26.998 2.8518 25.6437 2 23.9998 2ZM23.9998 5C24.9291 5 25.7089 5.49895 26.1482 6.25391C26.2802 6.48088 26.4694 6.66924 26.697 6.80017C26.9246 6.9311 27.1825 7 27.4451 7H30.3357L28.4607 12H19.5388L17.6638 7H20.5545C20.817 7 21.075 6.9311 21.3026 6.80017C21.5301 6.66924 21.7194 6.48088 21.8513 6.25391C22.2906 5.49895 23.0705 5 23.9998 5ZM19.0388 15H28.9607C29.9418 15.7469 40.3369 23.8905 39.9412 34.7656C39.8142 38.2589 36.9465 41 33.4431 41H14.5564C11.0531 41 8.18541 38.2589 8.05838 34.7656C7.66351 23.8905 18.0578 15.7469 19.0388 15ZM18.9998 20C18.6056 20.0056 18.2295 20.1661 17.9528 20.4468C17.676 20.7275 17.5208 21.1058 17.5208 21.5C17.5208 21.8942 17.676 22.2725 17.9528 22.5532C18.2295 22.8339 18.6056 22.9944 18.9998 23H22.4998C23.6222 23 24.5769 23.6027 25.0916 24.5H18.9998C18.801 24.4972 18.6037 24.5339 18.4192 24.608C18.2348 24.6822 18.0669 24.7922 17.9253 24.9318C17.7838 25.0713 17.6714 25.2376 17.5947 25.421C17.5179 25.6044 17.4784 25.8012 17.4784 26C17.4784 26.1988 17.5179 26.3956 17.5947 26.579C17.6714 26.7624 17.7838 26.9287 17.9253 27.0682C18.0669 27.2078 18.2348 27.3178 18.4192 27.392C18.6037 27.4661 18.801 27.5028 18.9998 27.5H25.0916C24.5769 28.3973 23.6222 29 22.4998 29H18.9998C18.7032 29.0001 18.4133 29.0882 18.1667 29.253C17.9201 29.4178 17.7279 29.6521 17.6144 29.9261C17.5009 30.2001 17.4712 30.5017 17.529 30.7926C17.5868 31.0835 17.7296 31.3507 17.9392 31.5605L23.9392 37.5605C24.0775 37.7045 24.243 37.8194 24.4262 37.8986C24.6094 37.9778 24.8065 38.0196 25.0061 38.0216C25.2057 38.0237 25.4036 37.9859 25.5884 37.9104C25.7731 37.835 25.941 37.7234 26.0821 37.5823C26.2232 37.4412 26.3348 37.2734 26.4102 37.0886C26.4856 36.9038 26.5235 36.7059 26.5214 36.5063C26.5194 36.3068 26.4776 36.1096 26.3984 35.9264C26.3192 35.7432 26.2043 35.5777 26.0603 35.4395L22.6013 31.9805C25.332 31.9317 27.6351 30.039 28.3006 27.5H28.9998C29.1986 27.5028 29.3959 27.4661 29.5803 27.392C29.7648 27.3178 29.9327 27.2078 30.0742 27.0682C30.2158 26.9287 30.3282 26.7624 30.4049 26.579C30.4816 26.3956 30.5211 26.1988 30.5211 26C30.5211 25.8012 30.4816 25.6044 30.4049 25.421C30.3282 25.2376 30.2158 25.0713 30.0742 24.9318C29.9327 24.7922 29.7648 24.6822 29.5803 24.608C29.3959 24.5339 29.1986 24.4972 28.9998 24.5H28.2576C28.0915 23.9717 27.8545 23.4726 27.5721 23H28.9998C29.1986 23.0028 29.3959 22.9661 29.5803 22.892C29.7648 22.8178 29.9327 22.7078 30.0742 22.5682C30.2158 22.4287 30.3282 22.2624 30.4049 22.079C30.4816 21.8956 30.5211 21.6988 30.5211 21.5C30.5211 21.3012 30.4816 21.1044 30.4049 20.921C30.3282 20.7376 30.2158 20.5713 30.0742 20.4318C29.9327 20.2922 29.7648 20.1822 29.5803 20.108C29.3959 20.0339 29.1986 19.9972 28.9998 20H22.4998H18.9998Z" fill="#1E2028"/>
</svg>
