<svg width="18" height="18" viewBox="0 0 18 18" fill="none" xmlns="http://www.w3.org/2000/svg">
<path d="M15.4408 12.6141C15.2018 12.6141 15.0189 12.4312 15.0189 12.1922V8.56406C15.0189 5.24531 12.3189 2.53125 9.0002 2.53125C5.68145 2.53125 2.98145 5.24531 2.98145 8.56406V12.1922C2.98145 12.4312 2.79863 12.6141 2.55957 12.6141C2.32051 12.6141 2.1377 12.4312 2.1377 12.1922V8.56406C2.1377 4.76719 5.21738 1.6875 9.0002 1.6875C12.783 1.6875 15.8627 4.76719 15.8627 8.55V12.1781C15.8627 12.4312 15.6799 12.6141 15.4408 12.6141Z" fill="black"/>
<path d="M5.13281 9.43594H4.48594C2.71406 9.43594 1.26562 10.8844 1.26562 12.6562C1.26562 14.4422 2.71406 15.8906 4.48594 15.8906H5.13281C5.48438 15.8906 5.77969 15.5953 5.77969 15.2437V10.0828C5.77969 9.73125 5.48438 9.43594 5.13281 9.43594ZM12.8672 9.43594H13.5141C15.3 9.43594 16.7344 10.8844 16.7344 12.6562C16.7344 14.4422 15.2859 15.8766 13.5141 15.8766H12.8672C12.5156 15.8766 12.2203 15.5812 12.2203 15.2297V10.0828C12.2203 9.73125 12.5156 9.43594 12.8672 9.43594Z" fill="black"/>
<path d="M13.5145 15.8907H12.8676C12.516 15.8907 12.2207 15.5954 12.2207 15.2438V10.0829C12.2207 9.73135 12.516 9.43604 12.8676 9.43604H13.5145V15.8907ZM5.1332 15.8907H4.48633V9.43604H5.1332C5.48477 9.43604 5.78008 9.73135 5.78008 10.0829V15.2438C5.78008 15.5954 5.48477 15.8907 5.1332 15.8907Z" fill="#A5A4AA"/>
<path d="M13.5145 15.8907H12.8676C12.516 15.8907 12.2207 15.5954 12.2207 15.2438V10.0829C12.2207 9.73135 12.516 9.43604 12.8676 9.43604H13.5145V15.8907ZM5.1332 15.8907H4.48633V9.43604H5.1332C5.48477 9.43604 5.78008 9.73135 5.78008 10.0829V15.2438C5.78008 15.5954 5.48477 15.8907 5.1332 15.8907Z" fill="#EBEBEA"/>
<path d="M5.13281 16.3125H4.48594C2.475 16.3125 0.84375 14.6672 0.84375 12.6562C0.84375 10.6453 2.475 9.01406 4.48594 9.01406H5.13281C5.72344 9.01406 6.20156 9.49219 6.20156 10.0828V15.2437C6.20156 15.8344 5.72344 16.3125 5.13281 16.3125ZM4.48594 9.85781C2.93906 9.85781 1.6875 11.1234 1.6875 12.6562C1.6875 14.1891 2.93906 15.4687 4.48594 15.4687H5.13281C5.25938 15.4687 5.35781 15.3703 5.35781 15.2437V10.0828C5.35781 9.95625 5.25938 9.85781 5.13281 9.85781H4.48594ZM13.5141 16.3125H12.8672C12.2766 16.3125 11.7984 15.8344 11.7984 15.2437V10.0828C11.7984 9.49219 12.2766 9.01406 12.8672 9.01406H13.5141C15.525 9.01406 17.1562 10.6453 17.1562 12.6562C17.1562 14.6672 15.525 16.3125 13.5141 16.3125ZM12.8672 9.85781C12.7406 9.85781 12.6422 9.95625 12.6422 10.0828V15.2437C12.6422 15.3703 12.7406 15.4687 12.8672 15.4687H13.5141C15.0609 15.4687 16.3125 14.2172 16.3125 12.6703C16.3125 11.1234 15.0609 9.87187 13.5141 9.87187L12.8672 9.85781Z" fill="black"/>
</svg>
