<svg width="65" height="64" viewBox="0 0 65 64" fill="none" xmlns="http://www.w3.org/2000/svg">
<path d="M52.4932 15.8626C52.4226 15.184 51.8506 14.6666 51.1666 14.6666H13.8332C13.1492 14.6666 12.5772 15.184 12.5066 15.8626L8.81057 51.588C8.69457 52.712 9.06257 53.84 9.8199 54.68C10.5772 55.5186 11.6599 56 12.7906 56H52.2092C53.3399 56 54.4226 55.5186 55.1799 54.68C55.9372 53.84 56.3052 52.712 56.1892 51.5893L52.4932 15.8626Z" fill="#FCA66C"/>
<path d="M51.1665 17.3333C50.8252 17.3333 50.4838 17.2027 50.2238 16.9427C48.1398 14.86 46.8278 12.0827 46.2478 10.6667H18.7518C18.1705 12.0827 16.8585 14.86 14.7758 16.9427C14.2545 17.464 13.4118 17.464 12.8905 16.9427C12.3692 16.4213 12.3692 15.5787 12.8905 15.0573C15.3065 12.6413 16.5558 8.94933 16.5692 8.912C16.7505 8.36667 17.2585 8 17.8332 8H47.1665C47.7398 8 48.2492 8.36667 48.4305 8.91067C48.4438 8.948 49.7065 12.6547 52.1092 15.0573C52.6305 15.5787 52.6305 16.4213 52.1092 16.9427C51.8492 17.2027 51.5078 17.3333 51.1665 17.3333Z" fill="#324561"/>
<path d="M32.4998 36C27.3545 36 23.1665 31.812 23.1665 26.6667V22.6667C23.1665 21.9294 23.7625 21.3334 24.4998 21.3334C25.2372 21.3334 25.8332 21.9294 25.8332 22.6667V26.6667C25.8332 30.3427 28.8238 33.3334 32.4998 33.3334C36.1758 33.3334 39.1665 30.3427 39.1665 26.6667V22.6667C39.1665 21.9294 39.7625 21.3334 40.4998 21.3334C41.2372 21.3334 41.8332 21.9294 41.8332 22.6667V26.6667C41.8332 31.812 37.6452 36 32.4998 36Z" fill="#324561"/>
</svg>
