<svg width="64" height="64" viewBox="0 0 64 64" fill="none" xmlns="http://www.w3.org/2000/svg">
<g clip-path="url(#clip0_168_5945)">
<path d="M32.0003 62.6667C43.7824 62.6667 53.3337 53.1154 53.3337 41.3333C53.3337 29.5513 43.7824 20 32.0003 20C20.2183 20 10.667 29.5513 10.667 41.3333C10.667 53.1154 20.2183 62.6667 32.0003 62.6667Z" fill="#FFA5A5"/>
<path d="M46.6667 29.3333C45.9293 29.3333 45.3333 28.7373 45.3333 28V16C45.3333 8.648 39.352 2.66667 32 2.66667C24.648 2.66667 18.6667 8.648 18.6667 16V28C18.6667 28.7373 18.0707 29.3333 17.3333 29.3333C16.596 29.3333 16 28.7373 16 28V16C16 7.17733 23.1773 0 32 0C40.8227 0 48 7.17733 48 16V28C48 28.7373 47.404 29.3333 46.6667 29.3333Z" fill="#324561"/>
<path d="M32 51.9999C29.7947 51.9999 28 50.2053 28 47.9999V43.9733C25.868 42.3746 24.8853 39.6706 25.5347 37.0106C26.1173 34.6333 28.0333 32.7373 30.4173 32.1826C32.4507 31.7079 34.5387 32.1693 36.1427 33.4426C37.7467 34.7159 38.6667 36.6213 38.6667 38.6666C38.6667 40.7506 37.6613 42.7199 36 43.9719V47.9999C36 50.2053 34.2053 51.9999 32 51.9999ZM32.008 34.6653C31.684 34.6653 31.3547 34.7026 31.0227 34.7799C29.6307 35.1039 28.4667 36.2559 28.1267 37.6439C27.688 39.4373 28.4253 41.1879 30.004 42.1079C30.4147 42.3466 30.6667 42.7853 30.6667 43.2599V47.9999C30.6667 48.7359 31.264 49.3333 32 49.3333C32.736 49.3333 33.3333 48.7359 33.3333 47.9999V43.2599C33.3333 42.7866 33.5853 42.3466 33.996 42.1079C35.2507 41.3773 36 40.0906 36 38.6666C36 37.4386 35.448 36.2973 34.484 35.5319C33.7653 34.9613 32.9107 34.6653 32.008 34.6653Z" fill="#324561"/>
</g>
<defs>
<clipPath id="clip0_168_5945">
<rect width="64" height="64" fill="white"/>
</clipPath>
</defs>
</svg>
