<svg width="64" height="64" viewBox="0 0 64 64" fill="none" xmlns="http://www.w3.org/2000/svg">
<path d="M32.0003 14.6667C17.3057 14.6667 6.66699 32.1881 6.66699 44.0001C6.66699 58.3414 21.1257 60.0001 32.0003 60.0001C42.875 60.0001 57.3337 58.3414 57.3337 44.0001C57.3337 32.1881 46.695 14.6667 32.0003 14.6667Z" fill="#FCBAD6"/>
<path d="M43.3894 4.21204C43.212 4.09871 38.9787 1.42004 32 1.42004C25.0214 1.42004 20.788 4.09871 20.6107 4.21204C20.0534 4.57204 19.8454 5.28538 20.1214 5.88804L25.604 17.8654L26.8174 17.3107H37.1827L38.396 17.8654L43.8787 5.88804C44.1547 5.28538 43.9467 4.57204 43.3894 4.21204Z" fill="#FCBAD6"/>
<path d="M31.9997 18.6667C27.3397 18.6667 23.6824 17.3053 23.5277 17.248C22.8397 16.988 22.493 16.22 22.7517 15.532C23.0117 14.8413 23.7797 14.492 24.469 14.7533C24.5024 14.764 27.8477 16 31.9997 16C36.1517 16 39.497 14.764 39.529 14.752C40.2197 14.4907 40.9864 14.84 41.2464 15.5307C41.505 16.2187 41.1584 16.9867 40.4704 17.2467C40.317 17.3053 36.6597 18.6667 31.9997 18.6667Z" fill="#324561"/>
<path d="M22.376 38.6653C22.376 31.6147 26.3453 27.0707 32.4933 27.0707C36.5853 27.0707 39.916 29.1707 41.24 32.5173C41.396 32.9067 41.4746 33.296 41.4746 33.6227C41.4746 34.4013 40.976 34.8987 40.2133 34.8987C39.528 34.8987 39.0466 34.5253 38.736 33.732C37.6773 31.0867 35.264 29.6533 32.4946 29.6533C28.1053 29.6533 25.256 33.2013 25.256 38.6653C25.256 44.1747 28.0733 47.6933 32.5093 47.6933C35.4346 47.6933 37.7386 46.4627 38.7973 43.9427C39.0933 43.2573 39.4826 42.9627 40.104 42.9627C40.8506 42.9627 41.38 43.4907 41.38 44.2227C41.38 44.7053 41.2546 45.1253 41.0066 45.624C39.528 48.596 36.6013 50.2773 32.4933 50.2773C26.2986 50.276 22.376 45.7773 22.376 38.6653Z" fill="#324561"/>
<path d="M33.7333 42.6667H21.3333C20.596 42.6667 20 42.0707 20 41.3333C20 40.596 20.596 40 21.3333 40H33.7333C34.4707 40 35.0667 40.596 35.0667 41.3333C35.0667 42.0707 34.4707 42.6667 33.7333 42.6667Z" fill="#324561"/>
<path d="M33.7333 37.3333H21.3333C20.596 37.3333 20 36.7373 20 36C20 35.2626 20.596 34.6666 21.3333 34.6666H33.7333C34.4707 34.6666 35.0667 35.2626 35.0667 36C35.0667 36.7373 34.4707 37.3333 33.7333 37.3333Z" fill="#324561"/>
</svg>
