<svg width="65" height="64" viewBox="0 0 65 64" fill="none" xmlns="http://www.w3.org/2000/svg">
<path d="M59.4495 24.18L36.0735 3.99063C34.0375 2.23196 30.9641 2.23196 28.9281 3.99063L5.5508 24.18C4.61347 24.9893 4.2868 26.2626 4.71747 27.424C5.14947 28.584 6.22947 29.3333 7.46814 29.3333H9.83347V50.6666C9.83347 54.3426 12.8241 57.3333 16.5001 57.3333H48.5001C52.1761 57.3333 55.1668 54.3426 55.1668 50.6666V29.3333H57.5321C58.7708 29.3333 59.8495 28.584 60.2815 27.4226C60.7135 26.2626 60.3868 24.9893 59.4495 24.18Z" fill="#12D9E3"/>
<path d="M39.1667 58.6667C38.4293 58.6667 37.8333 58.0693 37.8333 57.3333V44C37.8333 43.2653 37.236 42.6667 36.5 42.6667H28.5C27.764 42.6667 27.1667 43.2653 27.1667 44V57.3333C27.1667 58.0693 26.5707 58.6667 25.8333 58.6667C25.096 58.6667 24.5 58.0693 24.5 57.3333V44C24.5 41.7947 26.2947 40 28.5 40H36.5C38.7053 40 40.5 41.7947 40.5 44V57.3333C40.5 58.0693 39.904 58.6667 39.1667 58.6667Z" fill="#324561"/>
<path d="M49.8335 29.3333H15.1668C14.4295 29.3333 13.8335 28.736 13.8335 28C13.8335 27.264 14.4295 26.6666 15.1668 26.6666H49.8335C50.5708 26.6666 51.1668 27.264 51.1668 28C51.1668 28.736 50.5708 29.3333 49.8335 29.3333Z" fill="#324561"/>
<path d="M51.1665 20.304C50.4292 20.304 49.8332 19.7067 49.8332 18.9707V6.66667H45.8332V14.5453C45.8332 15.2813 45.2372 15.8787 44.4998 15.8787C43.7625 15.8787 43.1665 15.2813 43.1665 14.5453V6.66667C43.1665 5.196 44.3625 4 45.8332 4H49.8332C51.3038 4 52.4998 5.196 52.4998 6.66667V18.9707C52.4998 19.7067 51.9038 20.304 51.1665 20.304Z" fill="#324561"/>
</svg>
