<svg width="64" height="64" viewBox="0 0 64 64" fill="none" xmlns="http://www.w3.org/2000/svg">
<path d="M53.333 13.3333H10.6663C7.72101 13.3333 5.33301 15.7213 5.33301 18.6666V22.6666C5.33301 24.6319 6.41301 26.3333 7.99967 27.2586V50.6666C7.99967 53.6119 10.3877 55.9999 13.333 55.9999H50.6663C53.6117 55.9999 55.9997 53.6119 55.9997 50.6666V27.2586C57.5863 26.3333 58.6663 24.6319 58.6663 22.6666V18.6666C58.6663 15.7213 56.2783 13.3333 53.333 13.3333Z" fill="#BABFFC"/>
<path d="M52.0003 27.9999H12.0003C11.263 27.9999 10.667 27.4026 10.667 26.6666C10.667 25.9306 11.263 25.3333 12.0003 25.3333H52.0003C52.7377 25.3333 53.3337 25.9306 53.3337 26.6666C53.3337 27.4026 52.7377 27.9999 52.0003 27.9999Z" fill="#324561"/>
<path d="M26.6663 14.6667H23.333C20.025 14.6667 17.333 11.9747 17.333 8.66675C17.333 5.35875 20.025 2.66675 23.333 2.66675C28.8183 2.66675 32.5197 7.24808 33.293 10.3427C33.473 11.0574 33.0383 11.7814 32.3223 11.9601C31.6077 12.1401 30.885 11.7041 30.7063 10.9894C30.213 9.01741 27.5437 5.33341 23.333 5.33341C21.4943 5.33341 19.9997 6.82941 19.9997 8.66675C19.9997 10.5041 21.4943 12.0001 23.333 12.0001H26.6663C27.4037 12.0001 27.9997 12.5974 27.9997 13.3334C27.9997 14.0694 27.4037 14.6667 26.6663 14.6667Z" fill="#324561"/>
<path d="M40.6671 14.6667H37.3338C36.5965 14.6667 36.0005 14.0694 36.0005 13.3334C36.0005 12.5974 36.5965 12.0001 37.3338 12.0001H40.6671C42.5058 12.0001 44.0005 10.5041 44.0005 8.66675C44.0005 6.82941 42.5058 5.33341 40.6671 5.33341C36.4565 5.33341 33.7871 9.01742 33.2938 10.9907C33.1151 11.7041 32.3925 12.1414 31.6778 11.9614C30.9631 11.7827 30.5285 11.0587 30.7071 10.3441C31.4805 7.24808 35.1818 2.66675 40.6671 2.66675C43.9751 2.66675 46.6671 5.35875 46.6671 8.66675C46.6671 11.9747 43.9751 14.6667 40.6671 14.6667Z" fill="#324561"/>
</svg>
