<svg width="64" height="64" viewBox="0 0 64 64" fill="none" xmlns="http://www.w3.org/2000/svg">
<path d="M31.5092 7.15734C25.5305 1.17867 15.8038 1.17867 9.82384 7.15734C3.84518 13.1347 3.84518 22.864 9.82384 28.8427C12.8132 31.832 16.7398 33.3267 20.6665 33.3267C24.5932 33.3267 28.5198 31.832 31.5092 28.8427C37.4878 22.864 37.4878 13.136 31.5092 7.15734Z" fill="#F2CA00"/>
<path d="M26.6667 13.736H14.6667C13.9293 13.736 13.3333 14.332 13.3333 15.0693V40.2493C13.3333 40.604 13.4733 40.9426 13.724 41.192L16.552 44.02L13.724 46.848C13.2027 47.3693 13.2027 48.212 13.724 48.7333L16.552 51.5626L13.724 54.3906C13.2027 54.912 13.2027 55.7546 13.724 56.276L19.724 62.276C19.984 62.536 20.3253 62.6666 20.6667 62.6666C21.008 62.6666 21.3493 62.536 21.6093 62.276L27.6093 56.276C27.86 56.0266 28 55.688 28 55.3333V15.0693C28 14.332 27.404 13.736 26.6667 13.736Z" fill="#F2CA00"/>
<path d="M20.667 20C19.0643 20 17.5577 19.376 16.4243 18.2427C15.291 17.1093 14.667 15.6027 14.667 14C14.667 12.3973 15.2923 10.8907 16.4243 9.75733C17.5563 8.624 19.0643 8 20.667 8C22.2697 8 23.7763 8.62533 24.9097 9.75733C26.043 10.8893 26.667 12.3973 26.667 14C26.667 15.6027 26.0417 17.1093 24.9097 18.2427C23.7777 19.376 22.2697 20 20.667 20ZM20.667 10.6667C19.7763 10.6667 18.9403 11.0133 18.3097 11.6427C17.679 12.272 17.3337 13.1093 17.3337 14C17.3337 14.8907 17.6803 15.7267 18.3097 16.3573C19.5697 17.6173 21.763 17.6173 23.023 16.3573C23.6537 15.7267 24.0003 14.8907 24.0003 14C24.0003 13.1093 23.6537 12.2733 23.0243 11.6427C22.395 11.012 21.5577 10.6667 20.667 10.6667Z" fill="#324561"/>
<path d="M56.0003 53.3333H32.0003C31.263 53.3333 30.667 52.7373 30.667 52C30.667 51.2627 31.263 50.6667 32.0003 50.6667H56.0003C56.7363 50.6667 57.3337 50.0693 57.3337 49.3333V40C57.3337 39.264 56.7363 38.6667 56.0003 38.6667H32.0003C31.263 38.6667 30.667 38.0707 30.667 37.3333C30.667 36.596 31.263 36 32.0003 36H56.0003C58.2057 36 60.0003 37.7947 60.0003 40V49.3333C60.0003 51.5387 58.2057 53.3333 56.0003 53.3333Z" fill="#324561"/>
<path d="M55.9997 28.0001H38.6663C37.929 28.0001 37.333 27.4041 37.333 26.6667C37.333 25.9294 37.929 25.3334 38.6663 25.3334H55.9997C56.7357 25.3334 57.333 24.7361 57.333 24.0001V14.6667C57.333 13.9307 56.7357 13.3334 55.9997 13.3334H38.6663C37.929 13.3334 37.333 12.7374 37.333 12.0001C37.333 11.2627 37.929 10.6667 38.6663 10.6667H55.9997C58.205 10.6667 59.9997 12.4614 59.9997 14.6667V24.0001C59.9997 26.2054 58.205 28.0001 55.9997 28.0001Z" fill="#324561"/>
</svg>
