<svg width="64" height="64" viewBox="0 0 64 64" fill="none" xmlns="http://www.w3.org/2000/svg">
<path d="M50.6784 51.7667L49.6651 48.712C48.4251 44.9814 46.0811 41.7974 42.8878 39.5067C39.6998 37.204 35.9358 35.9867 31.9998 35.9867C23.9478 35.9867 16.8478 41.1014 14.3344 48.7134L13.3211 51.7667C13.1518 52.2774 25.2771 58.6667 31.9998 58.6667C38.7224 58.6667 50.8478 52.2774 50.6784 51.7667Z" fill="#6BE3A2"/>
<path d="M32.0003 33.3333C26.855 33.3333 22.667 28.8479 22.667 23.3333C22.667 17.8186 26.855 13.3333 32.0003 13.3333C37.1457 13.3333 41.3337 17.8186 41.3337 23.3333C41.3337 28.8479 37.1457 33.3333 32.0003 33.3333ZM32.0003 15.9999C28.3243 15.9999 25.3337 19.2906 25.3337 23.3333C25.3337 27.3759 28.3243 30.6666 32.0003 30.6666C35.6763 30.6666 38.667 27.3759 38.667 23.3333C38.667 19.2906 35.6763 15.9999 32.0003 15.9999Z" fill="#324561"/>
<path d="M32.0004 59.9999C18.7284 59.9999 7.1871 50.5732 4.55777 37.5839C4.41243 36.8626 4.8791 36.1599 5.60043 36.0132C6.32443 35.8666 7.02443 36.3346 7.17243 37.0559C9.54977 48.8052 19.9911 57.3332 32.0004 57.3332C44.2791 57.3332 54.7644 48.5772 56.9324 36.5132C57.0631 35.7892 57.7551 35.3079 58.4804 35.4359C59.2058 35.5666 59.6871 36.2586 59.5578 36.9839C57.1604 50.3199 45.5724 59.9999 32.0004 59.9999Z" fill="#324561"/>
<path d="M61.6282 45.3827C61.1069 45.3827 60.6109 45.0747 60.3975 44.564L57.7509 38.224L52.1455 42.196C51.5442 42.624 50.7135 42.4814 50.2869 41.88C49.8615 41.28 50.0015 40.448 50.6029 40.0214L57.5682 35.084C57.8989 34.8494 58.3202 34.776 58.7069 34.8894C59.0962 35 59.4135 35.2827 59.5695 35.656L62.8589 43.5334C63.1429 44.2134 62.8215 44.9947 62.1429 45.2787C61.9735 45.3507 61.8002 45.3827 61.6282 45.3827Z" fill="#324561"/>
<path d="M5.75559 28.584C5.67692 28.584 5.59826 28.5773 5.51826 28.5627C4.79292 28.432 4.31159 27.74 4.44092 27.0147C6.83959 13.68 18.4276 4 31.9996 4C45.2716 4 56.8129 13.4267 59.4423 26.416C59.5876 27.1373 59.1209 27.84 58.3996 27.988C57.6836 28.1387 56.9756 27.668 56.8276 26.9453C54.4503 15.1947 44.0089 6.66667 31.9996 6.66667C19.7209 6.66667 9.23559 15.4227 7.06759 27.4867C6.95159 28.132 6.38892 28.584 5.75559 28.584Z" fill="#324561"/>
<path d="M5.66112 29.1614C5.53712 29.1614 5.41312 29.144 5.29445 29.1094C4.90512 28.9987 4.58778 28.716 4.43178 28.3427L1.14245 20.4653C0.858451 19.7853 1.17978 19.004 1.85845 18.72C2.53712 18.4373 3.31978 18.7573 3.60378 19.436L6.25045 25.776L11.8558 21.804C12.4571 21.3774 13.2891 21.5187 13.7145 22.12C14.1398 22.72 13.9998 23.552 13.3985 23.9787L6.43312 28.916C6.20378 29.0774 5.93445 29.1614 5.66112 29.1614Z" fill="#324561"/>
</svg>
