<svg width="64" height="64" viewBox="0 0 64 64" fill="none" xmlns="http://www.w3.org/2000/svg">
<path d="M39.4796 37.9933C38.3209 37.5013 37.0382 37.492 35.8689 37.9653C34.7009 38.4387 33.7862 39.3387 33.2956 40.4987C32.8049 41.66 32.7942 42.9427 33.2676 44.1093C33.7409 45.2773 34.6409 46.192 35.8009 46.6827C36.3916 46.9333 37.0156 47.0587 37.6396 47.0587C38.2396 47.0587 38.8382 46.9427 39.4116 46.7107C40.5796 46.2387 41.4929 45.3373 41.9849 44.1773C42.9996 41.7827 41.8756 39.008 39.4796 37.9933Z" fill="#00B8F2"/>
<path d="M16.2052 28.5947C11.7372 28.5947 8.10254 32.2294 8.10254 36.6974C8.10254 41.1654 11.7385 44.8001 16.2052 44.8001C20.6719 44.8001 24.3065 41.1654 24.3065 36.6974C24.3065 32.2294 20.6732 28.5947 16.2052 28.5947Z" fill="#00B8F2"/>
<path d="M37.6402 48.9027C35.0389 48.9027 32.9229 51.0187 32.9229 53.6214C32.9229 56.224 35.0389 58.34 37.6402 58.34C40.2415 58.34 42.3589 56.224 42.3589 53.6214C42.3589 51.0187 40.2429 48.9027 37.6402 48.9027Z" fill="#00B8F2"/>
<path d="M57.9491 37.62C55.3478 37.62 53.2305 39.736 53.2305 42.3387C53.2305 44.9413 55.3478 47.0573 57.9491 47.0573C60.5505 47.0573 62.6665 44.94 62.6665 42.3387C62.6665 39.7373 60.5505 37.62 57.9491 37.62Z" fill="#00B8F2"/>
<path d="M60.7837 44.6868L57.697 38.6668C57.381 38.0468 56.641 37.7801 55.9983 38.0441L40.7583 44.3908H39.201L40.0037 39.3281C40.0983 38.7281 39.777 38.1401 39.2197 37.8975L19.6077 29.3428C19.4517 29.2748 19.2837 29.2361 19.113 29.2321L13.7317 29.0788C13.553 29.0668 13.3957 29.1015 13.237 29.1588L4.23567 32.4481C2.49967 33.0828 1.33301 34.7508 1.33301 36.6001V50.1375C1.33301 51.1108 1.81834 52.0108 2.63301 52.5441C3.44767 53.0788 4.46767 53.1655 5.35701 52.7761L12.7223 49.5774C13.5103 49.2348 14.4197 49.2254 15.2183 49.5494L35.6677 57.9055C35.8277 57.9708 35.9983 58.0041 36.1717 58.0041C36.185 58.0041 36.1983 58.0041 36.2103 58.0041C39.6103 57.9054 39.6103 57.9055 39.9677 57.7241L60.2437 46.4601C60.873 46.1108 61.1117 45.3268 60.7837 44.6868Z" fill="#00B8F2"/>
<path d="M37.6401 50.1466C36.5961 50.1466 35.5721 49.9386 34.5975 49.5293C33.6828 49.14 29.4588 47.476 23.2935 45.0746C22.6068 44.808 22.2681 44.0346 22.5361 43.3493C22.8041 42.6626 23.5788 42.3226 24.2628 42.5906C30.5428 45.0373 34.6881 46.672 35.6348 47.0733C36.8948 47.6026 38.3135 47.6133 39.5695 47.1026C40.2015 46.8466 40.7628 46.4813 41.2388 46.0133C41.7628 45.4973 42.6081 45.5053 43.1241 46.032C43.6401 46.5586 43.6321 47.4026 43.1055 47.9173C42.3775 48.6306 41.5241 49.188 40.5708 49.5746C39.6375 49.9533 38.6495 50.1466 37.6401 50.1466Z" fill="#324561"/>
<path d="M37.3337 32.0001C31.4523 32.0001 26.667 27.2147 26.667 21.3334C26.667 15.4521 31.4523 10.6667 37.3337 10.6667C43.215 10.6667 48.0003 15.4521 48.0003 21.3334C48.0003 27.2147 43.215 32.0001 37.3337 32.0001ZM37.3337 13.3334C32.9217 13.3334 29.3337 16.9214 29.3337 21.3334C29.3337 25.7454 32.9217 29.3334 37.3337 29.3334C41.7457 29.3334 45.3337 25.7454 45.3337 21.3334C45.3337 16.9214 41.7457 13.3334 37.3337 13.3334Z" fill="#324561"/>
<path d="M48.6669 22.6667C47.9309 22.6667 47.2042 22.5573 46.5082 22.3427C45.8055 22.1253 45.4109 21.3787 45.6269 20.676C45.8442 19.972 46.5869 19.5773 47.2949 19.7947C47.7362 19.9307 48.1962 20 48.6669 20C51.2402 20 53.3335 17.9067 53.3335 15.3333C53.3335 12.76 51.2402 10.6667 48.6669 10.6667C48.1589 10.6667 47.6602 10.748 47.1869 10.9053C46.4909 11.1387 45.7322 10.764 45.4989 10.064C45.2655 9.36533 45.6415 8.60933 46.3402 8.376C47.0869 8.12667 47.8709 8 48.6669 8C52.7095 8 56.0002 11.2893 56.0002 15.3333C56.0002 19.3773 52.7095 22.6667 48.6669 22.6667Z" fill="#324561"/>
<path d="M37.3334 26.6667C36.596 26.6667 36 26.0693 36 25.3333V20.288L35.948 20.3333C35.4 20.8187 34.5574 20.7707 34.0667 20.216C33.58 19.664 33.632 18.8213 34.1854 18.3333L36.452 16.3333C36.844 15.9867 37.404 15.9027 37.8814 16.1173C38.3587 16.332 38.6667 16.8093 38.6667 17.3333V25.3333C38.6667 26.0693 38.0707 26.6667 37.3334 26.6667Z" fill="#324561"/>
</svg>
