<svg width="65" height="64" viewBox="0 0 65 64" fill="none" xmlns="http://www.w3.org/2000/svg">
<path d="M53.8827 18.0067L34.9293 3.51206C33.5 2.42139 31.5 2.42006 30.0693 3.51339L11.1173 18.0054C9.47733 19.2574 8.5 21.2387 8.5 23.3027V50.6667C8.5 54.3427 11.4907 57.3334 15.1667 57.3334H49.8333C53.5093 57.3334 56.5 54.3427 56.5 50.6667V23.3027C56.5 21.2387 55.5227 19.2574 53.8827 18.0067Z" fill="#12D9E3"/>
<path d="M23.8158 41.5801C23.7145 41.2414 23.6465 40.8694 23.6465 40.5134C23.6465 39.5481 24.1878 38.9387 25.0518 38.9387C25.8131 38.9387 26.2878 39.3281 26.5238 40.1401C27.2691 42.6627 29.6718 43.8467 32.7532 43.8467C36.0705 43.8467 38.4745 42.1027 38.4745 39.7001C38.4745 37.6521 37.1198 36.2974 33.7345 35.5534L31.0265 34.9614C26.1345 33.8947 24.0185 31.6774 24.0185 28.2081C24.0185 24.1801 27.5732 21.3521 32.6345 21.3521C36.7145 21.3521 39.9972 23.4 40.8785 26.7014C40.9292 26.888 40.9625 27.1414 40.9625 27.4627C40.9625 28.2921 40.3865 28.8334 39.5745 28.8334C38.7958 28.8334 38.3225 28.4267 38.0505 27.6481C37.2038 25.1761 35.1892 24.0934 32.5492 24.0934C29.5025 24.0934 27.1491 25.5827 27.1491 28.0707C27.1491 30.0001 28.4531 31.3214 31.7878 32.048L34.4958 32.6401C39.5905 33.7574 41.6052 35.7881 41.6052 39.2414C41.6052 43.7614 38.0505 46.5881 32.5825 46.5881C27.9972 46.5894 24.7305 44.5254 23.8158 41.5801Z" fill="#324561"/>
<path d="M32.5003 24.0002C31.763 24.0002 31.167 23.4042 31.167 22.6668V18.6668C31.167 17.9295 31.763 17.3335 32.5003 17.3335C33.2377 17.3335 33.8337 17.9295 33.8337 18.6668V22.6668C33.8337 23.4042 33.2377 24.0002 32.5003 24.0002Z" fill="#324561"/>
<path d="M32.5003 50.6667C31.763 50.6667 31.167 50.0707 31.167 49.3333V45.3333C31.167 44.596 31.763 44 32.5003 44C33.2377 44 33.8337 44.596 33.8337 45.3333V49.3333C33.8337 50.0707 33.2377 50.6667 32.5003 50.6667Z" fill="#324561"/>
</svg>
