<svg width="34" height="34" viewBox="0 0 34 34" fill="none" xmlns="http://www.w3.org/2000/svg">
<path d="M22.2502 16.9899C22.2502 18.3823 21.6971 19.7177 20.7125 20.7023C19.7279 21.6868 18.3926 22.2399 17.0002 22.2399C15.6078 22.2399 14.2725 21.6868 13.2879 20.7023C12.3033 19.7177 11.7502 18.3823 11.7502 16.9899C11.7502 16.6907 11.7817 16.3984 11.8359 16.1149H10.0002V23.1097C10.0002 23.5962 10.3939 23.9899 10.8804 23.9899H23.1217C23.3549 23.9895 23.5783 23.8965 23.743 23.7315C23.9077 23.5665 24.0002 23.3428 24.0002 23.1097V16.1149H22.1644C22.2187 16.3984 22.2502 16.6907 22.2502 16.9899ZM17.0002 20.4899C17.4599 20.4898 17.9152 20.3992 18.3399 20.2231C18.7646 20.0471 19.1504 19.7891 19.4754 19.4639C19.8004 19.1388 20.0582 18.7528 20.234 18.328C20.4099 17.9032 20.5003 17.4479 20.5002 16.9882C20.5001 16.5285 20.4094 16.0732 20.2334 15.6485C20.0573 15.2238 19.7994 14.838 19.4742 14.513C19.149 14.188 18.763 13.9302 18.3382 13.7543C17.9135 13.5785 17.4582 13.4881 16.9984 13.4882C16.07 13.4884 15.1796 13.8575 14.5232 14.5142C13.8668 15.1709 13.4982 16.0615 13.4984 16.9899C13.4987 17.9184 13.8677 18.8088 14.5244 19.4652C15.1812 20.1216 16.0717 20.4902 17.0002 20.4899ZM21.2002 13.3149H23.2984C23.4378 13.3149 23.5716 13.2597 23.6703 13.1613C23.769 13.0629 23.8247 12.9293 23.8252 12.7899V10.6917C23.8252 10.552 23.7697 10.418 23.6709 10.3192C23.5721 10.2204 23.4382 10.1649 23.2984 10.1649H21.2002C21.0605 10.1649 20.9265 10.2204 20.8277 10.3192C20.7289 10.418 20.6734 10.552 20.6734 10.6917V12.7899C20.6752 13.0787 20.9114 13.3149 21.2002 13.3149ZM17.0002 0.189941C12.5446 0.189941 8.27141 1.95994 5.1208 5.11055C1.97019 8.26116 0.200195 12.5343 0.200195 16.9899C0.200195 21.4456 1.97019 25.7187 5.1208 28.8693C8.27141 32.02 12.5446 33.7899 17.0002 33.7899C19.2064 33.7899 21.391 33.3554 23.4293 32.5111C25.4676 31.6668 27.3196 30.4294 28.8796 28.8693C30.4396 27.3093 31.6771 25.4573 32.5214 23.419C33.3657 21.3808 33.8002 19.1962 33.8002 16.9899C33.8002 14.7837 33.3657 12.5991 32.5214 10.5609C31.6771 8.52259 30.4396 6.67057 28.8796 5.11055C27.3196 3.55052 25.4676 2.31304 23.4293 1.46877C21.391 0.624486 19.2064 0.189941 17.0002 0.189941ZM25.7502 23.7957C25.7502 24.8649 24.8752 25.7399 23.8059 25.7399H10.1944C9.1252 25.7399 8.2502 24.8649 8.2502 23.7957V10.1842C8.2502 9.11494 9.1252 8.23994 10.1944 8.23994H23.8059C24.8752 8.23994 25.7502 9.11494 25.7502 10.1842V23.7957Z" fill="white"/>
</svg>
