<svg width="49" height="48" viewBox="0 0 49 48" fill="none" xmlns="http://www.w3.org/2000/svg">
<path d="M24.5488 2C24.1621 1.98793 23.7856 2.12578 23.498 2.38476C23.498 2.38476 15.9902 9 7 9C6.60219 9.00004 6.22068 9.15809 5.93938 9.43938C5.65809 9.72068 5.50004 10.1022 5.5 10.5V22.7598C5.5 29.4378 8.58941 40.4264 23.918 46.8828C24.1022 46.9604 24.3001 47.0003 24.5 47.0003C24.6999 47.0003 24.8978 46.9604 25.082 46.8828C40.4106 40.4264 43.5 29.4378 43.5 22.7598V10.5C43.5 10.1022 43.3419 9.72068 43.0606 9.43938C42.7793 9.15809 42.3978 9.00004 42 9C33.0098 9 25.502 2.38476 25.502 2.38476C25.2395 2.14827 24.9019 2.01201 24.5488 2ZM24.5 5.42773C26.563 7.08636 32.6113 11.3372 40.5 11.875V22.7598C40.5 28.502 38.2934 37.7657 24.5 43.8262C10.7066 37.7657 8.5 28.502 8.5 22.7598V11.875C16.3887 11.3372 22.437 7.08636 24.5 5.42773ZM31.9707 17.9863C31.5811 17.9977 31.2113 18.1602 30.9395 18.4394L22 27.3789L18.0605 23.4394C17.9223 23.2955 17.7568 23.1806 17.5736 23.1014C17.3904 23.0222 17.1932 22.9804 16.9937 22.9784C16.7941 22.9763 16.5962 23.0141 16.4114 23.0896C16.2266 23.165 16.0588 23.2765 15.9177 23.4177C15.7766 23.5588 15.665 23.7266 15.5896 23.9114C15.5141 24.0962 15.4763 24.2941 15.4784 24.4937C15.4804 24.6932 15.5222 24.8904 15.6014 25.0736C15.6806 25.2568 15.7955 25.4223 15.9395 25.5605L20.9395 30.5605C21.2208 30.8417 21.6022 30.9997 22 30.9997C22.3978 30.9997 22.7792 30.8417 23.0605 30.5605L33.0605 20.5605C33.2769 20.3498 33.4247 20.0786 33.4844 19.7825C33.5442 19.4864 33.5131 19.1792 33.3953 18.901C33.2776 18.6228 33.0786 18.3867 32.8244 18.2235C32.5702 18.0603 32.2726 17.9776 31.9707 17.9863Z" fill="#1E2028"/>
</svg>
