<svg width="49" height="48" viewBox="0 0 49 48" fill="none" xmlns="http://www.w3.org/2000/svg">
<path d="M13 4C10.52 4 8.5 6.02 8.5 8.5V39.5C8.5 41.98 10.52 44 13 44H27.0391C26.6931 43.399 26.5 42.732 26.5 42V41H13C12.17 41 11.5 40.33 11.5 39.5V8.5C11.5 7.67 12.17 7 13 7H24.5V15.5C24.5 17.98 26.52 20 29 20H37.5V24C38.51 24 39.521 24.0709 40.5 24.2109V18.5C40.5 18.085 40.3318 17.7107 40.0605 17.4395L27.0605 4.43945C26.7893 4.1682 26.415 4 26 4H13ZM27.5 9.12109L35.3789 17H29C28.17 17 27.5 16.33 27.5 15.5V9.12109ZM19.9805 19.0293C19.6493 19.0345 19.3337 19.1709 19.103 19.4085C18.8723 19.6462 18.7453 19.9657 18.75 20.2969V21.123C16.6683 21.3237 15 23.0411 15 25.1719C15 27.4353 16.8616 29.2969 19.125 29.2969H21.375C22.2876 29.2969 23 30.0093 23 30.9219C23 31.8345 22.2876 32.5469 21.375 32.5469H18.2754C17.6501 32.5469 17.1233 32.2022 16.8477 31.6973C16.6886 31.4061 16.4205 31.1901 16.1022 31.0967C15.7839 31.0033 15.4415 31.0402 15.1504 31.1992C14.8593 31.3582 14.6433 31.6264 14.5499 31.9447C14.4565 32.263 14.4933 32.6054 14.6523 32.8965C15.3527 34.1795 16.7227 35.0469 18.2754 35.0469H18.75V35.75C18.7477 35.9156 18.7783 36.0801 18.84 36.2338C18.9018 36.3875 18.9935 36.5274 19.1098 36.6454C19.2261 36.7633 19.3647 36.857 19.5175 36.9209C19.6703 36.9849 19.8343 37.0178 20 37.0178C20.1657 37.0178 20.3297 36.9849 20.4825 36.9209C20.6353 36.857 20.7739 36.7633 20.8902 36.6454C21.0065 36.5274 21.0982 36.3875 21.16 36.2338C21.2217 36.0801 21.2523 35.9156 21.25 35.75V35.0469H21.375C23.6384 35.0469 25.5 33.1853 25.5 30.9219C25.5 28.6585 23.6384 26.7969 21.375 26.7969H19.125C18.2124 26.7969 17.5 26.0845 17.5 25.1719C17.5 24.2593 18.2124 23.5469 19.125 23.5469H19.7969C19.9301 23.5686 20.066 23.5686 20.1992 23.5469H20.7246C21.3513 23.5469 21.8778 23.8906 22.1523 24.3945C22.2287 24.5425 22.3338 24.6737 22.4616 24.7805C22.5894 24.8873 22.7372 24.9675 22.8963 25.0163C23.0555 25.0652 23.2228 25.0818 23.3885 25.0651C23.5542 25.0484 23.7148 24.9988 23.8611 24.9192C24.0073 24.8396 24.1362 24.7315 24.2401 24.6014C24.344 24.4713 24.4209 24.3218 24.4662 24.1616C24.5115 24.0013 24.5244 23.8337 24.504 23.6684C24.4837 23.5032 24.4305 23.3436 24.3477 23.1992C23.7343 22.0733 22.5659 21.3748 21.25 21.1934V20.2969C21.2524 20.1296 21.2211 19.9635 21.1581 19.8086C21.0951 19.6536 21.0017 19.5128 20.8833 19.3946C20.7649 19.2764 20.624 19.1832 20.4689 19.1204C20.3138 19.0577 20.1477 19.0267 19.9805 19.0293ZM37.5 26C32.529 26 28.5 27.791 28.5 30C28.5 32.209 32.529 34 37.5 34C42.471 34 46.5 32.209 46.5 30C46.5 27.791 42.471 26 37.5 26ZM28.5 33V36C28.5 38.21 32.53 40 37.5 40C42.47 40 46.5 38.21 46.5 36V33C46.5 35.21 42.47 37 37.5 37C32.53 37 28.5 35.21 28.5 33ZM28.5 39V42C28.5 44.21 32.53 46 37.5 46C42.47 46 46.5 44.21 46.5 42V39C46.5 41.21 42.47 43 37.5 43C32.53 43 28.5 41.21 28.5 39Z" fill="#1E2028"/>
</svg>
