<svg width="48" height="48" viewBox="0 0 48 48" fill="none" xmlns="http://www.w3.org/2000/svg">
<path d="M31.4999 3C28.8125 3 26.5023 4.65435 25.5175 7C25.5116 6.99999 25.5059 7 25.4999 7C21.3756 7 17.9999 10.3756 17.9999 14.5C17.9999 18.6244 21.3756 22 25.4999 22C29.163 22 32.2296 19.3347 32.871 15.8496C35.7909 15.2144 37.9999 12.6015 37.9999 9.5C37.9999 5.92806 35.0719 3 31.4999 3ZM31.4999 6C33.45 6 34.9999 7.54994 34.9999 9.5C34.9999 10.9936 34.087 12.2444 32.7851 12.752C32.2342 10.4716 30.6378 8.59001 28.5331 7.65039C29.1478 6.66247 30.236 6 31.4999 6ZM25.4999 10C28.003 10 29.9999 11.997 29.9999 14.5C29.9999 17.003 28.003 19 25.4999 19C22.9969 19 20.9999 17.003 20.9999 14.5C20.9999 11.997 22.9969 10 25.4999 10ZM41.6132 22.0195C40.493 22.0292 39.4291 22.4733 38.4843 23.1758C37.4701 23.9292 34.4184 26.208 31.7773 28.1797C31.2046 26.3515 29.5059 25 27.4999 25H23.1074C20.2961 25 18.9855 24.7722 17.8593 24.5332C16.7332 24.2942 15.6467 24 13.8261 24C9.94133 24 7.01227 26.493 5.09369 28.791C3.17511 31.089 2.1347 33.3848 2.1347 33.3848C2.05296 33.5641 2.00733 33.7577 2.00043 33.9546C1.99353 34.1516 2.02549 34.3479 2.09449 34.5325C2.16349 34.7171 2.26817 34.8862 2.40256 35.0303C2.53695 35.1745 2.69841 35.2907 2.87772 35.3724C3.05703 35.4541 3.25068 35.4997 3.44761 35.5065C3.64454 35.5134 3.84089 35.4814 4.02545 35.4123C4.21001 35.3433 4.37916 35.2386 4.52324 35.1041C4.66732 34.9697 4.78351 34.8082 4.86517 34.6289C4.86517 34.6289 5.76425 32.6698 7.39642 30.7148C9.02859 28.7599 11.2599 27 13.8261 27C15.3475 27 16.0067 27.2058 17.2363 27.4668C18.4659 27.7278 20.1236 28 23.1074 28H27.4999C28.3464 28 28.9999 28.6535 28.9999 29.5C28.9999 29.9695 28.7941 30.3743 28.4706 30.6465L28.4296 30.6777C28.4001 30.7007 28.3714 30.7248 28.3437 30.75C28.1052 30.9086 27.8164 31 27.4999 31H20.4999C20.3012 30.9972 20.1038 31.0339 19.9194 31.108C19.7349 31.1822 19.567 31.2922 19.4255 31.4318C19.2839 31.5713 19.1715 31.7376 19.0948 31.921C19.0181 32.1044 18.9786 32.3012 18.9786 32.5C18.9786 32.6988 19.0181 32.8956 19.0948 33.079C19.1715 33.2624 19.2839 33.4287 19.4255 33.5682C19.567 33.7078 19.7349 33.8178 19.9194 33.892C20.1038 33.9661 20.3012 34.0028 20.4999 34H27.4999C28.4421 34 29.3185 33.701 30.0449 33.1973C30.1074 33.1632 30.1675 33.1247 30.2245 33.082C30.2245 33.082 38.7759 26.6964 40.2734 25.584V25.582C40.8376 25.1625 41.3098 25.0224 41.6406 25.0195C41.9714 25.0166 42.2182 25.0969 42.5605 25.4395C43.1509 26.0293 43.1473 26.9351 42.5722 27.5332C37.2171 32.0362 33.8484 35.0369 31.623 36.7949C29.3698 38.5749 28.4249 39 27.4999 39C23.8478 39 19.8006 38 15.4999 38C12.9999 38 11.2427 39.3436 10.3007 40.5996C9.35872 41.8556 9.04486 43.1367 9.04486 43.1367C8.99191 43.3295 8.97805 43.531 9.00407 43.7292C9.0301 43.9275 9.0955 44.1185 9.19641 44.2911C9.29733 44.4637 9.43174 44.6144 9.59174 44.7344C9.75173 44.8543 9.93409 44.941 10.1281 44.9894C10.3221 45.0379 10.5238 45.047 10.7214 45.0164C10.919 44.9857 11.1084 44.9159 11.2786 44.811C11.4488 44.7061 11.5964 44.5682 11.7125 44.4054C11.8287 44.2427 11.9111 44.0584 11.955 43.8633C11.955 43.8633 12.1412 43.1444 12.6992 42.4004C13.2572 41.6564 13.9999 41 15.4999 41C19.3073 41 23.3361 42 27.4999 42C29.4019 42 31.0848 41.0444 33.4824 39.1504C35.8497 37.2802 39.1754 34.3099 44.498 29.834C44.5631 29.7882 44.6245 29.7372 44.6816 29.6816C44.6885 29.6747 44.6904 29.6651 44.6972 29.6582L44.7011 29.6621L44.7538 29.6074C44.9002 29.4549 45.0127 29.2732 45.0839 29.0742C46.3304 27.3218 46.2488 24.8843 44.6816 23.3184C43.8528 22.4889 42.7334 22.0099 41.6132 22.0195Z" fill="#1E2028"/>
</svg>
