<svg width="76" height="44" viewBox="0 0 76 44" fill="none" xmlns="http://www.w3.org/2000/svg">
<g clip-path="url(#clip0_168_5560)">
<path d="M29.2621 6.83008L14.0063 0.942555C7.2148 0.196923 1.8865 0.881519 0.0339691 2.01316C0.0339691 2.01976 0.0339691 2.02636 0.0339691 2.03296L0.000976562 2.01151L0.0174728 32.7672L10.3013 42.5759L11.6259 42.3829L11.6094 8.66446L1.6671 2.53115L12.7147 1.80036L27.1374 7.88419L27.1538 39.8391L28.4043 40.5353L29.2769 40.3538L29.2604 6.83173L29.2621 6.83008Z" fill="#152D53"/>
<path d="M16.9863 19.1265V39.5324L19.7857 40.9692L17.2239 19.1182C17.2107 18.9879 16.9863 18.9962 16.9863 19.1265Z" fill="#152D53"/>
<path d="M10.5358 3.7749L19.6351 9.01247L21.9792 28.2422C21.9924 28.3725 22.2168 28.3643 22.2168 28.2339V8.75348L10.572 3.70562C10.5176 3.68747 10.4846 3.75511 10.5374 3.77655L10.5358 3.7749Z" fill="#152D53"/>
<path d="M37.1656 10.6029L40.3791 19.633H40.4154V10.6029H42.8535V23.7884H39.8248L36.575 14.5554H36.5387V23.7884H34.1006V10.6029H37.1656Z" fill="#152D53"/>
<path d="M49.4122 17.6944C49.4007 17.3134 49.3759 16.9801 49.338 16.6964C49.3017 16.4011 49.2341 16.1553 49.1351 15.9574C49.0493 15.7479 48.919 15.5945 48.7474 15.4955C48.5874 15.385 48.3779 15.3289 48.1189 15.3289C47.8599 15.3289 47.6455 15.3899 47.4723 15.5136C47.3123 15.6242 47.1836 15.7776 47.0846 15.9755C46.9856 16.1603 46.9114 16.3698 46.8636 16.604C46.8273 16.8383 46.8075 17.0725 46.8075 17.3051V17.6928H49.4106L49.4122 17.6944ZM46.8091 19.2088V20.0023C46.8091 20.2975 46.8273 20.5879 46.8652 20.87C46.9147 21.1405 46.9889 21.3863 47.0863 21.609C47.1852 21.8185 47.3139 21.9901 47.4739 22.1253C47.6339 22.2491 47.8302 22.3101 48.0645 22.3101C48.495 22.3101 48.8101 22.1567 49.0064 21.8482C49.2027 21.5397 49.3396 21.0729 49.4122 20.4444H51.7019C51.6524 21.6008 51.3456 22.4817 50.7781 23.0854C50.2123 23.6892 49.3198 23.9911 48.1008 23.9911C47.177 23.9911 46.4577 23.8376 45.9398 23.5292C45.4234 23.2207 45.0407 22.8149 44.7949 22.3101C44.5491 21.8053 44.3941 21.2395 44.333 20.611C44.2835 19.9825 44.2588 19.3556 44.2588 18.7271C44.2588 18.0623 44.3017 17.4222 44.3875 16.8069C44.4864 16.1916 44.6712 15.6439 44.9417 15.1639C45.2255 14.6839 45.6247 14.3028 46.1427 14.0191C46.659 13.7353 47.3485 13.5951 48.2113 13.5951C48.9503 13.5951 49.5524 13.7188 50.0209 13.9646C50.501 14.1989 50.8771 14.537 51.1476 14.9808C51.4182 15.4113 51.6029 15.9409 51.7019 16.5694C51.8009 17.1847 51.8504 17.8742 51.8504 18.638V19.2104H46.8091V19.2088Z" fill="#152D53"/>
<path d="M53.1787 13.856H55.6169V15.1856H55.6532C55.9121 14.7056 56.2256 14.3245 56.5951 14.0408C56.9646 13.7455 57.4133 13.597 57.9428 13.597C58.0171 13.597 58.0913 13.6036 58.1639 13.6152C58.2497 13.6152 58.3305 13.6218 58.4047 13.6333V16.0715C58.2695 16.0599 58.1342 16.0533 57.9989 16.0533C57.8752 16.0418 57.7465 16.0352 57.6113 16.0352C57.3902 16.0352 57.1675 16.0665 56.9465 16.1276C56.7254 16.1886 56.5225 16.2942 56.3377 16.441C56.153 16.5763 56.0045 16.761 55.894 16.9953C55.7835 17.2163 55.7274 17.4935 55.7274 17.8267V23.7917H53.1787V13.856Z" fill="#152D53"/>
<path d="M61.6736 19.1349C61.6736 19.4797 61.6852 19.8063 61.7099 20.1131C61.7462 20.4216 61.8089 20.6988 61.8947 20.9446C61.9936 21.1788 62.1223 21.3685 62.2823 21.517C62.4555 21.6522 62.6766 21.7199 62.9471 21.7199C63.2177 21.7199 63.4387 21.6522 63.6119 21.517C63.7967 21.3685 63.9385 21.1722 64.0359 20.9264C64.1464 20.6806 64.2206 20.3853 64.2569 20.0406C64.3064 19.6842 64.3312 19.2949 64.3312 18.8776C64.3312 17.6717 64.2322 16.8155 64.0359 16.3107C63.8511 15.806 63.5063 15.5536 63.0016 15.5536C62.7178 15.5536 62.4902 15.6146 62.3186 15.7383C62.147 15.862 62.0101 16.065 61.9128 16.347C61.8138 16.6176 61.7462 16.9871 61.7099 17.4556C61.6852 17.9109 61.6736 18.4718 61.6736 19.1366V19.1349ZM66.771 13.8528V23.2903C66.771 24.5704 66.4509 25.5305 65.8109 26.1706C65.1824 26.8106 64.125 27.1307 62.6353 27.1307C61.5515 27.1307 60.7152 26.8964 60.1246 26.4296C59.5456 25.9743 59.2569 25.321 59.2569 24.4715H61.6951C61.6951 24.7915 61.8237 25.0439 62.0827 25.2286C62.2064 25.3144 62.3351 25.3821 62.4704 25.4315C62.6188 25.481 62.7723 25.5058 62.9323 25.5058C63.4486 25.5058 63.8132 25.3392 64.0227 25.0076C64.2322 24.6744 64.3361 24.262 64.3361 23.7704V22.4589H64.2998C64.0408 22.8284 63.7208 23.1237 63.3397 23.3448C62.9702 23.5658 62.5826 23.678 62.1767 23.678C61.1672 23.678 60.4034 23.2969 59.8871 22.5331C59.3823 21.7578 59.1299 20.4645 59.1299 18.6549C59.1299 18.0759 59.1612 17.4853 59.2223 16.8815C59.2965 16.2778 59.4384 15.7367 59.6462 15.2566C59.8673 14.7634 60.1823 14.3642 60.5882 14.0557C61.0072 13.7472 61.5614 13.5938 62.251 13.5938C62.6073 13.5938 62.9768 13.6928 63.3595 13.8891C63.7406 14.0854 64.0557 14.4434 64.3015 14.9597H64.3378V13.8512H66.7759L66.771 13.8528Z" fill="#152D53"/>
<path d="M68.7428 25.0819C68.9639 25.1182 69.1866 25.138 69.4076 25.138C69.8761 25.138 70.2077 25.0142 70.4057 24.7684C70.6152 24.5227 70.7372 24.196 70.7752 23.7902L67.9873 13.8545H70.6465L72.1246 20.7236H72.1609L73.4542 13.8545H76.0028L73.6026 23.1254C73.3816 23.9502 73.1655 24.615 72.956 25.1198C72.7597 25.6361 72.5188 26.0304 72.2351 26.3009C71.9646 26.5847 71.6313 26.7694 71.2371 26.8552C70.856 26.941 70.3694 26.9839 69.7788 26.9839H68.7445V25.0819H68.7428Z" fill="#152D53"/>
<path d="M37.7896 39.735L33.5781 28.1728H35.9569L39.1621 37.4552L42.3838 28.1728H44.7461L40.5346 39.735H37.7929H37.7896Z" fill="black"/>
<path d="M47.784 31.4096H45.5537V39.7353H47.784V31.4096Z" fill="black"/>
<path d="M52.9914 39.9335C52.2309 39.9335 51.5513 39.7454 50.9508 39.3726C50.3503 38.9982 49.8802 38.4802 49.5387 37.8203C49.1973 37.1605 49.0273 36.4165 49.0273 35.59C49.0273 34.7636 49.1973 33.9899 49.5387 33.335C49.8802 32.6801 50.3586 32.1621 50.9756 31.7827C51.5925 31.4033 52.2804 31.2136 53.0409 31.2136C53.6463 31.2136 54.1725 31.3241 54.6179 31.5435C55.0633 31.7645 55.4246 32.078 55.7001 32.4854V27.8434H57.9304V39.7372H55.9475L55.7001 38.5808C55.5236 38.8348 55.3124 39.0625 55.0633 39.267C54.8159 39.4716 54.5239 39.6333 54.1874 39.7537C53.8509 39.8741 53.4516 39.9351 52.9897 39.9351L52.9914 39.9335ZM53.5193 37.9836C53.9713 37.9836 54.3622 37.8814 54.6922 37.6784C55.0221 37.4755 55.2811 37.1918 55.4691 36.8272C55.6555 36.4643 55.7496 36.0404 55.7496 35.5554C55.7496 35.0704 55.6555 34.6629 55.4691 34.3C55.2811 33.9371 55.0204 33.655 54.6839 33.4571C54.3474 33.2591 53.9548 33.1601 53.5028 33.1601C53.0838 33.1601 52.7077 33.2624 52.3711 33.4653C52.0346 33.6699 51.774 33.9519 51.5859 34.3165C51.3979 34.6794 51.3055 35.0935 51.3055 35.5554C51.3055 36.0173 51.3995 36.461 51.5859 36.819C51.7723 37.177 52.0346 37.4607 52.3711 37.6702C52.7077 37.8797 53.0904 37.9836 53.5193 37.9836Z" fill="black"/>
<path d="M60.6552 43.3694L62.6711 38.8099H62.1762L58.8555 31.4096H61.2672L63.646 36.761L65.7773 31.4096H68.1561L63.0191 43.3694H60.6569H60.6552Z" fill="black"/>
<path d="M71.2094 39.9331C70.5265 39.9331 69.959 39.8193 69.5086 39.5949C69.0566 39.3689 68.7185 39.067 68.4925 38.686C68.2665 38.3066 68.1543 37.8842 68.1543 37.4223C68.1543 36.9044 68.283 36.454 68.542 36.068C68.801 35.682 69.1952 35.3818 69.7231 35.1673C70.251 34.9529 70.924 34.8456 71.7389 34.8456H73.7713C73.7713 34.4266 73.7185 34.0852 73.6146 33.8212C73.509 33.5573 73.3391 33.3593 73.1032 33.2273C72.8656 33.0954 72.5555 33.0294 72.1695 33.0294C71.7505 33.0294 71.3958 33.1168 71.1038 33.2933C70.8118 33.4698 70.6337 33.7503 70.5677 34.1363H68.4034C68.4578 33.5309 68.6541 33.0129 68.989 32.584C69.3255 32.1551 69.7709 31.8186 70.3269 31.5761C70.8828 31.3336 71.503 31.2132 72.186 31.2132C72.9679 31.2132 73.6476 31.3435 74.2266 31.6008C74.8039 31.8598 75.2444 32.2392 75.5479 32.7407C75.8515 33.2422 76.0016 33.8509 76.0016 34.5668V39.7368H74.1342L73.8868 38.4649C73.7647 38.686 73.6195 38.8839 73.4496 39.0588C73.278 39.2353 73.0801 39.3887 72.8557 39.5207C72.6297 39.6526 72.3856 39.7549 72.12 39.8259C71.8561 39.8968 71.5525 39.9331 71.2111 39.9331H71.2094ZM71.7538 38.2158C72.0293 38.2158 72.28 38.163 72.506 38.0591C72.732 37.9552 72.9267 37.8084 73.0916 37.622C73.2566 37.4355 73.3886 37.226 73.4875 36.9951C73.5865 36.7641 73.6525 36.5101 73.6855 36.2346V36.2181H71.9847C71.6317 36.2181 71.348 36.2594 71.1335 36.3418C70.9191 36.4243 70.7624 36.5431 70.6634 36.6965C70.5644 36.8516 70.5149 37.0264 70.5149 37.2244C70.5149 37.4339 70.5644 37.6121 70.6634 37.7605C70.7624 37.909 70.9075 38.0228 71.1005 38.0987C71.2935 38.1762 71.5113 38.2142 71.7538 38.2142V38.2158Z" fill="black"/>
<path d="M47.2644 27.7952H46.0733C45.7864 27.7952 45.5537 28.0279 45.5537 28.3148V29.8259C45.5537 30.1129 45.7864 30.3455 46.0733 30.3455H47.2644C47.5514 30.3455 47.784 30.1129 47.784 29.8259V28.3148C47.784 28.0279 47.5514 27.7952 47.2644 27.7952Z" fill="#FAA51A"/>
</g>
<defs>
<clipPath id="clip0_168_5560">
<rect width="76" height="42.7386" fill="white" transform="translate(0 0.630722)"/>
</clipPath>
</defs>
</svg>
