<svg width="76" height="44" viewBox="0 0 76 44" fill="none" xmlns="http://www.w3.org/2000/svg">
<g clip-path="url(#clip0_168_6023)">
<path d="M29.2621 6.65053L14.0063 0.763005C7.2148 0.0173731 1.8865 0.701969 0.0339691 1.83361C0.0339691 1.84021 0.0339691 1.84681 0.0339691 1.85341L0.000976562 1.83196L0.0174728 32.5876L10.3013 42.3963L11.6259 42.2033L11.6094 8.48491L1.6671 2.3516L12.7147 1.62081L27.1374 7.70464L27.1538 39.6596L28.4043 40.3557L29.2769 40.1743L29.2604 6.65218L29.2621 6.65053Z" fill="white"/>
<path d="M16.9863 18.9467V39.3526L19.7857 40.7894L17.2239 18.9384C17.2107 18.8081 16.9863 18.8164 16.9863 18.9467Z" fill="white"/>
<path d="M10.5358 3.59529L19.6351 8.83286L21.9792 28.0626C21.9924 28.1929 22.2168 28.1846 22.2168 28.0543V8.57387L10.572 3.52601C10.5176 3.50786 10.4846 3.5755 10.5374 3.59694L10.5358 3.59529Z" fill="white"/>
<path d="M37.1656 10.4233L40.3791 19.4534H40.4154V10.4233H42.8535V23.6088H39.8248L36.575 14.3758H36.5387V23.6088H34.1006V10.4233H37.1656Z" fill="white"/>
<path d="M49.4122 17.5149C49.4007 17.1338 49.3759 16.8006 49.338 16.5168C49.3017 16.2215 49.2341 15.9758 49.1351 15.7778C49.0493 15.5683 48.919 15.4149 48.7474 15.3159C48.5874 15.2054 48.3779 15.1493 48.1189 15.1493C47.8599 15.1493 47.6455 15.2103 47.4723 15.334C47.3123 15.4446 47.1836 15.598 47.0846 15.7959C46.9856 15.9807 46.9114 16.1902 46.8636 16.4244C46.8273 16.6587 46.8075 16.8929 46.8075 17.1255V17.5132H49.4106L49.4122 17.5149ZM46.8091 19.0292V19.8227C46.8091 20.118 46.8273 20.4083 46.8652 20.6904C46.9147 20.9609 46.9889 21.2067 47.0863 21.4294C47.1852 21.6389 47.3139 21.8105 47.4739 21.9458C47.6339 22.0695 47.8302 22.1305 48.0645 22.1305C48.495 22.1305 48.8101 21.9771 49.0064 21.6686C49.2027 21.3601 49.3396 20.8933 49.4122 20.2648H51.7019C51.6524 21.4212 51.3456 22.3021 50.7781 22.9058C50.2123 23.5096 49.3198 23.8115 48.1008 23.8115C47.177 23.8115 46.4577 23.6581 45.9398 23.3496C45.4234 23.0411 45.0407 22.6353 44.7949 22.1305C44.5491 21.6257 44.3941 21.0599 44.333 20.4314C44.2835 19.8029 44.2588 19.176 44.2588 18.5475C44.2588 17.8827 44.3017 17.2427 44.3875 16.6274C44.4864 16.012 44.6712 15.4644 44.9417 14.9843C45.2255 14.5043 45.6247 14.1232 46.1427 13.8395C46.659 13.5557 47.3485 13.4155 48.2113 13.4155C48.9503 13.4155 49.5524 13.5393 50.0209 13.785C50.501 14.0193 50.8771 14.3575 51.1476 14.8012C51.4182 15.2318 51.6029 15.7613 51.7019 16.3898C51.8009 17.0051 51.8504 17.6947 51.8504 18.4584V19.0309H46.8091V19.0292Z" fill="white"/>
<path d="M53.1787 13.6765H55.6169V15.0061H55.6532C55.9121 14.526 56.2256 14.145 56.5951 13.8612C56.9646 13.5659 57.4133 13.4175 57.9428 13.4175C58.0171 13.4175 58.0913 13.4241 58.1639 13.4356C58.2497 13.4356 58.3305 13.4422 58.4047 13.4538V15.8919C58.2695 15.8804 58.1342 15.8738 57.9989 15.8738C57.8752 15.8622 57.7465 15.8556 57.6113 15.8556C57.3902 15.8556 57.1675 15.887 56.9465 15.948C56.7254 16.009 56.5225 16.1146 56.3377 16.2614C56.153 16.3967 56.0045 16.5815 55.894 16.8157C55.7835 17.0368 55.7274 17.3139 55.7274 17.6471V23.6122H53.1787V13.6765Z" fill="white"/>
<path d="M61.6736 18.9554C61.6736 19.3002 61.6852 19.6268 61.7099 19.9336C61.7462 20.2421 61.8089 20.5193 61.8947 20.765C61.9936 20.9993 62.1223 21.189 62.2823 21.3375C62.4555 21.4727 62.6766 21.5404 62.9471 21.5404C63.2177 21.5404 63.4387 21.4727 63.6119 21.3375C63.7967 21.189 63.9385 20.9927 64.0359 20.7469C64.1464 20.5011 64.2206 20.2058 64.2569 19.8611C64.3064 19.5047 64.3312 19.1154 64.3312 18.6981C64.3312 17.4922 64.2322 16.636 64.0359 16.1312C63.8511 15.6265 63.5063 15.3741 63.0016 15.3741C62.7178 15.3741 62.4902 15.4351 62.3186 15.5588C62.147 15.6825 62.0101 15.8854 61.9128 16.1675C61.8138 16.4381 61.7462 16.8076 61.7099 17.2761C61.6852 17.7314 61.6736 18.2923 61.6736 18.9571V18.9554ZM66.771 13.6733V23.1108C66.771 24.3909 66.4509 25.351 65.8109 25.9911C65.1824 26.6311 64.125 26.9512 62.6353 26.9512C61.5515 26.9512 60.7152 26.7169 60.1246 26.2501C59.5456 25.7948 59.2569 25.1415 59.2569 24.292H61.6951C61.6951 24.612 61.8237 24.8644 62.0827 25.0491C62.2064 25.1349 62.3351 25.2025 62.4704 25.252C62.6188 25.3015 62.7723 25.3263 62.9323 25.3263C63.4486 25.3263 63.8132 25.1597 64.0227 24.8281C64.2322 24.4949 64.3361 24.0824 64.3361 23.5909V22.2794H64.2998C64.0408 22.6489 63.7208 22.9442 63.3397 23.1653C62.9702 23.3863 62.5826 23.4985 62.1767 23.4985C61.1672 23.4985 60.4034 23.1174 59.8871 22.3536C59.3823 21.5783 59.1299 20.285 59.1299 18.4754C59.1299 17.8963 59.1612 17.3058 59.2223 16.702C59.2965 16.0983 59.4384 15.5572 59.6462 15.0771C59.8673 14.5839 60.1823 14.1847 60.5882 13.8762C61.0072 13.5677 61.5614 13.4143 62.251 13.4143C62.6073 13.4143 62.9768 13.5133 63.3595 13.7096C63.7406 13.9059 64.0557 14.2639 64.3015 14.7802H64.3378V13.6716H66.7759L66.771 13.6733Z" fill="white"/>
<path d="M68.7428 24.9024C68.9639 24.9387 69.1866 24.9585 69.4076 24.9585C69.8761 24.9585 70.2077 24.8348 70.4057 24.589C70.6152 24.3432 70.7372 24.0166 70.7752 23.6108L67.9873 13.675H70.6465L72.1246 20.5441H72.1609L73.4542 13.675H76.0028L73.6026 22.946C73.3816 23.7708 73.1655 24.4356 72.956 24.9404C72.7597 25.4567 72.5188 25.851 72.2351 26.1215C71.9646 26.4052 71.6313 26.59 71.2371 26.6758C70.856 26.7615 70.3694 26.8044 69.7788 26.8044H68.7445V24.9024H68.7428Z" fill="white"/>
<path d="M37.7896 39.5554L33.5781 27.9932H35.9569L39.1621 37.2756L42.3838 27.9932H44.7461L40.5346 39.5554H37.7929H37.7896Z" fill="white"/>
<path d="M47.784 31.2302H45.5537V39.5559H47.784V31.2302Z" fill="white"/>
<path d="M52.9914 39.7539C52.2309 39.7539 51.5513 39.5659 50.9508 39.1931C50.3503 38.8186 49.8802 38.3006 49.5387 37.6408C49.1973 36.9809 49.0273 36.2369 49.0273 35.4105C49.0273 34.584 49.1973 33.8103 49.5387 33.1554C49.8802 32.5005 50.3586 31.9825 50.9756 31.6031C51.5925 31.2237 52.2804 31.034 53.0409 31.034C53.6463 31.034 54.1725 31.1445 54.6179 31.3639C55.0633 31.585 55.4246 31.8984 55.7001 32.3059V27.6638H57.9304V39.5576H55.9475L55.7001 38.4012C55.5236 38.6553 55.3124 38.8829 55.0633 39.0875C54.8159 39.292 54.5239 39.4537 54.1874 39.5741C53.8509 39.6946 53.4516 39.7556 52.9897 39.7556L52.9914 39.7539ZM53.5193 37.8041C53.9713 37.8041 54.3622 37.7018 54.6922 37.4989C55.0221 37.296 55.2811 37.0123 55.4691 36.6477C55.6555 36.2848 55.7496 35.8608 55.7496 35.3758C55.7496 34.8908 55.6555 34.4834 55.4691 34.1205C55.2811 33.7575 55.0204 33.4755 54.6839 33.2775C54.3474 33.0795 53.9548 32.9806 53.5028 32.9806C53.0838 32.9806 52.7077 33.0828 52.3711 33.2857C52.0346 33.4903 51.774 33.7724 51.5859 34.137C51.3979 34.4999 51.3055 34.9139 51.3055 35.3758C51.3055 35.8377 51.3995 36.2815 51.5859 36.6394C51.7723 36.9974 52.0346 37.2811 52.3711 37.4906C52.7077 37.7002 53.0904 37.8041 53.5193 37.8041Z" fill="white"/>
<path d="M60.6552 43.19L62.6711 38.6305H62.1762L58.8555 31.2302H61.2672L63.646 36.5816L65.7773 31.2302H68.1561L63.0191 43.19H60.6569H60.6552Z" fill="white"/>
<path d="M71.2094 39.7536C70.5265 39.7536 69.959 39.6398 69.5086 39.4155C69.0566 39.1895 68.7185 38.8876 68.4925 38.5065C68.2665 38.1271 68.1543 37.7048 68.1543 37.2429C68.1543 36.7249 68.283 36.2746 68.542 35.8885C68.801 35.5025 69.1952 35.2023 69.7231 34.9878C70.251 34.7734 70.924 34.6662 71.7389 34.6662H73.7713C73.7713 34.2472 73.7185 33.9057 73.6146 33.6418C73.509 33.3778 73.3391 33.1799 73.1032 33.0479C72.8656 32.9159 72.5555 32.8499 72.1695 32.8499C71.7505 32.8499 71.3958 32.9374 71.1038 33.1139C70.8118 33.2904 70.6337 33.5708 70.5677 33.9568H68.4034C68.4578 33.3514 68.6541 32.8334 68.989 32.4045C69.3255 31.9756 69.7709 31.6391 70.3269 31.3966C70.8828 31.1541 71.503 31.0337 72.186 31.0337C72.9679 31.0337 73.6476 31.164 74.2266 31.4214C74.8039 31.6803 75.2444 32.0598 75.5479 32.5612C75.8515 33.0627 76.0016 33.6714 76.0016 34.3874V39.5573H74.1342L73.8868 38.2855C73.7647 38.5065 73.6195 38.7045 73.4496 38.8793C73.278 39.0558 73.0801 39.2092 72.8557 39.3412C72.6297 39.4732 72.3856 39.5755 72.12 39.6464C71.8561 39.7173 71.5525 39.7536 71.2111 39.7536H71.2094ZM71.7538 38.0364C72.0293 38.0364 72.28 37.9836 72.506 37.8796C72.732 37.7757 72.9267 37.6289 73.0916 37.4425C73.2566 37.2561 73.3886 37.0466 73.4875 36.8156C73.5865 36.5847 73.6525 36.3306 73.6855 36.0552V36.0387H71.9847C71.6317 36.0387 71.348 36.0799 71.1335 36.1624C70.9191 36.2449 70.7624 36.3636 70.6634 36.5171C70.5644 36.6721 70.5149 36.847 70.5149 37.0449C70.5149 37.2544 70.5644 37.4326 70.6634 37.5811C70.7624 37.7295 70.9075 37.8434 71.1005 37.9192C71.2935 37.9968 71.5113 38.0347 71.7538 38.0347V38.0364Z" fill="white"/>
<path d="M47.2644 27.6157H46.0733C45.7864 27.6157 45.5537 27.8484 45.5537 28.1354V29.6464C45.5537 29.9334 45.7864 30.166 46.0733 30.166H47.2644C47.5514 30.166 47.784 29.9334 47.784 29.6464V28.1354C47.784 27.8484 47.5514 27.6157 47.2644 27.6157Z" fill="#FAA51A"/>
</g>
<defs>
<clipPath id="clip0_168_6023">
<rect width="76" height="42.7386" fill="white" transform="translate(0 0.451172)"/>
</clipPath>
</defs>
</svg>
