<svg width="24" height="24" viewBox="0 0 24 24" fill="none" xmlns="http://www.w3.org/2000/svg">
<path d="M20.4186 20.4188C19.9873 20.85 19.2748 20.85 18.8248 20.4188L16.4436 18.0375C16.0123 17.6063 16.0123 16.8938 16.4436 16.4438C16.8748 16.0125 17.5873 16.0125 18.0373 16.4438L20.4186 18.825C20.8498 19.275 20.8498 19.9875 20.4186 20.4188Z" fill="white"/>
<path d="M5.16277 5.17293C3.93208 6.40366 3.24071 8.07287 3.24074 9.81335C3.24077 11.5538 3.9322 13.223 5.16293 14.4537C6.39366 15.6844 8.06287 16.3758 9.80335 16.3757C11.5438 16.3757 13.213 15.6843 14.4437 14.4535C15.6744 13.2228 16.3658 11.5536 16.3657 9.81312C16.3657 8.07264 15.6743 6.40346 14.4435 5.17277C13.2128 3.94208 11.5436 3.25071 9.80312 3.25074C8.06264 3.25077 6.39345 3.9422 5.16277 5.17293Z" fill="white"/>
<path d="M5.16277 5.17293C3.93208 6.40366 3.24071 8.07287 3.24074 9.81335C3.24077 11.5538 3.9322 13.223 5.16293 14.4537C6.39366 15.6844 8.06287 16.3758 9.80335 16.3757C11.5438 16.3757 13.213 15.6843 14.4437 14.4535C15.6744 13.2228 16.3658 11.5536 16.3657 9.81312C16.3657 8.07264 15.6743 6.40346 14.4435 5.17277C13.2128 3.94208 11.5436 3.25071 9.80312 3.25074C8.06264 3.25077 6.39345 3.9422 5.16277 5.17293Z" fill="white"/>
<path d="M9.80664 15.8062C9.48789 15.8062 9.24414 15.5625 9.24414 15.2437C9.24414 14.925 9.48789 14.6812 9.80664 14.6812C11.1004 14.6812 12.3379 14.175 13.2566 13.2562C14.4566 12.0562 14.9441 10.35 14.5504 8.6812C14.4754 8.3812 14.6629 8.0812 14.9629 8.0062C15.2629 7.9312 15.5629 8.1187 15.6379 8.4187C16.1254 10.4625 15.5441 12.5812 14.0629 14.0625C12.9191 15.1875 11.4191 15.8062 9.80664 15.8062ZM13.6879 6.56245C13.5379 6.56245 13.4066 6.5062 13.2941 6.3937L13.2566 6.37495C13.0316 6.14995 13.0316 5.7937 13.2566 5.58745C13.4816 5.36245 13.8379 5.36245 14.0441 5.58745L14.0816 5.62495C14.3066 5.84995 14.3066 6.2062 14.0816 6.41245C13.9691 6.5062 13.8379 6.56245 13.6879 6.56245Z" fill="black"/>
<path d="M9.80664 16.9312C7.98789 16.9312 6.15039 16.2375 4.76289 14.85C1.98789 12.075 1.98789 7.5562 4.76289 4.7812C7.53789 2.0062 12.0566 2.0062 14.8316 4.7812C17.6254 7.5562 17.6254 12.075 14.8504 14.85C13.4629 16.2375 11.6441 16.9312 9.80664 16.9312ZM9.80664 3.82495C8.26914 3.82495 6.73164 4.4062 5.56914 5.58745C3.22539 7.9312 3.22539 11.7375 5.56914 14.0812C7.91289 16.3875 11.7191 16.3875 14.0629 14.0625C16.4066 11.7187 16.4066 7.91245 14.0629 5.5687C12.8816 4.4062 11.3441 3.82495 9.80664 3.82495ZM20.8129 18.4312L18.4316 16.05C18.1129 15.7312 17.6816 15.5625 17.2316 15.5625C16.9691 15.5625 16.7254 15.6187 16.5004 15.7312L16.0316 15.2625C15.8066 15.0375 15.4504 15.0375 15.2441 15.2625C15.0191 15.4875 15.0191 15.8437 15.2441 16.05L15.7129 16.5187C15.6004 16.7437 15.5441 16.9875 15.5441 17.25C15.5441 17.7 15.7129 18.1312 16.0316 18.45L18.4316 20.8125C18.7691 21.15 19.2004 21.3 19.6316 21.3C20.0629 21.3 20.4941 21.1312 20.8316 20.8125C21.4691 20.1562 21.4691 19.0875 20.8129 18.4312ZM20.0254 20.025C19.8004 20.25 19.4441 20.25 19.2379 20.025L16.8379 17.6437C16.7254 17.5312 16.6691 17.4 16.6691 17.25C16.6691 17.1 16.7254 16.95 16.8379 16.8562C16.9504 16.7437 17.0816 16.6875 17.2316 16.6875C17.3816 16.6875 17.5316 16.7437 17.6254 16.8562L20.0066 19.2375C20.2504 19.4437 20.2504 19.8 20.0254 20.025Z" fill="#444B54"/>
</svg>
