<svg width="35" height="34" viewBox="0 0 35 34" fill="none" xmlns="http://www.w3.org/2000/svg">
<path d="M17.3996 0.189941C8.12111 0.189941 0.599609 7.71144 0.599609 16.9899C0.599609 26.2684 8.12111 33.7899 17.3996 33.7899C26.6781 33.7899 34.1996 26.2684 34.1996 16.9899C34.1996 7.71144 26.6781 0.189941 17.3996 0.189941ZM24.2334 13.9519C24.2404 14.0954 24.2421 14.2389 24.2421 14.3789C24.2421 18.7539 20.9154 23.7957 14.8289 23.7957C13.0304 23.7987 11.2693 23.2822 9.75736 22.3082C10.0146 22.3397 10.2789 22.3519 10.5466 22.3519C12.0971 22.3519 13.5234 21.8252 14.6556 20.9362C13.9656 20.9226 13.297 20.6942 12.7431 20.2826C12.1891 19.871 11.7773 19.2969 11.5651 18.6402C12.0606 18.7344 12.5711 18.7147 13.0579 18.5824C12.3089 18.431 11.6355 18.0252 11.1516 17.4339C10.6677 16.8425 10.4033 16.102 10.4031 15.3379V15.2977C10.8494 15.5444 11.3604 15.6949 11.9029 15.7124C11.2008 15.2451 10.7037 14.5271 10.5134 13.7054C10.3231 12.8837 10.454 12.0204 10.8791 11.2919C11.7103 12.3139 12.7468 13.15 13.9216 13.746C15.0964 14.342 16.3833 14.6846 17.6989 14.7517C17.5316 14.0417 17.6036 13.2964 17.9036 12.6316C18.2037 11.9667 18.7149 11.4197 19.358 11.0754C20.001 10.7311 20.7398 10.609 21.4594 10.7279C22.1791 10.8468 22.8393 11.2001 23.3374 11.7329C24.0779 11.5864 24.7881 11.3148 25.4374 10.9297C25.1905 11.6964 24.6738 12.3475 23.9831 12.7619C24.6391 12.6829 25.2796 12.5066 25.8836 12.2387C25.44 12.9035 24.8811 13.4837 24.2334 13.9519Z" fill="white"/>
</svg>
